<svg width="60" height="60" viewBox="0 0 60 60" fill="none" xmlns="http://www.w3.org/2000/svg">
                  <rect width="60" height="60" rx="4" fill="#262626" />
                  <path
                    d="M17.0989 26.911C16.6448 30.3843 16.369 33.9138 16.2809 37.4898C21.1075 39.505 25.6982 41.9724 30 44.8392C34.3018 41.9724 38.8925 39.505 43.7191 37.4898C43.631 33.9138 43.3552 30.3844 42.9011 26.911M17.0989 26.911C15.6394 26.4204 14.1622 25.9683 12.6685 25.556C18.0774 21.7647 23.879 18.4952 30.0001 15.8208C36.1211 18.4952 41.9227 21.7647 47.3317 25.5561C45.8379 25.9684 44.3607 26.4204 42.9011 26.911M17.0989 26.911C21.5776 28.4164 25.8897 30.2847 30.0001 32.4809C34.1105 30.2847 38.4225 28.4164 42.9011 26.911M21.25 34.9999C21.9404 34.9999 22.5 34.4402 22.5 33.7499C22.5 33.0595 21.9404 32.4999 21.25 32.4999C20.5596 32.4999 20 33.0595 20 33.7499C20 34.4402 20.5596 34.9999 21.25 34.9999ZM21.25 34.9999V28.874C24.0691 27.1224 26.9894 25.5181 30 24.072M18.3211 43.3209C20.2737 41.3683 21.25 38.8091 21.25 36.2499V33.7499"
                    stroke="#00A7D0" stroke-width="2" stroke-linecap="round" stroke-linejoin="round" />
                </svg>