<svg width="160" height="35" viewBox="0 0 160 35" fill="none" xmlns="http://www.w3.org/2000/svg">
<path d="M85.0266 35C84.8941 34.5151 84.6448 34.0301 84.6448 33.5452C84.6224 25.7008 84.6291 17.8587 84.6314 10.0144C84.6314 9.82806 84.564 9.59457 84.6516 9.4666C84.8582 9.168 85.1411 8.91879 85.3926 8.65163C85.6351 8.92553 86.064 9.18596 86.0887 9.47782C86.1763 10.4948 86.1224 11.5231 86.1224 12.841C88.0536 10.093 90.3688 8.58877 93.5148 8.43834C96.598 8.29241 99.3399 8.93226 101.601 11.1953C104.99 14.5876 105.062 22.2861 101.006 25.7188C97.5367 28.6531 89.9893 29.2885 86.2145 23.5837C86.1786 24.0305 86.1336 24.3381 86.1314 24.6434C86.1269 27.6181 86.1494 30.5906 86.1112 33.5654C86.1045 34.0458 85.8417 34.5218 85.6958 35H85.0221H85.0266ZM102.569 18.1663C102.809 13.4224 99.3533 9.76295 94.3412 9.78764C89.511 9.81009 86.1336 13.2428 86.1292 18.1596C86.1247 23.092 89.4616 26.4866 94.3188 26.536C99.4499 26.5899 102.856 22.6767 102.567 18.1663H102.569Z" fill="white"/>
<path d="M27.8094 25.6043C27.367 26.1454 27.0369 26.7628 26.5249 27.1265C25.6828 27.7259 24.7262 27.7439 23.7808 27.2118C22.8197 26.6707 22.5031 25.8243 22.5008 24.7938C22.4986 18.5929 22.4941 12.3897 22.4918 6.18877C22.4918 5.0752 22.4761 3.95939 22.5008 2.84583C22.539 1.10364 23.4799 0.0439549 24.9889 0.00129819C26.5698 -0.0413585 27.5983 0.968932 27.6499 2.77847C27.7061 4.81926 27.6499 6.86229 27.6589 8.90532C27.6611 9.41047 27.7353 9.91561 27.7891 10.5959C28.4763 10.1109 28.9658 9.65967 29.5407 9.37904C34.5932 6.91168 41.2222 8.95022 42.3831 15.9392C42.7873 18.3661 42.5695 20.7616 41.5388 23.0202C40.3486 25.629 37.3059 27.9392 33.5805 27.7506C31.5437 27.6473 29.6799 27.2006 28.1709 25.7413C28.0766 25.6492 27.9037 25.638 27.8094 25.6043ZM37.2992 18.1618C37.3508 15.1287 35.3747 12.9555 32.5543 12.9442C29.7922 12.933 27.733 15.0524 27.6634 17.9755C27.5983 20.8245 29.6732 23.0965 32.3656 23.1908C34.7684 23.2761 37.4182 21.3566 37.2969 18.1618H37.2992Z" fill="white"/>
<path d="M14.6705 10.6228C15.1533 10.0324 15.4991 9.34761 16.0538 8.97941C17.7941 7.82319 20.0352 9.01309 20.0644 11.1482C20.125 15.7169 20.0936 20.2879 20.0599 24.8567C20.0487 26.2666 19.357 27.1557 18.214 27.47C16.9655 27.8157 15.946 27.3532 15.1286 26.0803C15.0118 25.8984 14.8659 25.7345 14.7783 25.6223C13.8037 26.1701 12.9347 26.8548 11.9444 27.1826C7.29379 28.7227 2.67016 27.012 0.8984 22.7485C-0.752097 18.7792 -0.386069 12.3223 4.18367 9.59906C7.30278 7.74012 11.3942 8.00729 14.6705 10.6251V10.6228ZM14.9063 18.1551C14.9849 15.214 13.011 12.96 9.98175 12.9757C7.32972 12.9891 5.27727 14.7201 5.26604 18.09C5.25706 20.9704 7.24664 23.1572 9.91663 23.1818C12.7326 23.2065 14.8726 21.0535 14.9063 18.1573V18.1551Z" fill="white"/>
<path d="M153.541 9.35883C154.633 10.7306 155.58 11.916 156.519 13.1104C156.699 13.3394 156.878 13.5841 156.993 13.849C157.282 14.5225 157.303 15.1736 156.571 15.589C155.883 15.9796 155.228 15.818 154.785 15.2028C154.004 14.1207 153.294 12.9891 152.553 11.8778C151.675 10.56 151.608 10.5577 150.721 11.8913C150.146 12.7557 149.582 13.629 149.012 14.4956C148.891 14.6819 148.774 14.8728 148.635 15.0434C148.076 15.7259 147.355 16.0851 146.593 15.5104C145.825 14.9289 146.048 14.0892 146.513 13.4202C147.103 12.5671 147.815 11.7992 148.464 10.9843C148.855 10.4926 149.221 9.98521 149.74 9.29821C148.729 8.97941 147.871 8.68979 147 8.43834C146.214 8.21159 145.419 8.01402 144.624 7.82543C143.627 7.5897 143.409 6.88025 143.605 6.0361C143.816 5.11786 144.584 5.08643 145.3 5.30195C146.472 5.65443 147.615 6.1057 148.774 6.50532C149.286 6.68268 149.807 6.83086 150.519 7.05312C150.463 5.91935 150.406 4.97417 150.371 4.02674C150.339 3.20953 150.305 2.39456 150.312 1.57735C150.319 0.721972 150.833 0.223562 151.642 0.250503C152.403 0.277444 152.991 0.690541 152.964 1.59082C152.928 2.8144 152.881 4.04021 152.85 5.26379C152.836 5.80261 152.847 6.33919 152.847 7.10027C154.282 6.57941 155.52 6.12366 156.764 5.67913C157.184 5.52871 157.61 5.40298 158.039 5.27726C158.769 5.06398 159.407 5.18072 159.678 5.96426C159.993 6.86903 159.582 7.57623 158.632 7.83891C157.343 8.19587 156.043 8.51468 154.752 8.87165C154.408 8.96594 154.085 9.13657 153.548 9.35434L153.541 9.35883Z" fill="white"/>
<path d="M131.88 8.43834C137.092 8.10383 141.732 12.0821 141.642 18.3594C141.554 24.4144 137.227 27.9392 132.188 27.9482C126.017 27.9616 122.031 24.0844 122.058 18.0877C122.088 11.696 126.844 8.12852 131.878 8.43834H131.88ZM123.608 18.1843C123.61 23.0449 126.994 26.4687 131.851 26.5293C136.643 26.5899 140.164 23 140.117 18.099C140.07 13.2294 136.708 9.81907 131.937 9.80336C127.05 9.78764 123.603 13.2541 123.606 18.1843H123.608Z" fill="white"/>
<path d="M54.6193 27.9257C49.816 27.809 46.3488 25.3865 45.2867 21.1119C44.1729 16.6262 45.2597 11.5545 50.301 9.2578C53.6694 7.72216 58.6478 8.10383 61.6861 11.0606C62.0005 11.3659 62.2789 12.1607 62.1038 12.4279C61.621 13.1732 61.0888 12.6479 60.6778 12.1854C57.6777 8.7998 50.4111 8.80878 47.6423 13.528C45.244 17.6185 46.1579 24.3336 51.9538 26.1094C55.0167 27.0479 58.7556 26.5742 61.0259 23.7364C61.3964 23.2739 61.8568 22.9035 62.2946 23.3974C62.5012 23.6309 62.4092 24.4189 62.1621 24.7085C60.195 27.012 57.6059 27.9549 54.6148 27.9235L54.6193 27.9257Z" fill="white"/>
<path d="M109.303 10.3759C109.205 10.5487 109.135 10.6138 109.137 10.6767C109.162 14.426 109.124 18.1775 109.247 21.9246C109.317 24.0417 110.464 25.6043 112.526 26.2576C114.96 27.0299 117.208 26.2644 118.616 24.3852C118.991 23.8846 119.328 22.9753 120.114 23.5276C120.92 24.0956 120.224 24.8163 119.86 25.3641C118.45 27.4812 115.178 28.487 112.326 27.7304C109.568 26.9985 107.75 24.8859 107.7 21.8842C107.599 15.8292 107.646 9.77417 107.684 3.71692C107.684 3.37567 108.163 3.03666 108.419 2.69765C108.643 3.02992 109.041 3.35322 109.061 3.69672C109.14 5.06622 109.137 6.44471 109.088 7.8187C109.059 8.63591 109.33 8.93227 110.173 8.91879C112.786 8.87614 115.4 8.90083 118.014 8.90532C118.56 8.90532 119.319 8.79307 119.193 9.61253C119.146 9.92235 118.398 10.3287 117.96 10.3399C115.461 10.4095 112.957 10.3759 110.455 10.3759C110.051 10.3759 109.647 10.3759 109.303 10.3759Z" fill="white"/>
<path d="M67.2102 12.7265C68.9258 9.89765 71.369 8.60448 74.515 8.56632C74.8653 8.56182 75.2224 9.01758 75.5772 9.26005C75.2516 9.49803 74.9237 9.9448 74.5981 9.9448C69.7275 9.92459 67.4886 13.8153 67.3112 17.632C67.181 20.4496 67.2371 23.2761 67.2102 26.0982C67.2079 26.3946 67.2776 26.7268 67.1653 26.9783C67.0485 27.2365 66.7206 27.6137 66.5433 27.5845C66.2626 27.5373 65.9055 27.241 65.809 26.9693C65.6787 26.6056 65.7618 26.1633 65.7618 25.7547C65.7618 20.6292 65.7618 15.5036 65.7618 10.3781C65.7618 10.1177 65.6787 9.81458 65.7843 9.60804C65.9594 9.26454 66.2558 8.9839 66.5028 8.67632C66.7386 8.99513 67.1518 9.29821 67.181 9.63498C67.2708 10.6587 67.2147 11.696 67.2147 12.7287L67.2102 12.7265Z" fill="white"/>
<path d="M78.3572 18.1124C78.3572 15.4745 78.3527 12.8365 78.3617 10.1985C78.3617 9.86847 78.3415 9.50476 78.4695 9.21964C78.5706 8.99288 78.8917 8.72572 79.1095 8.73021C79.3228 8.7347 79.6058 9.02431 79.7158 9.25556C79.8326 9.50701 79.8034 9.83479 79.8034 10.1311C79.8079 15.5194 79.8079 20.9053 79.8079 26.2935C79.8079 26.4799 79.8618 26.7044 79.7787 26.8413C79.6013 27.1287 79.3475 27.3689 79.123 27.6294C78.8737 27.3555 78.4515 27.104 78.4111 26.8032C78.3056 25.9994 78.3617 25.1732 78.3595 24.356C78.3572 22.2748 78.3595 20.1936 78.3595 18.1147L78.3572 18.1124Z" fill="white"/>
<path d="M80.3086 3.25668C79.9246 3.55527 79.5249 4.10308 79.1611 4.08063C78.7839 4.05593 78.2494 3.53731 78.1259 3.13095C77.9261 2.4709 78.346 1.91636 79.0826 2.02188C79.5137 2.08474 79.8932 2.50906 80.2952 2.76949C80.2996 2.93114 80.3041 3.09279 80.3086 3.25443V3.25668Z" fill="white"/>
</svg>
