<svg   width="46" height="32" viewBox="0 0 46 32" fill="none" xmlns="http://www.w3.org/2000/svg">
<rect x="0.595703" width="44.8" height="32" fill="#7A7A7E"/>
<path fill-rule="evenodd" clip-rule="evenodd" d="M9.29834 23.8284V16.8633H16.7123L17.5077 17.8947L18.3294 16.8633H45.2401V23.348C45.2401 23.348 44.5364 23.8214 43.7224 23.8284H28.8214L27.9246 22.7304V23.8284H24.9858V21.9541C24.9858 21.9541 24.5843 22.2158 23.7164 22.2158H22.7161V23.8284H18.2665L17.4722 22.7748L16.6658 23.8284H9.29834Z" fill="black"/>
<path fill-rule="evenodd" clip-rule="evenodd" d="M0.640625 11.6134L2.31249 7.73633H5.20381L6.15262 9.90813V7.73633H9.7468L10.3116 9.30604L10.8592 7.73633H26.9933V8.52547C26.9933 8.52547 27.8415 7.73633 29.2354 7.73633L34.4703 7.75453L35.4028 9.8979V7.73633H38.4105L39.2384 8.96753V7.73633H42.2738V14.7014H39.2384L38.445 13.4662V14.7014H34.0259L33.5815 13.6035H32.3935L31.9563 14.7014H28.9594C27.76 14.7014 26.9933 13.9284 26.9933 13.9284V14.7014H22.4747L21.5779 13.6035V14.7014H4.77548L4.33138 13.6035H3.14716L2.7062 14.7014H0.640625L0.640625 11.6134Z" fill="black"/>
<path fill-rule="evenodd" clip-rule="evenodd" d="M0.649414 13.81L2.9044 8.59473H4.61396L6.86679 13.81H5.36634L4.95243 12.7656H2.5336L2.11753 13.81H0.649414ZM4.47559 11.6335L3.7383 9.80863L2.99886 11.6335H4.47559Z" fill="#7A7A7E"/>
<path fill-rule="evenodd" clip-rule="evenodd" d="M7.02148 13.81V8.59473L9.10775 8.60243L10.3212 11.9649L11.5056 8.59473H13.5752V13.81H12.2644V9.96716L10.875 13.81H9.7255L8.33222 9.96716V13.81H7.02148Z" fill="#7A7A7E"/>
<path fill-rule="evenodd" clip-rule="evenodd" d="M14.4722 13.81V8.59473H18.7493V9.76129H15.7967V10.6534H18.6803V11.7513H15.7967V12.6777H18.7493V13.81H14.4722Z" fill="#7A7A7E"/>
<path fill-rule="evenodd" clip-rule="evenodd" d="M19.5078 13.81V8.59473H22.4246C23.3911 8.59473 24.2571 9.18921 24.2571 10.2867C24.2571 11.2249 23.527 11.8291 22.8191 11.8886L24.5438 13.81H22.942L21.3704 11.9572H20.8185V13.81H19.5078ZM22.317 9.76144H20.8188V10.8594H22.3364C22.5992 10.8594 22.9379 10.6569 22.9379 10.3104C22.9379 10.0411 22.6765 9.76144 22.317 9.76144Z" fill="#7A7A7E"/>
<path fill-rule="evenodd" clip-rule="evenodd" d="M26.1308 13.81H24.7925V8.59473H26.1308V13.81Z" fill="#7A7A7E"/>
<path fill-rule="evenodd" clip-rule="evenodd" d="M29.3043 13.81H29.0154C27.6177 13.81 26.769 12.7146 26.769 11.2238C26.769 9.69615 27.6082 8.59473 29.3733 8.59473H30.822V9.82991H29.3203C28.6038 9.82991 28.097 10.3861 28.097 11.2367C28.097 12.2466 28.6765 12.6708 29.5112 12.6708H29.8562L29.3043 13.81Z" fill="#7A7A7E"/>
<path fill-rule="evenodd" clip-rule="evenodd" d="M29.9014 13.81L32.1564 8.59473H33.8659L36.1187 13.81H34.6183L34.2044 12.7656H31.7856L31.3695 13.81H29.9014ZM33.7279 11.6335L32.9906 9.80863L32.2511 11.6335H33.7279Z" fill="#7A7A7E"/>
<path fill-rule="evenodd" clip-rule="evenodd" d="M36.272 13.81V8.59473H37.9384L40.0662 11.8714V8.59473H41.3769V13.81H39.7644L37.5827 10.4475V13.81H36.272Z" fill="#7A7A7E"/>
<path fill-rule="evenodd" clip-rule="evenodd" d="M10.1948 22.9359V17.7207H14.472V18.8873H11.5194V19.7793H14.403V20.8773H11.5194V21.8037H14.472V22.9359H10.1948Z" fill="#7A7A7E"/>
<path fill-rule="evenodd" clip-rule="evenodd" d="M31.1533 22.9359V17.7207H35.4305V18.8873H32.4779V19.7793H35.3477V20.8773H32.4779V21.8037H35.4305V22.9359H31.1533Z" fill="#7A7A7E"/>
<path fill-rule="evenodd" clip-rule="evenodd" d="M14.6385 22.9359L16.721 20.3605L14.5889 17.7207H16.2402L17.51 19.3526L18.7841 17.7207H20.3708L18.2667 20.3283L20.353 22.9359H18.702L17.469 21.3298L16.2661 22.9359H14.6385Z" fill="#7A7A7E"/>
<path fill-rule="evenodd" clip-rule="evenodd" d="M20.5088 22.9369V17.7217H23.4041C24.5921 17.7217 25.2861 18.4833 25.2861 19.4758C25.2861 20.6739 24.4012 21.29 23.2337 21.29H21.854V22.9369H20.5088ZM23.3067 18.9015H21.8537V20.1023H23.3024C23.6852 20.1023 23.9535 19.85 23.9535 19.5019C23.9535 19.1314 23.6839 18.9015 23.3067 18.9015Z" fill="#7A7A7E"/>
<path fill-rule="evenodd" clip-rule="evenodd" d="M25.855 22.9359V17.7207H28.7718C29.7383 17.7207 30.6042 18.3152 30.6042 19.4126C30.6042 20.3508 29.8741 20.9551 29.1663 21.0145L30.891 22.9359H29.2892L27.7176 21.0832H27.1657V22.9359H25.855ZM28.664 18.8868H27.1658V19.9848H28.6834C28.9462 19.9848 29.2849 19.7823 29.2849 19.4358C29.2849 19.1665 29.0235 18.8868 28.664 18.8868Z" fill="#7A7A7E"/>
<path fill-rule="evenodd" clip-rule="evenodd" d="M36.0375 22.9359V21.8037H38.6607C39.0489 21.8037 39.2169 21.595 39.2169 21.3662C39.2169 21.147 39.0494 20.9253 38.6607 20.9253H37.4753C36.4449 20.9253 35.8711 20.3009 35.8711 19.3633C35.8711 18.5271 36.3966 17.7207 37.9277 17.7207H40.4802L39.9283 18.8941H37.7208C37.2988 18.8941 37.1689 19.1144 37.1689 19.3247C37.1689 19.5409 37.3294 19.7793 37.6518 19.7793H38.8935C40.0422 19.7793 40.5406 20.4274 40.5406 21.2762C40.5406 22.1886 39.9852 22.9359 38.831 22.9359H36.0375Z" fill="#7A7A7E"/>
<path fill-rule="evenodd" clip-rule="evenodd" d="M40.8481 22.9359V21.8037H43.4713C43.8594 21.8037 44.0275 21.595 44.0275 21.3662C44.0275 21.147 43.8599 20.9253 43.4713 20.9253H42.2859C41.2555 20.9253 40.6816 20.3009 40.6816 19.3633C40.6816 18.5271 41.2071 17.7207 42.7383 17.7207H45.2908L44.7389 18.8941H42.5313C42.1093 18.8941 41.9794 19.1144 41.9794 19.3247C41.9794 19.5409 42.14 19.7793 42.4623 19.7793H43.7041C44.8527 19.7793 45.3511 20.4274 45.3511 21.2762C45.3511 22.1886 44.7957 22.9359 43.6416 22.9359H40.8481Z" fill="#7A7A7E"/>
</svg>