<svg width="217" height="36" viewBox="0 0 217 36" fill="none" xmlns="http://www.w3.org/2000/svg">
<path d="M0 31.2509L12.1614 3.59239H17.2287L26.6464 25.2554H10.9255L12.7547 20.2467H17.8961L14.5097 11.7098L6.87171 31.2509H0Z" fill="#00A7D0"/>
<path d="M24.1251 10.7229H28.4756V12.8201C28.4756 12.8201 30.2553 9.58796 34.0866 10.4515C34.0866 10.4515 35.1743 10.6982 36.0641 11.2164C36.0641 11.2164 37.9922 12.0553 38.1899 16.5951V25.3294H33.6912V17.9521C33.6912 17.9521 33.79 15.7809 32.999 15.1147C32.999 15.1147 32.48 14.3499 30.9474 14.4239C30.9474 14.4239 29.5632 14.4239 29.1183 15.3368C29.1183 15.3368 28.6733 15.7809 28.5744 17.6807V25.3294H28.0306L24.1251 16.6198V10.7229Z" fill="white"/>
<path d="M52.3535 12.1046C52.3535 12.1046 49.4862 9.85936 45.902 10.4268C45.902 10.4268 41.7741 10.8216 39.6977 14.5226C39.6977 14.5226 37.8438 17.7548 39.9202 21.8505C39.9202 21.8505 42.046 25.6501 47.1874 25.6995C47.1874 25.6995 51.2412 25.5021 52.3535 23.8737C52.3535 23.8737 50.821 22.8621 50.0053 20.4688C50.0053 20.4688 48.102 22.5167 45.4077 21.3817C45.4077 21.3817 43.1583 20.5428 43.4549 17.4587C43.7515 14.3745 47.8301 13.0669 49.9806 15.6329C49.9558 15.6575 50.5985 13.4616 52.3535 12.1046Z" fill="white"/>
<path d="M59.0028 10.3528C54.504 10.3528 50.8457 13.8071 50.8457 18.0508C50.8457 22.2946 54.504 25.7488 59.0028 25.7488C63.5015 25.7488 67.1598 22.2946 67.1598 18.0508C67.1598 13.8071 63.5015 10.3528 59.0028 10.3528ZM59.0522 21.8011C56.9759 21.8011 55.295 20.1234 55.295 18.0508C55.295 15.9783 56.9759 14.3005 59.0522 14.3005C61.1286 14.3005 62.8094 15.9783 62.8094 18.0508C62.8341 20.0987 61.1286 21.8011 59.0522 21.8011Z" fill="white"/>
<path d="M78.1595 11.9319V10.5749C77.9371 10.5255 77.6899 10.4762 77.4427 10.4515C77.1708 10.4268 76.9236 10.4268 76.6517 10.4268C75.6383 10.4268 74.8225 10.6489 74.1551 11.093C73.4877 11.5371 72.9192 12.228 72.4496 13.1162H72.4001V10.7723H67.9014V25.3541H72.4001V19.2845C72.4001 18.569 72.4496 17.9028 72.5237 17.3106C72.5979 16.7185 72.7709 16.2003 73.0428 15.7562C73.3147 15.3368 73.7102 14.9914 74.2046 14.7446C74.699 14.4979 75.3911 14.3745 76.2562 14.3745H76.4539C77.0719 12.7461 77.8876 12.1046 78.1595 11.9319Z" fill="white"/>
<path d="M87.9233 2.60547V12.2773H87.8738C87.3548 11.5865 86.6874 11.0683 85.8717 10.7969C85.0559 10.5009 84.1908 10.3528 83.2268 10.3528C82.1886 10.3528 81.2493 10.5749 80.4336 10.9943C79.6179 11.4138 78.9011 12.0059 78.3326 12.7214C77.764 13.437 77.3191 14.2758 76.9978 15.2134C76.6764 16.151 76.5281 17.1133 76.5281 18.1495C76.5281 19.2598 76.7011 20.2714 77.0472 21.1843C77.3933 22.0972 77.8629 22.9114 78.5056 23.5776C79.1483 24.2438 79.8898 24.7619 80.7797 25.132C81.6695 25.5021 82.6583 25.6995 83.7212 25.6995C84.2155 25.6995 84.7099 25.6255 85.1795 25.4774C85.6492 25.3294 86.0941 25.1567 86.4649 24.9346C86.8604 24.7126 87.2065 24.4658 87.4783 24.1944C87.775 23.923 87.9974 23.6516 88.1952 23.4049H88.2446V25.3294H92.4467V2.60547H87.9233ZM83.8447 21.8011C81.7684 21.8011 80.0628 20.1234 80.0628 18.0262C80.0628 15.9289 81.7437 14.2512 83.8447 14.2512C85.9458 14.2512 87.6267 15.9289 87.6267 18.0262C87.6267 20.1234 85.9458 21.8011 83.8447 21.8011Z" fill="white"/>
<rect x="113.28" width="1.30207" height="35.1558" fill="white"/>
<path d="M147.547 10.5022C147.979 11.0663 148.195 11.7499 148.195 12.5499C148.195 13.7168 147.725 14.6189 146.785 15.2545C145.846 15.8886 144.487 16.206 142.71 16.206H135.511V2.87265H142.33C144.031 2.87265 145.325 3.18703 146.214 3.81655C147.103 4.44455 147.547 5.29253 147.547 6.35899C147.547 6.9946 147.392 7.5617 147.08 8.06409C146.77 8.56649 146.328 8.96308 145.757 9.25462C146.519 9.52105 147.115 9.93667 147.547 10.5022ZM139.243 5.59778V8.16762H141.834C143.104 8.16762 143.738 7.73677 143.738 6.87356C143.738 6.01035 143.104 5.59778 141.834 5.59778H139.243ZM144.385 12.1297C144.385 11.2292 143.726 10.7778 142.405 10.7778H139.243V13.4824H142.405C143.726 13.4824 144.385 13.0317 144.385 12.1297Z" fill="white"/>
<path d="M150.156 2.87265H153.927V13.216H160.288V16.206H150.156V2.87265Z" fill="white"/>
<path d="M164.488 15.5772C163.364 14.982 162.481 14.156 161.841 13.1018C161.199 12.0475 160.879 10.86 160.879 9.54008C160.879 8.22014 161.198 7.0319 161.841 5.97838C162.481 4.92411 163.364 4.09972 164.488 3.50293C165.611 2.90615 166.878 2.60699 168.287 2.60699C169.697 2.60699 170.963 2.90615 172.087 3.50293C173.21 4.09972 174.092 4.92411 174.734 5.97838C175.374 7.03266 175.696 8.22014 175.696 9.54008C175.696 10.86 175.374 12.0483 174.734 13.1018C174.092 14.156 173.21 14.982 172.087 15.5772C170.963 16.1755 169.696 16.4732 168.287 16.4732C166.878 16.4732 165.611 16.1755 164.488 15.5772ZM170.115 12.8742C170.661 12.5567 171.093 12.1084 171.41 11.5306C171.727 10.9536 171.886 10.2906 171.886 9.54008C171.886 8.78952 171.727 8.12803 171.41 7.54952C171.093 6.971 170.66 6.52493 170.115 6.20751C169.569 5.89008 168.96 5.73175 168.287 5.73175C167.614 5.73175 167.005 5.89008 166.458 6.20751C165.912 6.52493 165.481 6.97176 165.164 7.54952C164.846 8.12803 164.688 8.79105 164.688 9.54008C164.688 10.2891 164.846 10.9536 165.164 11.5306C165.481 12.1092 165.913 12.5567 166.458 12.8742C167.005 13.1901 167.614 13.3499 168.287 13.3499C168.961 13.3499 169.569 13.1901 170.115 12.8742Z" fill="white"/>
<path d="M180.561 15.5879C179.45 14.9972 178.577 14.1743 177.942 13.12C177.308 12.0658 176.991 10.8722 176.991 9.53932C176.991 8.20644 177.308 7.01286 177.942 5.95859C178.577 4.90432 179.45 4.08297 180.561 3.49228C181.672 2.90158 182.925 2.60547 184.322 2.60547C185.541 2.60547 186.639 2.82241 187.617 3.25326C188.594 3.68562 189.407 4.30753 190.055 5.11974L187.655 7.29147C186.792 6.25166 185.744 5.73023 184.512 5.73023C183.788 5.73023 183.144 5.88856 182.58 6.20598C182.014 6.52341 181.576 6.97024 181.265 7.54799C180.954 8.12651 180.799 8.78953 180.799 9.53855C180.799 10.2876 180.954 10.9521 181.265 11.5291C181.576 12.1076 182.014 12.5552 182.58 12.8726C183.144 13.1885 183.788 13.3484 184.512 13.3484C185.744 13.3484 186.791 12.8277 187.655 11.7856L190.055 13.9574C189.407 14.7696 188.594 15.393 187.617 15.8239C186.639 16.2562 185.541 16.4716 184.322 16.4716C182.925 16.4716 181.672 16.1771 180.561 15.5864V15.5879Z" fill="white"/>
<path d="M196.873 11.3685L195.463 12.8734V16.206H191.731V2.87265H195.463V8.41577L200.624 2.87265H204.776L199.329 8.77811L205.061 16.206H200.68L196.873 11.3685Z" fill="white"/>
<path d="M139.51 20.7709H135.415V17.7794H147.356V20.7709H143.281V31.1127H139.511L139.51 20.7709Z" fill="white"/>
<path d="M154.268 27.5701H152.211V31.1135H148.441V17.7802H154.535C155.741 17.7802 156.789 17.9804 157.679 18.38C158.566 18.7811 159.254 19.3521 159.734 20.0942C160.217 20.8379 160.459 21.711 160.459 22.7135C160.459 23.7161 160.233 24.5191 159.783 25.2369C159.33 25.9548 158.686 26.5173 157.849 26.9238L160.726 31.1135H156.686L154.268 27.5701ZM156.057 21.2657C155.663 20.9232 155.08 20.7512 154.306 20.7512H152.211V24.6554H154.306C155.08 24.6554 155.663 24.4879 156.057 24.1515C156.45 23.815 156.649 23.3347 156.649 22.7128C156.649 22.0909 156.45 21.6083 156.057 21.2657Z" fill="white"/>
<path d="M173.235 28.1988V31.1127H162.532V17.7794H172.987V20.6933H166.266V22.9411H172.188V25.7607H166.266V28.1988H173.235Z" fill="white"/>
<path d="M188.014 17.7794V31.1127H184.91L179.025 24.0091V31.1127H175.33V17.7794H178.434L184.319 24.8845V17.7794H188.014Z" fill="white"/>
<path d="M190.68 17.7794H196.984C198.444 17.7794 199.74 18.0534 200.869 18.5992C201.999 19.145 202.876 19.9199 203.498 20.9224C204.12 21.9249 204.431 23.1002 204.431 24.4461C204.431 25.7919 204.12 26.9664 203.498 27.9697C202.876 28.9745 201.999 29.7479 200.869 30.2944C199.74 30.8402 198.444 31.1127 196.984 31.1127H190.68V17.7794ZM196.832 28.1029C197.974 28.1029 198.891 27.7801 199.584 27.1324C200.275 26.4846 200.62 25.5886 200.62 24.4461C200.62 23.3035 200.275 22.4075 199.584 21.7613C198.891 21.1135 197.973 20.7892 196.832 20.7892H194.451V28.1021L196.832 28.1029Z" fill="white"/>
<path d="M207.953 30.9803C206.937 30.7138 206.113 30.3584 205.478 29.9138L206.716 27.1331C207.313 27.5267 208.004 27.8448 208.791 28.0846C209.578 28.3267 210.354 28.447 211.114 28.447C212.562 28.447 213.286 28.0846 213.286 27.3607C213.286 26.9809 213.08 26.697 212.668 26.5127C212.254 26.33 211.591 26.1359 210.678 25.9327C209.673 25.7158 208.836 25.4851 208.164 25.2369C207.489 24.9888 206.913 24.5922 206.429 24.0464C205.947 23.5006 205.707 22.7645 205.707 21.8374C205.707 21.0252 205.928 20.2906 206.373 19.636C206.816 18.9836 207.48 18.466 208.364 18.0846C209.246 17.7033 210.327 17.513 211.611 17.513C212.487 17.513 213.35 17.6119 214.201 17.8091C215.052 18.0062 215.8 18.294 216.448 18.6753L215.286 21.4751C214.016 20.79 212.784 20.4474 211.591 20.4474C210.842 20.4474 210.297 20.5593 209.954 20.7808C209.612 21.0023 209.44 21.2924 209.44 21.6471C209.44 22.0018 209.643 22.269 210.049 22.4471C210.455 22.6252 211.109 22.8079 212.011 22.999C213.026 23.2159 213.867 23.4466 214.534 23.6947C215.201 23.9429 215.778 24.3364 216.267 24.8761C216.755 25.4158 217 26.1489 217 27.076C217 27.8761 216.779 28.6 216.333 29.2478C215.889 29.8955 215.222 30.4116 214.334 30.7991C213.444 31.1866 212.366 31.3807 211.096 31.3807C210.018 31.3807 208.97 31.2467 207.953 30.9803Z" fill="white"/>
</svg>