<svg width="260" height="43" viewBox="0 0 260 43" fill="none" xmlns="http://www.w3.org/2000/svg">
            <path
              d="M0 37.393L14.5523 4.29692H20.6158L31.885 30.2188H13.0734L15.2622 24.2254H21.4144L17.3622 14.0102L8.22266 37.393H0Z"
              fill="#00A7D0" />
            <path
              d="M28.868 12.8293H34.0737V15.3388C34.0737 15.3388 36.2034 11.4712 40.7879 12.5045C40.7879 12.5045 42.0894 12.7998 43.1542 13.4197C43.1542 13.4197 45.4612 14.4236 45.6979 19.8559V30.3073H40.3147V21.4797C40.3147 21.4797 40.433 18.8816 39.4865 18.0845C39.4865 18.0845 38.8654 17.1693 37.0315 17.2578C37.0315 17.2578 35.3752 17.2578 34.8428 18.3502C34.8428 18.3502 34.3104 18.8816 34.1921 21.155V30.3073H33.5413L28.868 19.8854V12.8293Z"
              fill="white" />
            <path
              d="M62.646 14.4826C62.646 14.4826 59.215 11.7959 54.9262 12.475C54.9262 12.475 49.9867 12.9474 47.5021 17.3759C47.5021 17.3759 45.2838 21.2435 47.7683 26.1445C47.7683 26.1445 50.312 30.6911 56.4642 30.7502C56.4642 30.7502 61.315 30.514 62.646 28.5654C62.646 28.5654 60.8122 27.3549 59.8361 24.4911C59.8361 24.4911 57.5586 26.9416 54.3346 25.5835C54.3346 25.5835 51.643 24.5797 51.998 20.8893C52.3529 17.1988 57.2332 15.634 59.8065 18.7045C59.777 18.734 60.546 16.1064 62.646 14.4826Z"
              fill="white" />
            <path
              d="M70.6025 12.3864C65.2193 12.3864 60.8418 16.5197 60.8418 21.5978C60.8418 26.6759 65.2193 30.8092 70.6025 30.8092C75.9856 30.8092 80.3632 26.6759 80.3632 21.5978C80.3632 16.5197 75.9856 12.3864 70.6025 12.3864ZM70.6616 26.0854C68.1771 26.0854 66.1658 24.0778 66.1658 21.5978C66.1658 19.1178 68.1771 17.1102 70.6616 17.1102C73.1462 17.1102 75.1575 19.1178 75.1575 21.5978C75.187 24.0483 73.1462 26.0854 70.6616 26.0854Z"
              fill="white" />
            <path
              d="M93.5253 14.2759V12.6521C93.2591 12.5931 92.9634 12.534 92.6676 12.5045C92.3422 12.475 92.0464 12.475 91.7211 12.475C90.5084 12.475 89.5323 12.7407 88.7337 13.2721C87.9351 13.8036 87.2548 14.6302 86.6928 15.6931H86.6337V12.8883H81.2505V30.3368H86.6337V23.074C86.6337 22.2178 86.6928 21.4207 86.7816 20.7121C86.8703 20.0035 87.0774 19.3835 87.4027 18.8521C87.7281 18.3502 88.2013 17.9369 88.7929 17.6416C89.3844 17.3464 90.2126 17.1988 91.2478 17.1988H91.4845C92.2239 15.2502 93.2 14.4826 93.5253 14.2759Z"
              fill="white" />
            <path
              d="M105.209 3.11597V14.6893H105.149C104.528 13.8626 103.73 13.2426 102.754 12.9178C101.778 12.5636 100.742 12.3864 99.5888 12.3864C98.3465 12.3864 97.2226 12.6521 96.2465 13.154C95.2704 13.6559 94.4127 14.3645 93.7324 15.2207C93.0521 16.0769 92.5197 17.0807 92.1352 18.2026C91.7507 19.3245 91.5732 20.4759 91.5732 21.7159C91.5732 23.0445 91.7803 24.255 92.1943 25.3473C92.6084 26.4397 93.1704 27.414 93.9394 28.2111C94.7085 29.0083 95.5958 29.6283 96.6606 30.0711C97.7254 30.514 98.9085 30.7502 100.18 30.7502C100.772 30.7502 101.363 30.6616 101.925 30.4845C102.487 30.3073 103.02 30.1007 103.464 29.8349C103.937 29.5692 104.351 29.274 104.676 28.9492C105.031 28.6245 105.297 28.2997 105.534 28.0045H105.593V30.3073H110.621V3.11597H105.209ZM100.328 26.0854C97.8437 26.0854 95.8028 24.0778 95.8028 21.5683C95.8028 19.0588 97.8141 17.0512 100.328 17.0512C102.842 17.0512 104.854 19.0588 104.854 21.5683C104.854 24.0778 102.842 26.0854 100.328 26.0854Z"
              fill="white" />
            <rect x="135.55" width="1.55805" height="42.0673" fill="white" />
            <path
              d="M176.554 12.5652C177.071 13.2402 177.329 14.0581 177.329 15.0154C177.329 16.4118 176.767 17.4911 175.643 18.2517C174.519 19.0105 172.893 19.3903 170.766 19.3903H162.152V3.43568H170.311C172.347 3.43568 173.896 3.81186 174.96 4.56514C176.023 5.3166 176.554 6.3313 176.554 7.60741C176.554 8.36798 176.368 9.04657 175.996 9.64773C175.624 10.2489 175.095 10.7235 174.412 11.0723C175.324 11.3911 176.038 11.8884 176.554 12.5652ZM166.618 6.69655V9.77161H169.718C171.237 9.77161 171.997 9.25606 171.997 8.22315C171.997 7.19024 171.237 6.69655 169.718 6.69655H166.618ZM172.771 14.5126C172.771 13.4351 171.981 12.8949 170.401 12.8949H166.618V16.1312H170.401C171.981 16.1312 172.771 15.592 172.771 14.5126Z"
              fill="white" />
            <path d="M179.676 3.43568H184.188V15.8124H191.8V19.3903H179.676V3.43568Z" fill="white" />
            <path
              d="M196.825 18.6379C195.481 17.9256 194.425 16.9373 193.658 15.6758C192.89 14.4143 192.507 12.9933 192.507 11.4139C192.507 9.83446 192.889 8.41261 193.658 7.15198C194.425 5.89044 195.481 4.90398 196.825 4.18987C198.17 3.47576 199.685 3.11779 201.372 3.11779C203.058 3.11779 204.574 3.47576 205.918 4.18987C207.262 4.90398 208.318 5.89044 209.086 7.15198C209.852 8.41352 210.237 9.83446 210.237 11.4139C210.237 12.9933 209.852 14.4152 209.086 15.6758C208.318 16.9373 207.262 17.9256 205.918 18.6379C204.574 19.3538 203.057 19.71 201.372 19.71C199.686 19.71 198.17 19.3538 196.825 18.6379ZM203.559 15.4035C204.212 15.0236 204.729 14.4871 205.108 13.7958C205.487 13.1054 205.679 12.312 205.679 11.4139C205.679 10.5158 205.487 9.72425 205.108 9.03199C204.729 8.33974 204.211 7.80598 203.559 7.42615C202.905 7.04632 202.177 6.85686 201.372 6.85686C200.567 6.85686 199.837 7.04632 199.183 7.42615C198.53 7.80598 198.014 8.34065 197.634 9.03199C197.254 9.72425 197.065 10.5176 197.065 11.4139C197.065 12.3102 197.254 13.1054 197.634 13.7958C198.014 14.488 198.531 15.0236 199.183 15.4035C199.837 15.7815 200.566 15.9727 201.372 15.9727C202.178 15.9727 202.905 15.7815 203.559 15.4035Z"
              fill="white" />
            <path
              d="M216.059 18.6507C214.729 17.9438 213.685 16.9592 212.925 15.6977C212.166 14.4361 211.787 13.0079 211.787 11.413C211.787 9.81806 212.166 8.38984 212.925 7.1283C213.685 5.86676 214.729 4.88394 216.059 4.17712C217.388 3.47029 218.888 3.11597 220.559 3.11597C222.018 3.11597 223.331 3.37556 224.502 3.89111C225.671 4.40847 226.644 5.15265 227.419 6.12453L224.547 8.72321C223.514 7.47898 222.26 6.85504 220.787 6.85504C219.921 6.85504 219.149 7.0445 218.474 7.42433C217.798 7.80416 217.273 8.33883 216.901 9.03017C216.529 9.72242 216.343 10.5158 216.343 11.4121C216.343 12.3084 216.529 13.1035 216.901 13.794C217.273 14.4862 217.798 15.0218 218.474 15.4016C219.149 15.7796 219.921 15.9709 220.787 15.9709C222.26 15.9709 223.513 15.3479 224.547 14.1009L227.419 16.6996C226.644 17.6715 225.671 18.4175 224.502 18.933C223.331 19.4504 222.017 19.7082 220.559 19.7082C218.888 19.7082 217.388 19.3557 216.059 18.6488V18.6507Z"
              fill="white" />
            <path
              d="M235.577 13.6018L233.89 15.4025V19.3903H229.424V3.43568H233.89V10.0686L240.066 3.43568H245.034L238.516 10.5021L245.376 19.3903H240.133L235.577 13.6018Z"
              fill="white" />
            <path d="M166.937 24.8527H162.037V21.273H176.326V24.8527H171.45V37.2276H166.938L166.937 24.8527Z"
              fill="white" />
            <path
              d="M184.597 32.9885H182.135V37.2285H177.623V21.2739H184.917C186.359 21.2739 187.613 21.5135 188.678 21.9917C189.739 22.4717 190.562 23.1549 191.137 24.0429C191.715 24.9328 192.005 25.9776 192.005 27.1772C192.005 28.3768 191.734 29.3378 191.196 30.1967C190.654 31.0556 189.883 31.7288 188.882 32.2152L192.324 37.2285H187.49L184.597 32.9885ZM186.737 25.4448C186.266 25.0349 185.569 24.829 184.642 24.829H182.135V29.5008H184.642C185.569 29.5008 186.266 29.3004 186.737 28.8978C187.208 28.4952 187.446 27.9205 187.446 27.1763C187.446 26.4321 187.208 25.8546 186.737 25.4448Z"
              fill="white" />
            <path
              d="M207.292 33.7409V37.2276H194.485V21.273H206.995V24.7598H198.953V27.4496H206.039V30.8234H198.953V33.7409H207.292Z"
              fill="white" />
            <path
              d="M224.977 21.273V37.2276H221.262L214.22 28.7275V37.2276H209.799V21.273H213.514L220.555 29.775V21.273H224.977Z"
              fill="white" />
            <path
              d="M228.167 21.273H235.71C237.457 21.273 239.008 21.6009 240.359 22.254C241.711 22.9071 242.761 23.8344 243.505 25.034C244.249 26.2336 244.621 27.6399 244.621 29.2503C244.621 30.8607 244.249 32.2662 243.505 33.4667C242.761 34.669 241.712 35.5945 240.359 36.2485C239.008 36.9015 237.457 37.2276 235.71 37.2276H228.167V21.273ZM235.528 33.6261C236.895 33.6261 237.992 33.2399 238.821 32.4647C239.648 31.6896 240.061 30.6175 240.061 29.2503C240.061 27.8831 239.648 26.811 238.821 26.0377C237.992 25.2626 236.894 24.8746 235.528 24.8746H232.679V33.6252L235.528 33.6261Z"
              fill="white" />
            <path
              d="M248.835 37.0691C247.621 36.7503 246.634 36.325 245.874 35.793L247.355 32.4657C248.07 32.9366 248.896 33.3173 249.839 33.6042C250.781 33.8939 251.709 34.0378 252.619 34.0378C254.351 34.0378 255.217 33.6042 255.217 32.738C255.217 32.2835 254.97 31.9437 254.477 31.7233C253.982 31.5047 253.189 31.2724 252.096 31.0292C250.894 30.7696 249.893 30.4936 249.088 30.1967C248.281 29.8998 247.591 29.4252 247.012 28.7721C246.436 28.119 246.148 27.2382 246.148 26.1288C246.148 25.1569 246.413 24.2779 246.946 23.4946C247.476 22.714 248.27 22.0946 249.327 21.6383C250.383 21.1819 251.677 20.9542 253.212 20.9542C254.261 20.9542 255.293 21.0726 256.312 21.3085C257.33 21.5445 258.225 21.8888 259.001 22.3451L257.61 25.6952C256.091 24.8755 254.617 24.4656 253.189 24.4656C252.293 24.4656 251.641 24.5995 251.231 24.8645C250.821 25.1296 250.615 25.4766 250.615 25.9011C250.615 26.3256 250.858 26.6453 251.344 26.8584C251.83 27.0715 252.612 27.2902 253.691 27.5188C254.906 27.7784 255.913 28.0544 256.711 28.3513C257.508 28.6482 258.2 29.1192 258.784 29.765C259.368 30.4108 259.661 31.2879 259.661 32.3973C259.661 33.3547 259.396 34.2209 258.864 34.996C258.332 35.7712 257.534 36.3887 256.471 36.8523C255.406 37.316 254.116 37.5482 252.597 37.5482C251.306 37.5482 250.052 37.3879 248.835 37.0691Z"
              fill="white" />
          </svg>