<svg width="162"  class="aspect-[2.84] object-contain object-center w-[142px] fill-white overflow-hidden max-w-full mt-8"  height="50" viewBox="0 0 162 50" fill="none" xmlns="http://www.w3.org/2000/svg">
<path d="M0 50L21.2275 1.72265H30.0723L46.5107 39.5349H19.0702L22.263 30.7924H31.2372L25.3263 15.8915L11.9944 50H0Z" fill="#00A7D0"/>
<path d="M42.1099 14.1688H49.7034V17.8295C49.7034 17.8295 52.8099 12.1878 59.4974 13.6951C59.4974 13.6951 61.3958 14.1258 62.9491 15.0301C62.9491 15.0301 66.3144 16.4944 66.6596 24.4186V39.6641H58.8071V26.7873C58.8071 26.7873 58.9797 22.9974 57.599 21.8346C57.599 21.8346 56.693 20.4996 54.018 20.6288C54.018 20.6288 51.6018 20.6288 50.8252 22.2222C50.8252 22.2222 50.0486 22.9974 49.876 26.3135V39.6641H48.9268L42.1099 24.4617V14.1688Z" fill="white"/>
<path d="M91.3819 16.5805C91.3819 16.5805 86.377 12.6615 80.1209 13.652C80.1209 13.652 72.9157 14.3411 69.2914 20.801C69.2914 20.801 66.0555 26.4427 69.6797 33.5917C69.6797 33.5917 73.3903 40.2239 82.3645 40.3101C82.3645 40.3101 89.4403 39.9655 91.3819 37.1232C91.3819 37.1232 88.7069 35.3575 87.2831 31.18C87.2831 31.18 83.9609 34.7545 79.258 32.7735C79.258 32.7735 75.3318 31.3092 75.8495 25.9259C76.3673 20.5426 83.4863 18.2601 87.2399 22.739C87.1968 22.7821 88.3185 18.9492 91.3819 16.5805Z" fill="white"/>
<path d="M102.988 13.5228C95.1355 13.5228 88.75 19.5521 88.75 26.9595C88.75 34.3669 95.1355 40.3962 102.988 40.3962C110.84 40.3962 117.226 34.3669 117.226 26.9595C117.226 19.5521 110.84 13.5228 102.988 13.5228ZM103.074 33.5056C99.45 33.5056 96.5162 30.5771 96.5162 26.9595C96.5162 23.3419 99.45 20.4134 103.074 20.4134C106.698 20.4134 109.632 23.3419 109.632 26.9595C109.675 30.534 106.698 33.5056 103.074 33.5056Z" fill="white"/>
<path d="M136.426 16.2791V13.9104C136.037 13.8243 135.606 13.7382 135.174 13.6951C134.7 13.652 134.268 13.652 133.794 13.652C132.025 13.652 130.601 14.0396 129.436 14.8148C128.271 15.59 127.279 16.7959 126.459 18.3463H126.373V14.255H118.52V39.7071H126.373V29.1128C126.373 27.8639 126.459 26.7011 126.588 25.6675C126.718 24.6339 127.02 23.7295 127.495 22.9543C127.969 22.2222 128.659 21.6193 129.522 21.1886C130.385 20.758 131.593 20.5426 133.103 20.5426H133.449C134.527 17.7003 135.951 16.5805 136.426 16.2791Z" fill="white"/>
<path d="M153.468 0V16.882H153.382C152.476 15.6761 151.311 14.7717 149.887 14.298C148.463 13.7812 146.953 13.5228 145.27 13.5228C143.458 13.5228 141.819 13.9104 140.395 14.6425C138.971 15.3747 137.72 16.4083 136.728 17.6572C135.735 18.9061 134.959 20.3704 134.398 22.0069C133.837 23.6434 133.578 25.323 133.578 27.1318C133.578 29.0698 133.88 30.8355 134.484 32.4289C135.088 34.0224 135.908 35.4436 137.03 36.6064C138.151 37.7692 139.446 38.6736 140.999 39.3196C142.552 39.9655 144.278 40.3101 146.133 40.3101C146.996 40.3101 147.859 40.1809 148.679 39.9225C149.499 39.6641 150.275 39.3626 150.922 38.975C151.613 38.5874 152.217 38.1568 152.691 37.683C153.209 37.2093 153.597 36.7356 153.943 36.3049H154.029V39.6641H161.364V0H153.468ZM146.349 33.5056C142.725 33.5056 139.748 30.5771 139.748 26.9165C139.748 23.2558 142.682 20.3273 146.349 20.3273C150.016 20.3273 152.95 23.2558 152.95 26.9165C152.95 30.5771 150.016 33.5056 146.349 33.5056Z" fill="white"/>
</svg>