<svg width="164" height="167" viewBox="0 0 164 167" fill="none" xmlns="http://www.w3.org/2000/svg">
<g opacity="0.87">
<path d="M0.485406 146C0.401406 146 0.331406 145.972 0.275406 145.916C0.219406 145.851 0.191406 145.781 0.191406 145.706C0.191406 145.659 0.196073 145.617 0.205406 145.58L3.53741 136.578C3.56541 136.475 3.62141 136.387 3.70541 136.312C3.78941 136.237 3.90607 136.2 4.05541 136.2H5.84741C5.99674 136.2 6.11341 136.237 6.19741 136.312C6.28141 136.387 6.33741 136.475 6.36541 136.578L9.69741 145.58C9.70674 145.617 9.71141 145.659 9.71141 145.706C9.71141 145.781 9.68341 145.851 9.62741 145.916C9.57141 145.972 9.50141 146 9.41741 146H7.96141C7.82141 146 7.71874 145.967 7.65341 145.902C7.58807 145.837 7.54607 145.776 7.52741 145.72L6.92541 144.152H2.97741L2.37541 145.72C2.35674 145.776 2.31474 145.837 2.24941 145.902C2.18407 145.967 2.08141 146 1.94141 146H0.485406ZM3.49541 142.346H6.39341L4.95141 138.314L3.49541 142.346Z" fill="white"/>
<path d="M11.1128 148.66C11.0102 148.66 10.9262 148.627 10.8608 148.562C10.7955 148.497 10.7628 148.413 10.7628 148.31V139.07C10.7628 138.967 10.7955 138.883 10.8608 138.818C10.9262 138.753 11.0102 138.72 11.1128 138.72H12.4428C12.5455 138.72 12.6295 138.753 12.6948 138.818C12.7602 138.883 12.7928 138.967 12.7928 139.07V139.602C13.0168 139.303 13.3062 139.061 13.6608 138.874C14.0155 138.678 14.4588 138.58 14.9908 138.58C15.4762 138.58 15.8962 138.659 16.2508 138.818C16.6148 138.967 16.9182 139.187 17.1608 139.476C17.4128 139.756 17.6042 140.097 17.7348 140.498C17.8748 140.899 17.9542 141.352 17.9728 141.856C17.9822 142.033 17.9868 142.201 17.9868 142.36C17.9868 142.519 17.9822 142.691 17.9728 142.878C17.9635 143.354 17.8888 143.793 17.7488 144.194C17.6182 144.595 17.4268 144.941 17.1748 145.23C16.9228 145.519 16.6148 145.743 16.2508 145.902C15.8962 146.061 15.4762 146.14 14.9908 146.14C14.5148 146.14 14.0995 146.056 13.7448 145.888C13.3995 145.711 13.1148 145.473 12.8908 145.174V148.31C12.8908 148.413 12.8582 148.497 12.7928 148.562C12.7275 148.627 12.6482 148.66 12.5548 148.66H11.1128ZM14.3608 144.46C14.7155 144.46 14.9955 144.385 15.2008 144.236C15.4062 144.077 15.5508 143.872 15.6348 143.62C15.7282 143.368 15.7842 143.093 15.8028 142.794C15.8215 142.505 15.8215 142.215 15.8028 141.926C15.7842 141.627 15.7282 141.352 15.6348 141.1C15.5508 140.848 15.4062 140.647 15.2008 140.498C14.9955 140.339 14.7155 140.26 14.3608 140.26C14.0155 140.26 13.7355 140.339 13.5208 140.498C13.3062 140.657 13.1522 140.857 13.0588 141.1C12.9655 141.343 12.9095 141.604 12.8908 141.884C12.8815 142.052 12.8768 142.225 12.8768 142.402C12.8768 142.579 12.8815 142.757 12.8908 142.934C12.9002 143.195 12.9562 143.443 13.0588 143.676C13.1708 143.9 13.3295 144.087 13.5348 144.236C13.7495 144.385 14.0248 144.46 14.3608 144.46Z" fill="white"/>
<path d="M22.7198 146.14C21.6465 146.14 20.7925 145.841 20.1578 145.244C19.5325 144.647 19.2011 143.779 19.1638 142.64C19.1638 142.565 19.1638 142.467 19.1638 142.346C19.1638 142.215 19.1638 142.113 19.1638 142.038C19.2011 141.319 19.3645 140.703 19.6538 140.19C19.9431 139.667 20.3491 139.271 20.8718 139C21.3945 138.72 22.0058 138.58 22.7058 138.58C23.4898 138.58 24.1431 138.743 24.6658 139.07C25.1978 139.387 25.5945 139.826 25.8558 140.386C26.1265 140.937 26.2618 141.571 26.2618 142.29V142.612C26.2618 142.705 26.2245 142.785 26.1498 142.85C26.0845 142.915 26.0051 142.948 25.9118 142.948H21.3338C21.3338 142.957 21.3338 142.976 21.3338 143.004C21.3338 143.023 21.3338 143.041 21.3338 143.06C21.3431 143.359 21.3991 143.634 21.5018 143.886C21.6138 144.129 21.7678 144.325 21.9638 144.474C22.1691 144.623 22.4118 144.698 22.6918 144.698C22.9251 144.698 23.1165 144.665 23.2658 144.6C23.4151 144.535 23.5365 144.455 23.6298 144.362C23.7325 144.269 23.8071 144.189 23.8538 144.124C23.9378 144.031 24.0031 143.975 24.0498 143.956C24.1058 143.928 24.1898 143.914 24.3018 143.914H25.7578C25.8511 143.914 25.9258 143.942 25.9818 143.998C26.0471 144.045 26.0751 144.115 26.0658 144.208C26.0565 144.357 25.9771 144.544 25.8278 144.768C25.6878 144.983 25.4778 145.197 25.1978 145.412C24.9178 145.617 24.5678 145.79 24.1478 145.93C23.7371 146.07 23.2611 146.14 22.7198 146.14ZM21.3338 141.674H24.0778V141.646C24.0778 141.31 24.0218 141.021 23.9098 140.778C23.8071 140.526 23.6531 140.33 23.4478 140.19C23.2425 140.05 22.9951 139.98 22.7058 139.98C22.4165 139.98 22.1691 140.05 21.9638 140.19C21.7585 140.33 21.5998 140.526 21.4878 140.778C21.3851 141.021 21.3338 141.31 21.3338 141.646V141.674Z" fill="white"/>
<path d="M27.9973 146C27.9039 146 27.8246 145.967 27.7593 145.902C27.6939 145.837 27.6613 145.753 27.6613 145.65V139.07C27.6613 138.977 27.6939 138.897 27.7593 138.832C27.8246 138.757 27.9039 138.72 27.9973 138.72H29.3693C29.4626 138.72 29.5419 138.757 29.6073 138.832C29.6819 138.897 29.7193 138.977 29.7193 139.07V139.63C29.9526 139.341 30.2373 139.117 30.5733 138.958C30.9186 138.799 31.3153 138.72 31.7633 138.72H32.3653C32.4586 138.72 32.5379 138.753 32.6033 138.818C32.6686 138.883 32.7013 138.967 32.7013 139.07V140.274C32.7013 140.377 32.6686 140.461 32.6033 140.526C32.5379 140.591 32.4586 140.624 32.3653 140.624H31.1333C30.7226 140.624 30.4006 140.741 30.1673 140.974C29.9339 141.198 29.8173 141.52 29.8173 141.94V145.65C29.8173 145.753 29.7846 145.837 29.7193 145.902C29.6539 145.967 29.5699 146 29.4673 146H27.9973Z" fill="white"/>
<path d="M37.2453 146C36.6666 146 36.1719 145.907 35.7612 145.72C35.3506 145.524 35.0379 145.225 34.8232 144.824C34.6179 144.423 34.5153 143.919 34.5153 143.312V140.372H33.4232C33.3206 140.372 33.2366 140.339 33.1712 140.274C33.1059 140.209 33.0732 140.125 33.0732 140.022V139.07C33.0732 138.967 33.1059 138.883 33.1712 138.818C33.2366 138.753 33.3206 138.72 33.4232 138.72H34.5153V136.41C34.5153 136.307 34.5479 136.223 34.6133 136.158C34.6879 136.093 34.7719 136.06 34.8652 136.06H36.2373C36.3399 136.06 36.4239 136.093 36.4893 136.158C36.5546 136.223 36.5872 136.307 36.5872 136.41V138.72H38.3372C38.4306 138.72 38.5099 138.753 38.5752 138.818C38.6406 138.883 38.6733 138.967 38.6733 139.07V140.022C38.6733 140.125 38.6406 140.209 38.5752 140.274C38.5099 140.339 38.4306 140.372 38.3372 140.372H36.5872V143.144C36.5872 143.499 36.6479 143.779 36.7692 143.984C36.8999 144.18 37.1239 144.278 37.4412 144.278H38.4632C38.5566 144.278 38.6359 144.311 38.7013 144.376C38.7666 144.441 38.7993 144.521 38.7993 144.614V145.65C38.7993 145.753 38.7666 145.837 38.7013 145.902C38.6359 145.967 38.5566 146 38.4632 146H37.2453Z" fill="white"/>
<path d="M43.2686 146.14C42.1953 146.14 41.3413 145.841 40.7066 145.244C40.0813 144.647 39.75 143.779 39.7126 142.64C39.7126 142.565 39.7126 142.467 39.7126 142.346C39.7126 142.215 39.7126 142.113 39.7126 142.038C39.75 141.319 39.9133 140.703 40.2026 140.19C40.492 139.667 40.898 139.271 41.4206 139C41.9433 138.72 42.5546 138.58 43.2546 138.58C44.0386 138.58 44.692 138.743 45.2146 139.07C45.7466 139.387 46.1433 139.826 46.4046 140.386C46.6753 140.937 46.8106 141.571 46.8106 142.29V142.612C46.8106 142.705 46.7733 142.785 46.6986 142.85C46.6333 142.915 46.554 142.948 46.4606 142.948H41.8826C41.8826 142.957 41.8826 142.976 41.8826 143.004C41.8826 143.023 41.8826 143.041 41.8826 143.06C41.892 143.359 41.948 143.634 42.0506 143.886C42.1626 144.129 42.3166 144.325 42.5126 144.474C42.718 144.623 42.9606 144.698 43.2406 144.698C43.474 144.698 43.6653 144.665 43.8146 144.6C43.964 144.535 44.0853 144.455 44.1786 144.362C44.2813 144.269 44.356 144.189 44.4026 144.124C44.4866 144.031 44.552 143.975 44.5986 143.956C44.6546 143.928 44.7386 143.914 44.8506 143.914H46.3066C46.4 143.914 46.4746 143.942 46.5306 143.998C46.596 144.045 46.624 144.115 46.6146 144.208C46.6053 144.357 46.526 144.544 46.3766 144.768C46.2366 144.983 46.0266 145.197 45.7466 145.412C45.4666 145.617 45.1166 145.79 44.6966 145.93C44.286 146.07 43.81 146.14 43.2686 146.14ZM41.8826 141.674H44.6266V141.646C44.6266 141.31 44.5706 141.021 44.4586 140.778C44.356 140.526 44.202 140.33 43.9966 140.19C43.7913 140.05 43.544 139.98 43.2546 139.98C42.9653 139.98 42.718 140.05 42.5126 140.19C42.3073 140.33 42.1486 140.526 42.0366 140.778C41.934 141.021 41.8826 141.31 41.8826 141.646V141.674Z" fill="white"/>
<path d="M54.6319 146.14C53.8573 146.14 53.2086 146.014 52.6859 145.762C52.1633 145.501 51.7619 145.132 51.4819 144.656C51.2113 144.18 51.0619 143.625 51.0339 142.99C51.0246 142.803 51.0199 142.593 51.0199 142.36C51.0199 142.117 51.0246 141.907 51.0339 141.73C51.0619 141.086 51.2206 140.531 51.5099 140.064C51.7993 139.588 52.2053 139.224 52.7279 138.972C53.2506 138.711 53.8853 138.58 54.6319 138.58C55.3693 138.58 55.9993 138.711 56.5219 138.972C57.0446 139.224 57.4506 139.588 57.7399 140.064C58.0293 140.531 58.1879 141.086 58.2159 141.73C58.2346 141.907 58.2439 142.117 58.2439 142.36C58.2439 142.593 58.2346 142.803 58.2159 142.99C58.1879 143.625 58.0339 144.18 57.7539 144.656C57.4833 145.132 57.0866 145.501 56.5639 145.762C56.0413 146.014 55.3973 146.14 54.6319 146.14ZM54.6319 144.6C55.0893 144.6 55.4346 144.46 55.6679 144.18C55.9013 143.891 56.0273 143.471 56.0459 142.92C56.0553 142.78 56.0599 142.593 56.0599 142.36C56.0599 142.127 56.0553 141.94 56.0459 141.8C56.0273 141.259 55.9013 140.843 55.6679 140.554C55.4346 140.265 55.0893 140.12 54.6319 140.12C54.1746 140.12 53.8246 140.265 53.5819 140.554C53.3486 140.843 53.2226 141.259 53.2039 141.8C53.1946 141.94 53.1899 142.127 53.1899 142.36C53.1899 142.593 53.1946 142.78 53.2039 142.92C53.2226 143.471 53.3486 143.891 53.5819 144.18C53.8246 144.46 54.1746 144.6 54.6319 144.6Z" fill="white"/>
<path d="M63.302 146C63.1993 146 63.1153 145.967 63.05 145.902C62.9847 145.837 62.952 145.753 62.952 145.65V136.55C62.952 136.447 62.9847 136.363 63.05 136.298C63.1153 136.233 63.1993 136.2 63.302 136.2H67.124C67.88 136.2 68.5333 136.317 69.084 136.55C69.644 136.783 70.078 137.138 70.386 137.614C70.7033 138.081 70.862 138.664 70.862 139.364C70.862 140.073 70.7033 140.661 70.386 141.128C70.078 141.585 69.644 141.926 69.084 142.15C68.5333 142.374 67.88 142.486 67.124 142.486H65.248V145.65C65.248 145.753 65.2153 145.837 65.15 145.902C65.0847 145.967 65.0007 146 64.898 146H63.302ZM65.206 140.75H67.054C67.53 140.75 67.8986 140.633 68.16 140.4C68.4306 140.167 68.566 139.817 68.566 139.35C68.566 138.939 68.4447 138.603 68.202 138.342C67.9687 138.081 67.586 137.95 67.054 137.95H65.206V140.75Z" fill="white"/>
<path d="M72.4859 146C72.3832 146 72.2992 145.967 72.2339 145.902C72.1685 145.837 72.1359 145.753 72.1359 145.65V136.41C72.1359 136.307 72.1685 136.223 72.2339 136.158C72.2992 136.093 72.3832 136.06 72.4859 136.06H73.8859C73.9792 136.06 74.0585 136.093 74.1239 136.158C74.1892 136.223 74.2219 136.307 74.2219 136.41V145.65C74.2219 145.753 74.1892 145.837 74.1239 145.902C74.0585 145.967 73.9792 146 73.8859 146H72.4859Z" fill="white"/>
<path d="M78.1333 146.14C77.6387 146.14 77.1953 146.047 76.8033 145.86C76.4113 145.664 76.0987 145.403 75.8653 145.076C75.632 144.749 75.5153 144.385 75.5153 143.984C75.5153 143.321 75.7813 142.799 76.3133 142.416C76.8547 142.033 77.564 141.772 78.4413 141.632L80.2753 141.366V141.114C80.2753 140.75 80.1913 140.47 80.0233 140.274C79.8553 140.078 79.5613 139.98 79.1413 139.98C78.8333 139.98 78.586 140.041 78.3993 140.162C78.2127 140.283 78.068 140.442 77.9653 140.638C77.8907 140.759 77.7833 140.82 77.6433 140.82H76.3133C76.2107 140.82 76.1313 140.792 76.0753 140.736C76.0193 140.671 75.996 140.596 76.0053 140.512C76.0053 140.353 76.066 140.167 76.1873 139.952C76.3087 139.737 76.4953 139.527 76.7473 139.322C76.9993 139.107 77.3213 138.93 77.7133 138.79C78.1053 138.65 78.586 138.58 79.1553 138.58C79.7433 138.58 80.2473 138.65 80.6673 138.79C81.0873 138.93 81.4233 139.126 81.6753 139.378C81.9273 139.63 82.114 139.924 82.2353 140.26C82.3567 140.587 82.4173 140.941 82.4173 141.324V145.65C82.4173 145.753 82.3847 145.837 82.3193 145.902C82.254 145.967 82.17 146 82.0673 146H80.6953C80.602 146 80.5227 145.967 80.4573 145.902C80.392 145.837 80.3593 145.753 80.3593 145.65V145.132C80.238 145.309 80.0747 145.477 79.8693 145.636C79.664 145.785 79.4167 145.907 79.1273 146C78.8473 146.093 78.516 146.14 78.1333 146.14ZM78.6933 144.684C79.0013 144.684 79.2767 144.619 79.5193 144.488C79.762 144.357 79.9533 144.157 80.0933 143.886C80.2333 143.615 80.3033 143.275 80.3033 142.864V142.626L79.0013 142.836C78.4973 142.92 78.1287 143.046 77.8953 143.214C77.662 143.382 77.5453 143.587 77.5453 143.83C77.5453 144.007 77.5967 144.161 77.6993 144.292C77.8113 144.423 77.956 144.521 78.1333 144.586C78.3107 144.651 78.4973 144.684 78.6933 144.684Z" fill="white"/>
<path d="M85.2237 148.66C85.149 148.66 85.079 148.632 85.0137 148.576C84.9577 148.52 84.9297 148.45 84.9297 148.366C84.9297 148.347 84.9344 148.319 84.9437 148.282C84.953 148.254 84.967 148.217 84.9857 148.17L86.0777 145.552L83.3897 139.21C83.3617 139.135 83.3477 139.075 83.3477 139.028C83.357 138.944 83.3897 138.874 83.4457 138.818C83.5017 138.753 83.5717 138.72 83.6557 138.72H85.0137C85.135 138.72 85.2237 138.753 85.2797 138.818C85.3357 138.874 85.3777 138.935 85.4057 139L87.1417 143.34L88.9197 139C88.957 138.925 89.0037 138.86 89.0597 138.804C89.1157 138.748 89.2044 138.72 89.3257 138.72H90.6557C90.7397 138.72 90.8097 138.753 90.8657 138.818C90.931 138.874 90.9637 138.939 90.9637 139.014C90.9637 139.061 90.945 139.126 90.9077 139.21L86.9457 148.38C86.9177 148.455 86.871 148.52 86.8057 148.576C86.7497 148.632 86.661 148.66 86.5397 148.66H85.2237Z" fill="white"/>
<path d="M98.0655 146.14C96.9922 146.14 96.1382 145.841 95.5035 145.244C94.8782 144.647 94.5468 143.779 94.5095 142.64C94.5095 142.565 94.5095 142.467 94.5095 142.346C94.5095 142.215 94.5095 142.113 94.5095 142.038C94.5468 141.319 94.7102 140.703 94.9995 140.19C95.2889 139.667 95.6948 139.271 96.2175 139C96.7402 138.72 97.3515 138.58 98.0515 138.58C98.8355 138.58 99.4888 138.743 100.012 139.07C100.544 139.387 100.94 139.826 101.202 140.386C101.472 140.937 101.608 141.571 101.608 142.29V142.612C101.608 142.705 101.57 142.785 101.496 142.85C101.43 142.915 101.351 142.948 101.258 142.948H96.6795C96.6795 142.957 96.6795 142.976 96.6795 143.004C96.6795 143.023 96.6795 143.041 96.6795 143.06C96.6888 143.359 96.7449 143.634 96.8475 143.886C96.9595 144.129 97.1135 144.325 97.3095 144.474C97.5149 144.623 97.7575 144.698 98.0375 144.698C98.2708 144.698 98.4622 144.665 98.6115 144.6C98.7609 144.535 98.8822 144.455 98.9755 144.362C99.0782 144.269 99.1528 144.189 99.1995 144.124C99.2835 144.031 99.3488 143.975 99.3955 143.956C99.4515 143.928 99.5355 143.914 99.6475 143.914H101.104C101.197 143.914 101.272 143.942 101.328 143.998C101.393 144.045 101.421 144.115 101.412 144.208C101.402 144.357 101.323 144.544 101.174 144.768C101.034 144.983 100.824 145.197 100.544 145.412C100.264 145.617 99.9135 145.79 99.4935 145.93C99.0828 146.07 98.6068 146.14 98.0655 146.14ZM96.6795 141.674H99.4235V141.646C99.4235 141.31 99.3675 141.021 99.2555 140.778C99.1528 140.526 98.9989 140.33 98.7935 140.19C98.5882 140.05 98.3408 139.98 98.0515 139.98C97.7622 139.98 97.5149 140.05 97.3095 140.19C97.1042 140.33 96.9455 140.526 96.8335 140.778C96.7309 141.021 96.6795 141.31 96.6795 141.646V141.674Z" fill="white"/>
<path d="M109.331 146.14C108.649 146.14 108.047 146.014 107.525 145.762C107.011 145.51 106.605 145.146 106.307 144.67C106.008 144.185 105.845 143.606 105.817 142.934C105.807 142.785 105.803 142.598 105.803 142.374C105.803 142.141 105.807 141.949 105.817 141.8C105.845 141.119 106.003 140.54 106.293 140.064C106.591 139.579 107.002 139.21 107.525 138.958C108.047 138.706 108.649 138.58 109.331 138.58C109.956 138.58 110.488 138.669 110.927 138.846C111.365 139.014 111.725 139.229 112.005 139.49C112.285 139.751 112.49 140.027 112.621 140.316C112.761 140.596 112.835 140.843 112.845 141.058C112.854 141.151 112.821 141.235 112.747 141.31C112.681 141.375 112.602 141.408 112.509 141.408H111.011C110.917 141.408 110.843 141.385 110.787 141.338C110.74 141.282 110.693 141.207 110.647 141.114C110.516 140.787 110.348 140.554 110.143 140.414C109.937 140.274 109.681 140.204 109.373 140.204C108.953 140.204 108.621 140.339 108.379 140.61C108.136 140.881 108.005 141.301 107.987 141.87C107.977 142.234 107.977 142.565 107.987 142.864C108.015 143.443 108.145 143.863 108.379 144.124C108.621 144.385 108.953 144.516 109.373 144.516C109.699 144.516 109.961 144.446 110.157 144.306C110.353 144.166 110.516 143.933 110.647 143.606C110.684 143.513 110.731 143.443 110.787 143.396C110.843 143.34 110.917 143.312 111.011 143.312H112.509C112.602 143.312 112.681 143.349 112.747 143.424C112.821 143.489 112.854 143.569 112.845 143.662C112.835 143.821 112.789 144.007 112.705 144.222C112.63 144.437 112.504 144.656 112.327 144.88C112.159 145.104 111.939 145.314 111.669 145.51C111.398 145.697 111.067 145.851 110.675 145.972C110.292 146.084 109.844 146.14 109.331 146.14Z" fill="white"/>
<path d="M117.55 146.14C116.775 146.14 116.127 146.014 115.604 145.762C115.081 145.501 114.68 145.132 114.4 144.656C114.129 144.18 113.98 143.625 113.952 142.99C113.943 142.803 113.938 142.593 113.938 142.36C113.938 142.117 113.943 141.907 113.952 141.73C113.98 141.086 114.139 140.531 114.428 140.064C114.717 139.588 115.123 139.224 115.646 138.972C116.169 138.711 116.803 138.58 117.55 138.58C118.287 138.58 118.917 138.711 119.44 138.972C119.963 139.224 120.369 139.588 120.658 140.064C120.947 140.531 121.106 141.086 121.134 141.73C121.153 141.907 121.162 142.117 121.162 142.36C121.162 142.593 121.153 142.803 121.134 142.99C121.106 143.625 120.952 144.18 120.672 144.656C120.401 145.132 120.005 145.501 119.482 145.762C118.959 146.014 118.315 146.14 117.55 146.14ZM117.55 144.6C118.007 144.6 118.353 144.46 118.586 144.18C118.819 143.891 118.945 143.471 118.964 142.92C118.973 142.78 118.978 142.593 118.978 142.36C118.978 142.127 118.973 141.94 118.964 141.8C118.945 141.259 118.819 140.843 118.586 140.554C118.353 140.265 118.007 140.12 117.55 140.12C117.093 140.12 116.743 140.265 116.5 140.554C116.267 140.843 116.141 141.259 116.122 141.8C116.113 141.94 116.108 142.127 116.108 142.36C116.108 142.593 116.113 142.78 116.122 142.92C116.141 143.471 116.267 143.891 116.5 144.18C116.743 144.46 117.093 144.6 117.55 144.6Z" fill="white"/>
<path d="M122.962 146C122.869 146 122.789 145.967 122.724 145.902C122.659 145.837 122.626 145.753 122.626 145.65V139.07C122.626 138.967 122.659 138.883 122.724 138.818C122.789 138.753 122.869 138.72 122.962 138.72H124.334C124.437 138.72 124.521 138.753 124.586 138.818C124.651 138.883 124.684 138.967 124.684 139.07V139.616C124.927 139.317 125.239 139.07 125.622 138.874C126.005 138.678 126.471 138.58 127.022 138.58C127.573 138.58 128.053 138.706 128.464 138.958C128.884 139.201 129.211 139.56 129.444 140.036C129.687 140.503 129.808 141.072 129.808 141.744V145.65C129.808 145.753 129.771 145.837 129.696 145.902C129.631 145.967 129.551 146 129.458 146H127.974C127.871 146 127.787 145.967 127.722 145.902C127.657 145.837 127.624 145.753 127.624 145.65V141.828C127.624 141.333 127.503 140.951 127.26 140.68C127.027 140.4 126.681 140.26 126.224 140.26C125.785 140.26 125.435 140.4 125.174 140.68C124.913 140.951 124.782 141.333 124.782 141.828V145.65C124.782 145.753 124.749 145.837 124.684 145.902C124.619 145.967 124.539 146 124.446 146H122.962Z" fill="white"/>
<path d="M131.835 146C131.733 146 131.649 145.967 131.583 145.902C131.518 145.837 131.485 145.753 131.485 145.65V136.41C131.485 136.307 131.518 136.223 131.583 136.158C131.649 136.093 131.733 136.06 131.835 136.06H133.347C133.441 136.06 133.52 136.093 133.585 136.158C133.651 136.223 133.683 136.307 133.683 136.41V139.56C133.935 139.261 134.243 139.023 134.607 138.846C134.971 138.669 135.41 138.58 135.923 138.58C136.474 138.58 136.959 138.706 137.379 138.958C137.809 139.201 138.145 139.56 138.387 140.036C138.63 140.503 138.751 141.072 138.751 141.744V145.65C138.751 145.753 138.719 145.837 138.653 145.902C138.588 145.967 138.504 146 138.401 146H136.875C136.782 146 136.703 145.967 136.637 145.902C136.572 145.837 136.539 145.753 136.539 145.65V141.828C136.539 141.333 136.418 140.951 136.175 140.68C135.933 140.4 135.587 140.26 135.139 140.26C134.701 140.26 134.346 140.4 134.075 140.68C133.814 140.951 133.683 141.333 133.683 141.828V145.65C133.683 145.753 133.651 145.837 133.585 145.902C133.52 145.967 133.441 146 133.347 146H131.835Z" fill="white"/>
<path d="M143.675 146.14C142.602 146.14 141.748 145.841 141.113 145.244C140.488 144.647 140.156 143.779 140.119 142.64C140.119 142.565 140.119 142.467 140.119 142.346C140.119 142.215 140.119 142.113 140.119 142.038C140.156 141.319 140.32 140.703 140.609 140.19C140.898 139.667 141.304 139.271 141.827 139C142.35 138.72 142.961 138.58 143.661 138.58C144.445 138.58 145.098 138.743 145.621 139.07C146.153 139.387 146.55 139.826 146.811 140.386C147.082 140.937 147.217 141.571 147.217 142.29V142.612C147.217 142.705 147.18 142.785 147.105 142.85C147.04 142.915 146.96 142.948 146.867 142.948H142.289C142.289 142.957 142.289 142.976 142.289 143.004C142.289 143.023 142.289 143.041 142.289 143.06C142.298 143.359 142.354 143.634 142.457 143.886C142.569 144.129 142.723 144.325 142.919 144.474C143.124 144.623 143.367 144.698 143.647 144.698C143.88 144.698 144.072 144.665 144.221 144.6C144.37 144.535 144.492 144.455 144.585 144.362C144.688 144.269 144.762 144.189 144.809 144.124C144.893 144.031 144.958 143.975 145.005 143.956C145.061 143.928 145.145 143.914 145.257 143.914H146.713C146.806 143.914 146.881 143.942 146.937 143.998C147.002 144.045 147.03 144.115 147.021 144.208C147.012 144.357 146.932 144.544 146.783 144.768C146.643 144.983 146.433 145.197 146.153 145.412C145.873 145.617 145.523 145.79 145.103 145.93C144.692 146.07 144.216 146.14 143.675 146.14ZM142.289 141.674H145.033V141.646C145.033 141.31 144.977 141.021 144.865 140.778C144.762 140.526 144.608 140.33 144.403 140.19C144.198 140.05 143.95 139.98 143.661 139.98C143.372 139.98 143.124 140.05 142.919 140.19C142.714 140.33 142.555 140.526 142.443 140.778C142.34 141.021 142.289 141.31 142.289 141.646V141.674Z" fill="white"/>
<path d="M151.836 149.08C151.584 149.08 151.356 149.038 151.15 148.954C150.954 148.87 150.81 148.772 150.716 148.66C150.632 148.548 150.637 148.45 150.73 148.366L150.982 148.142C151.066 148.067 151.136 148.044 151.192 148.072C151.258 148.109 151.337 148.156 151.43 148.212C151.524 148.268 151.659 148.296 151.836 148.296C151.986 148.296 152.107 148.254 152.2 148.17C152.294 148.086 152.34 147.979 152.34 147.848C152.34 147.727 152.294 147.624 152.2 147.54C152.107 147.456 151.986 147.414 151.836 147.414C151.724 147.414 151.622 147.428 151.528 147.456C151.435 147.493 151.346 147.517 151.262 147.526C151.188 147.535 151.118 147.507 151.052 147.442L150.786 147.176C150.73 147.12 150.707 147.055 150.716 146.98C150.726 146.915 150.754 146.831 150.8 146.728L151.094 146.084C150.282 145.953 149.629 145.617 149.134 145.076C148.64 144.535 148.374 143.821 148.336 142.934C148.327 142.785 148.322 142.598 148.322 142.374C148.322 142.141 148.327 141.949 148.336 141.8C148.364 141.119 148.523 140.54 148.812 140.064C149.111 139.579 149.522 139.21 150.044 138.958C150.567 138.706 151.169 138.58 151.85 138.58C152.476 138.58 153.008 138.669 153.446 138.846C153.885 139.014 154.244 139.229 154.524 139.49C154.804 139.751 155.01 140.027 155.14 140.316C155.28 140.596 155.355 140.843 155.364 141.058C155.374 141.151 155.341 141.235 155.266 141.31C155.201 141.375 155.122 141.408 155.028 141.408H153.53C153.437 141.408 153.362 141.385 153.306 141.338C153.26 141.282 153.213 141.207 153.166 141.114C153.036 140.787 152.868 140.554 152.662 140.414C152.457 140.274 152.2 140.204 151.892 140.204C151.472 140.204 151.141 140.339 150.898 140.61C150.656 140.881 150.525 141.301 150.506 141.87C150.497 142.234 150.497 142.565 150.506 142.864C150.534 143.443 150.665 143.863 150.898 144.124C151.141 144.385 151.472 144.516 151.892 144.516C152.219 144.516 152.48 144.446 152.676 144.306C152.872 144.166 153.036 143.933 153.166 143.606C153.204 143.513 153.25 143.443 153.306 143.396C153.362 143.34 153.437 143.312 153.53 143.312H155.028C155.122 143.312 155.201 143.349 155.266 143.424C155.341 143.489 155.374 143.569 155.364 143.662C155.355 143.858 155.285 144.096 155.154 144.376C155.024 144.656 154.823 144.931 154.552 145.202C154.291 145.463 153.941 145.683 153.502 145.86C153.064 146.037 152.532 146.131 151.906 146.14L151.626 146.714C151.682 146.686 151.757 146.663 151.85 146.644C151.953 146.635 152.032 146.63 152.088 146.63C152.424 146.63 152.69 146.742 152.886 146.966C153.092 147.19 153.194 147.479 153.194 147.834C153.194 148.189 153.073 148.483 152.83 148.716C152.597 148.959 152.266 149.08 151.836 149.08Z" fill="white"/>
<path d="M158.879 146.14C158.385 146.14 157.941 146.047 157.549 145.86C157.157 145.664 156.845 145.403 156.611 145.076C156.378 144.749 156.261 144.385 156.261 143.984C156.261 143.321 156.527 142.799 157.059 142.416C157.601 142.033 158.31 141.772 159.187 141.632L161.021 141.366V141.114C161.021 140.75 160.937 140.47 160.769 140.274C160.601 140.078 160.307 139.98 159.887 139.98C159.579 139.98 159.332 140.041 159.145 140.162C158.959 140.283 158.814 140.442 158.711 140.638C158.637 140.759 158.529 140.82 158.389 140.82H157.059C156.957 140.82 156.877 140.792 156.821 140.736C156.765 140.671 156.742 140.596 156.751 140.512C156.751 140.353 156.812 140.167 156.933 139.952C157.055 139.737 157.241 139.527 157.493 139.322C157.745 139.107 158.067 138.93 158.459 138.79C158.851 138.65 159.332 138.58 159.901 138.58C160.489 138.58 160.993 138.65 161.413 138.79C161.833 138.93 162.169 139.126 162.421 139.378C162.673 139.63 162.86 139.924 162.981 140.26C163.103 140.587 163.163 140.941 163.163 141.324V145.65C163.163 145.753 163.131 145.837 163.065 145.902C163 145.967 162.916 146 162.813 146H161.441C161.348 146 161.269 145.967 161.203 145.902C161.138 145.837 161.105 145.753 161.105 145.65V145.132C160.984 145.309 160.821 145.477 160.615 145.636C160.41 145.785 160.163 145.907 159.873 146C159.593 146.093 159.262 146.14 158.879 146.14ZM159.439 144.684C159.747 144.684 160.023 144.619 160.265 144.488C160.508 144.357 160.699 144.157 160.839 143.886C160.979 143.615 161.049 143.275 161.049 142.864V142.626L159.747 142.836C159.243 142.92 158.875 143.046 158.641 143.214C158.408 143.382 158.291 143.587 158.291 143.83C158.291 144.007 158.343 144.161 158.445 144.292C158.557 144.423 158.702 144.521 158.879 144.586C159.057 144.651 159.243 144.684 159.439 144.684Z" fill="white"/>
<path d="M30.631 163.14C29.8563 163.14 29.2076 163.014 28.685 162.762C28.1623 162.501 27.761 162.132 27.481 161.656C27.2103 161.18 27.061 160.625 27.033 159.99C27.0236 159.803 27.019 159.593 27.019 159.36C27.019 159.117 27.0236 158.907 27.033 158.73C27.061 158.086 27.2196 157.531 27.509 157.064C27.7983 156.588 28.2043 156.224 28.727 155.972C29.2496 155.711 29.8843 155.58 30.631 155.58C31.3683 155.58 31.9983 155.711 32.521 155.972C33.0436 156.224 33.4496 156.588 33.739 157.064C34.0283 157.531 34.187 158.086 34.215 158.73C34.2336 158.907 34.243 159.117 34.243 159.36C34.243 159.593 34.2336 159.803 34.215 159.99C34.187 160.625 34.033 161.18 33.753 161.656C33.4823 162.132 33.0856 162.501 32.563 162.762C32.0403 163.014 31.3963 163.14 30.631 163.14ZM30.631 161.6C31.0883 161.6 31.4336 161.46 31.667 161.18C31.9003 160.891 32.0263 160.471 32.045 159.92C32.0543 159.78 32.059 159.593 32.059 159.36C32.059 159.127 32.0543 158.94 32.045 158.8C32.0263 158.259 31.9003 157.843 31.667 157.554C31.4336 157.265 31.0883 157.12 30.631 157.12C30.1736 157.12 29.8236 157.265 29.581 157.554C29.3476 157.843 29.2216 158.259 29.203 158.8C29.1936 158.94 29.189 159.127 29.189 159.36C29.189 159.593 29.1936 159.78 29.203 159.92C29.2216 160.471 29.3476 160.891 29.581 161.18C29.8236 161.46 30.1736 161.6 30.631 161.6Z" fill="white"/>
<path d="M39.301 163C39.1983 163 39.1143 162.967 39.049 162.902C38.9837 162.837 38.951 162.753 38.951 162.65V153.55C38.951 153.447 38.9837 153.363 39.049 153.298C39.1143 153.233 39.1983 153.2 39.301 153.2H43.123C43.879 153.2 44.5323 153.317 45.083 153.55C45.643 153.783 46.077 154.138 46.385 154.614C46.7023 155.081 46.861 155.664 46.861 156.364C46.861 157.073 46.7023 157.661 46.385 158.128C46.077 158.585 45.643 158.926 45.083 159.15C44.5323 159.374 43.879 159.486 43.123 159.486H41.247V162.65C41.247 162.753 41.2143 162.837 41.149 162.902C41.0837 162.967 40.9997 163 40.897 163H39.301ZM41.205 157.75H43.053C43.529 157.75 43.8977 157.633 44.159 157.4C44.4297 157.167 44.565 156.817 44.565 156.35C44.565 155.939 44.4437 155.603 44.201 155.342C43.9677 155.081 43.585 154.95 43.053 154.95H41.205V157.75Z" fill="white"/>
<path d="M48.4709 163C48.3776 163 48.2982 162.967 48.2329 162.902C48.1676 162.837 48.1349 162.753 48.1349 162.65V156.07C48.1349 155.977 48.1676 155.897 48.2329 155.832C48.2982 155.757 48.3776 155.72 48.4709 155.72H49.8429C49.9362 155.72 50.0156 155.757 50.0809 155.832C50.1556 155.897 50.1929 155.977 50.1929 156.07V156.63C50.4262 156.341 50.7109 156.117 51.0469 155.958C51.3922 155.799 51.7889 155.72 52.2369 155.72H52.8389C52.9322 155.72 53.0116 155.753 53.0769 155.818C53.1422 155.883 53.1749 155.967 53.1749 156.07V157.274C53.1749 157.377 53.1422 157.461 53.0769 157.526C53.0116 157.591 52.9322 157.624 52.8389 157.624H51.6069C51.1962 157.624 50.8742 157.741 50.6409 157.974C50.4076 158.198 50.2909 158.52 50.2909 158.94V162.65C50.2909 162.753 50.2582 162.837 50.1929 162.902C50.1276 162.967 50.0436 163 49.9409 163H48.4709Z" fill="white"/>
<path d="M57.4689 163.14C56.6942 163.14 56.0455 163.014 55.5229 162.762C55.0002 162.501 54.5989 162.132 54.3189 161.656C54.0482 161.18 53.8989 160.625 53.8709 159.99C53.8615 159.803 53.8569 159.593 53.8569 159.36C53.8569 159.117 53.8615 158.907 53.8709 158.73C53.8989 158.086 54.0575 157.531 54.3469 157.064C54.6362 156.588 55.0422 156.224 55.5648 155.972C56.0875 155.711 56.7222 155.58 57.4689 155.58C58.2062 155.58 58.8362 155.711 59.3589 155.972C59.8815 156.224 60.2875 156.588 60.5769 157.064C60.8662 157.531 61.0249 158.086 61.0529 158.73C61.0715 158.907 61.0809 159.117 61.0809 159.36C61.0809 159.593 61.0715 159.803 61.0529 159.99C61.0249 160.625 60.8709 161.18 60.5909 161.656C60.3202 162.132 59.9235 162.501 59.4009 162.762C58.8782 163.014 58.2342 163.14 57.4689 163.14ZM57.4689 161.6C57.9262 161.6 58.2715 161.46 58.5049 161.18C58.7382 160.891 58.8642 160.471 58.8829 159.92C58.8922 159.78 58.8969 159.593 58.8969 159.36C58.8969 159.127 58.8922 158.94 58.8829 158.8C58.8642 158.259 58.7382 157.843 58.5049 157.554C58.2715 157.265 57.9262 157.12 57.4689 157.12C57.0115 157.12 56.6615 157.265 56.4188 157.554C56.1855 157.843 56.0595 158.259 56.0409 158.8C56.0315 158.94 56.0269 159.127 56.0269 159.36C56.0269 159.593 56.0315 159.78 56.0409 159.92C56.0595 160.471 56.1855 160.891 56.4188 161.18C56.6615 161.46 57.0115 161.6 57.4689 161.6Z" fill="white"/>
<path d="M65.9611 166.08C65.2704 166.08 64.6964 165.987 64.2391 165.8C63.7817 165.623 63.4177 165.403 63.1471 165.142C62.8857 164.89 62.6991 164.638 62.5871 164.386C62.4751 164.134 62.4144 163.938 62.4051 163.798C62.3957 163.695 62.4284 163.611 62.5031 163.546C62.5777 163.481 62.6617 163.448 62.7551 163.448H64.2531C64.3371 163.448 64.4071 163.467 64.4631 163.504C64.5284 163.551 64.5797 163.625 64.6171 163.728C64.6637 163.84 64.7291 163.957 64.8131 164.078C64.8971 164.209 65.0231 164.316 65.1911 164.4C65.3684 164.484 65.6017 164.526 65.8911 164.526C66.2177 164.526 66.4884 164.479 66.7031 164.386C66.9177 164.293 67.0764 164.134 67.1791 163.91C67.2911 163.686 67.3471 163.383 67.3471 163V162.062C67.1231 162.305 66.8384 162.505 66.4931 162.664C66.1571 162.823 65.7417 162.902 65.2471 162.902C64.7617 162.902 64.3324 162.827 63.9591 162.678C63.5951 162.519 63.2917 162.3 63.0491 162.02C62.8064 161.731 62.6197 161.385 62.4891 160.984C62.3584 160.583 62.2837 160.13 62.2651 159.626C62.2557 159.374 62.2557 159.127 62.2651 158.884C62.2837 158.399 62.3584 157.955 62.4891 157.554C62.6197 157.153 62.8064 156.807 63.0491 156.518C63.2917 156.219 63.5951 155.991 63.9591 155.832C64.3324 155.664 64.7617 155.58 65.2471 155.58C65.7604 155.58 66.1991 155.678 66.5631 155.874C66.9271 156.07 67.2257 156.313 67.4591 156.602V156.07C67.4591 155.977 67.4917 155.897 67.5571 155.832C67.6224 155.757 67.7017 155.72 67.7951 155.72H69.1671C69.2604 155.72 69.3397 155.757 69.4051 155.832C69.4797 155.897 69.5171 155.977 69.5171 156.07L69.5311 162.804C69.5311 163.504 69.3957 164.097 69.1251 164.582C68.8544 165.067 68.4531 165.436 67.9211 165.688C67.3984 165.949 66.7451 166.08 65.9611 166.08ZM65.8911 161.264C66.2271 161.264 66.4977 161.189 66.7031 161.04C66.9177 160.881 67.0764 160.685 67.1791 160.452C67.2817 160.209 67.3377 159.957 67.3471 159.696C67.3564 159.593 67.3611 159.449 67.3611 159.262C67.3611 159.066 67.3564 158.917 67.3471 158.814C67.3377 158.553 67.2817 158.305 67.1791 158.072C67.0764 157.829 66.9177 157.633 66.7031 157.484C66.4977 157.335 66.2271 157.26 65.8911 157.26C65.5364 157.26 65.2564 157.339 65.0511 157.498C64.8457 157.647 64.6964 157.848 64.6031 158.1C64.5097 158.352 64.4537 158.627 64.4351 158.926C64.4257 159.15 64.4257 159.369 64.4351 159.584C64.4537 159.892 64.5097 160.172 64.6031 160.424C64.6964 160.676 64.8457 160.881 65.0511 161.04C65.2564 161.189 65.5364 161.264 65.8911 161.264Z" fill="white"/>
<path d="M71.6311 163C71.5377 163 71.4584 162.967 71.3931 162.902C71.3277 162.837 71.2951 162.753 71.2951 162.65V156.07C71.2951 155.977 71.3277 155.897 71.3931 155.832C71.4584 155.757 71.5377 155.72 71.6311 155.72H73.0031C73.0964 155.72 73.1757 155.757 73.2411 155.832C73.3157 155.897 73.3531 155.977 73.3531 156.07V156.63C73.5864 156.341 73.8711 156.117 74.2071 155.958C74.5524 155.799 74.9491 155.72 75.3971 155.72H75.9991C76.0924 155.72 76.1717 155.753 76.2371 155.818C76.3024 155.883 76.3351 155.967 76.3351 156.07V157.274C76.3351 157.377 76.3024 157.461 76.2371 157.526C76.1717 157.591 76.0924 157.624 75.9991 157.624H74.7671C74.3564 157.624 74.0344 157.741 73.8011 157.974C73.5677 158.198 73.4511 158.52 73.4511 158.94V162.65C73.4511 162.753 73.4184 162.837 73.3531 162.902C73.2877 162.967 73.2037 163 73.1011 163H71.6311Z" fill="white"/>
<path d="M79.398 163.14C78.9033 163.14 78.46 163.047 78.068 162.86C77.676 162.664 77.3633 162.403 77.13 162.076C76.8967 161.749 76.78 161.385 76.78 160.984C76.78 160.321 77.046 159.799 77.578 159.416C78.1193 159.033 78.8287 158.772 79.706 158.632L81.54 158.366V158.114C81.54 157.75 81.456 157.47 81.288 157.274C81.12 157.078 80.826 156.98 80.406 156.98C80.098 156.98 79.8507 157.041 79.664 157.162C79.4773 157.283 79.3327 157.442 79.23 157.638C79.1553 157.759 79.048 157.82 78.908 157.82H77.578C77.4753 157.82 77.396 157.792 77.34 157.736C77.284 157.671 77.2607 157.596 77.27 157.512C77.27 157.353 77.3307 157.167 77.452 156.952C77.5733 156.737 77.76 156.527 78.012 156.322C78.264 156.107 78.586 155.93 78.978 155.79C79.37 155.65 79.8507 155.58 80.42 155.58C81.008 155.58 81.512 155.65 81.932 155.79C82.352 155.93 82.688 156.126 82.94 156.378C83.192 156.63 83.3787 156.924 83.5 157.26C83.6213 157.587 83.682 157.941 83.682 158.324V162.65C83.682 162.753 83.6493 162.837 83.584 162.902C83.5187 162.967 83.4347 163 83.332 163H81.96C81.8667 163 81.7873 162.967 81.722 162.902C81.6567 162.837 81.624 162.753 81.624 162.65V162.132C81.5027 162.309 81.3393 162.477 81.134 162.636C80.9287 162.785 80.6813 162.907 80.392 163C80.112 163.093 79.7807 163.14 79.398 163.14ZM79.958 161.684C80.266 161.684 80.5413 161.619 80.784 161.488C81.0267 161.357 81.218 161.157 81.358 160.886C81.498 160.615 81.568 160.275 81.568 159.864V159.626L80.266 159.836C79.762 159.92 79.3933 160.046 79.16 160.214C78.9267 160.382 78.81 160.587 78.81 160.83C78.81 161.007 78.8613 161.161 78.964 161.292C79.076 161.423 79.2207 161.521 79.398 161.586C79.5753 161.651 79.762 161.684 79.958 161.684Z" fill="white"/>
<path d="M85.7131 163C85.6198 163 85.5404 162.967 85.4751 162.902C85.4097 162.837 85.3771 162.753 85.3771 162.65V156.07C85.3771 155.967 85.4097 155.883 85.4751 155.818C85.5404 155.753 85.6198 155.72 85.7131 155.72H87.0151C87.1084 155.72 87.1878 155.753 87.2531 155.818C87.3278 155.883 87.3651 155.967 87.3651 156.07V156.546C87.5518 156.285 87.8084 156.061 88.1351 155.874C88.4711 155.687 88.8678 155.589 89.3251 155.58C90.4078 155.561 91.1498 155.972 91.5511 156.812C91.7658 156.448 92.0738 156.154 92.4751 155.93C92.8858 155.697 93.3338 155.58 93.8191 155.58C94.3044 155.58 94.7431 155.692 95.1351 155.916C95.5271 156.131 95.8351 156.467 96.0591 156.924C96.2924 157.372 96.4091 157.951 96.4091 158.66V162.65C96.4091 162.753 96.3764 162.837 96.3111 162.902C96.2458 162.967 96.1664 163 96.0731 163H94.6871C94.5938 163 94.5144 162.967 94.4491 162.902C94.3838 162.837 94.3511 162.753 94.3511 162.65V158.772C94.3511 158.389 94.2951 158.091 94.1831 157.876C94.0711 157.652 93.9218 157.493 93.7351 157.4C93.5578 157.307 93.3571 157.26 93.1331 157.26C92.9371 157.26 92.7458 157.307 92.5591 157.4C92.3818 157.493 92.2324 157.652 92.1111 157.876C91.9991 158.091 91.9431 158.389 91.9431 158.772V162.65C91.9431 162.753 91.9104 162.837 91.8451 162.902C91.7798 162.967 91.6958 163 91.5931 163H90.2211C90.1184 163 90.0344 162.967 89.9691 162.902C89.9038 162.837 89.8711 162.753 89.8711 162.65V158.772C89.8711 158.389 89.8151 158.091 89.7031 157.876C89.5911 157.652 89.4418 157.493 89.2551 157.4C89.0778 157.307 88.8818 157.26 88.6671 157.26C88.4711 157.26 88.2798 157.311 88.0931 157.414C87.9064 157.507 87.7524 157.661 87.6311 157.876C87.5191 158.091 87.4631 158.385 87.4631 158.758V162.65C87.4631 162.753 87.4304 162.837 87.3651 162.902C87.2998 162.967 87.2204 163 87.1271 163H85.7131Z" fill="white"/>
<path d="M100.248 163.14C99.7529 163.14 99.3096 163.047 98.9176 162.86C98.5256 162.664 98.2129 162.403 97.9796 162.076C97.7463 161.749 97.6296 161.385 97.6296 160.984C97.6296 160.321 97.8956 159.799 98.4276 159.416C98.9689 159.033 99.6783 158.772 100.556 158.632L102.39 158.366V158.114C102.39 157.75 102.306 157.47 102.138 157.274C101.97 157.078 101.676 156.98 101.256 156.98C100.948 156.98 100.7 157.041 100.514 157.162C100.327 157.283 100.182 157.442 100.08 157.638C100.005 157.759 99.8976 157.82 99.7576 157.82H98.4276C98.3249 157.82 98.2456 157.792 98.1896 157.736C98.1336 157.671 98.1103 157.596 98.1196 157.512C98.1196 157.353 98.1803 157.167 98.3016 156.952C98.4229 156.737 98.6096 156.527 98.8616 156.322C99.1136 156.107 99.4356 155.93 99.8276 155.79C100.22 155.65 100.7 155.58 101.27 155.58C101.858 155.58 102.362 155.65 102.782 155.79C103.202 155.93 103.538 156.126 103.79 156.378C104.042 156.63 104.228 156.924 104.35 157.26C104.471 157.587 104.532 157.941 104.532 158.324V162.65C104.532 162.753 104.499 162.837 104.434 162.902C104.368 162.967 104.284 163 104.182 163H102.81C102.716 163 102.637 162.967 102.572 162.902C102.506 162.837 102.474 162.753 102.474 162.65V162.132C102.352 162.309 102.189 162.477 101.984 162.636C101.778 162.785 101.531 162.907 101.242 163C100.962 163.093 100.63 163.14 100.248 163.14ZM100.808 161.684C101.116 161.684 101.391 161.619 101.634 161.488C101.876 161.357 102.068 161.157 102.208 160.886C102.348 160.615 102.418 160.275 102.418 159.864V159.626L101.116 159.836C100.612 159.92 100.243 160.046 100.01 160.214C99.7763 160.382 99.6596 160.587 99.6596 160.83C99.6596 161.007 99.7109 161.161 99.8136 161.292C99.9256 161.423 100.07 161.521 100.248 161.586C100.425 161.651 100.612 161.684 100.808 161.684Z" fill="white"/>
<path d="M113.363 163.14C112.485 163.14 111.739 162.995 111.123 162.706C110.516 162.407 110.045 161.978 109.709 161.418C109.373 160.849 109.186 160.158 109.149 159.346C109.139 158.963 109.135 158.553 109.135 158.114C109.135 157.675 109.139 157.255 109.149 156.854C109.186 156.051 109.373 155.37 109.709 154.81C110.054 154.241 110.535 153.807 111.151 153.508C111.767 153.209 112.504 153.06 113.363 153.06C113.988 153.06 114.557 153.139 115.071 153.298C115.584 153.457 116.027 153.685 116.401 153.984C116.774 154.283 117.063 154.633 117.269 155.034C117.474 155.435 117.586 155.883 117.605 156.378C117.605 156.462 117.572 156.532 117.507 156.588C117.451 156.644 117.381 156.672 117.297 156.672H115.701C115.589 156.672 115.5 156.644 115.435 156.588C115.369 156.532 115.318 156.439 115.281 156.308C115.141 155.757 114.907 155.379 114.581 155.174C114.254 154.969 113.848 154.866 113.363 154.866C112.784 154.866 112.327 155.025 111.991 155.342C111.655 155.659 111.473 156.187 111.445 156.924C111.417 157.689 111.417 158.473 111.445 159.276C111.473 160.013 111.655 160.541 111.991 160.858C112.327 161.175 112.784 161.334 113.363 161.334C113.848 161.334 114.254 161.231 114.581 161.026C114.917 160.811 115.15 160.433 115.281 159.892C115.318 159.752 115.369 159.659 115.435 159.612C115.5 159.556 115.589 159.528 115.701 159.528H117.297C117.381 159.528 117.451 159.556 117.507 159.612C117.572 159.668 117.605 159.738 117.605 159.822C117.586 160.317 117.474 160.765 117.269 161.166C117.063 161.567 116.774 161.917 116.401 162.216C116.027 162.515 115.584 162.743 115.071 162.902C114.557 163.061 113.988 163.14 113.363 163.14Z" fill="white"/>
<path d="M123.07 163.14C122.192 163.14 121.446 162.995 120.83 162.706C120.223 162.407 119.752 161.978 119.416 161.418C119.08 160.849 118.893 160.158 118.856 159.346C118.846 158.963 118.842 158.553 118.842 158.114C118.842 157.675 118.846 157.255 118.856 156.854C118.893 156.051 119.08 155.37 119.416 154.81C119.761 154.241 120.242 153.807 120.858 153.508C121.474 153.209 122.211 153.06 123.07 153.06C123.695 153.06 124.264 153.139 124.778 153.298C125.291 153.457 125.734 153.685 126.108 153.984C126.481 154.283 126.77 154.633 126.976 155.034C127.181 155.435 127.293 155.883 127.312 156.378C127.312 156.462 127.279 156.532 127.214 156.588C127.158 156.644 127.088 156.672 127.004 156.672H125.408C125.296 156.672 125.207 156.644 125.142 156.588C125.076 156.532 125.025 156.439 124.988 156.308C124.848 155.757 124.614 155.379 124.288 155.174C123.961 154.969 123.555 154.866 123.07 154.866C122.491 154.866 122.034 155.025 121.698 155.342C121.362 155.659 121.18 156.187 121.152 156.924C121.124 157.689 121.124 158.473 121.152 159.276C121.18 160.013 121.362 160.541 121.698 160.858C122.034 161.175 122.491 161.334 123.07 161.334C123.555 161.334 123.961 161.231 124.288 161.026C124.624 160.811 124.857 160.433 124.988 159.892C125.025 159.752 125.076 159.659 125.142 159.612C125.207 159.556 125.296 159.528 125.408 159.528H127.004C127.088 159.528 127.158 159.556 127.214 159.612C127.279 159.668 127.312 159.738 127.312 159.822C127.293 160.317 127.181 160.765 126.976 161.166C126.77 161.567 126.481 161.917 126.108 162.216C125.734 162.515 125.291 162.743 124.778 162.902C124.264 163.061 123.695 163.14 123.07 163.14Z" fill="white"/>
<path d="M128.188 163C128.104 163 128.034 162.972 127.978 162.916C127.922 162.851 127.894 162.781 127.894 162.706C127.894 162.659 127.898 162.617 127.908 162.58L131.24 153.578C131.268 153.475 131.324 153.387 131.408 153.312C131.492 153.237 131.608 153.2 131.758 153.2H133.55C133.699 153.2 133.816 153.237 133.9 153.312C133.984 153.387 134.04 153.475 134.068 153.578L137.4 162.58C137.409 162.617 137.414 162.659 137.414 162.706C137.414 162.781 137.386 162.851 137.33 162.916C137.274 162.972 137.204 163 137.12 163H135.664C135.524 163 135.421 162.967 135.356 162.902C135.29 162.837 135.248 162.776 135.23 162.72L134.628 161.152H130.68L130.078 162.72C130.059 162.776 130.017 162.837 129.952 162.902C129.886 162.967 129.784 163 129.644 163H128.188ZM131.198 159.346H134.096L132.654 155.314L131.198 159.346Z" fill="white"/>
</g>
<g clip-path="url(#clip0_968_295)">
<path opacity="0.15" d="M81.5007 107.001C111.048 107.001 135.001 83.0484 135.001 53.5007C135.001 23.9531 111.048 0 81.5007 0C51.9531 0 28 23.9531 28 53.5007C28 83.0484 51.9531 107.001 81.5007 107.001Z" fill="white"/>
<path d="M93.2705 53.0588L76.0508 43.1173C75.7112 42.9216 75.2856 43.1663 75.2856 43.5593V63.4422C75.2856 63.8352 75.7098 64.0799 76.0508 63.8841L93.2705 53.9427C93.6101 53.7469 93.6101 53.2561 93.2705 53.0603V53.0588Z" fill="white"/>
</g>
<defs>
<clipPath id="clip0_968_295">
<rect width="107" height="107" fill="white" transform="translate(28)"/>
</clipPath>
</defs>
</svg>
