<svg width="142" height="50" viewBox="0 0 142 50" fill="none" xmlns="http://www.w3.org/2000/svg">
<path d="M21.0806 13.7215C21.8305 14.7016 22.2061 15.8894 22.2061 17.2795C22.2061 19.3072 21.3901 20.8746 19.7568 21.979C18.1249 23.0808 15.7642 23.6323 12.6762 23.6323H0.166635V0.464262H12.0149C14.9707 0.464262 17.2203 1.01053 18.7649 2.10439C20.3096 3.1956 21.0806 4.66907 21.0806 6.52214C21.0806 7.62658 20.8108 8.61198 20.2699 9.48495C19.7304 10.3579 18.962 11.047 17.9701 11.5536C19.2939 12.0166 20.3308 12.7387 21.0806 13.7215ZM6.65217 5.19946V9.66483H11.154C13.3599 9.66483 14.4629 8.91619 14.4629 7.41627C14.4629 5.91635 13.3599 5.19946 11.154 5.19946H6.65217ZM15.587 16.5494C15.587 14.9847 14.4404 14.2003 12.1458 14.2003H6.65217V18.8998H12.1458C14.4404 18.8998 15.587 18.1168 15.587 16.5494Z" fill="white"/>
<path d="M25.6142 0.464262H32.1658V18.4369H43.2193V23.6323H25.6142V0.464262Z" fill="white"/>
<path d="M50.5168 22.5398C48.5648 21.5055 47.0307 20.0704 45.9172 18.2385C44.8023 16.4065 44.2455 14.3432 44.2455 12.0496C44.2455 9.7561 44.801 7.69139 45.9172 5.8608C47.0307 4.02889 48.5648 2.59642 50.5168 1.55944C52.4688 0.522459 54.6695 0.00264422 57.1187 0.00264422C59.568 0.00264422 61.7687 0.522459 63.7207 1.55944C65.6727 2.59642 67.2054 4.02889 68.3203 5.8608C69.4339 7.69271 69.9919 9.7561 69.9919 12.0496C69.9919 14.3432 69.4339 16.4079 68.3203 18.2385C67.2054 20.0704 65.6727 21.5055 63.7207 22.5398C61.7687 23.5794 59.5667 24.0966 57.1187 24.0966C54.6708 24.0966 52.4688 23.5794 50.5168 22.5398ZM60.2954 17.843C61.2436 17.2914 61.9935 16.5124 62.545 15.5084C63.0951 14.5058 63.3728 13.3538 63.3728 12.0496C63.3728 10.7455 63.0951 9.59605 62.545 8.59082C61.9935 7.58558 61.2423 6.81049 60.2954 6.25893C59.3458 5.70737 58.2878 5.43225 57.1187 5.43225C55.9497 5.43225 54.8903 5.70737 53.9408 6.25893C52.9925 6.81049 52.2427 7.5869 51.6912 8.59082C51.1397 9.59605 50.8646 10.7481 50.8646 12.0496C50.8646 13.3511 51.1397 14.5058 51.6912 15.5084C52.2427 16.5137 52.9939 17.2914 53.9408 17.843C54.8903 18.3919 55.9483 18.6696 57.1187 18.6696C58.2892 18.6696 59.3458 18.3919 60.2954 17.843Z" fill="white"/>
<path d="M78.4467 22.5583C76.5158 21.5319 74.9989 20.1021 73.896 18.2702C72.793 16.4383 72.2428 14.3643 72.2428 12.0483C72.2428 9.73229 72.793 7.65832 73.896 5.82641C74.9989 3.9945 76.5158 2.56732 78.4467 1.54092C80.3762 0.514522 82.5544 0 84.9812 0C87.0998 0 89.0068 0.376964 90.7062 1.1256C92.4043 1.87688 93.8168 2.95752 94.9422 4.36882L90.7724 8.14243C89.2727 6.33564 87.4516 5.42961 85.3118 5.42961C84.0541 5.42961 82.9339 5.70472 81.9539 6.25628C80.9713 6.80784 80.2096 7.58425 79.67 8.58817C79.1291 9.59341 78.8593 10.7455 78.8593 12.047C78.8593 13.3485 79.1291 14.5032 79.67 15.5058C80.2096 16.511 80.9713 17.2888 81.9539 17.8403C82.9339 18.3892 84.0541 18.667 85.3118 18.667C87.4516 18.667 89.2713 17.7623 90.7724 15.9515L94.9422 19.7251C93.8168 21.1364 92.4043 22.2197 90.7062 22.9684C89.0068 23.7196 87.0985 24.094 84.9812 24.094C82.5544 24.094 80.3762 23.5821 78.4467 22.5557V22.5583Z" fill="white"/>
<path d="M106.789 15.2267L104.34 17.8417V23.6323H97.8544V0.464262H104.34V10.096L113.308 0.464262H120.522L111.057 10.7256L121.018 23.6323H113.406L106.789 15.2267Z" fill="white"/>
<path d="M7.11505 31.5645H0V26.3663H20.7487V31.5645H13.668V49.5344H7.11637L7.11505 31.5645Z" fill="white"/>
<path d="M32.7596 43.3787H29.1849V49.5357H22.6333V26.3677H33.2238C35.3187 26.3677 37.1397 26.7155 38.6857 27.4099C40.2265 28.107 41.422 29.099 42.2565 30.3886C43.0963 31.6809 43.5168 33.198 43.5168 34.9399C43.5168 36.6819 43.1241 38.0773 42.3425 39.3246C41.5556 40.5719 40.4354 41.5494 38.982 42.2557L43.9797 49.5357H36.9612L32.7596 43.3787ZM35.8675 32.4242C35.1838 31.829 34.1707 31.5301 32.8257 31.5301H29.1849V38.3141H32.8257C34.1707 38.3141 35.1838 38.0231 35.8675 37.4385C36.5512 36.8539 36.8964 36.0193 36.8964 34.9386C36.8964 33.858 36.5512 33.0194 35.8675 32.4242Z" fill="white"/>
<path d="M65.7163 44.4712V49.5344H47.118V26.3663H65.2852V31.4296H53.6062V35.3354H63.8965V40.2346H53.6062V44.4712H65.7163Z" fill="white"/>
<path d="M91.3966 26.3663V49.5344H86.0021L75.7766 37.1912V49.5344H69.3558V26.3663H74.7503L84.9759 38.7122V26.3663H91.3966Z" fill="white"/>
<path d="M96.0293 26.3663H106.982C109.519 26.3663 111.771 26.8425 113.734 27.7909C115.696 28.7392 117.221 30.0857 118.302 31.8277C119.382 33.5696 119.923 35.6119 119.923 37.9504C119.923 40.2889 119.382 42.3298 118.302 44.0731C117.221 45.819 115.698 47.1628 113.734 48.1125C111.771 49.0609 109.519 49.5344 106.982 49.5344H96.0293V26.3663ZM106.718 44.3045C108.703 44.3045 110.296 43.7437 111.5 42.6181C112.701 41.4925 113.301 39.9357 113.301 37.9504C113.301 35.965 112.701 34.4082 111.5 33.2853C110.296 32.1597 108.701 31.5962 106.718 31.5962H102.581V44.3032L106.718 44.3045Z" fill="white"/>
<path d="M126.042 49.3043C124.278 48.8413 122.846 48.2236 121.741 47.4512L123.893 42.6194C124.93 43.3033 126.131 43.8561 127.499 44.2728C128.867 44.6934 130.215 44.9024 131.536 44.9024C134.051 44.9024 135.309 44.2728 135.309 43.0149C135.309 42.3549 134.95 41.8615 134.235 41.5415C133.516 41.224 132.364 40.8867 130.777 40.5336C129.031 40.1566 127.578 39.7558 126.408 39.3246C125.237 38.8934 124.236 38.2043 123.394 37.256C122.557 36.3076 122.139 35.0286 122.139 33.4175C122.139 32.0062 122.524 30.7299 123.298 29.5923C124.068 28.4588 125.221 27.5594 126.756 26.8967C128.289 26.2341 130.168 25.9034 132.398 25.9034C133.92 25.9034 135.42 26.0753 136.898 26.4179C138.377 26.7605 139.677 27.2605 140.804 27.9231L138.784 32.7879C136.578 31.5975 134.437 31.0023 132.364 31.0023C131.062 31.0023 130.115 31.1968 129.52 31.5817C128.925 31.9666 128.626 32.4705 128.626 33.0869C128.626 33.7032 128.979 34.1675 129.684 34.477C130.39 34.7865 131.527 35.104 133.094 35.436C134.858 35.8129 136.319 36.2137 137.478 36.6449C138.636 37.0761 139.64 37.7599 140.489 38.6977C141.337 39.6355 141.763 40.9092 141.763 42.5202C141.763 43.9104 141.378 45.1682 140.604 46.2938C139.832 47.4194 138.673 48.3162 137.13 48.9895C135.584 49.6627 133.71 50 131.504 50C129.63 50 127.809 49.7672 126.042 49.3043Z" fill="white"/>
</svg>
