
<svg width="329" height="40" viewBox="0 0 329 40" fill="none" xmlns="http://www.w3.org/2000/svg">
<path d="M0 8C0 3.58172 3.58172 0 8 0H107V40H8C3.58172 40 0 36.4183 0 32V8Z" fill="#00A7D0"/>
<path d="M19.147 26.698C18.043 26.698 17.089 26.431 16.285 25.897C15.481 25.363 14.863 24.613 14.431 23.647C14.005 22.681 13.792 21.547 13.792 20.245C13.792 18.817 14.008 17.584 14.44 16.546C14.878 15.508 15.505 14.71 16.321 14.152C17.137 13.588 18.115 13.306 19.255 13.306C20.071 13.306 20.824 13.456 21.514 13.756C22.204 14.05 22.765 14.479 23.197 15.043C23.635 15.601 23.875 16.273 23.917 17.059H21.514C21.358 16.513 21.094 16.099 20.722 15.817C20.35 15.529 19.879 15.385 19.309 15.385C18.685 15.385 18.166 15.562 17.752 15.916C17.338 16.27 17.041 16.765 16.861 17.401C16.681 18.037 16.633 18.778 16.717 19.624C16.915 19.336 17.167 19.093 17.473 18.895C17.779 18.691 18.121 18.535 18.499 18.427C18.877 18.319 19.27 18.265 19.678 18.265C20.56 18.265 21.331 18.43 21.991 18.76C22.651 19.084 23.167 19.546 23.539 20.146C23.911 20.746 24.097 21.448 24.097 22.252C24.097 23.104 23.887 23.866 23.467 24.538C23.053 25.204 22.474 25.732 21.73 26.122C20.986 26.506 20.125 26.698 19.147 26.698ZM19.057 24.682C19.477 24.682 19.855 24.586 20.191 24.394C20.533 24.196 20.806 23.923 21.01 23.575C21.214 23.227 21.316 22.828 21.316 22.378C21.316 21.898 21.217 21.499 21.019 21.181C20.821 20.863 20.551 20.626 20.209 20.47C19.873 20.308 19.492 20.227 19.066 20.227C18.694 20.227 18.334 20.311 17.986 20.479C17.644 20.641 17.362 20.851 17.14 21.109C16.924 21.361 16.816 21.619 16.816 21.883C16.81 22.465 16.9 22.966 17.086 23.386C17.278 23.8 17.542 24.121 17.878 24.349C18.22 24.571 18.613 24.682 19.057 24.682ZM30.6441 26.698C29.0661 26.698 27.8331 26.125 26.9451 24.979C26.0631 23.833 25.6221 22.183 25.6221 20.029C25.6221 18.589 25.8261 17.368 26.2341 16.366C26.6421 15.364 27.2211 14.605 27.9711 14.089C28.7211 13.567 29.6121 13.306 30.6441 13.306C32.1921 13.306 33.4131 13.885 34.3071 15.043C35.2011 16.195 35.6481 17.854 35.6481 20.02C35.6481 22.174 35.2071 23.827 34.3251 24.979C33.4431 26.125 32.2161 26.698 30.6441 26.698ZM30.6441 24.547C31.4181 24.547 31.9851 24.202 32.3451 23.512C32.7051 22.816 32.8851 21.655 32.8851 20.029C32.8851 18.367 32.7021 17.176 32.3361 16.456C31.9701 15.736 31.4031 15.376 30.6351 15.376C29.8671 15.376 29.2941 15.739 28.9161 16.465C28.5441 17.191 28.3581 18.379 28.3581 20.029C28.3581 21.649 28.5441 22.807 28.9161 23.503C29.2881 24.199 29.8641 24.547 30.6441 24.547ZM39.5366 26.572L48.3296 13.342H49.8506L41.1026 26.572H39.5366ZM40.5626 20.668C39.9386 20.668 39.3776 20.506 38.8796 20.182C38.3816 19.852 37.9886 19.411 37.7006 18.859C37.4126 18.307 37.2686 17.692 37.2686 17.014C37.2686 16.324 37.4126 15.697 37.7006 15.133C37.9946 14.569 38.3906 14.122 38.8886 13.792C39.3866 13.456 39.9446 13.288 40.5626 13.288C41.1806 13.288 41.7356 13.456 42.2276 13.792C42.7196 14.122 43.1096 14.569 43.3976 15.133C43.6856 15.697 43.8296 16.324 43.8296 17.014C43.8296 17.692 43.6886 18.307 43.4066 18.859C43.1246 19.411 42.7346 19.852 42.2366 20.182C41.7446 20.506 41.1866 20.668 40.5626 20.668ZM40.5446 19.336C41.0186 19.336 41.3636 19.141 41.5796 18.751C41.7956 18.355 41.9036 17.776 41.9036 17.014C41.9036 16.228 41.7926 15.631 41.5706 15.223C41.3486 14.815 41.0066 14.611 40.5446 14.611C40.0886 14.611 39.7496 14.818 39.5276 15.232C39.3056 15.64 39.1946 16.234 39.1946 17.014C39.1946 17.77 39.3026 18.346 39.5186 18.742C39.7406 19.138 40.0826 19.336 40.5446 19.336ZM49.1036 26.68C48.4736 26.68 47.9096 26.518 47.4116 26.194C46.9136 25.87 46.5206 25.432 46.2326 24.88C45.9446 24.322 45.8006 23.698 45.8006 23.008C45.8006 22.318 45.9446 21.691 46.2326 21.127C46.5266 20.563 46.9226 20.116 47.4206 19.786C47.9246 19.45 48.4856 19.282 49.1036 19.282C49.7216 19.282 50.2766 19.45 50.7686 19.786C51.2666 20.116 51.6596 20.563 51.9476 21.127C52.2356 21.691 52.3796 22.318 52.3796 23.008C52.3796 23.698 52.2386 24.322 51.9566 24.88C51.6746 25.432 51.2846 25.87 50.7866 26.194C50.2946 26.518 49.7336 26.68 49.1036 26.68ZM49.0856 25.33C49.5536 25.33 49.8956 25.135 50.1116 24.745C50.3276 24.349 50.4356 23.776 50.4356 23.026C50.4356 22.24 50.3246 21.643 50.1026 21.235C49.8806 20.827 49.5416 20.623 49.0856 20.623C48.6296 20.623 48.2906 20.83 48.0686 21.244C47.8526 21.652 47.7446 22.246 47.7446 23.026C47.7446 23.77 47.8526 24.34 48.0686 24.736C48.2846 25.132 48.6236 25.33 49.0856 25.33ZM64.2693 26.68C63.0393 26.68 61.9743 26.413 61.0743 25.879C60.1803 25.339 59.4873 24.574 58.9953 23.584C58.5093 22.588 58.2663 21.4 58.2663 20.02C58.2663 18.634 58.5123 17.44 59.0043 16.438C59.5023 15.436 60.2013 14.665 61.1013 14.125C62.0013 13.579 63.0573 13.306 64.2693 13.306C65.4753 13.306 66.5253 13.576 67.4193 14.116C68.3133 14.656 69.0033 15.427 69.4893 16.429C69.9813 17.431 70.2273 18.628 70.2273 20.02C70.2273 21.394 69.9843 22.579 69.4983 23.575C69.0183 24.571 68.3313 25.339 67.4373 25.879C66.5433 26.413 65.4873 26.68 64.2693 26.68ZM64.2693 24.52C64.9053 24.52 65.4543 24.37 65.9163 24.07C66.3843 23.764 66.7443 23.284 66.9963 22.63C67.2483 21.97 67.3743 21.112 67.3743 20.056C67.3743 18.97 67.2453 18.091 66.9873 17.419C66.7353 16.747 66.3753 16.255 65.9073 15.943C65.4453 15.625 64.8993 15.466 64.2693 15.466C63.6393 15.466 63.0903 15.625 62.6223 15.943C62.1543 16.255 61.7913 16.75 61.5333 17.428C61.2753 18.1 61.1463 18.976 61.1463 20.056C61.1463 21.118 61.2753 21.976 61.5333 22.63C61.7913 23.284 62.1543 23.764 62.6223 24.07C63.0903 24.37 63.6393 24.52 64.2693 24.52ZM72.5537 26.5V13.486H81.4097L81.4007 15.682H75.1997V18.949H80.5727V21.1H75.1997V26.5H72.5537ZM83.5928 26.5V13.486H92.4488L92.4398 15.682H86.2388V18.949H91.6118V21.1H86.2388V26.5H83.5928Z" fill="black"/>
<path d="M107 0H321C325.418 0 329 3.58172 329 8V32C329 36.4183 325.418 40 321 40H107V0Z" fill="white"/>
<path d="M132.958 26.5V13.486H137.674C139.378 13.486 140.641 13.78 141.463 14.368C142.291 14.95 142.705 15.793 142.705 16.897C142.705 17.545 142.54 18.109 142.21 18.589C141.88 19.063 141.292 19.477 140.446 19.831C140.992 19.969 141.433 20.155 141.769 20.389C142.105 20.623 142.363 20.884 142.543 21.172C142.723 21.454 142.846 21.751 142.912 22.063C142.978 22.369 143.011 22.672 143.011 22.972C143.011 24.172 142.603 25.06 141.787 25.636C140.971 26.212 139.672 26.5 137.89 26.5H132.958ZM135.577 24.466H137.944C138.736 24.466 139.333 24.307 139.735 23.989C140.143 23.671 140.347 23.245 140.347 22.711C140.347 22.327 140.248 22.006 140.05 21.748C139.852 21.484 139.582 21.286 139.24 21.154C138.904 21.022 138.52 20.956 138.088 20.956H135.577V24.466ZM135.577 18.868H138.088C138.358 18.868 138.616 18.838 138.862 18.778C139.114 18.712 139.336 18.613 139.528 18.481C139.726 18.349 139.882 18.181 139.996 17.977C140.11 17.767 140.167 17.521 140.167 17.239C140.167 16.675 139.954 16.249 139.528 15.961C139.108 15.667 138.568 15.52 137.908 15.52H135.577V18.868ZM145.526 26.5V13.486H148.172V24.277H153.824V26.5H145.526ZM155.216 26.5L159.869 13.486H162.65L167.303 26.5H164.684L163.622 23.485H158.933L157.853 26.5H155.216ZM159.527 21.19H162.983L161.264 16.015L159.527 21.19ZM173.925 26.68C172.713 26.68 171.666 26.398 170.784 25.834C169.902 25.27 169.221 24.478 168.741 23.458C168.267 22.438 168.03 21.247 168.03 19.885C168.03 18.517 168.267 17.344 168.741 16.366C169.215 15.382 169.893 14.626 170.775 14.098C171.657 13.57 172.707 13.306 173.925 13.306C174.903 13.306 175.773 13.504 176.535 13.9C177.303 14.29 177.921 14.824 178.389 15.502C178.863 16.18 179.142 16.945 179.226 17.797H176.472C176.388 17.347 176.235 16.948 176.013 16.6C175.791 16.246 175.5 15.97 175.14 15.772C174.78 15.568 174.348 15.466 173.844 15.466C173.238 15.466 172.716 15.613 172.278 15.907C171.84 16.201 171.504 16.675 171.27 17.329C171.036 17.983 170.919 18.847 170.919 19.921C170.919 21.541 171.177 22.714 171.693 23.44C172.215 24.16 172.932 24.52 173.844 24.52C174.348 24.52 174.78 24.406 175.14 24.178C175.5 23.944 175.791 23.638 176.013 23.26C176.235 22.876 176.388 22.456 176.472 22H179.226C179.148 22.618 178.998 23.209 178.776 23.773C178.554 24.331 178.239 24.829 177.831 25.267C177.423 25.705 176.898 26.05 176.256 26.302C175.614 26.554 174.837 26.68 173.925 26.68ZM181.544 26.5V13.486H184.271V19.444L189.014 13.486H192.029L188.078 18.526L192.506 26.5H189.644L186.197 20.443L184.271 22.765V26.5H181.544ZM198.507 26.5V13.486H207.363L207.354 15.682H201.153V18.949H206.526V21.1H201.153V26.5H198.507ZM209.546 26.5V13.486H215.036C216.074 13.486 216.923 13.651 217.583 13.981C218.243 14.311 218.729 14.77 219.041 15.358C219.353 15.94 219.509 16.612 219.509 17.374C219.509 18.058 219.401 18.637 219.185 19.111C218.975 19.579 218.696 19.969 218.348 20.281C218.006 20.593 217.631 20.848 217.223 21.046L219.644 26.5H216.917L214.802 21.487H212.165V26.5H209.546ZM212.165 19.462H214.568C215.27 19.462 215.825 19.273 216.233 18.895C216.647 18.517 216.854 18.031 216.854 17.437C216.854 16.837 216.656 16.363 216.26 16.015C215.864 15.667 215.363 15.493 214.757 15.493H212.165V19.462ZM222.079 26.5V13.486H224.698V26.5H222.079ZM227.616 26.5V13.486C227.682 13.486 227.865 13.486 228.165 13.486C228.471 13.486 228.828 13.486 229.236 13.486C229.65 13.486 230.061 13.489 230.469 13.495C230.883 13.495 231.228 13.498 231.504 13.504C233.082 13.54 234.369 13.822 235.365 14.35C236.361 14.878 237.09 15.616 237.552 16.564C238.02 17.512 238.254 18.634 238.254 19.93C238.254 21.28 238.008 22.447 237.516 23.431C237.024 24.409 236.271 25.165 235.257 25.699C234.249 26.233 232.968 26.5 231.414 26.5H227.616ZM230.262 24.376H231.468C232.212 24.376 232.887 24.232 233.493 23.944C234.105 23.656 234.594 23.185 234.96 22.531C235.326 21.877 235.509 21.004 235.509 19.912C235.509 18.898 235.347 18.076 235.023 17.446C234.699 16.81 234.237 16.345 233.637 16.051C233.037 15.757 232.326 15.61 231.504 15.61H230.262V24.376ZM239.028 26.5L243.681 13.486H246.462L251.115 26.5H248.496L247.434 23.485H242.745L241.665 26.5H239.028ZM243.339 21.19H246.795L245.076 16.015L243.339 21.19ZM254.736 26.5V21.019L250.218 13.486H253.062L256.059 18.76L259.02 13.486H261.891L257.364 21.028V26.5H254.736ZM272.45 26.68C271.238 26.68 270.191 26.398 269.309 25.834C268.427 25.27 267.746 24.478 267.266 23.458C266.792 22.438 266.555 21.247 266.555 19.885C266.555 18.517 266.792 17.344 267.266 16.366C267.74 15.382 268.418 14.626 269.3 14.098C270.182 13.57 271.232 13.306 272.45 13.306C273.428 13.306 274.298 13.504 275.06 13.9C275.828 14.29 276.446 14.824 276.914 15.502C277.388 16.18 277.667 16.945 277.751 17.797H274.997C274.913 17.347 274.76 16.948 274.538 16.6C274.316 16.246 274.025 15.97 273.665 15.772C273.305 15.568 272.873 15.466 272.369 15.466C271.763 15.466 271.241 15.613 270.803 15.907C270.365 16.201 270.029 16.675 269.795 17.329C269.561 17.983 269.444 18.847 269.444 19.921C269.444 21.541 269.702 22.714 270.218 23.44C270.74 24.16 271.457 24.52 272.369 24.52C272.873 24.52 273.305 24.406 273.665 24.178C274.025 23.944 274.316 23.638 274.538 23.26C274.76 22.876 274.913 22.456 274.997 22H277.751C277.673 22.618 277.523 23.209 277.301 23.773C277.079 24.331 276.764 24.829 276.356 25.267C275.948 25.705 275.423 26.05 274.781 26.302C274.139 26.554 273.362 26.68 272.45 26.68ZM285.37 26.68C284.158 26.68 283.111 26.398 282.229 25.834C281.347 25.27 280.666 24.478 280.186 23.458C279.712 22.438 279.475 21.247 279.475 19.885C279.475 18.517 279.712 17.344 280.186 16.366C280.66 15.382 281.338 14.626 282.22 14.098C283.102 13.57 284.152 13.306 285.37 13.306C286.348 13.306 287.218 13.504 287.98 13.9C288.748 14.29 289.366 14.824 289.834 15.502C290.308 16.18 290.587 16.945 290.671 17.797H287.917C287.833 17.347 287.68 16.948 287.458 16.6C287.236 16.246 286.945 15.97 286.585 15.772C286.225 15.568 285.793 15.466 285.289 15.466C284.683 15.466 284.161 15.613 283.723 15.907C283.285 16.201 282.949 16.675 282.715 17.329C282.481 17.983 282.364 18.847 282.364 19.921C282.364 21.541 282.622 22.714 283.138 23.44C283.66 24.16 284.377 24.52 285.289 24.52C285.793 24.52 286.225 24.406 286.585 24.178C286.945 23.944 287.236 23.638 287.458 23.26C287.68 22.876 287.833 22.456 287.917 22H290.671C290.593 22.618 290.443 23.209 290.221 23.773C289.999 24.331 289.684 24.829 289.276 25.267C288.868 25.705 288.343 26.05 287.701 26.302C287.059 26.554 286.282 26.68 285.37 26.68ZM291.622 26.5L296.275 13.486H299.056L303.709 26.5H301.09L300.028 23.485H295.339L294.259 26.5H291.622ZM295.933 21.19H299.389L297.67 16.015L295.933 21.19Z" fill="black"/>
</svg>
