<svg width="219" height="80" viewBox="0 0 219 80" fill="none" xmlns="http://www.w3.org/2000/svg">
<path d="M1 1H77V79H10C5.02944 79 1 74.9706 1 70V1Z" stroke="white" stroke-width="2"/>
<path d="M76 0H219V70C219 75.5229 214.523 80 209 80H76V0Z" fill="white"/>
<path d="M55.058 33.6299C58.3308 33.6299 60.9945 30.9365 60.9945 27.6229V22.007C60.9945 18.6934 58.3308 16 55.058 16H31.3673L16 31.5512V47.4544L31.3673 63H55.0635C58.3363 63 61 60.3066 61 56.993V51.3771C61 48.0635 58.3363 45.3701 55.0635 45.3701H32.569L26.7654 39.4972L32.569 33.6243H55.0635L55.058 33.6299ZM58.0871 22.0126V27.6285C58.0871 29.3216 56.7248 30.6962 55.058 30.6962H35.4653L47.078 18.9448H55.058C56.7304 18.9448 58.0871 20.3195 58.0871 22.0126ZM18.9018 32.7694L23.2545 28.3661V38.8993L18.9018 43.3026V32.7694ZM58.0927 51.3827V56.9986C58.0927 58.6917 56.7304 60.0663 55.0635 60.0663H47.0836L35.4708 48.3149H55.0635C56.7359 48.3149 58.0927 49.6896 58.0927 51.3827ZM42.9745 60.0608H32.5635L19.5054 46.8453L24.7109 41.5815L42.9745 60.0608ZM26.1618 35.9601V25.4268L32.569 18.9448H42.9801L26.1618 35.9601Z" fill="white"/>
<path d="M103.117 19.0465C102.276 19.0465 101.55 18.8517 100.937 18.4591C100.322 18.0666 99.8461 17.5257 99.5077 16.8307C99.1692 16.1357 99 15.336 99 14.4258C99 13.5157 99.1663 12.7363 99.5018 12.0763C99.8344 11.4162 100.31 10.9044 100.929 10.5409C101.544 10.1803 102.276 10 103.12 10C103.805 10 104.412 10.1338 104.949 10.4042C105.486 10.6746 105.918 11.0468 106.247 11.5179C106.577 11.9919 106.775 12.5299 106.84 13.1347H104.66C104.611 12.841 104.517 12.588 104.383 12.37C104.246 12.1519 104.068 11.9832 103.846 11.8611C103.624 11.7389 103.362 11.6779 103.055 11.6779C102.702 11.6779 102.393 11.7651 102.128 11.9425C101.862 12.1199 101.658 12.4107 101.515 12.8207C101.369 13.2278 101.299 13.7745 101.299 14.4549C101.299 15.4931 101.46 16.2375 101.778 16.6882C102.098 17.1389 102.524 17.3628 103.058 17.3628C103.365 17.3628 103.627 17.2901 103.849 17.1447C104.071 16.9994 104.249 16.8016 104.386 16.5574C104.523 16.3102 104.616 16.0456 104.663 15.7577H106.842C106.784 16.191 106.682 16.6068 106.533 17.0023C106.384 17.3977 106.168 17.7496 105.888 18.0578C105.608 18.3661 105.241 18.6074 104.791 18.7819C104.342 18.9564 103.785 19.0436 103.12 19.0436L103.117 19.0465Z" fill="#231F20"/>
<path d="M109.573 18.9244V10.1221H115.872L115.861 11.8523H111.671V13.6494H115.245V15.3418H111.659V17.1796L115.91 17.1855V18.9273H109.576L109.573 18.9244Z" fill="#231F20"/>
<path d="M118.705 18.9244V10.1221H122.571C123.309 10.1221 123.904 10.2414 124.36 10.4798C124.815 10.7183 125.15 11.041 125.36 11.454C125.573 11.8669 125.678 12.3321 125.678 12.8585C125.678 13.3179 125.614 13.7047 125.483 14.0246C125.352 14.3444 125.177 14.612 124.955 14.8271C124.733 15.0452 124.482 15.2284 124.208 15.3767L125.801 18.9273H123.662L122.3 15.7141H120.786V18.9273H118.702L118.705 18.9244ZM120.788 14.1438H122.285C122.676 14.1438 122.991 14.0187 123.23 13.7716C123.47 13.5244 123.586 13.2307 123.586 12.8876C123.586 12.5444 123.464 12.2391 123.219 12.0094C122.974 11.7826 122.682 11.6691 122.346 11.6691H120.788V14.1438Z" fill="#231F20"/>
<path d="M130.361 18.9244V11.9541H127.776V10.1221H135.015V11.9541H132.45V18.9244H130.361Z" fill="#231F20"/>
<path d="M137.41 18.9244V10.1221H139.493V18.9244H137.41Z" fill="#231F20"/>
<path d="M142.583 18.9244V10.1221H148.826L148.821 11.832H144.672V13.7309H148.202V15.4H144.672V18.9244H142.583Z" fill="#231F20"/>
<path d="M151.47 18.9244V10.1221H153.553V18.9244H151.47Z" fill="#231F20"/>
<path d="M160.406 19.0465C159.566 19.0465 158.84 18.8517 158.227 18.4591C157.611 18.0666 157.136 17.5257 156.797 16.8307C156.459 16.1357 156.29 15.336 156.29 14.4258C156.29 13.5157 156.456 12.7363 156.791 12.0763C157.124 11.4162 157.6 10.9044 158.218 10.5409C158.834 10.1803 159.566 10 160.409 10C161.095 10 161.702 10.1338 162.239 10.4042C162.775 10.6746 163.207 11.0468 163.537 11.5179C163.867 11.9919 164.065 12.5299 164.129 13.1347H161.95C161.9 12.841 161.807 12.588 161.672 12.37C161.535 12.1519 161.357 11.9832 161.136 11.8611C160.914 11.7389 160.651 11.6779 160.345 11.6779C159.992 11.6779 159.683 11.7651 159.417 11.9425C159.152 12.1199 158.947 12.4107 158.805 12.8207C158.659 13.2278 158.589 13.7745 158.589 14.4549C158.589 15.4931 158.749 16.2375 159.067 16.6882C159.388 17.1389 159.814 17.3628 160.348 17.3628C160.654 17.3628 160.917 17.2901 161.139 17.1447C161.36 16.9994 161.538 16.8016 161.675 16.5574C161.813 16.3102 161.906 16.0456 161.953 15.7577H164.132C164.074 16.191 163.972 16.6068 163.823 17.0023C163.674 17.3977 163.458 17.7496 163.178 18.0578C162.898 18.3661 162.53 18.6074 162.081 18.7819C161.632 18.9564 161.074 19.0436 160.409 19.0436L160.406 19.0465Z" fill="#231F20"/>
<path d="M165.906 18.9244L169.045 10.1221H171.201L174.346 18.9244H172.281L171.627 17.0488H168.646L167.98 18.9244H165.903H165.906ZM171.146 15.2662L170.125 12.1111L169.098 15.2662H171.146Z" fill="#231F20"/>
<path d="M176.788 10.1221H177.226C177.46 10.1221 177.734 10.1221 178.046 10.1221C178.358 10.1221 178.664 10.1221 178.965 10.1221C179.265 10.1221 179.513 10.1279 179.703 10.1367C180.771 10.1687 181.64 10.3693 182.314 10.7357C182.988 11.1021 183.484 11.6052 183.799 12.2449C184.115 12.8847 184.272 13.632 184.272 14.4898C184.272 15.3477 184.106 16.1502 183.773 16.8162C183.441 17.4821 182.936 17.9997 182.256 18.3719C181.576 18.7441 180.71 18.9302 179.659 18.9302H176.788V10.1221ZM178.877 17.2756H179.721C180.123 17.2756 180.505 17.1855 180.87 17.0023C181.232 16.8191 181.53 16.5225 181.76 16.1124C181.991 15.7024 182.104 15.1528 182.104 14.4637C182.104 13.8501 182.005 13.3441 181.81 12.9486C181.614 12.5502 181.34 12.2565 180.984 12.0617C180.631 11.8698 180.211 11.7709 179.732 11.7709H178.877V17.2756Z" fill="#231F20"/>
<path d="M190.845 19.0465C189.991 19.0465 189.249 18.8633 188.625 18.4969C188.001 18.1305 187.516 17.61 187.175 16.9354C186.834 16.2607 186.662 15.464 186.662 14.5422C186.662 13.6204 186.834 12.809 187.181 12.1315C187.528 11.454 188.015 10.9305 188.643 10.5583C189.273 10.1861 190.005 10 190.845 10C191.686 10 192.415 10.1861 193.036 10.5583C193.658 10.9305 194.139 11.454 194.484 12.1315C194.828 12.809 195 13.6145 195 14.5422C195 15.4698 194.831 16.2607 194.492 16.9354C194.154 17.61 193.672 18.1305 193.051 18.4969C192.427 18.8633 191.694 19.0465 190.845 19.0465ZM190.845 17.3658C191.225 17.3658 191.557 17.2727 191.84 17.0895C192.126 16.9034 192.345 16.6068 192.503 16.1968C192.66 15.7868 192.739 15.2459 192.739 14.5712C192.739 13.8966 192.66 13.3179 192.5 12.8934C192.339 12.4688 192.117 12.1606 191.834 11.9687C191.548 11.7767 191.219 11.6808 190.845 11.6808C190.472 11.6808 190.133 11.7767 189.85 11.9716C189.565 12.1664 189.343 12.4746 189.182 12.8992C189.022 13.3237 188.94 13.8792 188.94 14.5712C188.94 15.2633 189.022 15.7868 189.182 16.1968C189.343 16.6068 189.567 16.9034 189.85 17.0895C190.136 17.2756 190.466 17.3658 190.845 17.3658Z" fill="#231F20"/>
<path d="M126.487 46C124.66 46 123.085 45.5754 121.754 44.7292C120.427 43.883 119.403 42.6937 118.682 41.1612C117.964 39.6288 117.605 37.8404 117.605 35.7961C117.605 33.7519 117.961 31.978 118.676 30.5066C119.391 29.0352 120.412 27.9011 121.74 27.1073C123.067 26.3134 124.648 25.9179 126.484 25.9179C127.957 25.9179 129.27 26.2116 130.422 26.8019C131.575 27.3922 132.505 28.1948 133.214 29.2155C133.923 30.2333 134.341 31.3819 134.469 32.6614H130.32C130.195 31.9868 129.964 31.3848 129.629 30.8585C129.293 30.3321 128.856 29.9163 128.313 29.6168C127.77 29.3144 127.12 29.1632 126.361 29.1632C125.448 29.1632 124.66 29.3842 124.001 29.8262C123.341 30.2682 122.834 30.9806 122.484 31.9606C122.131 32.9435 121.956 34.2404 121.956 35.8514C121.956 38.2824 122.346 40.0417 123.128 41.1292C123.91 42.2139 124.987 42.7577 126.361 42.7577C127.12 42.7577 127.77 42.5832 128.313 42.2372C128.856 41.8911 129.293 41.4317 129.629 40.8588C129.964 40.2859 130.195 39.6578 130.32 38.9745H134.469C134.352 39.9021 134.125 40.789 133.792 41.6294C133.46 42.4698 132.984 43.2229 132.368 43.8801C131.753 44.5373 130.962 45.0549 129.996 45.433C129.028 45.811 127.858 46 126.484 46H126.487Z" fill="#231F20"/>
<path d="M146.014 46C144.187 46 142.612 45.5754 141.282 44.7292C139.954 43.883 138.93 42.6937 138.209 41.1612C137.492 39.6288 137.133 37.8404 137.133 35.7961C137.133 33.7519 137.489 31.978 138.203 30.5066C138.918 29.0352 139.939 27.9011 141.267 27.1073C142.594 26.3134 144.176 25.9179 146.011 25.9179C147.484 25.9179 148.797 26.2116 149.95 26.8019C151.102 27.3922 152.033 28.1948 152.742 29.2155C153.451 30.2333 153.868 31.3819 153.996 32.6614H149.848C149.722 31.9868 149.492 31.3848 149.156 30.8585C148.821 30.3321 148.383 29.9163 147.84 29.6168C147.298 29.3144 146.647 29.1632 145.888 29.1632C144.975 29.1632 144.187 29.3842 143.528 29.8262C142.869 30.2682 142.361 30.9806 142.011 31.9606C141.658 32.9435 141.483 34.2404 141.483 35.8514C141.483 38.2824 141.874 40.0417 142.656 41.1292C143.438 42.2139 144.514 42.7577 145.888 42.7577C146.647 42.7577 147.298 42.5832 147.84 42.2372C148.383 41.8911 148.821 41.4317 149.156 40.8588C149.492 40.2859 149.722 39.6578 149.848 38.9745H153.996C153.88 39.9021 153.652 40.789 153.319 41.6294C152.987 42.4698 152.511 43.2229 151.896 43.8801C151.28 44.5373 150.489 45.0549 149.524 45.433C148.555 45.811 147.385 46 146.011 46H146.014Z" fill="#231F20"/>
<path d="M155.508 45.7296L162.519 26.1884H166.708L173.719 45.7296H169.775L168.176 41.2019H161.112L159.484 45.7296H155.508ZM167.207 37.7561L164.616 29.9861L161.999 37.7561H167.207Z" fill="#231F20"/>
<path d="M100 52.0849H102.314C102.784 52.0849 103.203 52.1629 103.576 52.3189C103.948 52.4749 104.24 52.7044 104.453 53.0073C104.667 53.3101 104.773 53.6818 104.773 54.1246C104.773 54.5399 104.676 54.8955 104.482 55.1938C104.287 55.4921 104.017 55.7169 103.673 55.8753C103.327 56.0313 102.924 56.1093 102.459 56.1093H101.114V58.3968H100V52.0849ZM101.105 55.2558H102.43C102.812 55.2558 103.125 55.1456 103.367 54.9231C103.609 54.7028 103.73 54.4137 103.73 54.0604C103.73 53.707 103.604 53.4202 103.351 53.2206C103.099 53.021 102.781 52.9224 102.4 52.9224H101.105V55.2581V55.2558Z" fill="#231F20"/>
<path d="M105.515 58.3945V53.8814H106.565V54.8588C106.641 54.634 106.748 54.4435 106.888 54.2852C107.028 54.1269 107.191 54.0053 107.381 53.9204C107.571 53.8355 107.777 53.7942 108 53.7942C108.055 53.7942 108.107 53.7965 108.159 53.8034C108.211 53.8103 108.247 53.8195 108.273 53.8332V54.8497C108.24 54.8336 108.197 54.8244 108.145 54.8198C108.093 54.8152 108.045 54.8106 108.007 54.8106C107.782 54.7923 107.583 54.8015 107.41 54.8359C107.237 54.8703 107.092 54.93 106.973 55.0126C106.855 55.0952 106.765 55.2007 106.705 55.3269C106.646 55.4531 106.615 55.5999 106.615 55.7697V58.3922H105.52L105.515 58.3945Z" fill="#231F20"/>
<path d="M110.926 58.4817C110.481 58.4817 110.094 58.3899 109.762 58.2041C109.43 58.0205 109.174 57.7544 108.994 57.4079C108.811 57.0615 108.721 56.6462 108.721 56.1598C108.721 55.6733 108.809 55.2764 108.987 54.9208C109.165 54.5651 109.418 54.2898 109.746 54.0925C110.075 53.8952 110.469 53.7965 110.929 53.7965C111.389 53.7965 111.761 53.8906 112.088 54.081C112.416 54.2715 112.669 54.5422 112.847 54.8932C113.025 55.2466 113.115 55.6688 113.115 56.1621C113.115 56.6186 113.03 57.0202 112.861 57.3689C112.691 57.7154 112.444 57.9884 112.117 58.188C111.79 58.3853 111.394 58.484 110.924 58.484L110.926 58.4817ZM110.931 57.6741C111.182 57.6741 111.391 57.6075 111.555 57.4722C111.718 57.3391 111.842 57.1555 111.922 56.9215C112.003 56.6898 112.043 56.4236 112.043 56.1276C112.043 55.8523 112.008 55.5976 111.934 55.3636C111.863 55.1296 111.744 54.9437 111.581 54.8015C111.417 54.6615 111.199 54.5904 110.929 54.5904C110.673 54.5904 110.462 54.6546 110.296 54.7854C110.13 54.9162 110.004 55.0952 109.923 55.3269C109.843 55.5586 109.802 55.8248 109.802 56.1276C109.802 56.4007 109.838 56.6554 109.912 56.8894C109.985 57.1234 110.101 57.3116 110.267 57.4561C110.433 57.6006 110.654 57.6718 110.931 57.6718V57.6741Z" fill="#231F20"/>
<path d="M116.008 59.8859C115.223 59.8859 114.621 59.7849 114.199 59.5807C113.777 59.3765 113.568 59.0989 113.568 58.7433C113.568 58.5827 113.608 58.4496 113.689 58.3418C113.769 58.2339 113.867 58.1467 113.978 58.0756C114.09 58.0068 114.191 57.9517 114.284 57.915C114.376 57.8783 114.438 57.8508 114.464 57.8324C114.412 57.8026 114.346 57.7659 114.26 57.7177C114.175 57.6718 114.099 57.6075 114.033 57.5249C113.966 57.4423 113.931 57.3368 113.931 57.206C113.931 57.0546 114.004 56.9146 114.154 56.7861C114.303 56.6577 114.526 56.5659 114.822 56.5108C114.531 56.3732 114.305 56.1896 114.151 55.9556C113.995 55.7238 113.916 55.4829 113.916 55.2305C113.916 54.9346 114.007 54.6799 114.184 54.4665C114.362 54.2531 114.611 54.0925 114.931 53.9778C115.249 53.8631 115.621 53.808 116.046 53.808C116.356 53.808 116.612 53.8424 116.819 53.909C117.025 53.9755 117.217 54.065 117.395 54.1797C117.454 54.1568 117.54 54.1246 117.646 54.081C117.755 54.0374 117.874 53.9916 118.002 53.9411C118.13 53.8906 118.256 53.8401 118.377 53.7919C118.498 53.7438 118.597 53.7048 118.678 53.6726L118.673 54.5491L117.867 54.6891C117.905 54.7739 117.936 54.8657 117.959 54.9644C117.983 55.063 117.993 55.1502 117.993 55.2259C117.993 55.4875 117.917 55.7307 117.765 55.9533C117.613 56.1758 117.386 56.3548 117.084 56.4879C116.783 56.6209 116.406 56.6898 115.956 56.6898C115.911 56.6898 115.849 56.6898 115.771 56.6852C115.692 56.6829 115.628 56.6806 115.581 56.676C115.337 56.6852 115.171 56.7127 115.081 56.7586C114.991 56.8045 114.946 56.855 114.946 56.9123C114.946 56.9903 115.014 57.0431 115.149 57.0684C115.285 57.0936 115.5 57.1188 115.799 57.1372C115.904 57.1441 116.043 57.151 116.214 57.1601C116.385 57.1693 116.577 57.1808 116.788 57.1946C117.319 57.2267 117.722 57.3552 117.997 57.58C118.27 57.8049 118.407 58.0963 118.407 58.4542C118.407 58.8695 118.208 59.2113 117.812 59.4798C117.416 59.7482 116.814 59.8813 116.008 59.8813V59.8859ZM116.193 59.2618C116.586 59.2618 116.878 59.209 117.068 59.1058C117.257 59.0002 117.352 58.8465 117.352 58.6423C117.352 58.4863 117.288 58.3578 117.158 58.2592C117.03 58.1605 116.835 58.1031 116.582 58.0848L115.406 58.0137C115.278 58.0045 115.154 58.0274 115.038 58.0802C114.922 58.1353 114.829 58.2087 114.756 58.3027C114.685 58.3968 114.647 58.5001 114.647 58.6148C114.647 58.8282 114.772 58.9888 115.024 59.0966C115.275 59.2067 115.664 59.2595 116.195 59.2595L116.193 59.2618ZM115.994 56.068C116.278 56.068 116.511 55.9969 116.688 55.8569C116.866 55.7147 116.954 55.515 116.954 55.2558C116.954 54.9965 116.866 54.7808 116.688 54.6294C116.511 54.4803 116.281 54.4046 115.994 54.4046C115.707 54.4046 115.467 54.4803 115.287 54.6317C115.109 54.7831 115.019 54.9919 115.019 55.2558C115.019 55.5196 115.104 55.7032 115.275 55.85C115.446 55.9969 115.685 56.068 115.991 56.068H115.994Z" fill="#231F20"/>
<path d="M119.446 58.3945V53.8814H120.497V54.8588C120.572 54.634 120.679 54.4435 120.819 54.2852C120.959 54.1269 121.123 54.0053 121.312 53.9204C121.502 53.8355 121.708 53.7942 121.931 53.7942C121.986 53.7942 122.038 53.7965 122.09 53.8034C122.142 53.8103 122.178 53.8195 122.204 53.8332V54.8497C122.171 54.8336 122.128 54.8244 122.076 54.8198C122.024 54.8152 121.976 54.8106 121.938 54.8106C121.713 54.7923 121.514 54.8015 121.341 54.8359C121.168 54.8703 121.023 54.93 120.904 55.0126C120.786 55.0952 120.696 55.2007 120.636 55.3269C120.577 55.4531 120.546 55.5999 120.546 55.7697V58.3922H119.451L119.446 58.3945Z" fill="#231F20"/>
<path d="M124.158 58.4817C123.859 58.4817 123.593 58.4289 123.356 58.3211C123.119 58.2156 122.934 58.0618 122.801 57.8622C122.668 57.6626 122.6 57.4217 122.6 57.1349C122.6 56.637 122.785 56.263 123.157 56.0083C123.529 55.7559 124.12 55.6229 124.931 55.6114L125.63 55.593V55.2879C125.63 55.0493 125.557 54.8634 125.412 54.7281C125.265 54.5927 125.04 54.5261 124.734 54.5284C124.506 54.5307 124.297 54.5835 124.113 54.6822C123.925 54.7831 123.802 54.9506 123.743 55.1869H122.808C122.827 54.8795 122.92 54.6202 123.086 54.4114C123.252 54.2049 123.482 54.0489 123.773 53.9457C124.065 53.8424 124.402 53.7919 124.784 53.7919C125.229 53.7919 125.59 53.8493 125.87 53.9617C126.149 54.0741 126.356 54.2393 126.488 54.4527C126.621 54.6661 126.688 54.9254 126.688 55.2259V58.3899H125.763L125.673 57.5777C125.507 57.9173 125.296 58.1536 125.04 58.2821C124.784 58.4106 124.49 58.4771 124.158 58.4771V58.4817ZM124.513 57.7613C124.648 57.7613 124.781 57.736 124.914 57.6878C125.047 57.6397 125.165 57.5754 125.272 57.4928C125.379 57.4102 125.464 57.3184 125.528 57.2152C125.592 57.1119 125.628 57.0064 125.63 56.8963V56.185L125.056 56.1942C124.774 56.1965 124.528 56.2263 124.314 56.2814C124.101 56.3364 123.937 56.4259 123.821 56.5452C123.705 56.6668 123.645 56.8274 123.645 57.0271C123.645 57.2565 123.728 57.4355 123.894 57.5662C124.06 57.697 124.267 57.7613 124.513 57.7613Z" fill="#231F20"/>
<path d="M127.724 58.3945V53.8814H128.793V54.5261C128.928 54.3288 129.113 54.1567 129.346 54.0122C129.578 53.8676 129.874 53.7942 130.237 53.7942C130.403 53.7942 130.569 53.8218 130.74 53.8768C130.911 53.9319 131.067 54.0122 131.214 54.12C131.361 54.2279 131.477 54.3609 131.563 54.5216C131.71 54.3082 131.906 54.1338 132.151 53.9984C132.395 53.8608 132.672 53.7942 132.978 53.7942C133.147 53.7942 133.32 53.8195 133.5 53.8722C133.678 53.925 133.844 54.0122 133.993 54.1338C134.143 54.2554 134.266 54.4229 134.358 54.634C134.451 54.8451 134.498 55.1089 134.498 55.4256V58.3922H133.403V55.5517C133.403 55.3269 133.362 55.1525 133.282 55.024C133.201 54.8955 133.097 54.8038 132.969 54.751C132.841 54.6959 132.706 54.6707 132.561 54.6707C132.431 54.6707 132.298 54.6959 132.158 54.7441C132.018 54.7946 131.899 54.8749 131.802 54.9873C131.705 55.102 131.655 55.2535 131.655 55.4462V58.3922H130.56V55.3797C130.56 55.2236 130.517 55.0929 130.434 54.9873C130.349 54.8818 130.244 54.8038 130.116 54.751C129.988 54.6959 129.858 54.6707 129.727 54.6707C129.597 54.6707 129.455 54.6982 129.315 54.7533C129.175 54.8084 129.059 54.8932 128.966 55.0057C128.874 55.1181 128.826 55.2672 128.826 55.4462V58.3922H127.731L127.724 58.3945Z" fill="#231F20"/>
<path d="M136.868 58.4817C136.569 58.4817 136.303 58.4289 136.066 58.3211C135.829 58.2156 135.644 58.0618 135.511 57.8622C135.378 57.6626 135.31 57.4217 135.31 57.1349C135.31 56.637 135.495 56.263 135.867 56.0083C136.239 55.7559 136.83 55.6229 137.641 55.6114L138.34 55.593V55.2879C138.34 55.0493 138.267 54.8634 138.122 54.7281C137.975 54.5927 137.75 54.5261 137.444 54.5284C137.216 54.5307 137.007 54.5835 136.822 54.6822C136.635 54.7831 136.512 54.9506 136.453 55.1869H135.518C135.537 54.8795 135.63 54.6202 135.796 54.4114C135.962 54.2049 136.192 54.0489 136.483 53.9457C136.775 53.8424 137.112 53.7919 137.493 53.7919C137.939 53.7919 138.3 53.8493 138.58 53.9617C138.859 54.0741 139.066 54.2393 139.198 54.4527C139.331 54.6661 139.398 54.9254 139.398 55.2259V58.3899H138.473L138.383 57.5777C138.217 57.9173 138.006 58.1536 137.75 58.2821C137.494 58.4106 137.199 58.4771 136.868 58.4771V58.4817ZM137.223 57.7613C137.358 57.7613 137.491 57.736 137.624 57.6878C137.757 57.6397 137.875 57.5754 137.982 57.4928C138.089 57.4102 138.174 57.3184 138.238 57.2152C138.302 57.1119 138.338 57.0064 138.34 56.8963V56.185L137.766 56.1942C137.484 56.1965 137.237 56.2263 137.024 56.2814C136.811 56.3364 136.647 56.4259 136.531 56.5452C136.415 56.6645 136.355 56.8274 136.355 57.0271C136.355 57.2565 136.438 57.4355 136.604 57.5662C136.77 57.697 136.977 57.7613 137.223 57.7613Z" fill="#231F20"/>
<path d="M145.11 58.4817C144.512 58.4817 143.998 58.3486 143.568 58.0825C143.139 57.8163 142.812 57.4377 142.58 56.949C142.35 56.458 142.236 55.8775 142.236 55.2007C142.236 54.5238 142.35 53.9548 142.58 53.4776C142.807 53.0004 143.137 52.6356 143.566 52.3809C143.995 52.1262 144.51 52 145.11 52C145.589 52 146.011 52.0941 146.381 52.2822C146.751 52.4704 147.049 52.725 147.277 53.044C147.505 53.3652 147.637 53.7208 147.68 54.1132H146.521C146.476 53.8814 146.393 53.6726 146.269 53.4891C146.148 53.3055 145.987 53.161 145.788 53.0531C145.589 52.9453 145.352 52.8925 145.074 52.8925C144.728 52.8925 144.434 52.9728 144.192 53.1311C143.95 53.2895 143.765 53.5395 143.637 53.8837C143.509 54.2279 143.445 54.673 143.445 55.2191C143.445 56.0473 143.587 56.6508 143.87 57.0293C144.152 57.4079 144.553 57.5961 145.074 57.5961C145.352 57.5961 145.589 57.5364 145.788 57.4194C145.987 57.3024 146.146 57.1441 146.269 56.949C146.39 56.7517 146.476 56.5383 146.521 56.3066H147.68C147.645 56.5911 147.569 56.8641 147.457 57.128C147.343 57.3896 147.187 57.6236 146.981 57.8278C146.774 58.032 146.521 58.1949 146.212 58.3119C145.904 58.4289 145.537 58.4886 145.11 58.4886V58.4817Z" fill="#231F20"/>
<path d="M150.689 58.4817C150.241 58.4817 149.847 58.3899 149.506 58.2041C149.164 58.0205 148.899 57.7567 148.707 57.4125C148.515 57.0683 148.42 56.6599 148.42 56.1873C148.42 55.7146 148.505 55.3131 148.678 54.9552C148.851 54.595 149.103 54.3128 149.432 54.1063C149.762 53.8998 150.16 53.7965 150.625 53.7965C151.09 53.7965 151.471 53.8906 151.784 54.081C152.097 54.2715 152.335 54.533 152.498 54.8726C152.659 55.2122 152.742 55.6091 152.742 56.0634V56.3869H149.518C149.515 56.6439 149.556 56.8687 149.643 57.0683C149.731 57.2657 149.859 57.4217 150.032 57.5318C150.203 57.6442 150.416 57.6993 150.668 57.6993C150.919 57.6993 151.151 57.6442 151.341 57.5318C151.531 57.4194 151.659 57.2496 151.723 57.0202H152.723C152.669 57.3345 152.541 57.6006 152.337 57.8186C152.133 58.0366 151.886 58.2018 151.597 58.3165C151.308 58.4312 151.004 58.4863 150.689 58.4863V58.4817ZM149.513 55.7238H151.704C151.704 55.5059 151.664 55.3085 151.585 55.1319C151.507 54.9552 151.386 54.8175 151.227 54.712C151.068 54.6087 150.867 54.5583 150.623 54.5583C150.378 54.5583 150.179 54.6156 150.013 54.728C149.847 54.8405 149.724 54.9873 149.639 55.1663C149.553 55.3452 149.513 55.5311 149.513 55.7238Z" fill="#231F20"/>
<path d="M153.651 58.3945V53.8814H154.701V54.8588C154.777 54.634 154.884 54.4435 155.024 54.2852C155.163 54.1269 155.327 54.0053 155.517 53.9204C155.706 53.8355 155.913 53.7942 156.136 53.7942C156.19 53.7942 156.242 53.7965 156.295 53.8034C156.347 53.8103 156.382 53.8195 156.408 53.8332V54.8497C156.375 54.8336 156.332 54.8244 156.28 54.8198C156.228 54.8152 156.181 54.8106 156.143 54.8106C155.917 54.7923 155.718 54.8015 155.545 54.8359C155.372 54.8703 155.227 54.93 155.109 55.0126C154.99 55.0952 154.9 55.2007 154.841 55.3269C154.782 55.4531 154.751 55.5999 154.751 55.7697V58.3922H153.655L153.651 58.3945Z" fill="#231F20"/>
<path d="M158.939 58.4289C158.569 58.4289 158.282 58.3808 158.08 58.2867C157.876 58.1926 157.736 58.0572 157.658 57.8829C157.58 57.7085 157.542 57.4997 157.542 57.2588V54.6317H156.783V53.8814H157.573L157.848 52.5415H158.637V53.8768H159.678V54.6317H158.637L158.642 57.2198C158.642 57.3529 158.659 57.4515 158.69 57.5135C158.72 57.5754 158.773 57.6167 158.844 57.6351C158.915 57.6534 159.007 57.6626 159.126 57.6626H159.702V58.3349C159.638 58.3578 159.546 58.3785 159.425 58.3991C159.304 58.4175 159.143 58.4266 158.941 58.4266L158.939 58.4289Z" fill="#231F20"/>
<path d="M160.575 53.0921V52.0895H161.661V53.0921H160.575ZM160.594 58.3945V53.8814H161.644V58.3945H160.594Z" fill="#231F20"/>
<path d="M163.335 58.3945V54.634H162.415V53.8837H163.335V53.2115C163.335 52.8512 163.437 52.5736 163.643 52.3786C163.849 52.1836 164.148 52.0872 164.539 52.0872H165.523L165.528 52.8099H164.878C164.701 52.8099 164.58 52.8558 164.513 52.943C164.447 53.0325 164.414 53.1702 164.414 53.3606V53.8837H165.483V54.634H164.433V58.3945H163.335ZM166.344 53.0921V52.0895H167.43V53.0921H166.344ZM166.363 58.3945V53.8814H167.413V58.3945H166.363Z" fill="#231F20"/>
<path d="M170.491 58.4817C170.064 58.4817 169.685 58.3899 169.353 58.2087C169.021 58.0274 168.76 57.7613 168.57 57.4148C168.381 57.0683 168.286 56.6485 168.286 56.1552C168.286 55.6619 168.376 55.2764 168.554 54.9231C168.731 54.5697 168.988 54.2921 169.315 54.0948C169.644 53.8952 170.036 53.7965 170.489 53.7965C170.851 53.7965 171.174 53.8654 171.449 54.0053C171.726 54.1453 171.947 54.338 172.115 54.5858C172.284 54.8336 172.383 55.1135 172.414 55.4278H171.48C171.456 55.2902 171.404 55.1617 171.321 55.0378C171.238 54.9139 171.131 54.8129 170.994 54.7372C170.856 54.6615 170.69 54.6225 170.496 54.6225C170.145 54.6225 169.86 54.7464 169.644 54.9988C169.429 55.2489 169.32 55.632 169.32 56.1506C169.32 56.6278 169.422 57.0064 169.628 57.2886C169.834 57.5708 170.128 57.7108 170.515 57.7108C170.707 57.7108 170.873 57.6695 171.01 57.5869C171.148 57.5043 171.257 57.401 171.337 57.2771C171.418 57.1532 171.468 57.0293 171.489 56.9032H172.4C172.374 57.2083 172.274 57.4813 172.106 57.7177C171.937 57.9563 171.714 58.1421 171.439 58.2798C171.162 58.4152 170.847 58.484 170.489 58.484L170.491 58.4817Z" fill="#231F20"/>
<path d="M174.626 58.4817C174.328 58.4817 174.062 58.4289 173.825 58.3211C173.588 58.2156 173.403 58.0618 173.27 57.8622C173.137 57.6626 173.068 57.4217 173.068 57.1349C173.068 56.637 173.253 56.263 173.626 56.0083C173.998 55.7559 174.588 55.6229 175.399 55.6114L176.099 55.593V55.2879C176.099 55.0493 176.025 54.8634 175.881 54.7281C175.734 54.5927 175.508 54.5261 175.202 54.5284C174.975 54.5307 174.766 54.5835 174.581 54.6822C174.394 54.7831 174.271 54.9506 174.211 55.1869H173.277C173.296 54.8795 173.389 54.6202 173.555 54.4114C173.72 54.2049 173.95 54.0489 174.242 53.9457C174.534 53.8424 174.871 53.7919 175.252 53.7919C175.698 53.7919 176.058 53.8493 176.338 53.9617C176.618 54.0741 176.824 54.2393 176.957 54.4527C177.09 54.6661 177.156 54.9254 177.156 55.2259V58.3899H176.232L176.141 57.5777C175.975 57.9173 175.764 58.1536 175.508 58.2821C175.252 58.4106 174.958 58.4771 174.626 58.4771V58.4817ZM174.982 57.7613C175.117 57.7613 175.25 57.736 175.383 57.6878C175.515 57.6397 175.634 57.5754 175.741 57.4928C175.847 57.4102 175.933 57.3184 175.997 57.2152C176.061 57.1119 176.096 57.0064 176.099 56.8963V56.185L175.525 56.1942C175.243 56.1965 174.996 56.2263 174.783 56.2814C174.569 56.3364 174.406 56.4259 174.29 56.5452C174.173 56.6645 174.114 56.8274 174.114 57.0271C174.114 57.2565 174.197 57.4355 174.363 57.5662C174.529 57.697 174.735 57.7613 174.982 57.7613Z" fill="#231F20"/>
<path d="M180.151 58.4817C179.725 58.4817 179.345 58.3899 179.013 58.2087C178.681 58.0274 178.42 57.7613 178.231 57.4148C178.041 57.0683 177.946 56.6485 177.946 56.1552C177.946 55.6619 178.036 55.2764 178.214 54.9231C178.392 54.5697 178.648 54.2921 178.975 54.0948C179.305 53.8952 179.696 53.7965 180.149 53.7965C180.512 53.7965 180.834 53.8654 181.109 54.0053C181.387 54.1453 181.607 54.338 181.776 54.5858C181.942 54.8336 182.044 55.1135 182.074 55.4278H181.14C181.116 55.2902 181.064 55.1617 180.981 55.0378C180.898 54.9139 180.792 54.8129 180.654 54.7372C180.517 54.6615 180.351 54.6225 180.156 54.6225C179.805 54.6225 179.521 54.7464 179.305 54.9988C179.089 55.2489 178.98 55.632 178.98 56.1506C178.98 56.6278 179.082 57.0064 179.288 57.2886C179.495 57.5708 179.789 57.7108 180.175 57.7108C180.367 57.7108 180.533 57.6695 180.671 57.5869C180.808 57.5043 180.917 57.401 180.998 57.2771C181.079 57.1532 181.128 57.0293 181.15 56.9032H182.06C182.034 57.2083 181.935 57.4813 181.766 57.7177C181.598 57.9563 181.375 58.1421 181.1 58.2798C180.822 58.4152 180.507 58.484 180.149 58.484L180.151 58.4817ZM180.066 60.2232C179.891 60.2232 179.725 60.2071 179.563 60.1704C179.402 60.136 179.25 60.0763 179.11 59.996L179.272 59.6083C179.359 59.6633 179.459 59.7115 179.57 59.7551C179.682 59.7964 179.803 59.8193 179.936 59.8193C180.09 59.8193 180.204 59.7941 180.282 59.7436C180.36 59.6931 180.398 59.6197 180.398 59.528C180.398 59.4086 180.341 59.3192 180.23 59.2572C180.116 59.1953 179.926 59.1631 179.653 59.1608C179.62 59.1608 179.599 59.1563 179.585 59.1448C179.573 59.1356 179.575 59.115 179.589 59.0874L179.919 58.3532H180.438L180.232 58.8718C180.448 58.8786 180.621 58.9153 180.747 58.9842C180.872 59.053 180.962 59.1356 181.017 59.2343C181.071 59.3329 181.097 59.4316 181.097 59.5302C181.097 59.6794 181.05 59.8033 180.953 59.9088C180.856 60.0121 180.73 60.0901 180.573 60.1429C180.417 60.1979 180.246 60.2232 180.064 60.2232H180.066Z" fill="#231F20"/>
<path d="M184.287 58.4817C183.988 58.4817 183.722 58.4289 183.485 58.3211C183.248 58.2156 183.063 58.0618 182.93 57.8622C182.798 57.6626 182.729 57.4217 182.729 57.1349C182.729 56.637 182.914 56.263 183.286 56.0083C183.658 55.756 184.249 55.6229 185.06 55.6114L185.759 55.5931V55.2879C185.759 55.0493 185.686 54.8634 185.541 54.7281C185.394 54.5927 185.169 54.5262 184.863 54.5285C184.635 54.5307 184.427 54.5835 184.242 54.6822C184.054 54.7831 183.931 54.9506 183.872 55.1869H182.938C182.957 54.8795 183.049 54.6202 183.215 54.4114C183.381 54.2049 183.611 54.0489 183.903 53.9457C184.194 53.8424 184.531 53.7919 184.913 53.7919C185.359 53.7919 185.719 53.8493 185.999 53.9617C186.279 54.0742 186.485 54.2394 186.618 54.4527C186.75 54.6661 186.817 54.9254 186.817 55.2259V58.3899H185.892L185.802 57.5777C185.636 57.9173 185.425 58.1536 185.169 58.2821C184.913 58.4106 184.619 58.4771 184.287 58.4771V58.4817ZM183.656 53.1403L183.476 52.5598C183.58 52.4612 183.696 52.3763 183.82 52.3029C183.945 52.2295 184.102 52.1927 184.291 52.1927C184.45 52.1927 184.602 52.2134 184.742 52.257C184.884 52.3006 185.022 52.3419 185.155 52.3855C185.287 52.4291 185.423 52.452 185.558 52.452C185.705 52.452 185.835 52.4222 185.947 52.3648C186.058 52.3075 186.16 52.2432 186.252 52.1767L186.407 52.8306C186.319 52.8948 186.205 52.9568 186.065 53.0187C185.923 53.0807 185.755 53.1105 185.56 53.1105C185.394 53.1105 185.247 53.0922 185.117 53.0509C184.986 53.0118 184.858 52.9728 184.735 52.9338C184.612 52.8948 184.479 52.8742 184.334 52.8742C184.19 52.8742 184.061 52.8971 183.964 52.9453C183.867 52.9935 183.765 53.0577 183.658 53.1403H183.656ZM184.645 57.7613C184.78 57.7613 184.913 57.736 185.046 57.6879C185.178 57.6397 185.297 57.5754 185.404 57.4928C185.51 57.4102 185.596 57.3185 185.66 57.2152C185.724 57.112 185.759 57.0064 185.762 56.8963V56.185L185.188 56.1942C184.906 56.1965 184.659 56.2263 184.446 56.2814C184.232 56.3364 184.069 56.4259 183.952 56.5452C183.836 56.6645 183.777 56.8274 183.777 57.0271C183.777 57.2565 183.86 57.4355 184.026 57.5662C184.192 57.697 184.398 57.7613 184.645 57.7613Z" fill="#231F20"/>
<path d="M189.811 58.4817C189.366 58.4817 188.979 58.3899 188.647 58.2041C188.315 58.0205 188.059 57.7544 187.879 57.4079C187.696 57.0615 187.606 56.6462 187.606 56.1598C187.606 55.6733 187.694 55.2764 187.872 54.9208C188.05 54.5651 188.303 54.2898 188.631 54.0925C188.96 53.8952 189.354 53.7965 189.814 53.7965C190.274 53.7965 190.646 53.8906 190.973 54.081C191.3 54.2715 191.554 54.5422 191.732 54.8932C191.91 55.2466 192 55.6688 192 56.1621C192 56.6186 191.915 57.0202 191.746 57.3689C191.576 57.7154 191.329 57.9884 191.002 58.188C190.674 58.3853 190.278 58.484 189.809 58.484L189.811 58.4817ZM189.816 57.6741C190.067 57.6741 190.276 57.6075 190.44 57.4722C190.603 57.3391 190.727 57.1555 190.807 56.9215C190.888 56.6898 190.928 56.4236 190.928 56.1276C190.928 55.8523 190.893 55.5976 190.819 55.3636C190.748 55.1296 190.629 54.9437 190.466 54.8015C190.302 54.6615 190.084 54.5904 189.814 54.5904C189.558 54.5904 189.347 54.6546 189.181 54.7854C189.015 54.9162 188.889 55.0952 188.808 55.3269C188.728 55.5586 188.687 55.8248 188.687 56.1276C188.687 56.4007 188.723 56.6554 188.797 56.8894C188.87 57.1234 188.986 57.3116 189.152 57.4561C189.318 57.6006 189.539 57.6718 189.816 57.6718V57.6741Z" fill="#231F20"/>
<path d="M104.05 69.6807C103.452 69.6807 102.938 69.5476 102.509 69.2815C102.079 69.0153 101.752 68.6368 101.52 68.1481C101.29 67.6571 101.176 67.0743 101.176 66.3997C101.176 65.7252 101.29 65.1539 101.52 64.6766C101.747 64.1994 102.077 63.8346 102.506 63.5799C102.935 63.3252 103.45 63.1967 104.05 63.1967C104.529 63.1967 104.951 63.2908 105.321 63.4789C105.691 63.6671 105.989 63.9218 106.217 64.2407C106.445 64.5596 106.578 64.9175 106.62 65.3099H105.461C105.416 65.0758 105.333 64.8693 105.209 64.6858C105.088 64.5022 104.927 64.3577 104.728 64.2499C104.529 64.142 104.292 64.0892 104.014 64.0892C103.668 64.0892 103.374 64.1673 103.132 64.3256C102.89 64.4839 102.705 64.7363 102.577 65.0781C102.449 65.4223 102.385 65.8674 102.385 66.4135C102.385 67.2441 102.528 67.8475 102.81 68.2238C103.092 68.6023 103.493 68.7905 104.014 68.7905C104.292 68.7905 104.529 68.7308 104.728 68.6138C104.927 68.4968 105.086 68.3385 105.209 68.1412C105.33 67.9461 105.416 67.7305 105.461 67.4987H106.62C106.585 67.7832 106.509 68.0586 106.397 68.3201C106.283 68.5817 106.127 68.8157 105.921 69.0199C105.717 69.2241 105.461 69.387 105.152 69.504C104.844 69.6211 104.477 69.6807 104.05 69.6807Z" fill="#231F20"/>
<path d="M107.564 69.5935V65.0804H108.614V66.0578C108.69 65.833 108.797 65.6426 108.937 65.4842C109.077 65.3259 109.24 65.2043 109.43 65.1194C109.62 65.0345 109.826 64.9932 110.049 64.9932C110.104 64.9932 110.156 64.9978 110.208 65.0024C110.26 65.007 110.296 65.0185 110.322 65.0322V66.0487C110.289 66.0349 110.246 66.0234 110.194 66.0188C110.141 66.0143 110.094 66.0097 110.056 66.0097C109.831 65.9913 109.632 66.0005 109.459 66.0349C109.285 66.0693 109.141 66.129 109.022 66.2116C108.904 66.2942 108.814 66.3997 108.754 66.5259C108.695 66.6521 108.664 66.7989 108.664 66.9687V69.5912H107.569L107.564 69.5935Z" fill="#231F20"/>
<path d="M111.059 64.2912V63.2885H112.145V64.2912H111.059ZM111.078 69.5935V65.0804H112.129V69.5935H111.078Z" fill="#231F20"/>
<path d="M113.291 71V65.0827H114.386L114.396 65.794C114.455 65.6953 114.533 65.5967 114.628 65.5003C114.723 65.4039 114.832 65.319 114.958 65.2433C115.083 65.1676 115.221 65.108 115.375 65.0621C115.529 65.0162 115.697 64.9932 115.88 64.9932C116.238 64.9932 116.556 65.0758 116.831 65.241C117.108 65.4062 117.324 65.6563 117.483 65.9982C117.642 66.3378 117.72 66.7691 117.72 67.2899C117.72 67.8108 117.639 68.2651 117.476 68.6207C117.314 68.9763 117.087 69.2425 116.795 69.4169C116.504 69.5935 116.164 69.6807 115.78 69.6807C115.602 69.6807 115.441 69.6578 115.297 69.6119C115.15 69.566 115.022 69.5018 114.905 69.4192C114.792 69.3388 114.692 69.2494 114.604 69.153C114.516 69.0566 114.448 68.9557 114.391 68.8524V71H113.291ZM115.536 68.8869C115.866 68.8869 116.141 68.7607 116.357 68.5037C116.572 68.249 116.681 67.8498 116.681 67.306C116.681 66.8334 116.579 66.464 116.378 66.1909C116.174 65.9179 115.894 65.7825 115.536 65.7825C115.152 65.7825 114.863 65.9248 114.671 66.2116C114.479 66.4984 114.381 66.8632 114.381 67.3037C114.381 67.5882 114.424 67.8521 114.509 68.0907C114.595 68.3316 114.723 68.522 114.893 68.6666C115.064 68.8111 115.278 68.8823 115.536 68.8823V68.8869Z" fill="#231F20"/>
<path d="M120.281 69.628C119.911 69.628 119.624 69.5821 119.422 69.4857C119.221 69.3893 119.079 69.2563 119 69.0819C118.922 68.9075 118.884 68.6987 118.884 68.4578V65.8307H118.125V65.0804H118.915L119.19 63.7405H119.98V65.0758H121.021V65.8307H119.98L119.984 68.4188C119.984 68.5519 120.001 68.6505 120.032 68.7125C120.063 68.7744 120.115 68.8157 120.186 68.8341C120.257 68.8524 120.35 68.8616 120.468 68.8616H121.044V69.5339C120.98 69.5568 120.888 69.5798 120.767 69.5981C120.646 69.6165 120.485 69.6257 120.283 69.6257L120.281 69.628Z" fill="#231F20"/>
<path d="M123.735 69.6807C123.29 69.6807 122.903 69.5889 122.571 69.4031C122.239 69.2195 121.983 68.9534 121.803 68.6069C121.62 68.2605 121.53 67.8452 121.53 67.3588C121.53 66.8724 121.618 66.4731 121.796 66.1198C121.974 65.7642 122.227 65.4888 122.555 65.2892C122.884 65.0919 123.278 64.9932 123.738 64.9932C124.198 64.9932 124.57 65.0873 124.897 65.2777C125.225 65.4659 125.478 65.7366 125.656 66.09C125.834 66.441 125.924 66.8655 125.924 67.3588C125.924 67.8154 125.839 68.2169 125.67 68.5656C125.5 68.9144 125.253 69.1874 124.926 69.3847C124.599 69.5821 124.203 69.6807 123.733 69.6807H123.735ZM123.74 68.8731C123.992 68.8731 124.2 68.8065 124.364 68.6735C124.527 68.5404 124.651 68.3568 124.731 68.1228C124.812 67.8888 124.852 67.6249 124.852 67.3289C124.852 67.0513 124.817 66.7966 124.743 66.5649C124.672 66.3332 124.554 66.145 124.39 66.0051C124.226 65.8628 124.008 65.794 123.738 65.794C123.482 65.794 123.271 65.8582 123.105 65.989C122.939 66.1198 122.813 66.2988 122.732 66.5305C122.652 66.7622 122.612 67.0284 122.612 67.3312C122.612 67.6043 122.647 67.859 122.721 68.093C122.792 68.327 122.91 68.5152 123.076 68.6597C123.242 68.8043 123.463 68.8754 123.74 68.8754V68.8731Z" fill="#231F20"/>
<path d="M128.101 69.6807C127.802 69.6807 127.537 69.6279 127.3 69.5224C127.063 69.4169 126.878 69.2631 126.745 69.0635C126.612 68.8639 126.543 68.6207 126.543 68.3362C126.543 67.8383 126.728 67.4643 127.1 67.2096C127.473 66.955 128.063 66.8242 128.874 66.8127L129.574 66.7944V66.4892C129.574 66.2506 129.5 66.0647 129.355 65.9271C129.208 65.7917 128.983 65.7252 128.677 65.7297C128.45 65.732 128.241 65.7848 128.056 65.8835C127.871 65.9821 127.745 66.1519 127.686 66.3882H126.752C126.771 66.0785 126.863 65.8215 127.029 65.6127C127.195 65.4039 127.425 65.2502 127.717 65.147C128.009 65.0437 128.345 64.9909 128.727 64.9909C129.173 64.9909 129.533 65.0483 129.813 65.1607C130.093 65.2755 130.299 65.4384 130.432 65.6517C130.565 65.8651 130.631 66.1244 130.631 66.4272V69.5912H129.706L129.616 68.779C129.45 69.1209 129.239 69.3549 128.983 69.4834C128.727 69.6119 128.433 69.6784 128.101 69.6784V69.6807ZM128.457 68.9603C128.592 68.9603 128.725 68.9373 128.858 68.8891C128.99 68.841 129.109 68.7744 129.216 68.6941C129.322 68.6115 129.408 68.5197 129.472 68.4165C129.536 68.3155 129.571 68.21 129.574 68.0976V67.3863L129 67.3955C128.718 67.3978 128.471 67.4276 128.258 67.4827C128.047 67.5377 127.881 67.6249 127.764 67.7465C127.648 67.8681 127.589 68.0287 127.589 68.2284C127.589 68.4578 127.672 68.6391 127.838 68.7675C128.004 68.896 128.21 68.9626 128.457 68.9626V68.9603Z" fill="#231F20"/>
<path d="M133.365 69.628C132.995 69.628 132.708 69.5821 132.506 69.4857C132.305 69.3893 132.163 69.2563 132.084 69.0819C132.006 68.9075 131.968 68.6987 131.968 68.4578V65.8307H131.209V65.0804H131.999L132.274 63.7405H133.064V65.0758H134.105V65.8307H133.064L133.068 68.4188C133.068 68.5519 133.085 68.6505 133.116 68.7125C133.147 68.7744 133.199 68.8157 133.27 68.8341C133.341 68.8524 133.434 68.8616 133.552 68.8616H134.128V69.5339C134.064 69.5568 133.972 69.5798 133.851 69.5981C133.73 69.6165 133.569 69.6257 133.367 69.6257L133.365 69.628Z" fill="#231F20"/>
<path d="M135.001 64.2912V63.2885H136.087V64.2912H135.001ZM135.02 69.5935V65.0804H136.071V69.5935H135.02Z" fill="#231F20"/>
<path d="M138.456 69.5935L136.732 65.0804H137.738L138.857 68.2398H138.916L140.031 65.0804H141.041L139.322 69.5935H138.456Z" fill="#231F20"/>
<path d="M143.526 69.6807C143.08 69.6807 142.693 69.5889 142.361 69.4031C142.029 69.2195 141.773 68.9534 141.593 68.6069C141.41 68.2605 141.32 67.8452 141.32 67.3588C141.32 66.8724 141.408 66.4731 141.586 66.1198C141.764 65.7642 142.017 65.4888 142.345 65.2892C142.674 65.0919 143.068 64.9932 143.528 64.9932C143.988 64.9932 144.36 65.0873 144.687 65.2777C145.015 65.4659 145.268 65.7366 145.446 66.09C145.624 66.441 145.714 66.8655 145.714 67.3588C145.714 67.8154 145.629 68.2169 145.46 68.5656C145.29 68.9144 145.043 69.1874 144.716 69.3847C144.389 69.5821 143.993 69.6807 143.523 69.6807H143.526ZM143.53 68.8731C143.782 68.8731 143.99 68.8065 144.154 68.6735C144.318 68.5404 144.441 68.3568 144.521 68.1228C144.602 67.8888 144.642 67.6249 144.642 67.3289C144.642 67.0513 144.607 66.7966 144.533 66.5649C144.462 66.3332 144.344 66.145 144.18 66.0051C144.016 65.8651 143.798 65.794 143.528 65.794C143.272 65.794 143.061 65.8582 142.895 65.989C142.729 66.1198 142.603 66.2988 142.523 66.5305C142.442 66.7622 142.402 67.0284 142.402 67.3312C142.402 67.6043 142.437 67.859 142.511 68.093C142.582 68.327 142.7 68.5152 142.866 68.6597C143.032 68.8043 143.253 68.8754 143.53 68.8754V68.8731Z" fill="#231F20"/>
<path d="M148.346 69.6807C148.022 69.6807 147.713 69.6302 147.424 69.5293C147.135 69.4283 146.891 69.2723 146.694 69.0566C146.497 68.841 146.374 68.5633 146.321 68.2238H147.287C147.329 68.389 147.403 68.5243 147.509 68.6299C147.616 68.7354 147.742 68.8111 147.889 68.8593C148.036 68.9075 148.185 68.9304 148.342 68.9304C148.622 68.9304 148.847 68.8846 149.018 68.7905C149.188 68.6964 149.274 68.5542 149.274 68.3568C149.274 68.2146 149.226 68.1022 149.131 68.0173C149.036 67.9324 148.882 67.8681 148.669 67.8245L147.784 67.6272C147.388 67.5423 147.071 67.4024 146.834 67.2096C146.597 67.0146 146.476 66.7393 146.473 66.3837C146.471 66.1175 146.54 65.8789 146.679 65.6678C146.822 65.459 147.03 65.2938 147.31 65.1722C147.59 65.0529 147.934 64.9909 148.344 64.9909C148.887 64.9909 149.326 65.108 149.653 65.342C149.983 65.576 150.151 65.911 150.16 66.3424H149.226C149.193 66.1473 149.098 65.9959 148.942 65.8858C148.785 65.7756 148.581 65.7229 148.332 65.7229C148.083 65.7229 147.863 65.771 147.697 65.8674C147.531 65.9638 147.448 66.1106 147.448 66.3079C147.448 66.4456 147.509 66.5511 147.635 66.6314C147.761 66.7095 147.95 66.776 148.207 66.8311L149.046 67.0284C149.285 67.0857 149.482 67.1637 149.636 67.2624C149.791 67.3611 149.909 67.4689 149.994 67.5882C150.08 67.7075 150.139 67.8268 150.175 67.9507C150.21 68.0746 150.227 68.1894 150.227 68.2926C150.227 68.584 150.149 68.8318 149.994 69.036C149.84 69.2402 149.622 69.3985 149.34 69.5086C149.058 69.6188 148.726 69.6738 148.342 69.6738L148.346 69.6807Z" fill="#231F20"/>
<path d="M152.698 69.5935L155.038 63.2839H156.228L158.569 69.5935H157.468L156.888 68.0104H154.388L153.803 69.5935H152.698ZM156.612 67.0674L155.633 64.3141L154.649 67.0674H156.612Z" fill="#231F20"/>
<path d="M159.531 69.5935V63.2839H160.605L163.799 67.7924V63.2839H164.895V69.5935H163.906L160.627 64.9634V69.5935H159.531Z" fill="#231F20"/>
<path d="M168.874 69.6807C168.276 69.6807 167.761 69.5476 167.332 69.2815C166.903 69.0153 166.576 68.6368 166.343 68.1481C166.113 67.6571 166 67.0743 166 66.3997C166 65.7252 166.113 65.1539 166.343 64.6766C166.571 64.1994 166.901 63.8346 167.33 63.5799C167.759 63.3252 168.274 63.1967 168.874 63.1967C169.353 63.1967 169.775 63.2908 170.144 63.4789C170.514 63.6671 170.813 63.9218 171.041 64.2407C171.268 64.5596 171.401 64.9175 171.444 65.3099H170.284C170.239 65.0758 170.156 64.8693 170.033 64.6858C169.912 64.5022 169.751 64.3577 169.552 64.2499C169.353 64.142 169.115 64.0892 168.838 64.0892C168.492 64.0892 168.198 64.1673 167.956 64.3256C167.714 64.4839 167.529 64.7363 167.401 65.0781C167.273 65.4223 167.209 65.8674 167.209 66.4135C167.209 67.2441 167.351 67.8475 167.633 68.2238C167.916 68.6023 168.316 68.7905 168.838 68.7905C169.115 68.7905 169.353 68.7308 169.552 68.6138C169.751 68.4968 169.91 68.3385 170.033 68.1412C170.154 67.9461 170.239 67.7305 170.284 67.4987H171.444C171.408 67.7832 171.332 68.0586 171.221 68.3201C171.107 68.5817 170.951 68.8157 170.744 69.0199C170.54 69.2241 170.284 69.387 169.976 69.504C169.668 69.6211 169.3 69.6807 168.874 69.6807Z" fill="#231F20"/>
<path d="M175.153 69.6807C174.55 69.6807 174.031 69.5522 173.595 69.2976C173.158 69.0429 172.819 68.6735 172.58 68.1894C172.34 67.7075 172.222 67.127 172.222 66.4525C172.222 65.7779 172.343 65.1883 172.582 64.7019C172.822 64.2154 173.163 63.8437 173.604 63.5845C174.045 63.3252 174.562 63.1967 175.153 63.1967C175.743 63.1967 176.258 63.3252 176.692 63.5845C177.126 63.8437 177.462 64.2154 177.699 64.7019C177.936 65.1883 178.055 65.771 178.055 66.4525C178.055 67.1339 177.939 67.7052 177.704 68.1871C177.469 68.6689 177.135 69.0383 176.699 69.2953C176.262 69.5522 175.748 69.6807 175.153 69.6807ZM175.153 68.7905C175.508 68.7905 175.812 68.7102 176.068 68.5473C176.324 68.3844 176.518 68.1343 176.656 67.7924C176.794 67.4506 176.862 67.0077 176.862 66.464C176.862 65.9202 176.794 65.459 176.654 65.108C176.516 64.7569 176.319 64.4999 176.063 64.3347C175.807 64.1696 175.504 64.087 175.153 64.087C174.802 64.087 174.491 64.1695 174.235 64.337C173.979 64.5045 173.78 64.7638 173.637 65.1126C173.495 65.4636 173.426 65.9133 173.426 66.464C173.426 67.0146 173.498 67.4506 173.637 67.7924C173.777 68.1343 173.979 68.3844 174.235 68.5473C174.491 68.7079 174.797 68.7905 175.153 68.7905Z" fill="#231F20"/>
<path d="M179.17 69.5935V63.2839H181.816C182.314 63.2839 182.726 63.3596 183.049 63.5088C183.371 63.6579 183.611 63.869 183.767 64.142C183.924 64.4151 184.002 64.7317 184.002 65.0965C184.002 65.4338 183.945 65.716 183.831 65.9454C183.718 66.1726 183.568 66.3584 183.388 66.503C183.205 66.6475 183.011 66.7645 182.805 66.854L184.05 69.5935H182.904L181.78 67.033H180.265V69.5935H179.17ZM180.265 66.1909H181.569C181.984 66.1909 182.309 66.0969 182.541 65.911C182.774 65.7252 182.89 65.4659 182.89 65.1332C182.89 64.8005 182.781 64.555 182.565 64.3783C182.349 64.2017 182.062 64.1122 181.709 64.1122H180.265V66.1909Z" fill="#231F20"/>
<path d="M185.233 69.5935V63.2839H185.944C186.127 63.2839 186.312 63.2839 186.499 63.2839C186.686 63.2839 186.85 63.2885 186.988 63.2908C187.782 63.3069 188.427 63.4376 188.925 63.6854C189.423 63.9355 189.788 64.2889 190.02 64.7455C190.253 65.2043 190.369 65.755 190.369 66.402C190.369 67.049 190.246 67.6525 189.997 68.1251C189.748 68.6001 189.371 68.9626 188.861 69.215C188.351 69.4673 187.704 69.5912 186.919 69.5912H185.233V69.5935ZM186.347 68.7171H186.938C187.386 68.7171 187.782 68.6414 188.123 68.4922C188.465 68.3431 188.735 68.0999 188.93 67.7603C189.124 67.423 189.221 66.971 189.221 66.4066C189.221 65.8422 189.131 65.4223 188.951 65.0942C188.771 64.7661 188.512 64.5275 188.176 64.3806C187.839 64.2338 187.436 64.1604 186.966 64.1604H186.347V68.7171Z" fill="#231F20"/>
</svg>
