<svg width="321" height="72" viewBox="0 0 321 72" fill="none" xmlns="http://www.w3.org/2000/svg">
<path d="M86.1272 11.0553V0H89.8658C90.6558 0 91.3592 0.132521 91.976 0.397563C92.5927 0.662605 93.0769 1.05507 93.4286 1.57496C93.7854 2.09485 93.9638 2.73452 93.9638 3.49396C93.9638 4.22792 93.7981 4.85485 93.4668 5.37474C93.1406 5.89463 92.6844 6.28964 92.0983 6.55978C91.5121 6.82992 90.8317 6.96499 90.057 6.96499H87.5798V11.0553H86.1272ZM87.5722 5.7723H90.0264C90.7858 5.7723 91.4026 5.56078 91.8766 5.13773C92.3506 4.71468 92.5876 4.13873 92.5876 3.40986C92.5876 2.6759 92.3429 2.12033 91.8536 1.74316C91.3643 1.36598 90.7323 1.1774 89.9576 1.1774H87.5722V5.7723Z" fill="white"/>
<path d="M95.1139 11.0553V3.14992H96.4595V4.67136C96.592 4.29418 96.7781 3.98327 97.0176 3.73862C97.2572 3.48887 97.5299 3.30283 97.8357 3.1805C98.1466 3.05817 98.4677 2.99701 98.799 2.99701C98.9163 2.99701 99.0309 3.00466 99.1431 3.01995C99.2552 3.03524 99.3419 3.06072 99.403 3.0964V4.46493C99.3266 4.42925 99.2272 4.40632 99.1048 4.39612C98.9876 4.38083 98.8882 4.37319 98.8067 4.37319C98.4907 4.3528 98.195 4.37319 97.9198 4.43435C97.6446 4.49042 97.4025 4.58981 97.1935 4.73252C96.9845 4.87524 96.8189 5.06382 96.6965 5.29828C96.5793 5.52765 96.5207 5.80798 96.5207 6.13928V11.0553H95.1139Z" fill="white"/>
<path d="M103.674 11.2082C102.945 11.2082 102.308 11.0527 101.763 10.7418C101.222 10.4258 100.802 9.96455 100.501 9.35801C100.2 8.75147 100.05 8.00986 100.05 7.13319C100.05 6.30748 100.19 5.58371 100.471 4.96188C100.751 4.34006 101.161 3.85839 101.701 3.5169C102.242 3.17031 102.902 2.99701 103.682 2.99701C104.41 2.99701 105.042 3.15756 105.578 3.47867C106.113 3.79468 106.528 4.26105 106.824 4.87779C107.125 5.49452 107.275 6.24632 107.275 7.13319C107.275 7.93851 107.137 8.64698 106.862 9.25862C106.587 9.87025 106.182 10.3494 105.646 10.696C105.116 11.0375 104.459 11.2082 103.674 11.2082ZM103.682 10.092C104.151 10.092 104.548 9.97219 104.874 9.73263C105.2 9.49308 105.448 9.14903 105.616 8.7005C105.789 8.25197 105.876 7.71934 105.876 7.10261C105.876 6.53684 105.799 6.0297 105.646 5.58117C105.499 5.12754 105.264 4.7682 104.943 4.50316C104.622 4.23812 104.201 4.1056 103.682 4.1056C103.202 4.1056 102.797 4.22538 102.466 4.46493C102.135 4.69939 101.882 5.04089 101.709 5.48942C101.541 5.93795 101.457 6.47568 101.457 7.10261C101.457 7.65817 101.531 8.16277 101.678 8.6164C101.831 9.07003 102.071 9.42937 102.397 9.69441C102.728 9.95945 103.157 10.092 103.682 10.092Z" fill="white"/>
<path d="M111.977 13.67C110.739 13.67 109.773 13.4891 109.08 13.1272C108.386 12.7704 108.04 12.2582 108.04 11.5905C108.04 11.305 108.106 11.0629 108.239 10.8642C108.371 10.6603 108.529 10.4921 108.713 10.3596C108.896 10.227 109.067 10.1226 109.225 10.0461C109.383 9.96455 109.487 9.90593 109.538 9.87025C109.447 9.81928 109.337 9.75557 109.21 9.67912C109.082 9.60266 108.967 9.50072 108.866 9.3733C108.769 9.24588 108.72 9.08022 108.72 8.87635C108.72 8.6266 108.838 8.39723 109.072 8.18826C109.306 7.97928 109.656 7.82383 110.119 7.72189C109.656 7.48743 109.294 7.17651 109.034 6.78914C108.774 6.40177 108.644 5.98128 108.644 5.52765C108.644 5.01795 108.781 4.57452 109.057 4.19734C109.332 3.82017 109.727 3.53219 110.242 3.33341C110.757 3.12953 111.371 3.02759 112.084 3.02759C112.599 3.02759 113.03 3.08875 113.376 3.21108C113.728 3.32831 114.054 3.49651 114.355 3.71568C114.437 3.68 114.566 3.62648 114.745 3.55513C114.923 3.47867 115.117 3.39712 115.326 3.31047C115.54 3.22382 115.739 3.14227 115.922 3.06582C116.111 2.98427 116.261 2.9231 116.373 2.88233L116.366 4.1897L114.982 4.44964C115.063 4.61274 115.127 4.79114 115.173 4.98482C115.219 5.17851 115.242 5.35945 115.242 5.52765C115.242 5.99147 115.12 6.41197 114.875 6.78914C114.635 7.16632 114.271 7.46704 113.782 7.6913C113.292 7.91557 112.681 8.0277 111.947 8.0277C111.885 8.0277 111.806 8.0277 111.71 8.0277C111.618 8.02261 111.539 8.01751 111.473 8.01241C110.932 8.0277 110.56 8.08887 110.356 8.1959C110.158 8.29784 110.058 8.41252 110.058 8.53995C110.058 8.68776 110.173 8.7897 110.402 8.84576C110.632 8.90183 111.019 8.95025 111.564 8.99103C111.763 9.00122 112.008 9.01396 112.298 9.02925C112.594 9.04455 112.923 9.06493 113.285 9.09042C114.11 9.14139 114.747 9.35291 115.196 9.72499C115.645 10.0971 115.869 10.5991 115.869 11.2311C115.869 11.9498 115.548 12.536 114.905 12.9896C114.268 13.4432 113.292 13.67 111.977 13.67ZM112.23 12.7602C112.958 12.7602 113.517 12.6506 113.904 12.4315C114.296 12.2123 114.493 11.881 114.493 11.4376C114.493 11.1216 114.373 10.8642 114.133 10.6654C113.894 10.4615 113.532 10.3443 113.048 10.3137L110.83 10.1684C110.632 10.1582 110.425 10.2092 110.211 10.3213C109.997 10.4284 109.816 10.5787 109.668 10.7724C109.521 10.9661 109.447 11.1853 109.447 11.4299C109.447 11.8479 109.673 12.1741 110.127 12.4085C110.581 12.643 111.282 12.7602 112.23 12.7602ZM111.993 7.1179C112.558 7.1179 113.014 6.98538 113.361 6.72033C113.713 6.45529 113.889 6.06283 113.889 5.54294C113.889 5.00776 113.713 4.6 113.361 4.31967C113.014 4.03934 112.558 3.89917 111.993 3.89917C111.411 3.89917 110.943 4.04188 110.586 4.32731C110.234 4.60765 110.058 5.01285 110.058 5.54294C110.058 6.04244 110.226 6.42981 110.563 6.70504C110.904 6.98028 111.381 7.1179 111.993 7.1179Z" fill="white"/>
<path d="M117.689 11.0553V3.14992H119.035V4.67136C119.168 4.29418 119.354 3.98327 119.593 3.73862C119.833 3.48887 120.105 3.30283 120.411 3.1805C120.722 3.05817 121.043 2.99701 121.375 2.99701C121.492 2.99701 121.606 3.00466 121.719 3.01995C121.831 3.03524 121.917 3.06072 121.979 3.0964V4.46493C121.902 4.42925 121.803 4.40632 121.68 4.39612C121.563 4.38083 121.464 4.37319 121.382 4.37319C121.066 4.3528 120.771 4.37319 120.495 4.43435C120.22 4.49042 119.978 4.58981 119.769 4.73252C119.56 4.87524 119.394 5.06382 119.272 5.29828C119.155 5.52765 119.096 5.80798 119.096 6.13928V11.0553H117.689Z" fill="white"/>
<path d="M125.152 11.2082C124.637 11.2082 124.184 11.119 123.791 10.9406C123.404 10.7571 123.098 10.4946 122.874 10.1531C122.655 9.81164 122.545 9.39878 122.545 8.91457C122.545 8.0379 122.851 7.38549 123.462 6.95734C124.074 6.5292 125.055 6.29984 126.406 6.26925L127.813 6.23103V5.61175C127.813 5.12754 127.667 4.74527 127.377 4.46493C127.086 4.1795 126.638 4.03679 126.031 4.03679C125.578 4.04188 125.178 4.14892 124.831 4.3579C124.484 4.56687 124.263 4.90837 124.166 5.38238H122.92C122.95 4.86759 123.093 4.43435 123.348 4.08266C123.608 3.72587 123.972 3.45574 124.441 3.27225C124.91 3.08875 125.463 2.99701 126.1 2.99701C126.788 2.99701 127.359 3.09385 127.813 3.28754C128.271 3.48122 128.613 3.76665 128.837 4.14382C129.067 4.521 129.181 4.98482 129.181 5.53529V11.0553H127.973L127.866 9.57208C127.566 10.1888 127.178 10.617 126.704 10.8565C126.235 11.091 125.718 11.2082 125.152 11.2082ZM125.573 10.1914C125.843 10.1914 126.108 10.1429 126.368 10.0461C126.633 9.94925 126.872 9.81928 127.086 9.65618C127.306 9.48798 127.481 9.30194 127.614 9.09806C127.746 8.88909 127.813 8.67502 127.813 8.45585V7.10261L126.643 7.12554C126.036 7.13574 125.532 7.1969 125.129 7.30903C124.727 7.42117 124.423 7.59701 124.219 7.83657C124.015 8.07612 123.914 8.38959 123.914 8.77696C123.914 9.22039 124.069 9.56698 124.38 9.81673C124.691 10.0665 125.088 10.1914 125.573 10.1914Z" fill="white"/>
<path d="M130.928 11.0553V3.14992H132.289V4.29673C132.508 3.95014 132.809 3.64687 133.191 3.38693C133.573 3.12698 134.07 2.99701 134.682 2.99701C134.967 2.99701 135.258 3.04543 135.553 3.14227C135.854 3.23911 136.129 3.38438 136.379 3.57806C136.629 3.77175 136.823 4.00875 136.96 4.28909C137.205 3.90172 137.536 3.5908 137.954 3.35634C138.372 3.11679 138.844 2.99701 139.369 2.99701C139.644 2.99701 139.932 3.04033 140.232 3.12698C140.533 3.20853 140.811 3.35634 141.066 3.57042C141.326 3.77939 141.537 4.07247 141.7 4.44964C141.864 4.82172 141.945 5.30083 141.945 5.88698V11.0553H140.523V6.0246C140.523 5.54549 140.447 5.17596 140.294 4.91601C140.141 4.65097 139.939 4.46493 139.69 4.3579C139.445 4.25086 139.183 4.19734 138.902 4.19734C138.658 4.19734 138.398 4.24576 138.122 4.34261C137.847 4.43945 137.613 4.60255 137.419 4.83191C137.225 5.06128 137.128 5.37474 137.128 5.7723V11.0553H135.722V5.61175C135.722 5.30083 135.638 5.04089 135.469 4.83191C135.306 4.62294 135.1 4.46493 134.85 4.3579C134.605 4.25086 134.361 4.19734 134.116 4.19734C133.846 4.19734 133.573 4.25086 133.298 4.3579C133.028 4.46493 132.799 4.63568 132.61 4.87014C132.427 5.0995 132.335 5.40022 132.335 5.7723V11.0553H130.928Z" fill="white"/>
<path d="M145.887 11.2082C145.372 11.2082 144.918 11.119 144.526 10.9406C144.139 10.7571 143.833 10.4946 143.608 10.1531C143.389 9.81164 143.28 9.39878 143.28 8.91457C143.28 8.0379 143.585 7.38549 144.197 6.95734C144.809 6.5292 145.79 6.29984 147.141 6.26925L148.547 6.23103V5.61175C148.547 5.12754 148.402 4.74527 148.112 4.46493C147.821 4.1795 147.373 4.03679 146.766 4.03679C146.312 4.04188 145.912 4.14892 145.566 4.3579C145.219 4.56687 144.997 4.90837 144.901 5.38238H143.654C143.685 4.86759 143.828 4.43435 144.082 4.08266C144.342 3.72587 144.707 3.45574 145.176 3.27225C145.645 3.08875 146.198 2.99701 146.835 2.99701C147.523 2.99701 148.094 3.09385 148.547 3.28754C149.006 3.48122 149.348 3.76665 149.572 4.14382C149.801 4.521 149.916 4.98482 149.916 5.53529V11.0553H148.708L148.601 9.57208C148.3 10.1888 147.913 10.617 147.439 10.8565C146.97 11.091 146.453 11.2082 145.887 11.2082ZM146.307 10.1914C146.577 10.1914 146.842 10.1429 147.102 10.0461C147.367 9.94925 147.607 9.81928 147.821 9.65618C148.04 9.48798 148.216 9.30194 148.349 9.09806C148.481 8.88909 148.547 8.67502 148.547 8.45585V7.10261L147.378 7.12554C146.771 7.13574 146.266 7.1969 145.864 7.30903C145.461 7.42117 145.158 7.59701 144.954 7.83657C144.75 8.07612 144.648 8.38959 144.648 8.77696C144.648 9.22039 144.804 9.56698 145.115 9.81673C145.425 10.0665 145.823 10.1914 146.307 10.1914Z" fill="white"/>
<path d="M93.6668 39.8379C92.053 39.8379 90.6589 39.4624 89.4845 38.7114C88.31 37.9604 87.4033 36.9059 86.7641 35.5477C86.133 34.1895 85.8174 32.6036 85.8174 30.7901C85.8174 28.9685 86.133 27.4066 86.7641 26.1044C87.3953 24.7941 88.2981 23.7875 89.4725 23.0844C90.6469 22.3814 92.045 22.0298 93.6668 22.0298C94.9691 22.0298 96.1275 22.2935 97.1422 22.8208C98.1648 23.3401 98.9877 24.0511 99.6109 24.9539C100.242 25.8567 100.614 26.8753 100.725 28.0098H97.0583C96.9464 27.4106 96.7427 26.8793 96.4471 26.4159C96.1515 25.9446 95.764 25.5771 95.2847 25.3134C94.8053 25.0418 94.2301 24.906 93.559 24.906C92.7521 24.906 92.057 25.1017 91.4738 25.4932C90.8906 25.8847 90.4432 26.5158 90.1316 27.3866C89.82 28.2575 89.6642 29.4079 89.6642 30.838C89.6642 32.9951 90.0078 34.557 90.6948 35.5237C91.3899 36.4824 92.3446 36.9618 93.559 36.9618C94.2301 36.9618 94.8053 36.81 95.2847 36.5064C95.764 36.1948 96.1515 35.7874 96.4471 35.284C96.7427 34.7727 96.9464 34.2135 97.0583 33.6063H100.725C100.622 34.4292 100.422 35.2161 100.126 35.9671C99.8306 36.7101 99.4111 37.3732 98.8679 37.9564C98.3246 38.5397 97.6255 38.999 96.7707 39.3346C95.9158 39.6701 94.8812 39.8379 93.6668 39.8379Z" fill="white"/>
<path d="M108.389 39.8379C107.158 39.8379 106.076 39.5823 105.141 39.0709C104.214 38.5516 103.491 37.8206 102.972 36.8779C102.452 35.9352 102.193 34.8246 102.193 33.5464C102.193 32.308 102.429 31.1935 102.9 30.2029C103.379 29.2042 104.066 28.4172 104.961 27.842C105.856 27.2588 106.938 26.9672 108.209 26.9672C109.471 26.9672 110.53 27.2348 111.384 27.7701C112.239 28.2974 112.886 29.0364 113.326 29.9871C113.765 30.9299 113.985 32.0204 113.985 33.2588V34.2055H105.656C105.656 34.8366 105.76 35.3879 105.968 35.8593C106.175 36.3226 106.475 36.6822 106.867 36.9378C107.266 37.1855 107.745 37.3093 108.305 37.3093C108.904 37.3093 109.427 37.1815 109.875 36.9258C110.322 36.6702 110.637 36.2507 110.821 35.6675H113.973C113.829 36.5463 113.478 37.2973 112.918 37.9205C112.359 38.5437 111.68 39.019 110.881 39.3466C110.082 39.6741 109.251 39.8379 108.389 39.8379ZM105.656 32.1203H110.713C110.713 31.6249 110.618 31.1696 110.426 30.7541C110.242 30.3387 109.962 30.0111 109.587 29.7714C109.219 29.5318 108.756 29.4119 108.197 29.4119C107.661 29.4119 107.202 29.5437 106.819 29.8074C106.443 30.063 106.152 30.3986 105.944 30.814C105.744 31.2295 105.648 31.6649 105.656 32.1203Z" fill="white"/>
<path d="M115.787 39.5982V27.2069H119.154V30.1429C119.354 29.5118 119.634 28.9605 119.993 28.4892C120.361 28.0098 120.804 27.6383 121.323 27.3746C121.843 27.103 122.43 26.9672 123.085 26.9672C123.197 26.9672 123.301 26.9752 123.396 26.9912C123.5 26.9992 123.576 27.0151 123.624 27.0391V30.3706C123.552 30.3387 123.464 30.3187 123.361 30.3107C123.265 30.3027 123.177 30.2947 123.097 30.2867C122.41 30.2308 121.823 30.2508 121.335 30.3467C120.848 30.4425 120.452 30.6063 120.149 30.838C119.845 31.0697 119.626 31.3533 119.49 31.6889C119.354 32.0244 119.286 32.3999 119.286 32.8153V39.5982H115.787Z" fill="white"/>
<path d="M130.173 39.7301C129.078 39.7301 128.231 39.5902 127.632 39.3106C127.041 39.031 126.63 38.6395 126.398 38.1362C126.174 37.6329 126.062 37.0497 126.062 36.3865V29.6396H124.049V27.2069H126.17L127.057 23.4679H129.55V27.1949H132.306V29.6396H129.55L129.574 36.2427C129.574 36.5463 129.61 36.774 129.681 36.9258C129.761 37.0696 129.881 37.1655 130.041 37.2134C130.209 37.2534 130.42 37.2734 130.676 37.2734H132.342V39.4305C132.174 39.5024 131.922 39.5703 131.587 39.6342C131.251 39.6981 130.78 39.7301 130.173 39.7301Z" fill="white"/>
<path d="M134.116 39.5982V27.2069H137.459V39.5982H134.116ZM134.08 25.4333V22.2815H137.483V25.4333H134.08Z" fill="white"/>
<path d="M141.141 39.5982V29.6396H138.852V27.2069H141.141V25.4213C141.141 24.4226 141.437 23.6477 142.028 23.0964C142.619 22.5451 143.45 22.2695 144.52 22.2695H147.361L147.385 24.5944H145.743C145.303 24.5944 145 24.7062 144.832 24.9299C144.664 25.1456 144.58 25.5052 144.58 26.0085V27.2069H147.265V29.6396H144.652V39.5982H141.141ZM149.29 39.5982V27.2069H152.633V39.5982H149.29ZM149.254 25.4333V22.2815H152.657V25.4333H149.254Z" fill="white"/>
<path d="M160.317 39.8379C159.167 39.8379 158.14 39.5823 157.237 39.0709C156.335 38.5596 155.624 37.8286 155.104 36.8779C154.593 35.9192 154.337 34.7767 154.337 33.4505C154.337 32.1722 154.585 31.0457 155.08 30.071C155.576 29.0963 156.271 28.3374 157.165 27.7941C158.068 27.2428 159.119 26.9672 160.317 26.9672C161.356 26.9672 162.251 27.1789 163.002 27.6023C163.761 28.0258 164.356 28.597 164.787 29.316C165.227 30.0351 165.478 30.838 165.542 31.7248H162.63C162.574 31.3972 162.458 31.0737 162.283 30.7541C162.107 30.4266 161.859 30.1589 161.54 29.9512C161.22 29.7355 160.821 29.6276 160.341 29.6276C159.526 29.6276 158.863 29.9432 158.352 30.5744C157.849 31.1975 157.597 32.1482 157.597 33.4265C157.597 34.6329 157.845 35.5916 158.34 36.3027C158.835 37.0057 159.526 37.3572 160.413 37.3572C160.884 37.3572 161.276 37.2414 161.588 37.0097C161.907 36.778 162.155 36.5024 162.331 36.1828C162.506 35.8553 162.618 35.5517 162.666 35.272H165.506C165.45 36.1269 165.203 36.9019 164.763 37.5969C164.324 38.284 163.725 38.8313 162.966 39.2387C162.215 39.6382 161.332 39.8379 160.317 39.8379Z" fill="white"/>
<path d="M170.922 39.8379C170.139 39.8379 169.428 39.6901 168.789 39.3945C168.157 39.0989 167.658 38.6715 167.291 38.1122C166.923 37.545 166.739 36.8579 166.739 36.051C166.739 34.6928 167.247 33.6622 168.261 32.9592C169.276 32.2481 170.878 31.8806 173.067 31.8566L174.625 31.8327V31.0897C174.625 30.5224 174.457 30.087 174.121 29.7834C173.794 29.4718 173.279 29.32 172.575 29.328C172.072 29.336 171.589 29.4559 171.125 29.6875C170.67 29.9192 170.354 30.3227 170.179 30.8979H167.267C167.315 30.0031 167.574 29.2681 168.046 28.6929C168.525 28.1097 169.168 27.6782 169.975 27.3986C170.782 27.111 171.705 26.9672 172.743 26.9672C174.006 26.9672 175.02 27.127 175.787 27.4466C176.554 27.7581 177.109 28.2095 177.453 28.8007C177.804 29.384 177.98 30.079 177.98 30.8859V39.5982H175.056L174.769 37.4651C174.345 38.3599 173.814 38.9791 173.175 39.3226C172.544 39.6661 171.793 39.8379 170.922 39.8379ZM172.108 37.537C172.42 37.537 172.723 37.4811 173.019 37.3692C173.322 37.2494 173.594 37.0936 173.834 36.9019C174.073 36.7021 174.261 36.4784 174.397 36.2308C174.541 35.9831 174.617 35.7274 174.625 35.4638V33.6302L173.366 33.6542C172.783 33.6622 172.24 33.7341 171.737 33.8699C171.233 33.9978 170.826 34.2095 170.514 34.5051C170.211 34.8007 170.059 35.2001 170.059 35.7035C170.059 36.2787 170.255 36.7301 170.646 37.0576C171.046 37.3772 171.533 37.537 172.108 37.537Z" fill="white"/>
<path d="M185.372 44.6914C184.877 44.6914 184.393 44.6435 183.922 44.5476C183.459 44.4517 183.023 44.2839 182.616 44.0443L183.095 42.8698C183.343 43.0216 183.626 43.1575 183.946 43.2773C184.266 43.3971 184.597 43.4571 184.941 43.4571C185.324 43.4571 185.62 43.3891 185.827 43.2533C186.035 43.1255 186.139 42.9457 186.139 42.7141C186.139 42.4025 185.987 42.1628 185.684 41.995C185.38 41.8272 184.857 41.7394 184.114 41.7314C184.01 41.7314 183.938 41.7154 183.898 41.6834C183.866 41.6595 183.87 41.5996 183.91 41.5037L184.797 39.4784H186.343L185.815 40.8805C186.415 40.8965 186.89 41.0004 187.242 41.1921C187.601 41.3838 187.857 41.6195 188.008 41.8991C188.16 42.1868 188.236 42.4704 188.236 42.75C188.236 43.1575 188.104 43.505 187.841 43.7926C187.577 44.0882 187.226 44.3119 186.786 44.4637C186.355 44.6155 185.883 44.6914 185.372 44.6914ZM185.492 39.8379C184.341 39.8379 183.315 39.5823 182.412 39.0709C181.509 38.5596 180.798 37.8286 180.279 36.8779C179.768 35.9192 179.512 34.7767 179.512 33.4505C179.512 32.1722 179.76 31.0457 180.255 30.071C180.75 29.0963 181.445 28.3374 182.34 27.7941C183.243 27.2428 184.293 26.9672 185.492 26.9672C186.53 26.9672 187.425 27.1789 188.176 27.6023C188.935 28.0258 189.53 28.597 189.962 29.316C190.401 30.0351 190.653 30.838 190.717 31.7248H187.805C187.749 31.3972 187.633 31.0737 187.457 30.7541C187.281 30.4266 187.034 30.1589 186.714 29.9512C186.395 29.7355 185.995 29.6276 185.516 29.6276C184.701 29.6276 184.038 29.9432 183.527 30.5744C183.023 31.1975 182.772 32.1482 182.772 33.4265C182.772 34.6329 183.019 35.5916 183.515 36.3027C184.01 37.0057 184.701 37.3572 185.588 37.3572C186.059 37.3572 186.451 37.2414 186.762 37.0097C187.082 36.778 187.329 36.5024 187.505 36.1828C187.681 35.8553 187.793 35.5517 187.841 35.272H190.681C190.625 36.1269 190.377 36.9019 189.938 37.5969C189.498 38.284 188.899 38.8313 188.14 39.2387C187.389 39.6382 186.507 39.8379 185.492 39.8379Z" fill="white"/>
<path d="M196.096 39.8379C195.313 39.8379 194.602 39.6901 193.963 39.3945C193.332 39.0989 192.833 38.6715 192.465 38.1122C192.098 37.545 191.914 36.8579 191.914 36.051C191.914 34.6928 192.421 33.6622 193.436 32.9592C194.451 32.2481 196.052 31.8806 198.241 31.8566L199.799 31.8327V31.0897C199.799 30.5224 199.632 30.087 199.296 29.7834C198.968 29.4718 198.453 29.32 197.75 29.328C197.247 29.336 196.763 29.4559 196.3 29.6875C195.845 29.9192 195.529 30.3227 195.353 30.8979H192.441C192.489 30.0031 192.749 29.2681 193.22 28.6929C193.7 28.1097 194.343 27.6782 195.15 27.3986C195.956 27.111 196.879 26.9672 197.918 26.9672C199.18 26.9672 200.195 27.127 200.962 27.4466C201.729 27.7581 202.284 28.2095 202.628 28.8007C202.979 29.384 203.155 30.079 203.155 30.8859V39.5982H200.231L199.943 37.4651C199.52 38.3599 198.988 38.9791 198.349 39.3226C197.718 39.6661 196.967 39.8379 196.096 39.8379ZM197.283 37.537C197.594 37.537 197.898 37.4811 198.193 37.3692C198.497 37.2494 198.769 37.0936 199.008 36.9019C199.248 36.7021 199.436 36.4784 199.572 36.2308C199.715 35.9831 199.791 35.7274 199.799 35.4638V33.6302L198.541 33.6542C197.958 33.6622 197.415 33.7341 196.911 33.8699C196.408 33.9978 196 34.2095 195.689 34.5051C195.385 34.8007 195.233 35.2001 195.233 35.7035C195.233 36.2787 195.429 36.7301 195.821 37.0576C196.22 37.3772 196.707 37.537 197.283 37.537ZM194.419 25.3254L193.879 23.4919C194.167 23.1963 194.486 22.9406 194.838 22.7249C195.19 22.5092 195.637 22.4013 196.18 22.4013C196.628 22.4013 197.051 22.4612 197.45 22.5811C197.858 22.7009 198.245 22.8248 198.613 22.9526C198.988 23.0724 199.356 23.1323 199.715 23.1323C200.139 23.1323 200.514 23.0445 200.842 22.8687C201.17 22.6849 201.461 22.4972 201.717 22.3055L202.148 24.3787C201.901 24.5784 201.569 24.7701 201.154 24.9539C200.738 25.1297 200.263 25.2175 199.727 25.2175C199.28 25.2175 198.873 25.1616 198.505 25.0498C198.146 24.9379 197.79 24.8301 197.439 24.7262C197.087 24.6144 196.707 24.5584 196.3 24.5584C195.893 24.5584 195.553 24.6223 195.281 24.7502C195.018 24.87 194.73 25.0618 194.419 25.3254Z" fill="white"/>
<path d="M210.678 39.8379C209.464 39.8379 208.406 39.5783 207.503 39.059C206.608 38.5397 205.913 37.8046 205.418 36.8539C204.93 35.9032 204.687 34.7767 204.687 33.4745C204.687 32.1722 204.93 31.0337 205.418 30.059C205.913 29.0844 206.608 28.3254 207.503 27.7821C208.406 27.2388 209.468 26.9672 210.69 26.9672C211.913 26.9672 212.971 27.2348 213.866 27.7701C214.761 28.2974 215.452 29.0484 215.939 30.0231C216.427 30.9978 216.67 32.1482 216.67 33.4745C216.67 34.7208 216.431 35.8233 215.951 36.782C215.48 37.7327 214.797 38.4797 213.902 39.023C213.015 39.5663 211.941 39.8379 210.678 39.8379ZM210.69 37.2374C211.306 37.2374 211.801 37.0576 212.176 36.6981C212.552 36.3386 212.824 35.8672 212.991 35.284C213.159 34.6928 213.243 34.0497 213.243 33.3546C213.243 32.6995 213.167 32.0803 213.015 31.4971C212.864 30.9139 212.6 30.4425 212.224 30.083C211.849 29.7235 211.338 29.5437 210.69 29.5437C210.075 29.5437 209.576 29.7155 209.192 30.059C208.817 30.3946 208.541 30.854 208.366 31.4372C208.19 32.0124 208.102 32.6516 208.102 33.3546C208.102 34.0018 208.182 34.6249 208.342 35.2241C208.501 35.8153 208.769 36.2987 209.145 36.6742C209.52 37.0497 210.035 37.2374 210.69 37.2374Z" fill="white"/>
<path d="M93.6668 68.3809C92.053 68.3809 90.6589 68.0054 89.4845 67.2544C88.31 66.5034 87.4033 65.4488 86.7641 64.0906C86.133 62.7324 85.8174 61.1466 85.8174 59.333C85.8174 57.5115 86.133 55.9496 86.7641 54.6473C87.3953 53.3371 88.2981 52.3304 89.4725 51.6274C90.6469 50.9243 92.045 50.5728 93.6668 50.5728C94.9691 50.5728 96.1275 50.8364 97.1422 51.3637C98.1648 51.883 98.9877 52.5941 99.6109 53.4968C100.242 54.3996 100.614 55.4183 100.725 56.5527H97.0583C96.9464 55.9535 96.7427 55.4223 96.4471 54.9589C96.1515 54.4875 95.764 54.12 95.2847 53.8564C94.8053 53.5847 94.2301 53.4489 93.559 53.4489C92.7521 53.4489 92.057 53.6446 91.4738 54.0361C90.8906 54.4276 90.4432 55.0587 90.1316 55.9296C89.82 56.8004 89.6642 57.9509 89.6642 59.3809C89.6642 61.538 90.0078 63.0999 90.6948 64.0667C91.3899 65.0254 92.3446 65.5047 93.559 65.5047C94.2301 65.5047 94.8053 65.3529 95.2847 65.0493C95.764 64.7377 96.1515 64.3303 96.4471 63.827C96.7427 63.3157 96.9464 62.7564 97.0583 62.1492H100.725C100.622 62.9721 100.422 63.7591 100.126 64.5101C99.8306 65.2531 99.4111 65.9162 98.8679 66.4994C98.3246 67.0826 97.6255 67.542 96.7707 67.8775C95.9158 68.2131 94.8812 68.3809 93.6668 68.3809Z" fill="white"/>
<path d="M102.649 68.1412V55.7498H106.017V58.6859C106.217 58.0547 106.496 57.5035 106.856 57.0321C107.223 56.5527 107.667 56.1812 108.186 55.9176C108.705 55.646 109.292 55.5101 109.948 55.5101C110.059 55.5101 110.163 55.5181 110.259 55.5341C110.363 55.5421 110.439 55.5581 110.487 55.582V58.9136C110.415 58.8816 110.327 58.8616 110.223 58.8536C110.127 58.8457 110.039 58.8377 109.96 58.8297C109.272 58.7738 108.685 58.7937 108.198 58.8896C107.711 58.9855 107.315 59.1493 107.011 59.3809C106.708 59.6126 106.488 59.8962 106.352 60.2318C106.217 60.5673 106.149 60.9428 106.149 61.3583V68.1412H102.649Z" fill="white"/>
<path d="M111.844 68.1412V55.7498H115.187V68.1412H111.844ZM111.808 53.9762V50.8244H115.211V53.9762H111.808Z" fill="white"/>
<path d="M117.549 72V55.7498H121.06L121.072 57.5354C121.256 57.2398 121.479 56.9722 121.743 56.7325C122.015 56.4848 122.314 56.2691 122.642 56.0854C122.969 55.9016 123.325 55.7618 123.708 55.6659C124.092 55.5621 124.495 55.5101 124.919 55.5101C125.838 55.5101 126.656 55.7378 127.376 56.1932C128.095 56.6406 128.658 57.3357 129.065 58.2784C129.481 59.2132 129.688 60.4036 129.688 61.8496C129.688 63.3516 129.465 64.586 129.017 65.5527C128.578 66.5114 127.971 67.2224 127.196 67.6858C126.421 68.1492 125.546 68.3809 124.571 68.3809C124.172 68.3809 123.796 68.3249 123.445 68.2131C123.093 68.1092 122.766 67.9614 122.462 67.7697C122.167 67.5779 121.899 67.3582 121.659 67.1106C121.428 66.8549 121.224 66.5793 121.048 66.2837V72H117.549ZM123.732 65.8163C124.491 65.8163 125.127 65.5007 125.638 64.8696C126.157 64.2384 126.417 63.2398 126.417 61.8736C126.417 60.6752 126.169 59.7405 125.674 59.0694C125.186 58.3903 124.539 58.0507 123.732 58.0507C122.83 58.0507 122.155 58.4182 121.707 59.1532C121.268 59.8803 121.048 60.7871 121.048 61.8736C121.048 62.5687 121.144 63.2158 121.336 63.815C121.535 64.4142 121.831 64.8975 122.222 65.265C122.622 65.6326 123.125 65.8163 123.732 65.8163Z" fill="white"/>
<path d="M136.359 68.273C135.264 68.273 134.417 68.1332 133.818 67.8536C133.227 67.5739 132.815 67.1825 132.584 66.6791C132.36 66.1758 132.248 65.5926 132.248 64.9295V58.1826H130.235V55.7498H132.356L133.243 52.0108H135.735V55.7378H138.492V58.1826H135.735L135.759 64.7857C135.759 65.0893 135.795 65.317 135.867 65.4688C135.947 65.6126 136.067 65.7085 136.227 65.7564C136.395 65.7963 136.606 65.8163 136.862 65.8163H138.528V67.9734C138.36 68.0453 138.108 68.1132 137.773 68.1771C137.437 68.2411 136.966 68.273 136.359 68.273Z" fill="white"/>
<path d="M145.273 68.3809C144.058 68.3809 143 68.1212 142.097 67.6019C141.202 67.0826 140.507 66.3476 140.012 65.3969C139.524 64.4461 139.281 63.3197 139.281 62.0174C139.281 60.7151 139.524 59.5767 140.012 58.602C140.507 57.6273 141.202 56.8683 142.097 56.325C143 55.7818 144.062 55.5101 145.285 55.5101C146.507 55.5101 147.565 55.7778 148.46 56.3131C149.355 56.8404 150.046 57.5913 150.533 58.566C151.021 59.5407 151.265 60.6912 151.265 62.0174C151.265 63.2637 151.025 64.3662 150.545 65.325C150.074 66.2757 149.391 67.0227 148.496 67.566C147.609 68.1092 146.535 68.3809 145.273 68.3809ZM145.285 65.7803C145.9 65.7803 146.395 65.6006 146.771 65.2411C147.146 64.8816 147.418 64.4102 147.585 63.827C147.753 63.2358 147.837 62.5926 147.837 61.8976C147.837 61.2424 147.761 60.6233 147.609 60.0401C147.458 59.4568 147.194 58.9855 146.818 58.626C146.443 58.2664 145.932 58.0867 145.285 58.0867C144.669 58.0867 144.17 58.2584 143.787 58.602C143.411 58.9375 143.135 59.3969 142.96 59.9801C142.784 60.5554 142.696 61.1945 142.696 61.8976C142.696 62.5447 142.776 63.1679 142.936 63.7671C143.095 64.3583 143.363 64.8416 143.739 65.2171C144.114 65.5926 144.629 65.7803 145.285 65.7803Z" fill="white"/>
<path d="M156.544 68.3809C155.761 68.3809 155.05 68.2331 154.411 67.9375C153.78 67.6419 153.28 67.2144 152.913 66.6552C152.545 66.0879 152.361 65.4009 152.361 64.5939C152.361 63.2358 152.869 62.2052 153.883 61.5021C154.898 60.791 156.5 60.4235 158.689 60.3996L160.247 60.3756V59.6326C160.247 59.0654 160.079 58.63 159.743 58.3264C159.416 58.0148 158.901 57.863 158.198 57.871C157.694 57.879 157.211 57.9988 156.748 58.2305C156.292 58.4622 155.977 58.8656 155.801 59.4409H152.889C152.937 58.5461 153.196 57.8111 153.668 57.2358C154.147 56.6526 154.79 56.2212 155.597 55.9416C156.404 55.6539 157.327 55.5101 158.365 55.5101C159.628 55.5101 160.642 55.6699 161.409 55.9895C162.176 56.3011 162.731 56.7525 163.075 57.3437C163.427 57.9269 163.602 58.622 163.602 59.4289V68.1412H160.678L160.391 66.008C159.967 66.9028 159.436 67.522 158.797 67.8656C158.166 68.2091 157.415 68.3809 156.544 68.3809ZM157.73 66.0799C158.042 66.0799 158.345 66.024 158.641 65.9122C158.945 65.7923 159.216 65.6365 159.456 65.4448C159.696 65.2451 159.883 65.0214 160.019 64.7737C160.163 64.526 160.239 64.2704 160.247 64.0067V62.1732L158.989 62.1972C158.405 62.2052 157.862 62.2771 157.359 62.4129C156.855 62.5407 156.448 62.7524 156.136 63.048C155.833 63.3436 155.681 63.7431 155.681 64.2464C155.681 64.8216 155.877 65.273 156.268 65.6006C156.668 65.9202 157.155 66.0799 157.73 66.0799Z" fill="white"/>
<path d="M170.645 68.273C169.55 68.273 168.703 68.1332 168.104 67.8536C167.513 67.5739 167.101 67.1825 166.87 66.6791C166.646 66.1758 166.534 65.5926 166.534 64.9295V58.1826H164.521V55.7498H166.642L167.529 52.0108H170.022V55.7378H172.778V58.1826H170.022L170.046 64.7857C170.046 65.0893 170.081 65.317 170.153 65.4688C170.233 65.6126 170.353 65.7085 170.513 65.7564C170.681 65.7963 170.892 65.8163 171.148 65.8163H172.814V67.9734C172.646 68.0453 172.394 68.1132 172.059 68.1771C171.723 68.2411 171.252 68.273 170.645 68.273Z" fill="white"/>
<path d="M174.588 68.1412V55.7498H177.931V68.1412H174.588ZM174.552 53.9762V50.8244H177.955V53.9762H174.552Z" fill="white"/>
<path d="M183.698 68.1412L179.048 55.7498H182.212L184.92 63.6472H185.016L187.689 55.7498H190.888L186.239 68.1412H183.698Z" fill="white"/>
<path d="M197.009 68.3809C195.795 68.3809 194.736 68.1212 193.834 67.6019C192.939 67.0826 192.244 66.3476 191.748 65.3969C191.261 64.4461 191.017 63.3197 191.017 62.0174C191.017 60.7151 191.261 59.5767 191.748 58.602C192.244 57.6273 192.939 56.8683 193.834 56.325C194.736 55.7818 195.799 55.5101 197.021 55.5101C198.244 55.5101 199.302 55.7778 200.197 56.3131C201.092 56.8404 201.783 57.5913 202.27 58.566C202.758 59.5407 203.001 60.6912 203.001 62.0174C203.001 63.2637 202.762 64.3662 202.282 65.325C201.811 66.2757 201.128 67.0227 200.233 67.566C199.346 68.1092 198.272 68.3809 197.009 68.3809ZM197.021 65.7803C197.636 65.7803 198.132 65.6006 198.507 65.2411C198.883 64.8816 199.154 64.4102 199.322 63.827C199.49 63.2358 199.574 62.5926 199.574 61.8976C199.574 61.2424 199.498 60.6233 199.346 60.0401C199.194 59.4568 198.931 58.9855 198.555 58.626C198.18 58.2664 197.668 58.0867 197.021 58.0867C196.406 58.0867 195.907 58.2584 195.523 58.602C195.148 58.9375 194.872 59.3969 194.696 59.9801C194.521 60.5554 194.433 61.1945 194.433 61.8976C194.433 62.5447 194.513 63.1679 194.672 63.7671C194.832 64.3583 195.1 64.8416 195.475 65.2171C195.851 65.5926 196.366 65.7803 197.021 65.7803Z" fill="white"/>
<path d="M209.61 68.3809C208.747 68.3809 207.917 68.2411 207.118 67.9614C206.327 67.6738 205.652 67.2264 205.092 66.6192C204.541 66.0041 204.193 65.2091 204.05 64.2344H207.07C207.181 64.6738 207.373 65.0214 207.645 65.277C207.924 65.5327 208.24 65.7164 208.592 65.8283C208.943 65.9321 209.279 65.9841 209.598 65.9841C210.269 65.9841 210.809 65.8802 211.216 65.6725C211.632 65.4568 211.839 65.1292 211.839 64.6898C211.839 64.3543 211.715 64.0866 211.468 63.8869C211.228 63.6872 210.829 63.5354 210.269 63.4315L208.088 62.9761C206.994 62.7444 206.111 62.353 205.44 61.8017C204.777 61.2424 204.441 60.4515 204.433 59.4289C204.425 58.6859 204.617 58.0188 205.008 57.4276C205.408 56.8364 205.995 56.369 206.77 56.0254C207.553 55.6819 208.508 55.5101 209.634 55.5101C211.16 55.5101 212.379 55.8457 213.289 56.5168C214.208 57.1879 214.675 58.1346 214.691 59.357H211.767C211.679 58.8776 211.44 58.5101 211.048 58.2545C210.665 57.9908 210.177 57.859 209.586 57.859C208.987 57.859 208.492 57.9668 208.1 58.1826C207.709 58.3983 207.513 58.7258 207.513 59.1652C207.513 59.4928 207.673 59.7524 207.992 59.9442C208.312 60.1279 208.807 60.2877 209.478 60.4235L211.492 60.8789C212.187 61.0467 212.75 61.2784 213.181 61.574C213.621 61.8616 213.96 62.1772 214.2 62.5207C214.44 62.8643 214.604 63.2118 214.691 63.5633C214.787 63.9069 214.835 64.2184 214.835 64.4981C214.835 65.321 214.616 66.024 214.176 66.6072C213.737 67.1825 213.126 67.6219 212.343 67.9255C211.56 68.2291 210.649 68.3809 209.61 68.3809Z" fill="white"/>
<path d="M220.23 68.1412L226.426 50.8124H230.129L236.325 68.1412H232.837L231.423 64.1266H225.18L223.742 68.1412H220.23ZM225.971 61.0707H230.572L228.283 54.1799L225.971 61.0707Z" fill="white"/>
<path d="M238.208 68.1412V50.8124H241.671L249.58 62.281V50.8124H253.08V68.1412H249.928L241.695 56.2172V68.1412H238.208Z" fill="white"/>
<path d="M263.295 68.3809C261.682 68.3809 260.287 68.0054 259.113 67.2544C257.939 66.5034 257.032 65.4488 256.393 64.0906C255.761 62.7324 255.446 61.1466 255.446 59.333C255.446 57.5115 255.761 55.9496 256.393 54.6473C257.024 53.3371 257.927 52.3304 259.101 51.6274C260.275 50.9243 261.674 50.5728 263.295 50.5728C264.598 50.5728 265.756 50.8364 266.771 51.3637C267.793 51.883 268.616 52.5941 269.239 53.4968C269.87 54.3996 270.242 55.4183 270.354 56.5527H266.687C266.575 55.9535 266.371 55.4223 266.076 54.9589C265.78 54.4875 265.393 54.12 264.913 53.8564C264.434 53.5847 263.859 53.4489 263.187 53.4489C262.381 53.4489 261.686 53.6446 261.102 54.0361C260.519 54.4276 260.072 55.0587 259.76 55.9296C259.449 56.8004 259.293 57.9509 259.293 59.3809C259.293 61.538 259.636 63.0999 260.323 64.0667C261.018 65.0254 261.973 65.5047 263.187 65.5047C263.859 65.5047 264.434 65.3529 264.913 65.0493C265.393 64.7377 265.78 64.3303 266.076 63.827C266.371 63.3157 266.575 62.7564 266.687 62.1492H270.354C270.25 62.9721 270.05 63.7591 269.755 64.5101C269.459 65.2531 269.04 65.9162 268.496 66.4994C267.953 67.0826 267.254 67.542 266.399 67.8775C265.544 68.2131 264.51 68.3809 263.295 68.3809Z" fill="white"/>
<path d="M279.924 68.3809C278.286 68.3809 276.868 68.0253 275.669 67.3143C274.479 66.5953 273.556 65.5766 272.901 64.2584C272.254 62.9322 271.93 61.3503 271.93 59.5128C271.93 57.6672 272.258 56.0774 272.913 54.7432C273.576 53.409 274.507 52.3823 275.705 51.6633C276.904 50.9363 278.31 50.5728 279.924 50.5728C281.529 50.5728 282.928 50.9323 284.118 51.6513C285.308 52.3704 286.227 53.397 286.874 54.7312C287.529 56.0654 287.857 57.6593 287.857 59.5128C287.857 61.3423 287.533 62.9202 286.886 64.2464C286.247 65.5726 285.332 66.5953 284.142 67.3143C282.952 68.0253 281.545 68.3809 279.924 68.3809ZM279.924 65.5047C280.77 65.5047 281.501 65.305 282.117 64.9055C282.74 64.4981 283.219 63.8589 283.555 62.9881C283.89 62.1093 284.058 60.9668 284.058 59.5607C284.058 58.1146 283.886 56.9442 283.543 56.0494C283.207 55.1546 282.728 54.4995 282.105 54.0841C281.489 53.6606 280.762 53.4489 279.924 53.4489C279.085 53.4489 278.354 53.6606 277.731 54.0841C277.107 54.4995 276.624 55.1586 276.28 56.0614C275.937 56.9562 275.765 58.1226 275.765 59.5607C275.765 60.9748 275.937 62.1173 276.28 62.9881C276.624 63.8589 277.107 64.4981 277.731 64.9055C278.354 65.305 279.085 65.5047 279.924 65.5047Z" fill="white"/>
<path d="M290.236 68.1412V50.8124H297.546C298.928 50.8124 300.058 51.0322 300.937 51.4716C301.816 51.911 302.463 52.5221 302.879 53.3051C303.294 54.0801 303.502 54.9749 303.502 55.9895C303.502 56.9003 303.358 57.6712 303.07 58.3024C302.791 58.9256 302.419 59.4449 301.956 59.8603C301.5 60.2757 301.001 60.6153 300.458 60.8789L303.681 68.1412H300.05L297.234 61.4661H293.723V68.1412H290.236ZM293.723 58.7698H296.923C297.857 58.7698 298.596 58.5181 299.14 58.0148C299.691 57.5115 299.966 56.8643 299.966 56.0734C299.966 55.2745 299.703 54.6433 299.176 54.1799C298.648 53.7165 297.981 53.4849 297.174 53.4849H293.723V58.7698Z" fill="white"/>
<path d="M306.205 68.1412V50.8124C306.293 50.8124 306.537 50.8124 306.936 50.8124C307.344 50.8124 307.819 50.8124 308.362 50.8124C308.913 50.8124 309.461 50.8164 310.004 50.8244C310.555 50.8244 311.015 50.8284 311.382 50.8364C313.483 50.8843 315.197 51.2598 316.523 51.9629C317.849 52.666 318.82 53.6486 319.435 54.9109C320.058 56.1732 320.37 57.6672 320.37 59.3929C320.37 61.1905 320.042 62.7444 319.387 64.0547C318.732 65.3569 317.73 66.3636 316.379 67.0746C315.037 67.7857 313.331 68.1412 311.262 68.1412H306.205ZM309.728 65.313H311.334C312.325 65.313 313.224 65.1212 314.031 64.7377C314.845 64.3543 315.497 63.7271 315.984 62.8563C316.471 61.9854 316.715 60.823 316.715 59.369C316.715 58.0188 316.499 56.9242 316.068 56.0854C315.636 55.2385 315.021 54.6193 314.222 54.2279C313.423 53.8364 312.477 53.6407 311.382 53.6407H309.728V65.313Z" fill="white"/>
<path d="M57.0487 25.524C61.8267 25.524 65.7157 21.6232 65.7157 16.8278V8.69621C65.7157 3.90079 61.828 0 57.0487 0H22.441L0 22.5166V45.5475L22.441 68.064H57.05C61.828 68.064 65.717 64.1632 65.717 59.3678V51.2362C65.717 46.4408 61.8293 42.54 57.05 42.54H24.1973L15.7178 34.032L24.1973 25.524H57.05H57.0487ZM61.476 8.69621V16.8278C61.476 19.2771 59.4897 21.27 57.0487 21.27H28.4357L45.3946 4.254H57.0487C59.4897 4.254 61.476 6.24694 61.476 8.69621ZM4.23972 24.2775L10.5993 17.8965V33.1516L4.23972 39.5326V24.2775ZM61.476 51.2362V59.3678C61.476 61.8171 59.4897 63.81 57.0487 63.81H45.3946L28.4357 46.794H57.0487C59.4897 46.794 61.476 48.787 61.476 51.2362ZM21.8192 46.1714L39.3986 63.81H24.1947L5.11722 44.667L12.7192 37.0395L21.8192 46.1701V46.1714ZM14.839 28.8976V13.6425L24.196 4.254H39.3999L14.839 28.8976Z" fill="url(#paint0_linear_517_317)"/>
<defs>
<linearGradient id="paint0_linear_517_317" x1="82.2172" y1="0.737322" x2="-52.0125" y2="134.517" gradientUnits="userSpaceOnUse">
<stop offset="0.356189" stop-color="#00A7D0"/>
<stop offset="1" stop-color="#010918"/>
</linearGradient>
</defs>
</svg>
