<svg width="60" height="60" viewBox="0 0 60 60" fill="none" xmlns="http://www.w3.org/2000/svg">
                  <rect width="60" height="60" rx="4" fill="#262626" />
                  <path
                    d="M35 41.8793C36.3882 42.2833 37.8563 42.5 39.3749 42.5C41.8395 42.5 44.1709 41.9294 46.244 40.913C46.2479 40.8175 46.2499 40.7215 46.2499 40.625C46.2499 36.828 43.1719 33.75 39.3749 33.75C37.0115 33.75 34.9267 34.9425 33.6893 36.7587M35 41.8793V41.875C35 40.0202 34.5247 38.2763 33.6893 36.7587M35 41.8793C35 41.9387 34.9995 41.998 34.9985 42.0572C31.8956 43.9254 28.2608 45 24.375 45C20.4892 45 16.8544 43.9254 13.7515 42.0572C13.7505 41.9966 13.75 41.9359 13.75 41.875C13.75 36.007 18.507 31.25 24.375 31.25C28.3882 31.25 31.8817 33.475 33.6893 36.7587M30 20.625C30 23.7316 27.4816 26.25 24.375 26.25C21.2684 26.25 18.75 23.7316 18.75 20.625C18.75 17.5184 21.2684 15 24.375 15C27.4816 15 30 17.5184 30 20.625ZM43.75 24.375C43.75 26.7912 41.7912 28.75 39.375 28.75C36.9588 28.75 35 26.7912 35 24.375C35 21.9588 36.9588 20 39.375 20C41.7912 20 43.75 21.9588 43.75 24.375Z"
                    stroke="#00A7D0" stroke-width="2" stroke-linecap="round" stroke-linejoin="round" />
                </svg>