<svg  class="aspect-square object-contain object-center w-[18px] overflow-hidden shrink-0 max-w-full"  width="18" height="18" viewBox="0 0 18 18" fill="none" xmlns="http://www.w3.org/2000/svg">
<path d="M6.75 10.6875L11.25 6.1875M14.625 3.56774V16.3125L11.8125 15.1875L9 16.3125L6.1875 15.1875L3.375 16.3125V3.56774C3.375 2.73675 3.97956 2.0251 4.80501 1.92931C6.18117 1.7696 7.581 1.6875 9 1.6875C10.419 1.6875 11.8188 1.7696 13.195 1.92931C14.0204 2.0251 14.625 2.73675 14.625 3.56774ZM7.3125 6.75H7.31813V6.75563H7.3125V6.75ZM7.59375 6.75C7.59375 6.90533 7.46783 7.03125 7.3125 7.03125C7.15717 7.03125 7.03125 6.90533 7.03125 6.75C7.03125 6.59467 7.15717 6.46875 7.3125 6.46875C7.46783 6.46875 7.59375 6.59467 7.59375 6.75ZM10.6875 10.125H10.6931V10.1306H10.6875V10.125ZM10.9688 10.125C10.9688 10.2803 10.8428 10.4062 10.6875 10.4062C10.5322 10.4062 10.4062 10.2803 10.4062 10.125C10.4062 9.96967 10.5322 9.84375 10.6875 9.84375C10.8428 9.84375 10.9688 9.96967 10.9688 10.125Z" stroke="#05D361" stroke-linecap="round" stroke-linejoin="round"/>
</svg>