<svg    width="32" height="32" viewBox="0 0 32 32" fill="none" xmlns="http://www.w3.org/2000/svg">
<path d="M0 15.2944C0.0430382 15.149 0.0917208 15.005 0.127704 14.8575C0.336545 13.99 0.752816 13.2368 1.38005 12.6051C2.52303 11.4538 3.67448 10.311 4.81746 9.15897C4.96915 9.00579 5.12225 8.93873 5.34379 8.94509C5.9548 8.96273 6.5658 8.9592 7.1768 8.95073C8.22101 8.93591 9.09377 9.30509 9.82965 10.0519C11.324 11.5667 12.8346 13.0653 14.3395 14.5695C15.3985 15.6283 16.739 15.6347 17.7988 14.578C19.322 13.0589 20.8474 11.542 22.3594 10.011C23.0621 9.29944 23.9053 8.96909 24.8916 8.96415C25.4208 8.96132 25.9499 8.96838 26.4784 8.95356C26.6505 8.94862 26.7662 9.00791 26.8805 9.12226C28.0666 10.3131 29.2759 11.4827 30.4386 12.6961C32.1968 14.5321 32.1898 17.4834 30.4266 19.3165C29.2695 20.5193 28.0715 21.6826 26.8911 22.8628C26.8008 22.9532 26.7169 23.0534 26.5659 23.0443C25.8385 23.0019 25.1089 23.081 24.3822 22.997C23.6054 22.9066 22.9507 22.5756 22.3982 22.0214C20.8891 20.5045 19.375 18.9932 17.8616 17.4805C16.7468 16.3667 15.402 16.366 14.2908 17.4784C12.8028 18.9664 11.3085 20.448 9.83106 21.9466C9.09518 22.6927 8.22312 23.0619 7.17821 23.0478C6.54393 23.0393 5.90894 23.0421 5.27465 23.0534C5.10532 23.0563 4.98538 23.0033 4.87037 22.8876C3.67589 21.6876 2.47223 20.4975 1.28691 19.289C0.707661 18.6982 0.337956 17.9796 0.138287 17.1749C0.0959541 17.0182 0.0451549 16.8622 0 16.7055C0 16.2354 0 15.7646 0 15.2944Z" fill="#7A7A7E"/>
<path d="M16.5732 0.124459C16.7412 0.172458 16.9084 0.223281 17.077 0.267751C17.8778 0.475985 18.5946 0.849394 19.1809 1.43104C21.1741 3.4089 23.1546 5.39947 25.1393 7.3851C25.1795 7.42534 25.2126 7.47334 25.2613 7.53122C25.1287 7.64557 24.9833 7.60181 24.8549 7.60039C23.489 7.58416 22.339 8.07615 21.3787 9.0432C19.8801 10.5517 18.3738 12.0524 16.8703 13.5559C16.2953 14.1305 15.8508 14.129 15.2729 13.5509C13.8273 12.1053 12.3689 10.6731 10.9423 9.20909C9.86563 8.10439 8.60765 7.49663 7.04416 7.59192C6.89247 7.6011 6.73936 7.5898 6.58626 7.58557C6.56509 7.58557 6.54393 7.56933 6.51641 7.55804C6.49454 7.41404 6.62224 7.3611 6.69774 7.28557C8.61399 5.36418 10.5317 3.44349 12.4522 1.52633C13.0991 0.880452 13.871 0.454103 14.7614 0.240222C14.8962 0.207752 15.045 0.214811 15.1636 0.123047C15.6328 0.124459 16.1034 0.124459 16.5732 0.124459Z" fill="#7A7A7E"/>
<path d="M15.1629 31.8748C14.9837 31.8239 14.8044 31.7717 14.6245 31.7237C13.8251 31.5084 13.114 31.1265 12.5277 30.5435C10.5606 28.5875 8.60271 26.6223 6.642 24.6593C6.58626 24.6035 6.50865 24.5591 6.50936 24.4052C6.75912 24.4052 7.011 24.3981 7.26288 24.4066C8.65209 24.4511 9.80213 23.9217 10.7701 22.9532C12.2828 21.4405 13.7948 19.9264 15.3075 18.4137C15.8268 17.8942 16.3164 17.8914 16.835 18.4095C18.3237 19.8961 19.8209 21.3756 21.2947 22.877C22.2966 23.8977 23.4826 24.4327 24.9177 24.3981C25.02 24.3953 25.123 24.408 25.2514 24.4151C25.2148 24.5887 25.0885 24.665 24.9953 24.7588C23.1524 26.6061 21.3004 28.4449 19.4653 30.3007C18.6983 31.0764 17.8115 31.6072 16.7348 31.8105C16.6791 31.8211 16.6276 31.8536 16.5739 31.8762H15.1636L15.1629 31.8748Z" fill="#7A7A7E"/>
</svg>