<svg width="25" height="24" viewBox="0 0 25 24" fill="none" xmlns="http://www.w3.org/2000/svg">
<path d="M0.5 24L2.19627 17.8403C1.14756 16.0323 0.597421 13.9848 0.603152 11.8916C0.603152 5.3327 5.96705 0 12.5516 0C15.7493 0 18.7521 1.23764 21.0043 3.48479C23.2622 5.73194 24.5057 8.72053 24.5 11.8973C24.5 18.4563 19.1361 23.789 12.5458 23.789H12.5401C10.5401 23.789 8.57449 23.2871 6.82664 22.3403L0.5 24ZM7.13037 20.1901L7.4914 20.4068C9.01575 21.308 10.7636 21.7814 12.5458 21.7871H12.5516C18.0243 21.7871 22.4828 17.3555 22.4828 11.903C22.4828 9.26236 21.4513 6.78137 19.5773 4.91065C17.7034 3.03992 15.2049 2.01331 12.5516 2.01331C7.07879 2.0076 2.62034 6.43916 2.62034 11.8916C2.62034 13.7567 3.14183 15.576 4.13897 17.1502L4.37392 17.5266L3.37106 21.1711L7.13037 20.1901Z" fill="#05D361"/>
<path d="M0.5 24L2.19627 17.8403C1.14756 16.0323 0.597421 13.9848 0.603152 11.8916C0.603152 5.3327 5.96705 0 12.5516 0C15.7493 0 18.7521 1.23764 21.0043 3.48479C23.2622 5.73194 24.5057 8.72053 24.5 11.8973C24.5 18.4563 19.1361 23.789 12.5458 23.789H12.5401C10.5401 23.789 8.57449 23.2871 6.82664 22.3403L0.5 24ZM7.13037 20.1901L7.4914 20.4068C9.01575 21.308 10.7636 21.7814 12.5458 21.7871H12.5516C18.0243 21.7871 22.4828 17.3555 22.4828 11.903C22.4828 9.26236 21.4513 6.78137 19.5773 4.91065C17.7034 3.03992 15.2049 2.01331 12.5516 2.01331C7.07879 2.0076 2.62034 6.43916 2.62034 11.8916C2.62034 13.7567 3.14183 15.576 4.13897 17.1502L4.37392 17.5266L3.37106 21.1711L7.13037 20.1901Z" fill="#05D361"/>
<path fill-rule="evenodd" clip-rule="evenodd" d="M9.56593 6.91826C9.34244 6.42206 9.10748 6.41066 8.89545 6.40495C8.72353 6.39925 8.52295 6.39925 8.32238 6.39925C8.12181 6.39925 7.80089 6.47339 7.52582 6.76997C7.25075 7.06655 6.48284 7.78518 6.48284 9.25096C6.48284 10.711 7.55447 12.1255 7.70347 12.3251C7.85247 12.5247 9.77224 15.6217 12.8038 16.8137C15.3252 17.8061 15.841 17.6065 16.3854 17.5551C16.9298 17.5038 18.1505 16.8365 18.4026 16.1407C18.649 15.4449 18.649 14.8517 18.5745 14.7262C18.5 14.6008 18.2994 14.5266 18.0015 14.3783C17.7035 14.2301 16.2364 13.5114 15.9613 13.4088C15.6863 13.3118 15.4857 13.2605 15.2909 13.557C15.0903 13.8536 14.5172 14.5209 14.3453 14.7205C14.1734 14.9202 13.9957 14.943 13.6977 14.7947C13.3997 14.6464 12.437 14.3327 11.2966 13.3175C10.4083 12.5304 9.80662 11.5551 9.6347 11.2586C9.46278 10.962 9.61751 10.8023 9.76651 10.654C9.89831 10.5228 10.0645 10.3061 10.2135 10.135C10.3625 9.96389 10.4141 9.83841 10.5115 9.63879C10.6089 9.43917 10.5631 9.26807 10.4886 9.11978C10.4141 8.9772 9.82954 7.50571 9.56593 6.91826Z" fill="#05D361"/>
</svg>
