<svg width="64" height="65" viewBox="0 0 64 65" fill="none" xmlns="http://www.w3.org/2000/svg">
<circle cx="32" cy="32.5" r="31.5" transform="rotate(180 32 32.5)" fill="white" stroke="#DFE4EA"/>
<path d="M42.2857 31.5569H23.9857L31.2714 24.1426C31.6571 23.7569 31.6571 23.1569 31.2714 22.7712C30.8857 22.3855 30.2857 22.3855 29.9 22.7712L21.0285 31.7712C20.6428 32.1569 20.6428 32.7569 21.0285 33.1426L29.9 42.1426C30.0714 42.3141 30.3285 42.4426 30.5857 42.4426C30.8428 42.4426 31.0571 42.3569 31.2714 42.1855C31.6571 41.7998 31.6571 41.1998 31.2714 40.8141L24.0285 33.4855H42.2857C42.8 33.4855 43.2285 33.0569 43.2285 32.5426C43.2285 31.9855 42.8 31.5569 42.2857 31.5569Z" fill="#575757"/>
</svg>
