<svg width="126" height="32" viewBox="0 0 126 32" fill="none" xmlns="http://www.w3.org/2000/svg">
<path d="M17.8489 7.32211H28.1759V0H10.6833V17.8765H17.8489V7.32211Z" fill="black"/>
<path d="M28.1759 10.9868H21.0103V21.3417H7.1656V0H0V28.6649H24.5501V32H31.7156V24.6705H28.177V10.9879L28.1759 10.9868Z" fill="black"/>
<path d="M64.2771 13.3593C64.2771 11.9568 63.8873 10.9396 63.1067 10.3066C62.326 9.67359 61.0211 9.35761 59.1845 9.35761H54.717V21.411H57.3479V17.5678H59.1708L61.7881 21.411H65.0241L62.0371 17.0996C63.5311 16.5359 64.2771 15.2909 64.2771 13.3593ZM61.1083 14.7891C60.7857 15.0851 60.1658 15.2363 59.2717 15.2363H57.3479V11.6681H59.319C60.1606 11.6681 60.7521 11.792 61.0883 12.0324C61.4245 12.2728 61.5937 12.72 61.5937 13.3667C61.5937 14.0133 61.4319 14.4878 61.103 14.7901H61.1093L61.1083 14.7891Z" fill="black"/>
<path d="M51.6291 15.3045C51.6291 13.5378 51.0302 12.0524 49.8398 10.863C48.6494 9.67359 47.1826 9.07522 45.4396 9.07522C43.6965 9.07522 42.2308 9.66624 41.0393 10.863C39.8489 12.0524 39.25 13.5304 39.25 15.3045C39.25 17.0786 39.8489 18.5567 41.0393 19.7461C42.2298 20.9355 43.6965 21.5338 45.4396 21.5338C46.2139 21.5338 46.9263 21.41 47.5861 21.1759L48.3594 22.317H51.5955L49.8261 19.7597C49.8261 19.7597 49.8324 19.7524 49.8398 19.7461C51.0302 18.5567 51.6291 17.0786 51.6291 15.3045ZM42.9568 18.0549C42.2844 17.3054 41.9482 16.391 41.9482 15.3119C41.9482 14.2327 42.2844 13.3184 42.9568 12.5615C43.6293 11.8057 44.4635 11.4267 45.4459 11.4267C46.4283 11.4267 47.2562 11.8046 47.9349 12.5615C48.6084 13.3173 48.9446 14.239 48.9446 15.3119C48.9446 16.3847 48.6084 17.2991 47.9349 18.0549C47.2625 18.8107 46.4283 19.1824 45.4459 19.1824C44.4635 19.1824 43.6293 18.8044 42.9568 18.0549Z" fill="black"/>
<path d="M81.8034 21.0803L80.7412 18.5567H75.9438L74.8805 21.0803H72.1624L77.1069 9.3849H79.576L84.5215 21.0803H81.8034ZM78.3519 12.8638L76.9125 16.2609H79.7787L78.3519 12.8638Z" fill="black"/>
<path d="M88.4374 11.7227C88.1883 11.9285 88.0675 12.2035 88.0675 12.5405C88.0675 12.8775 88.2157 13.1525 88.5183 13.352C88.8208 13.5514 89.5132 13.7918 90.5965 14.0606C91.6797 14.3356 92.5276 14.7408 93.1265 15.2909C93.7254 15.8336 94.028 16.6388 94.028 17.6833C94.028 18.7278 93.6445 19.5813 92.8701 20.2342C92.0969 20.8872 91.0872 21.2105 89.8358 21.2105C88.0265 21.2105 86.3906 20.5229 84.9376 19.1551L86.4579 17.2508C87.6893 18.3583 88.8335 18.9073 89.8831 18.9073C90.3538 18.9073 90.7173 18.8044 90.9863 18.5976C91.2553 18.3919 91.3897 18.1095 91.3897 17.7589C91.3897 17.4083 91.2479 17.1259 90.9663 16.9201C90.6837 16.7133 90.1184 16.5076 89.2779 16.2945C87.9456 15.9711 86.9706 15.5523 86.3581 15.0295C85.7392 14.5141 85.4293 13.6952 85.4293 12.5888C85.4293 11.4823 85.8201 10.6226 86.5997 10.0242C87.3804 9.41954 88.3554 9.12351 89.5195 9.12351C90.2865 9.12351 91.0472 9.25368 91.8142 9.52242C92.5812 9.79011 93.2473 10.1691 93.8126 10.6572L92.5213 12.5615C91.5253 11.791 90.503 11.4068 89.447 11.4068C89.0236 11.4068 88.6864 11.5096 88.4374 11.7164V11.7238V11.7227Z" fill="black"/>
<path d="M98.8853 11.7227C98.6363 11.9285 98.5154 12.2035 98.5154 12.5405C98.5154 12.8775 98.6636 13.1525 98.9662 13.352C99.2688 13.5514 99.9622 13.7918 101.045 14.0606C102.129 14.3356 102.977 14.7408 103.575 15.2909C104.174 15.8336 104.477 16.6388 104.477 17.6833C104.477 18.7278 104.093 19.5813 103.32 20.2342C102.547 20.8872 101.537 21.2105 100.286 21.2105C98.4755 21.2105 96.8407 20.5229 95.3876 19.1551L96.9079 17.2508C98.1393 18.3583 99.2824 18.9073 100.333 18.9073C100.804 18.9073 101.167 18.8044 101.436 18.5976C101.705 18.3919 101.84 18.1095 101.84 17.7589C101.84 17.4083 101.698 17.1259 101.416 16.9201C101.134 16.7133 100.568 16.5076 99.7269 16.2945C98.3946 15.9711 97.4196 15.5523 96.807 15.0295C96.1882 14.5141 95.8782 13.6952 95.8782 12.5888C95.8782 11.4823 96.268 10.6226 97.0487 10.0242C97.8293 9.41954 98.8044 9.12351 99.9685 9.12351C100.736 9.12351 101.495 9.25368 102.262 9.52242C103.029 9.79011 103.695 10.1691 104.261 10.6572L102.969 12.5615C101.973 11.791 100.951 11.4068 99.895 11.4068C99.4715 11.4068 99.1343 11.5096 98.8853 11.7164V11.7238V11.7227Z" fill="black"/>
<path d="M114.905 9.3849V11.7091H109.206V14.1151H114.332V16.3427H109.206V18.7698H115.087V21.0803H106.657V9.3849H114.906H114.905Z" fill="black"/>
<path d="M122.204 11.6471V21.0803H119.648V11.6471H116.405V9.3849H125.44V11.6471H122.204Z" fill="black"/>
</svg>
