<svg id="itau" xmlns="http://www.w3.org/2000/svg" version="1.1" width="60" viewBox="0 0 32 32">
  <!-- Generator: Adobe Illustrator 29.0.0, SVG Export Plug-In . SVG Version: 2.1.0 Build 186)  -->
  <defs>
    <style>
     #itau .st0 {
        fill-rule: evenodd;
      }

    #itau  .st1 {
        fill: #fff;
      }
    </style>
  </defs>
  <path id="Shape_1" class="st1" d="M29.3,12.1v16.2H2.3V12.1h27.1Z"/>
  <path id="Path_391" d="M15.4,22.5c0,.6.4,1,1.2,1s1.4-.6,1.4-1.4v-.6c-.1,0-.4,0-.6,0-1.2,0-1.9.4-1.9,1.1h0Z"/>
  <path id="Path_390" class="st0" d="M30.7,4.3c.6,2.7,1.1,7.1,1.1,11.7s-.5,8.9-1.1,11.7c-.3,1.6-1.2,2.6-3,3-2.9.7-7.1,1.1-11.7,1.1s-8.8-.4-11.7-1.1c-1.7-.4-2.7-1.4-3-3-.6-2.7-1.1-7.1-1.1-11.7S.8,7,1.4,4.3c.3-1.5,1.2-2.6,3-3C7.2.6,11.4.2,16.1.2s8.8.4,11.7,1.1c1.8.4,2.7,1.4,3,3ZM23,16h3.9v-2l-3.9.7v1.3ZM3.8,17v7.9h2.3v-7.9h-2.3ZM6.3,14.9c0-.8-.6-1.3-1.4-1.3s-1.4.5-1.4,1.3.6,1.3,1.4,1.3,1.4-.5,1.4-1.3ZM12.4,17h-2v-2.4l-2.3.4v2h-1.2v1.8h1.2v3.4c0,1.9,1,2.9,2.8,2.9s1.2,0,1.4-.2v-1.8c-.2,0-.5,0-.8,0-.7,0-1.1-.4-1.1-1.2v-3.2h2v-1.8ZM20.1,20.3c0-2.3-1.3-3.5-3.5-3.5s-2.1.2-3,.5v1.9c.9-.4,1.8-.6,2.7-.6s1.7.5,1.7,1.3c-.2,0-.5,0-.8,0-2.4,0-4,1-4,2.7s1,2.4,2.7,2.4,1.6-.4,2.1-1v.8h2.2v-4.6ZM28.3,17h-2.3v4.6c0,1-.5,1.6-1.2,1.6s-1.2-.5-1.2-1.5v-4.7h-2.3v5.1c0,1.8,1,3,2.7,3s1.6-.3,2.1-1v.8h2.3v-7.9Z"/>
</svg>