<svg width="159" height="32" viewBox="0 0 159 32" fill="none" xmlns="http://www.w3.org/2000/svg">
<path d="M12.5755 17.0062C13.0262 17.5958 13.2528 18.3104 13.2528 19.1467C13.2528 20.3668 12.7621 21.3105 11.7798 21.9746C10.7984 22.6372 9.37902 22.9696 7.52179 22.9696H0V9.03039H7.12472C8.9019 9.03039 10.2548 9.35964 11.1834 10.0173C12.112 10.6735 12.5763 11.5603 12.5763 12.6746C12.5763 13.3387 12.4146 13.9323 12.0888 14.4571C11.7638 14.9818 11.3027 15.3968 10.7055 15.702C11.5012 15.9808 12.1248 16.415 12.5755 17.0062ZM3.90019 11.8791V14.566H6.60678C7.93326 14.566 8.5961 14.1158 8.5961 13.213C8.5961 12.3101 7.93326 11.8791 6.60678 11.8791H3.90019ZM9.27335 18.7077C9.27335 17.7664 8.58329 17.2946 7.20397 17.2946H3.90019V20.1225H7.20397C8.58329 20.1225 9.27335 19.6506 9.27335 18.7077Z" fill="black"/>
<path d="M15.3021 9.03039H19.2424V19.8445H25.8892V22.9704H15.3029L15.3021 9.03039Z" fill="black"/>
<path d="M30.2761 22.3119C29.1017 21.6894 28.1795 20.8259 27.5102 19.7235C26.8402 18.6212 26.5056 17.3803 26.5056 15.9992C26.5056 14.6181 26.8402 13.3772 27.5102 12.2749C28.1795 11.1725 29.1017 10.3106 30.2761 9.68649C31.4504 9.06243 32.7729 8.75 34.2459 8.75C35.7189 8.75 37.0414 9.06243 38.2157 9.68649C39.3901 10.3106 40.3115 11.1725 40.9816 12.2749C41.6508 13.3772 41.9862 14.6181 41.9862 15.9992C41.9862 17.3803 41.6508 18.6212 40.9816 19.7235C40.3115 20.8259 39.3901 21.6894 38.2157 22.3119C37.0414 22.9376 35.7181 23.2484 34.2459 23.2484C32.7737 23.2484 31.4504 22.9376 30.2761 22.3119ZM36.156 19.4856C36.726 19.1532 37.1766 18.6853 37.5089 18.0805C37.8403 17.4772 38.0068 16.7843 38.0068 16C38.0068 15.2157 37.8403 14.5236 37.5089 13.9195C37.1766 13.3147 36.726 12.8485 36.156 12.516C35.5852 12.1835 34.9488 12.0185 34.2459 12.0185C33.543 12.0185 32.9058 12.1835 32.335 12.516C31.7651 12.8485 31.3144 13.3147 30.9821 13.9195C30.6499 14.5244 30.485 15.2173 30.485 16C30.485 16.7827 30.6499 17.478 30.9821 18.0805C31.3144 18.6853 31.7651 19.1532 32.335 19.4856C32.9058 19.8165 33.5422 19.9831 34.2459 19.9831C34.9496 19.9831 35.5852 19.8165 36.156 19.4856Z" fill="black"/>
<path d="M47.0704 22.3231C45.9096 21.7055 44.997 20.8451 44.3334 19.7436C43.6705 18.6412 43.3391 17.3939 43.3391 16C43.3391 14.6061 43.6705 13.3588 44.3334 12.2564C44.9962 11.1541 45.9088 10.2953 47.0704 9.67848C48.2304 9.06083 49.5408 8.7516 50.9994 8.7516C52.2731 8.7516 53.4202 8.97831 54.4425 9.42934C55.4632 9.88116 56.3125 10.5317 56.9898 11.3808L54.4825 13.6512C53.5803 12.5641 52.486 12.0193 51.1995 12.0193C50.443 12.0193 49.7698 12.1843 49.1798 12.5168C48.589 12.8493 48.1311 13.3155 47.8069 13.9203C47.4811 14.5252 47.3194 15.2181 47.3194 16.0008C47.3194 16.7835 47.4811 17.4788 47.8069 18.0813C48.1319 18.6861 48.589 19.1539 49.1798 19.4864C49.769 19.8173 50.443 19.9839 51.1995 19.9839C52.486 19.9839 53.5811 19.4391 54.4825 18.3504L56.9898 20.6208C56.3125 21.4699 55.4632 22.1212 54.4425 22.5723C53.421 23.0241 52.2731 23.25 50.9994 23.25C49.54 23.25 48.2304 22.9424 47.0704 22.3247V22.3231Z" fill="black"/>
<path d="M64.1137 17.9122L62.6407 19.4856V22.9696H58.7405V9.03039H62.6407V14.8256L68.0331 9.03039H72.3712L66.6802 15.2045L72.6706 22.9704H68.0931L64.1137 17.9122Z" fill="black"/>
<path d="M77.1984 12.1579H72.9204V9.03039H85.3966V12.1579H81.1386V22.9704H77.1984V12.1579Z" fill="black"/>
<path d="M92.619 19.2653H90.4696V22.9696H86.5294V9.03039H92.8976C94.1576 9.03039 95.2519 9.23947 96.1814 9.65765C97.1076 10.0774 97.8264 10.6735 98.3284 11.4497C98.8335 12.2276 99.0865 13.1401 99.0865 14.1887C99.0865 15.2373 98.8503 16.0769 98.3804 16.8267C97.9073 17.5774 97.2341 18.1654 96.3591 18.59L99.3643 22.9704H95.1439L92.6174 19.2661L92.619 19.2653ZM94.4874 12.6746C94.076 12.3165 93.4676 12.1363 92.6582 12.1363H90.4688V16.2187H92.6582C93.4668 16.2187 94.076 16.0441 94.4874 15.6924C94.8989 15.3407 95.1062 14.8384 95.1062 14.1887C95.1062 13.539 94.8989 13.0327 94.4874 12.6746Z" fill="black"/>
<path d="M112.437 19.923V22.9696H101.254V9.03039H112.178V12.077H105.155V14.4266H111.342V17.3747H105.155V19.9238L112.437 19.923Z" fill="black"/>
<path d="M127.879 9.03039V22.9704H124.635L118.487 15.5434V22.9704H114.626V9.03039H117.869L124.018 16.459V9.03039H127.879Z" fill="black"/>
<path d="M130.664 9.03039H137.25C138.776 9.03039 140.13 9.31718 141.31 9.88757C142.49 10.458 143.407 11.2679 144.056 12.3165C144.706 13.3652 145.031 14.5933 145.031 16C145.031 17.4067 144.706 18.6348 144.056 19.6835C143.407 20.7337 142.49 21.542 141.31 22.114C140.129 22.6844 138.775 22.9696 137.25 22.9696H130.664V9.03039ZM137.092 19.8229C138.285 19.8229 139.244 19.4856 139.968 18.8087C140.69 18.1309 141.051 17.1944 141.051 16C141.051 14.8056 140.69 13.8691 139.968 13.1929C139.244 12.5152 138.285 12.1771 137.092 12.1771H134.604V19.8229H137.092Z" fill="black"/>
<path d="M148.712 22.8302C147.651 22.5514 146.79 22.1805 146.126 21.7151L147.419 18.8079C148.043 19.2196 148.765 19.5513 149.588 19.8028C150.411 20.056 151.22 20.1818 152.015 20.1818C153.527 20.1818 154.284 19.8028 154.284 19.0458C154.284 18.6485 154.069 18.352 153.638 18.159C153.206 17.9675 152.512 17.7648 151.559 17.5525C150.509 17.3258 149.635 17.0839 148.932 16.8251C148.228 16.5656 147.626 16.1506 147.12 15.5802C146.616 15.0098 146.365 14.24 146.365 13.2706C146.365 12.4215 146.596 11.6532 147.061 10.9699C147.525 10.2873 148.217 9.74658 149.14 9.34762C150.062 8.94867 151.192 8.75 152.533 8.75C153.448 8.75 154.35 8.85334 155.239 9.05923C156.128 9.26511 156.91 9.56633 157.587 9.96528L156.372 12.8917C155.046 12.1755 153.759 11.8174 152.512 11.8174C151.729 11.8174 151.159 11.9344 150.802 12.1659C150.444 12.3974 150.264 12.7011 150.264 13.072C150.264 13.4429 150.476 13.7217 150.9 13.9083C151.324 14.095 152.008 14.2856 152.95 14.4851C154.011 14.7118 154.89 14.9538 155.586 15.2125C156.283 15.4721 156.886 15.883 157.397 16.447C157.907 17.011 158.163 17.7777 158.163 18.7462C158.163 19.5825 157.932 20.3388 157.467 21.0165C157.002 21.6943 156.306 22.2334 155.378 22.6388C154.449 23.0441 153.322 23.2468 151.995 23.2468C150.868 23.2468 149.774 23.1074 148.711 22.8286L148.712 22.8302Z" fill="black"/>
</svg>
