<svg id="Layer_1" xmlns="http://www.w3.org/2000/svg" width="126" version="1.1" viewBox="0 0 63.7 32">
  <!-- Generator: Adobe Illustrator 29.0.0, SVG Export Plug-In . SVG Version: 2.1.0 Build 186)  -->
  <path d="M63.1,23.8c-2.9-1.6-5.8-3.2-8.7-4.8-.7-.4-1.5-.8-2.4-.9-.2,0-.4,0-.6,0-1,0-2,.3-2.9.3h0c-1.1,0-2.1-.7-2.4-1.7-.6-1.6-1.3-3.3-3-3.9-.4-.1-.8-.2-1.2-.2-.9,0-1.7.3-2.4.7-1,.6-1.9,1.5-2.7,2.4-.8.9-1.8,2-2.8,2.7,1.1-2.1,2.2-4.3,2.9-6.5.3-.9.5-1.8.4-2.8-.1-.9-.7-1.9-1.6-2.3-.5-.2-.9-.3-1.3-.3s-.8.1-1.2.4c-7.4,5-13,10.3-20.1,15.9,2-2.8,4.1-5.1,5.6-7.5,0-.4-.6-.6-1-.6h-.2c-.5,0-.9.3-1.4.5s-.6.2-.8.2-.4,0-.6-.2c-.4-.2-.5-.7-.6-1.1-.1-.4-.3-.9-.7-1.1-.2,0-.3-.2-.5-.2s-.4,0-.6.3c-3.5,2.4-8.2,6.3-11.6,8.8,3.3-3.9,8.1-8.6,12.1-11.9.6-.5,1.3-1,2.1-1.3.3,0,.6-.1.9-.1,1.1,0,2.2.5,3.2,1.1,1.2.8,2.2,1.8,3.5,2.3,5-4.2,7.6-7.1,12.1-10.9.9-.6,1.3-.7,1.9-.7s.4,0,.7,0c.9.2,1.6.7,2.2,1.3,7.8,6.6,15.6,14.4,24,22.2Z"/>
  <path d="M5.3,31.6h-1l-1.2-1.6v1.6h-.9v-5.5h.9v1.6l1.2-1.6h1l-2.1,2.7,2.1,2.8Z"/>
  <path d="M8.6,27.5c0,.3,0,.6-.3.9l-1.7,2.5h1.9v.7h-2.9v-.5h0v-.2l1.9-2.8c.2-.2.2-.4.2-.6s0-.2-.2-.4c0,0-.2-.2-.4-.2-.4,0-.6.3-.6.9v.5h-.9v-.9c0-.3.1-.6.4-.9.3-.2.6-.4.9-.4h.3c.3,0,.6.1.9.4.2.3.4.5.4.8Z"/>
  <path d="M13.5,26.8h-.9v4.8h-.9v-4.8h-.9v-.7h2.8v.7Z"/>
  <path d="M16.9,31.6h-.9v-1.3c0-.3-.1-.6-.4-.6-.2,0-.4,0-.8,0v2.1h-.9v-5.5h1.6c.4,0,.7.1.9.4.3.2.4.6.4.9v.9c0,.2,0,.3-.2.6-.1.2-.2.3-.4.4.2,0,.3.2.4.3.1.2.2.3.2.5v1.6ZM15.9,28.1v-.5c0-.3,0-.5-.1-.6,0,0-.3-.2-.6-.2h-.4v2h.6c.3,0,.5-.2.5-.7Z"/>
  <path d="M20.4,31.6h-.9l-.2-1.3h-.7l-.2,1.3h-.9l1-5.5h1l1,5.5ZM19.1,29.5l-.2-1.3-.2,1.3h.4Z"/>
  <path d="M23.9,30.4c0,.4,0,.6-.3.9s-.5.3-.9.3h-1.8v-5.5h1.6c.4,0,.7.1.9.4.3.2.4.6.4.9v3.1ZM23,30.2v-2.6c0-.3,0-.5-.1-.6,0-.1-.3-.2-.6-.2h-.5v4.1h.6c.2,0,.4,0,.5-.2,0,0,.1-.3.1-.5Z"/>
  <path d="M25.4,31.6h-.9v-5.5h.9v5.5Z"/>
  <path d="M28.8,31.6h-.9l-.9-3v3h-.9v-5.5s.9,0,.9,0l1,3.1v-3.1h.9v5.5h0Z"/>
  <path d="M32.3,29.3v1.1c0,.3-.1.6-.4.9-.3.2-.6.4-.9.4h-.2c-.4,0-.7-.1-.9-.4-.3-.2-.4-.6-.4-.9v-3.1c0-.3.1-.6.4-.9.3-.2.6-.4.9-.4h.2c.4,0,.7.1.9.4.3.2.4.6.4.9v.9h-.9v-.4c0-.3,0-.5,0-.7,0-.2-.3-.4-.5-.4-.4,0-.6.2-.6.7v2.7c0,.5.2.7.6.7s.4,0,.5-.2c0,0,0-.3,0-.6h-.6v-.8h1.5Z"/>
  <path d="M37.5,28.7c0,.4,0,.6-.3.9s-.5.3-.9.3h-.8v1.7h-.9v-5.6h1.6c.4,0,.7.1.9.4.3.2.4.6.4.9v1.4ZM36.6,28.5v-1c0-.3,0-.5-.1-.6,0-.1-.3-.2-.6-.2h-.4v2.4h.6c.2,0,.4,0,.5-.2,0,0,0-.2,0-.5Z"/>
  <path d="M40.5,31.6h-.9l-.2-1.3h-.7l-.2,1.3h-.9l1-5.5h1l1,5.5ZM39.2,29.5l-.2-1.3-.2,1.3h.4Z"/>
  <path d="M44,31.6h-.9v-1.3c0-.3-.1-.6-.4-.6-.2,0-.4,0-.8,0v2.1h-.9v-5.5h1.6c.4,0,.7.1.9.4.3.2.4.6.4.9v.9c0,.2,0,.3-.2.6-.1.2-.2.3-.4.4.2,0,.3.2.4.3.1.2.2.3.2.5v1.6h0ZM43,28.1v-.5c0-.3,0-.5-.1-.6,0,0-.3-.2-.6-.2h-.4v2h.6c.4,0,.6-.2.6-.7Z"/>
  <path d="M47.3,26.8h-.9v4.8h-.9v-4.8h-.9v-.7h2.8v.7Z"/>
  <path d="M50.5,31.6h-.9l-.9-3v3h-.9v-5.5s.9,0,.9,0l1,3.1v-3.1h.9v5.5h0Z"/>
  <path d="M53.8,30.8v.8h-2.8v-5.5h2.8v.8h-1.8v1.5h1.8v.8h-1.8v1.7h1.8Z"/>
  <path d="M57.3,31.6h-.9v-1.3c0-.3-.1-.6-.4-.6-.2,0-.4,0-.8,0v2.1h-.9v-5.5h1.6c.4,0,.7.1.9.4.3.2.4.6.4.9v.9c0,.2,0,.3-.2.6-.1.2-.2.3-.4.4.2,0,.3.2.4.3.1.2.2.3.2.5v1.6ZM56.3,28.1v-.5c0-.3,0-.5-.1-.6,0,0-.3-.2-.6-.2h-.4v2h.6c.3,0,.5-.2.5-.7Z"/>
  <path d="M60.8,27.6h-.9c0-.3,0-.5,0-.6,0-.2-.3-.3-.5-.3-.4,0-.6.2-.6.7s0,.6,0,.7c0,.2.3.4.5.4.4,0,.7.1,1,.4.3.2.4.6.4.9v.7c0,.3-.1.6-.4.9-.3.2-.6.4-1,.4h-.2c-.4,0-.7-.1-1-.4-.3-.2-.4-.6-.4-.9v-.4h.9c0,.6.2.9.6.9s.4,0,.5-.2c0,0,0-.3,0-.5,0-.6-.2-.9-.6-.9s-.7-.1-1-.4c-.3-.2-.5-.6-.5-.9v-.8c0-.3.1-.6.4-.9.3-.2.6-.4,1-.4h.2c.4,0,.7.1,1,.4.3.2.4.6.4.9v.3h0Z"/>
</svg>