<svg width="126" height="32" viewBox="0 0 126 32" fill="none" xmlns="http://www.w3.org/2000/svg">
<path d="M14.996 8.79437H23.6734V2.7085H8.97502V17.5639H14.996V8.79437Z" fill="black"/>
<path d="M23.6734 11.8368H17.6514V20.4404H6.02097V2.7085H0V26.5252H20.6229V29.2918H26.6439V23.206H23.6734V11.8368Z" fill="black"/>
<path d="M54.003 13.4907C54.003 12.3262 53.6747 11.4811 53.018 10.9554C52.3613 10.4307 51.2634 10.1683 49.7233 10.1683H45.9679V20.1791H48.178V16.9853H49.7079L51.9047 20.1791H54.6258L52.1171 16.5985C53.373 16.1308 54.002 15.0949 54.002 13.4907H54.003ZM51.3383 14.6791C51.0643 14.928 50.5492 15.0514 49.7941 15.0514H48.179V12.0867H49.8372C50.5451 12.0867 51.0418 12.1873 51.325 12.3874C51.6081 12.5876 51.7497 12.9588 51.7497 13.497C51.7497 14.0351 51.6122 14.4302 51.3383 14.6791Z" fill="black"/>
<path d="M66.1332 12.0732C67.1726 12.0732 68.0417 12.5129 68.7404 13.3912L70.1153 11.8161C69.0195 10.5655 67.6589 9.94021 66.0336 9.94021C64.5787 9.94021 63.3484 10.4369 62.3418 11.4293C61.3353 12.4227 60.8335 13.6608 60.8335 15.1457C60.8335 16.6306 61.3271 17.8594 62.3141 18.8331C63.3012 19.8068 64.5571 20.2942 66.0829 20.2942C67.6087 20.2942 68.9333 19.6544 70.0579 18.3748L68.6409 16.8992C67.9503 17.7682 67.0628 18.2027 65.9762 18.2027C65.183 18.2027 64.5079 17.9216 63.9497 17.3575C63.3915 16.7945 63.1134 16.0468 63.1134 15.1156C63.1134 14.1845 63.409 13.4451 63.9989 12.8955C64.59 12.347 65.3 12.0722 66.1321 12.0722L66.1332 12.0732Z" fill="black"/>
<path d="M75.4293 10.1683L71.1496 20.1791H73.5024L74.4238 18.017H78.5763L79.4977 20.1791H81.8505L77.5707 10.1683H75.4293ZM75.259 16.0551L76.5067 13.1475L77.7401 16.0551H75.259Z" fill="black"/>
<path d="M87.2066 10.1683H83.7066V20.1791H85.9168V17.3866H87.2343C88.6985 17.3866 89.7871 17.1004 90.5002 16.5269C91.2134 15.9535 91.5704 15.0493 91.5704 13.8132C91.5704 12.5772 91.2236 11.6605 90.529 11.0632C89.8343 10.4659 88.7272 10.1683 87.2055 10.1683H87.2066ZM88.9067 15.0016C88.643 15.3023 88.1413 15.4527 87.4046 15.4527H85.9168V12.0877H87.1778C87.9053 12.0877 88.4409 12.2091 88.7857 12.4527C89.1304 12.6964 89.3028 13.1071 89.3028 13.6846C89.3028 14.2622 89.1704 14.7019 88.9057 15.0026L88.9067 15.0016Z" fill="black"/>
<path d="M96.2185 10.1683H94.0084V20.1791H96.2185V10.1683Z" fill="black"/>
<path d="M98.5436 12.1023H101.349V20.1791H103.56V12.1023H106.365V10.1683H98.5436V12.1023Z" fill="black"/>
<path d="M110.957 10.1683L106.677 20.1791H109.03L109.951 18.017H114.104L115.025 20.1791H117.378L113.098 10.1683H110.957ZM110.787 16.0551L112.034 13.1475L113.268 16.0551H110.787Z" fill="black"/>
<path d="M121.444 18.1881V10.1683H119.234V20.1791H125.667V18.1881H121.444Z" fill="black"/>
<path d="M43.3739 15.1094C43.3739 13.639 42.8732 12.4092 41.8718 11.422C40.8703 10.4338 39.637 9.93917 38.1728 9.93917C36.7086 9.93917 35.4753 10.4328 34.4738 11.422C33.4724 12.4102 32.9717 13.6401 32.9717 15.1094C32.9717 16.5788 33.4724 17.8086 34.4738 18.7968C35.4753 19.785 36.7076 20.2797 38.1728 20.2797C38.8203 20.2797 39.4195 20.177 39.9756 19.9841L40.6261 20.9298H43.3473L41.8605 18.8072C41.8605 18.8072 41.8687 18.7999 41.8728 18.7968C42.8743 17.8086 43.375 16.5798 43.375 15.1094H43.3739ZM36.0899 17.3938C35.5225 16.7685 35.2393 16.0095 35.2393 15.1167C35.2393 14.2239 35.5225 13.4627 36.0899 12.8323C36.6563 12.2018 37.353 11.8876 38.18 11.8876C39.007 11.8876 39.7037 12.2028 40.2701 12.8323C40.8365 13.4627 41.1197 14.2239 41.1197 15.1167C41.1197 16.0095 40.8365 16.7685 40.2701 17.3938C39.7027 18.0191 39.006 18.3323 38.18 18.3323C37.354 18.3323 36.6563 18.0201 36.0899 17.3938Z" fill="black"/>
</svg>
