<svg width="272" height="36" viewBox="0 0 272 36" fill="none" xmlns="http://www.w3.org/2000/svg">
<path d="M27.4464 8.01755V27.4509H44.1131V29.6821H49.0741V24.6598L46.6295 24.6358L46.6454 15.415L41.6127 15.367L41.5809 22.2926L32.4393 22.3486L32.3915 8.02555H27.4464V8.01755Z" fill="black"/>
<path d="M34.6928 20.1334H39.5264V12.9678L46.6454 13.0158V8.00955H34.6928V20.1334Z" fill="black"/>
<path d="M2.66539 17.7102L9.0438 29.874C9.1314 30.042 9.37029 30.042 9.45788 29.874L15.7726 17.7662C15.8681 17.5823 15.693 17.3743 15.4939 17.4383L11.5681 18.7419C11.2973 18.8298 11.1301 18.446 11.3849 18.318L19.3002 14.2074C19.5471 14.0795 19.3958 13.7036 19.125 13.7756C10.5886 16.0708 5.62765 17.0065 2.83262 17.3743C2.67335 17.3983 2.58576 17.5663 2.65743 17.7102H2.66539Z" fill="black"/>
<path d="M19.9293 6.01824C19.9293 6.01824 13.8455 9.05719 9.33047 9.97688C3.54133 11.1605 0.212768 11.2165 0.212768 11.2165C0.0375808 11.2644 -0.0500129 11.4564 0.0296177 11.6163C0.0296177 11.6163 1.81334 15.303 2.10798 15.7029C8.14398 14.3914 15.1435 11.9122 18.4243 10.0728C18.4641 10.0489 20.2558 6.4181 20.2558 6.4181C20.3673 6.19418 20.1682 5.94626 19.9293 6.01024V6.01824Z" fill="black"/>
<path d="M62.1574 13.3357L65.3984 21.309L64.1323 21.0531L67.0706 13.3357H69.6666L64.6021 24.9157L59.5376 13.3357H62.1574Z" fill="black"/>
<path d="M70.1444 18.8778C70.1444 18.1181 70.2877 17.3983 70.5823 16.7106C70.877 16.0308 71.2831 15.423 71.7927 14.8952C72.3103 14.3674 72.9076 13.9515 73.5924 13.6556C74.2772 13.3517 75.0098 13.2078 75.7902 13.2078C76.5706 13.2078 77.2952 13.3597 77.98 13.6556C78.6648 13.9595 79.27 14.3674 79.7956 14.8952C80.3212 15.423 80.7352 16.0228 81.0299 16.7106C81.3245 17.3983 81.4758 18.1101 81.4758 18.8778C81.4758 19.6456 81.3245 20.3893 81.0299 21.0771C80.7352 21.7568 80.3212 22.3566 79.7956 22.8764C79.27 23.3963 78.6648 23.7961 77.98 24.084C77.2952 24.3719 76.5706 24.5239 75.7902 24.5239C75.0098 24.5239 74.2692 24.3799 73.5924 24.084C72.9076 23.7961 72.3103 23.3883 71.7927 22.8764C71.2751 22.3566 70.869 21.7648 70.5823 21.0771C70.2877 20.3973 70.1444 19.6616 70.1444 18.8778ZM72.4059 18.8778C72.4059 19.3737 72.4935 19.8295 72.6687 20.2533C72.8439 20.6772 73.0907 21.0531 73.4092 21.381C73.7278 21.7088 74.094 21.9648 74.5081 22.1407C74.9222 22.3246 75.3841 22.4126 75.8698 22.4126C76.3556 22.4126 76.7776 22.3246 77.1837 22.1407C77.5898 21.9568 77.9402 21.7088 78.2428 21.381C78.5454 21.0531 78.7763 20.6772 78.9515 20.2533C79.1267 19.8295 79.2063 19.3657 79.2063 18.8778C79.2063 18.39 79.1187 17.9102 78.9436 17.4783C78.7684 17.0464 78.5295 16.6706 78.2189 16.3427C77.9084 16.0148 77.55 15.7589 77.1359 15.583C76.7219 15.399 76.2759 15.311 75.7902 15.311C75.3044 15.311 74.8585 15.399 74.4444 15.583C74.0303 15.7669 73.672 16.0148 73.3614 16.3427C73.0509 16.6706 72.804 17.0464 72.6368 17.4783C72.4616 17.9102 72.382 18.374 72.382 18.8778H72.4059ZM78.6171 10.7286L76.3874 12.7599H75.1054L76.2759 10.7286H78.6171Z" fill="black"/>
<path d="M87.0261 13.3357C87.7188 13.3357 88.34 13.4237 88.8815 13.5996C89.4229 13.7756 89.8768 14.0235 90.2431 14.3514C90.6094 14.6793 90.8881 15.0711 91.0793 15.519C91.2704 15.9748 91.3659 16.4866 91.3659 17.0624C91.3659 17.5103 91.3022 17.9661 91.1669 18.414C91.0315 18.8618 90.8085 19.2777 90.5059 19.6456C90.1954 20.0134 89.7972 20.3173 89.2955 20.5412C88.7939 20.7652 88.1727 20.8771 87.4242 20.8771H85.8555V24.3959H83.6656V13.3277H87.0261V13.3357ZM87.4003 18.7819C87.7348 18.7819 88.0055 18.7259 88.2285 18.6139C88.4515 18.5019 88.6187 18.366 88.7461 18.1981C88.8735 18.0301 88.9611 17.8462 89.0168 17.6622C89.0726 17.4783 89.1044 17.3024 89.1044 17.1424C89.1044 17.0225 89.0885 16.8705 89.0487 16.6866C89.0168 16.5026 88.9372 16.3107 88.8337 16.1268C88.7222 15.9348 88.555 15.7749 88.332 15.6469C88.1011 15.519 87.8064 15.455 87.4242 15.455H85.8555V18.7978H87.4083L87.4003 18.7819ZM89.4468 20.1334L92.1941 24.4039H89.6459L86.8429 20.1974L89.4468 20.1414V20.1334Z" fill="black"/>
<path d="M100.5 13.3357V15.439H97.8001V24.4039H95.6102V15.439H93.0143V13.3357H100.5Z" fill="black"/>
<path d="M101.551 24.4039L105.5 18.2061L106.528 20.4053L104.266 24.4039H101.551ZM104.489 13.3357L111.72 24.4039H108.901L101.694 13.3357H104.489ZM106.671 17.3983L108.964 13.3357H111.616L107.802 19.2777L106.671 17.3983Z" fill="black"/>
<path d="M117.748 18.8778C117.748 18.1181 117.891 17.3983 118.186 16.7106C118.472 16.0308 118.886 15.423 119.396 14.9032C119.914 14.3754 120.511 13.9595 121.196 13.6636C121.88 13.3597 122.613 13.2158 123.393 13.2158C124.174 13.2158 124.898 13.3677 125.583 13.6636C126.268 13.9675 126.873 14.3754 127.399 14.9032C127.924 15.431 128.338 16.0308 128.633 16.7106C128.928 17.3903 129.079 18.1101 129.079 18.8778C129.079 19.6456 128.936 20.3893 128.633 21.0771C128.338 21.7568 127.924 22.3566 127.399 22.8764C126.873 23.3963 126.268 23.7961 125.583 24.084C124.898 24.3719 124.174 24.5239 123.393 24.5239C122.613 24.5239 121.88 24.3799 121.196 24.084C120.511 23.7881 119.914 23.3883 119.396 22.8764C118.878 22.3566 118.472 21.7648 118.186 21.0771C117.891 20.3973 117.748 19.6616 117.748 18.8778ZM120.009 18.8778C120.009 19.3577 120.097 19.8135 120.272 20.2374C120.447 20.6612 120.694 21.0371 121.012 21.365C121.331 21.6929 121.697 21.9488 122.111 22.1247C122.525 22.3086 122.987 22.3966 123.473 22.3966C123.959 22.3966 124.381 22.3086 124.787 22.1247C125.193 21.9408 125.551 21.6929 125.846 21.373C126.149 21.0531 126.38 20.6772 126.555 20.2533C126.73 19.8295 126.81 19.3657 126.81 18.8778C126.81 18.39 126.722 17.9421 126.547 17.5183C126.372 17.0944 126.133 16.7186 125.822 16.3987C125.512 16.0788 125.153 15.8309 124.747 15.6469C124.333 15.463 123.887 15.375 123.401 15.375C122.916 15.375 122.47 15.463 122.056 15.6469C121.641 15.8309 121.283 16.0788 120.973 16.3987C120.662 16.7186 120.415 17.0944 120.248 17.5183C120.073 17.9421 119.993 18.398 119.993 18.8778H120.009ZM126.26 22.2607H129.7V24.3959H123.401L126.268 22.2607H126.26Z" fill="black"/>
<path d="M135.25 13.3357C135.943 13.3357 136.564 13.4237 137.106 13.5996C137.647 13.7756 138.101 14.0235 138.467 14.3514C138.834 14.6793 139.112 15.0711 139.304 15.519C139.495 15.9748 139.59 16.4866 139.59 17.0624C139.59 17.5103 139.527 17.9661 139.391 18.414C139.256 18.8618 139.033 19.2777 138.73 19.6456C138.42 20.0134 138.022 20.3173 137.52 20.5412C137.018 20.7652 136.397 20.8771 135.649 20.8771H134.08V24.3959H131.89V13.3277H135.25V13.3357ZM135.633 18.7819C135.967 18.7819 136.238 18.7259 136.461 18.6139C136.684 18.5019 136.851 18.366 136.978 18.1981C137.106 18.0301 137.193 17.8462 137.249 17.6622C137.305 17.4783 137.337 17.3024 137.337 17.1424C137.337 17.0225 137.321 16.8705 137.281 16.6866C137.249 16.5026 137.169 16.3107 137.066 16.1268C136.954 15.9348 136.787 15.7749 136.564 15.6469C136.333 15.519 136.039 15.455 135.656 15.455H134.088V18.7978H135.641L135.633 18.7819ZM137.679 20.1334L140.418 24.4039H137.87L135.067 20.1974L137.671 20.1414L137.679 20.1334Z" fill="black"/>
<path d="M153.844 13.3357V15.439H151.145V24.4039H148.955V15.439H146.359V13.3357H153.844Z" fill="black"/>
<path d="M154.895 18.8778C154.895 18.1181 155.039 17.3983 155.333 16.7106C155.62 16.0308 156.034 15.423 156.544 14.9032C157.061 14.3754 157.658 13.9595 158.343 13.6636C159.028 13.3597 159.761 13.2158 160.541 13.2158C161.321 13.2158 162.046 13.3677 162.731 13.6636C163.416 13.9675 164.021 14.3754 164.546 14.9032C165.072 15.431 165.486 16.0308 165.781 16.7106C166.075 17.3903 166.227 18.1101 166.227 18.8778C166.227 19.6456 166.083 20.3893 165.781 21.0771C165.486 21.7568 165.072 22.3566 164.546 22.8764C164.021 23.3963 163.416 23.7961 162.731 24.084C162.046 24.3719 161.321 24.5239 160.541 24.5239C159.761 24.5239 159.028 24.3799 158.343 24.084C157.658 23.7881 157.061 23.3883 156.544 22.8764C156.026 22.3566 155.62 21.7648 155.333 21.0771C155.039 20.3973 154.895 19.6616 154.895 18.8778ZM157.157 18.8778C157.157 19.3737 157.244 19.8295 157.42 20.2533C157.595 20.6772 157.842 21.0531 158.16 21.381C158.479 21.7088 158.845 21.9648 159.259 22.1407C159.673 22.3246 160.135 22.4126 160.621 22.4126C161.106 22.4126 161.528 22.3246 161.935 22.1407C162.341 21.9568 162.699 21.7088 162.994 21.381C163.296 21.0531 163.527 20.6772 163.702 20.2533C163.878 19.8295 163.957 19.3657 163.957 18.8778C163.957 18.39 163.87 17.9102 163.694 17.4783C163.519 17.0464 163.28 16.6706 162.97 16.3427C162.659 16.0148 162.301 15.7589 161.887 15.583C161.473 15.399 161.027 15.311 160.541 15.311C160.055 15.311 159.609 15.399 159.203 15.583C158.789 15.7669 158.431 16.0148 158.12 16.3427C157.81 16.6706 157.571 17.0464 157.396 17.4783C157.22 17.9102 157.141 18.374 157.141 18.8778H157.157Z" fill="black"/>
<path d="M170.63 17.2704L170.567 17.8302L170.901 17.4143L174.516 13.3357H177.351L172.772 18.294L177.367 24.3959H174.596L171.172 19.6775L170.63 20.2214V24.4039H168.417V13.3357H170.63V17.2784V17.2704Z" fill="black"/>
<path d="M179.023 13.3357H186.588V15.439H181.213V17.7982H185.975V19.9015H181.213V22.2926H186.803V24.3959H179.031V13.3277L179.023 13.3357Z" fill="black"/>
<path d="M198.995 24.8518L190.586 17.2704L191.231 17.6302L191.278 24.3959H189.065V12.8959H189.16L197.386 20.4453L196.9 20.2374L196.853 13.3357H199.05V24.8518H198.987H198.995Z" fill="black"/>
<path d="M201.917 13.3357H204.107V24.4039H201.917V13.3357Z" fill="black"/>
<path d="M206.209 24.4039C206.552 23.8601 206.862 23.3643 207.149 22.9164C207.436 22.4686 207.754 21.9568 208.112 21.381C208.471 20.8132 208.837 20.2214 209.211 19.6216C209.586 19.0218 209.952 18.43 210.31 17.8622C210.669 17.2944 210.987 16.7745 211.274 16.3267C211.56 15.8788 211.871 15.375 212.213 14.8392L212.452 15.439H208.455C208.248 15.439 208.025 15.391 207.802 15.2951C207.579 15.1991 207.388 15.0711 207.228 14.9032C207.069 14.7352 206.998 14.5513 206.998 14.3514V12.7679H209.004V12.9758C209.004 13.1998 209.036 13.3117 209.108 13.3117C209.179 13.3117 209.307 13.3117 209.49 13.3117H215.653L209.809 22.5166L209.689 22.2767H215.645V24.3799H206.209V24.4039Z" fill="black"/>
<path d="M216.593 24.4039L221.594 12.8959H221.713L226.714 24.4039H224.182L220.989 16.3107L222.573 15.2231L218.751 24.3959H216.593V24.4039ZM223.338 20.4053L224.102 22.2447H219.324L220.001 20.4053H223.338Z" fill="black"/>
<path d="M228.331 24.4039V13.3357H231.643C232.758 13.3357 233.706 13.5037 234.494 13.8316C235.282 14.1674 235.911 14.6073 236.389 15.1591C236.867 15.7109 237.217 16.3267 237.44 17.0065C237.663 17.6862 237.775 18.374 237.775 19.0698C237.775 19.8935 237.631 20.6292 237.329 21.285C237.034 21.9408 236.628 22.5006 236.118 22.9724C235.609 23.4443 235.012 23.7961 234.335 24.036C233.658 24.284 232.949 24.4039 232.193 24.4039H228.331ZM230.512 22.3006H231.81C232.368 22.3006 232.87 22.2287 233.315 22.0847C233.769 21.9408 234.16 21.7248 234.486 21.4449C234.813 21.165 235.067 20.8132 235.243 20.3893C235.418 19.9654 235.505 19.4696 235.505 18.9258C235.505 18.2061 235.386 17.6143 235.147 17.1584C234.916 16.7026 234.621 16.3507 234.279 16.1028C233.929 15.8549 233.578 15.6789 233.22 15.583C232.862 15.487 232.551 15.439 232.304 15.439H230.52V22.3166L230.512 22.3006Z" fill="black"/>
<path d="M239.272 18.8778C239.272 18.1181 239.415 17.3983 239.71 16.7106C239.996 16.0308 240.411 15.423 240.92 14.9032C241.438 14.3754 242.035 13.9595 242.72 13.6636C243.405 13.3597 244.137 13.2158 244.918 13.2158C245.698 13.2158 246.423 13.3677 247.107 13.6636C247.792 13.9675 248.398 14.3754 248.923 14.9032C249.449 15.431 249.863 16.0308 250.157 16.7106C250.452 17.3903 250.603 18.1101 250.603 18.8778C250.603 19.6456 250.46 20.3893 250.157 21.0771C249.863 21.7568 249.449 22.3566 248.923 22.8764C248.398 23.3963 247.792 23.7961 247.107 24.084C246.423 24.3719 245.698 24.5239 244.918 24.5239C244.137 24.5239 243.405 24.3799 242.72 24.084C242.035 23.7881 241.438 23.3883 240.92 22.8764C240.403 22.3566 239.996 21.7648 239.71 21.0771C239.415 20.3973 239.272 19.6616 239.272 18.8778ZM241.533 18.8778C241.533 19.3737 241.621 19.8295 241.796 20.2533C241.971 20.6772 242.218 21.0531 242.537 21.381C242.855 21.7088 243.222 21.9648 243.636 22.1407C244.05 22.3246 244.512 22.4126 244.997 22.4126C245.483 22.4126 245.905 22.3246 246.311 22.1407C246.717 21.9568 247.068 21.7088 247.37 21.381C247.673 21.0531 247.904 20.6772 248.079 20.2533C248.254 19.8295 248.334 19.3657 248.334 18.8778C248.334 18.39 248.246 17.9102 248.071 17.4783C247.896 17.0464 247.657 16.6706 247.346 16.3427C247.036 16.0148 246.677 15.7589 246.263 15.583C245.849 15.399 245.403 15.311 244.918 15.311C244.432 15.311 243.986 15.399 243.58 15.583C243.166 15.7669 242.807 16.0148 242.497 16.3427C242.186 16.6706 241.939 17.0464 241.772 17.4783C241.597 17.9102 241.517 18.374 241.517 18.8778H241.533Z" fill="black"/>
<path d="M256.154 13.3357C256.846 13.3357 257.467 13.4237 258.009 13.5996C258.55 13.7756 259.004 14.0235 259.371 14.3514C259.737 14.6793 260.016 15.0711 260.207 15.519C260.398 15.9748 260.493 16.4866 260.493 17.0624C260.493 17.5103 260.43 17.9661 260.286 18.414C260.151 18.8618 259.928 19.2777 259.625 19.6456C259.315 20.0134 258.917 20.3173 258.415 20.5412C257.913 20.7652 257.292 20.8771 256.544 20.8771H254.975V24.3959H252.785V13.3277H256.146L256.154 13.3357ZM256.536 18.7819C256.87 18.7819 257.141 18.7259 257.364 18.6139C257.587 18.5019 257.754 18.366 257.882 18.1981C258.009 18.0301 258.097 17.8462 258.152 17.6622C258.208 17.4783 258.24 17.3024 258.24 17.1424C258.24 17.0225 258.224 16.8705 258.184 16.6866C258.152 16.5026 258.073 16.3107 257.969 16.1268C257.858 15.9348 257.69 15.7749 257.467 15.6469C257.236 15.519 256.934 15.455 256.56 15.455H254.991V18.7978H256.544L256.536 18.7819ZM258.582 20.1334L261.33 24.4039H258.781L255.978 20.1974L258.582 20.1414V20.1334Z" fill="black"/>
<path d="M261.879 24.4039L266.88 12.8959H266.999L272 24.4039H269.468L266.275 16.3107L267.859 15.2231L264.029 24.3959H261.871L261.879 24.4039ZM268.632 20.4053L269.396 22.2447H264.618L265.295 20.4053H268.632Z" fill="black"/>
</svg>
