<svg  width="47" height="30" viewBox="0 0 47 30" fill="none" xmlns="http://www.w3.org/2000/svg">
<g opacity="0.01">
<rect x="0.958984" y="0.160156" width="45.503" height="29.6801" fill="white"/>
</g>
<rect x="17.7104" y="5.33105" width="12.0035" height="19.3348" fill="#7A7A7E"/>
<path fill-rule="evenodd" clip-rule="evenodd" d="M18.947 15.0001C18.944 11.2278 20.7 7.66354 23.7089 5.33442C18.5972 1.37254 11.2565 1.94962 6.84569 6.66012C2.4349 11.3706 2.4349 18.633 6.84569 23.3435C11.2565 28.054 18.5972 28.6311 23.7089 24.6692C20.699 22.3393 18.9429 18.7737 18.947 15.0001Z" fill="#7A7A7E"/>
<path fill-rule="evenodd" clip-rule="evenodd" d="M42.7145 22.3088V23.1123H42.6307V22.3088H42.4517V22.1426H42.905V22.3088H42.7145ZM43.5946 22.1426V23.1123H43.4994V22.3781L43.3508 23.0084H43.2479L43.0994 22.3781V23.1123H43.0003V22.1426H43.1375L43.2975 22.8352L43.4575 22.1426H43.5946Z" fill="#F79E1B"/>
<path fill-rule="evenodd" clip-rule="evenodd" d="M43.8817 15C43.8815 19.7076 41.1559 24.0019 36.8624 26.0591C32.5688 28.1163 27.4611 27.5752 23.7085 24.6656C26.7161 22.3346 28.4722 18.7708 28.4722 14.9983C28.4722 11.2257 26.7161 7.66196 23.7085 5.33087C27.4611 2.4213 32.5688 1.88021 36.8624 3.93741C41.1559 5.99461 43.8815 10.2889 43.8817 14.9966V15Z" fill="#575757"/>
</svg>