<svg width="192" height="194" viewBox="0 0 192 194" fill="none" xmlns="http://www.w3.org/2000/svg">
<g filter="url(#filter0_d_756_4361)">
<path d="M9.08949 0H192V184.927C192 189.933 187.928 193.996 182.911 193.996H9.08949C4.0716 193.996 0 189.933 0 184.927V9.06929C0 4.06254 4.0716 0 9.08949 0Z" fill="#00A7D0"/>
</g>
<path d="M9.08949 0H192V99.522C192 104.529 187.928 108.591 182.911 108.591H0V9.06929C0 4.06254 4.0716 0 9.08949 0Z" fill="white"/>
<path d="M108.414 26.7813C110.866 26.7813 112.863 24.7852 112.863 22.3295V18.1675C112.863 15.7118 110.866 13.7157 108.414 13.7157H90.6537L79.1362 25.2366V37.0225L90.6537 48.5434H108.414C110.866 48.5434 112.863 46.5474 112.863 44.0916V39.9297C112.863 37.4739 110.866 35.4779 108.414 35.4779H91.5544L87.2047 31.1254L91.5544 26.773H108.414V26.7813ZM110.684 18.1717V22.3336C110.684 23.5884 109.663 24.6071 108.414 24.6071H93.7292L102.433 15.8981H108.414C109.667 15.8981 110.684 16.9169 110.684 18.1717ZM81.3111 26.1435L84.5733 22.8802V30.6865L81.3111 33.9497V26.1435ZM110.684 39.938V44.0999C110.684 45.3547 109.663 46.3734 108.414 46.3734H102.433L93.7292 37.6644H108.414C109.667 37.6644 110.684 38.6832 110.684 39.938ZM90.3342 37.3456L99.3531 46.3693H91.5502L81.7593 36.5753L85.6607 32.6742L90.33 37.3456H90.3342ZM86.7523 28.5082V20.702L91.5544 15.8981H99.3572L86.7523 28.5082Z" fill="#00A7D0"/>
<path d="M15.481 72.0997V60.7104H19.5321C20.354 60.7104 21.0887 60.8513 21.7403 61.1329C22.392 61.4145 22.9025 61.8287 23.2761 62.3753C23.6497 62.922 23.8365 63.593 23.8365 64.3923C23.8365 65.1419 23.6663 65.7838 23.3259 66.3222C22.9856 66.8606 22.5124 67.2665 21.9105 67.5523C21.3045 67.8339 20.5989 67.9747 19.7853 67.9747H17.4318V72.1039H15.481V72.0997ZM17.4152 66.4341H19.7355C20.4038 66.4341 20.9517 66.2353 21.3751 65.8335C21.7984 65.436 22.0101 64.9141 22.0101 64.2763C22.0101 63.6385 21.7901 63.1208 21.346 62.7605C20.906 62.4002 20.3498 62.2221 19.6815 62.2221H17.4152V66.4382V66.4341Z" fill="#414042"/>
<path d="M25.1348 72.0995V63.953H26.9736V65.7173C27.1064 65.3115 27.2932 64.9677 27.5381 64.6819C27.783 64.3962 28.0694 64.1767 28.4014 64.0234C28.7335 63.8702 29.0946 63.7957 29.4848 63.7957C29.5802 63.7957 29.6716 63.7998 29.7629 63.8122C29.8542 63.8246 29.9165 63.8412 29.9621 63.8661V65.7008C29.904 65.6718 29.8293 65.6552 29.738 65.6469C29.6467 65.6386 29.5636 65.6304 29.4972 65.6304C29.1029 65.5972 28.7542 65.6138 28.4512 65.6759C28.1482 65.738 27.895 65.8457 27.6875 65.9948C27.48 66.1439 27.3222 66.3344 27.2185 66.5622C27.1147 66.79 27.0607 67.0551 27.0607 67.3615V72.0953H25.1431L25.1348 72.0995Z" fill="#414042"/>
<path d="M34.6068 72.2568C33.8265 72.2568 33.1499 72.0912 32.5688 71.7557C31.9877 71.4244 31.5394 70.944 31.2239 70.3186C30.9043 69.6932 30.7466 68.9436 30.7466 68.0656C30.7466 67.1876 30.9002 66.4711 31.2115 65.8292C31.5228 65.1872 31.9669 64.6902 32.5397 64.3341C33.1167 63.9779 33.8057 63.7998 34.611 63.7998C35.4162 63.7998 36.0679 63.9696 36.6407 64.3134C37.2135 64.6571 37.6576 65.1458 37.9689 65.7795C38.2802 66.4173 38.438 67.1793 38.438 68.0697C38.438 68.8939 38.2885 69.6187 37.9938 70.2482C37.695 70.8736 37.2633 71.3664 36.6905 71.7267C36.1177 72.0829 35.4245 72.261 34.6027 72.261L34.6068 72.2568ZM34.6151 70.799C35.0551 70.799 35.4204 70.6789 35.7068 70.4346C35.9932 70.1944 36.209 69.863 36.3501 69.4406C36.4913 69.0223 36.5618 68.5419 36.5618 68.0076C36.5618 67.5106 36.4996 67.0509 36.3709 66.6285C36.2464 66.206 36.0388 65.8706 35.7524 65.6138C35.466 65.3612 35.0841 65.2328 34.611 65.2328C34.1627 65.2328 33.7933 65.3487 33.5027 65.5848C33.2121 65.8209 32.9922 66.1439 32.851 66.5622C32.7099 66.9805 32.6393 67.4609 32.6393 68.0076C32.6393 68.5005 32.7016 68.9602 32.8303 69.3826C32.9589 69.8051 33.1623 70.1447 33.4529 70.4056C33.7434 70.6665 34.1295 70.7949 34.6151 70.7949V70.799Z" fill="#414042"/>
<path d="M43.5016 74.7916C42.1277 74.7916 41.0734 74.6094 40.3346 74.2408C39.5957 73.8722 39.2305 73.3711 39.2305 72.7291C39.2305 72.4392 39.301 72.199 39.4422 72.0043C39.5833 71.8097 39.7535 71.6523 39.9486 71.5239C40.1436 71.3997 40.3221 71.3003 40.484 71.234C40.6459 71.1678 40.7538 71.1181 40.7995 71.0849C40.7081 71.0311 40.5919 70.9648 40.4425 70.8778C40.2931 70.795 40.1602 70.679 40.044 70.53C39.9278 70.3809 39.8655 70.1903 39.8655 69.9543C39.8655 69.6809 39.9942 69.4283 40.2557 69.1964C40.5172 68.9644 40.9074 68.7988 41.4262 68.6994C40.9157 68.4509 40.5214 68.1196 40.2516 67.6971C39.9776 67.2788 39.8406 66.844 39.8406 66.3884C39.8406 65.8541 39.9984 65.3944 40.3097 65.0093C40.621 64.6241 41.0568 64.3342 41.6172 64.1271C42.1734 63.92 42.825 63.8206 43.568 63.8206C44.1118 63.8206 44.5601 63.8828 44.9212 64.0029C45.2823 64.123 45.6185 64.2845 45.9298 64.4916C46.0336 64.4502 46.183 64.3922 46.3698 64.3135C46.5607 64.2348 46.7683 64.152 46.9924 64.0609C47.2166 63.9697 47.4366 63.8786 47.6482 63.7916C47.8599 63.7047 48.0343 63.6343 48.1754 63.5763L48.1671 65.1584L46.7558 65.411C46.8222 65.5642 46.8762 65.7299 46.9177 65.908C46.9592 66.0861 46.9758 66.2434 46.9758 66.3801C46.9758 66.8523 46.843 67.2913 46.5773 67.693C46.3117 68.0947 45.9132 68.4178 45.3861 68.658C44.8589 68.8982 44.1989 69.0224 43.4103 69.0224C43.3314 69.0224 43.2235 69.0224 43.0865 69.0141C42.9496 69.01 42.8375 69.0059 42.7545 68.9976C42.3269 69.0141 42.0364 69.0638 41.8787 69.1467C41.7209 69.2295 41.6421 69.3206 41.6421 69.4242C41.6421 69.565 41.7624 69.6602 41.999 69.7058C42.2356 69.7513 42.6134 69.7969 43.1364 69.83C43.319 69.8425 43.5639 69.8549 43.8627 69.8714C44.1616 69.888 44.4978 69.9087 44.8672 69.9336C45.797 69.9916 46.5026 70.2235 46.9841 70.6294C47.4615 71.0352 47.7022 71.5612 47.7022 72.2073C47.7022 72.9569 47.3535 73.574 46.6604 74.0586C45.9672 74.5431 44.9129 74.7833 43.5016 74.7833V74.7916ZM43.8254 73.6651C44.5144 73.6651 45.025 73.5699 45.357 73.3835C45.6891 73.193 45.8551 72.9155 45.8551 72.5469C45.8551 72.2653 45.743 72.0333 45.5147 71.8552C45.2906 71.6772 44.9502 71.5736 44.5061 71.5405L42.4473 71.4121C42.2232 71.3955 42.0073 71.437 41.804 71.5322C41.6006 71.6316 41.4387 71.7641 41.31 71.9339C41.1855 72.1037 41.1191 72.2901 41.1191 72.4972C41.1191 72.8824 41.3391 73.1723 41.779 73.3669C42.219 73.5657 42.8998 73.661 43.8295 73.661L43.8254 73.6651ZM43.4767 67.9001C43.9748 67.9001 44.3816 67.7717 44.6929 67.519C45.0042 67.2623 45.1578 66.902 45.1578 66.434C45.1578 65.966 45.0042 65.5767 44.6929 65.3033C44.3816 65.0341 43.979 64.8974 43.4767 64.8974C42.9745 64.8974 42.5552 65.0341 42.2398 65.3075C41.9285 65.5808 41.7707 65.9577 41.7707 66.434C41.7707 66.9102 41.9202 67.2416 42.219 67.5066C42.5179 67.7717 42.9371 67.9001 43.4726 67.9001H43.4767Z" fill="#414042"/>
<path d="M49.5186 72.0995V63.953H51.3573V65.7173C51.4902 65.3115 51.677 64.9677 51.9219 64.6819C52.1668 64.3962 52.4532 64.1767 52.7852 64.0234C53.1173 63.8702 53.4784 63.7957 53.8686 63.7957C53.964 63.7957 54.0554 63.7998 54.1467 63.8122C54.238 63.8246 54.3003 63.8412 54.3459 63.8661V65.7008C54.2878 65.6718 54.2131 65.6552 54.1218 65.6469C54.0304 65.6386 53.9474 65.6304 53.881 65.6304C53.4867 65.5972 53.138 65.6138 52.835 65.6759C52.532 65.738 52.2788 65.8457 52.0713 65.9948C51.8637 66.1439 51.706 66.3344 51.6022 66.5622C51.4985 66.79 51.4445 67.0551 51.4445 67.3615V72.0953H49.5269L49.5186 72.0995Z" fill="#414042"/>
<path d="M57.7661 72.2571C57.2431 72.2571 56.7782 72.1618 56.3632 71.9672C55.9481 71.7767 55.6243 71.4992 55.3919 71.1389C55.1594 70.7785 55.0391 70.3437 55.0391 69.826C55.0391 68.9273 55.3628 68.2522 56.0145 67.7925C56.6662 67.3369 57.6997 67.0967 59.1193 67.076L60.3438 67.0429V66.492C60.3438 66.0613 60.2151 65.7259 59.9619 65.4815C59.7045 65.2371 59.3102 65.117 58.7748 65.1212C58.3763 65.1253 58.011 65.2206 57.6873 65.3987C57.3593 65.5809 57.1435 65.8832 57.0397 66.3098H55.4043C55.4375 65.7548 55.5994 65.2869 55.89 64.91C56.1805 64.5372 56.5832 64.2556 57.0937 64.0692C57.6042 63.8829 58.1937 63.7917 58.8619 63.7917C59.6423 63.7917 60.2732 63.8953 60.763 64.0982C61.2528 64.3012 61.6139 64.5994 61.8463 64.9845C62.0788 65.3697 62.195 65.8377 62.195 66.3802V72.0914H60.5762L60.4185 70.6253C60.1279 71.2383 59.7585 71.6648 59.3102 71.8968C58.8619 72.1287 58.3472 72.2488 57.7661 72.2488V72.2571ZM58.3887 70.9566C58.6253 70.9566 58.8578 70.9111 59.0902 70.8241C59.3227 70.7371 59.5302 70.6212 59.717 70.4721C59.9038 70.323 60.0532 70.1573 60.1653 69.9709C60.2773 69.7846 60.3396 69.5941 60.3438 69.3953V68.1114L59.3393 68.128C58.8453 68.1321 58.4136 68.1859 58.0401 68.2853C57.6665 68.3847 57.3801 68.5462 57.1767 68.7616C56.9733 68.9811 56.8696 69.271 56.8696 69.6313C56.8696 70.0455 57.0148 70.3685 57.3054 70.6046C57.5959 70.8407 57.9571 70.9566 58.3887 70.9566Z" fill="#414042"/>
<path d="M64.0088 72.0995V63.953H65.8808V65.1168C66.1174 64.7606 66.4411 64.45 66.8479 64.1891C67.2547 63.9282 67.7735 63.7957 68.4086 63.7957C68.6992 63.7957 68.9897 63.8454 69.2886 63.9448C69.5874 64.0441 69.8614 64.1891 70.1187 64.3838C70.3761 64.5784 70.5795 64.8186 70.7289 65.1085C70.9862 64.7234 71.3308 64.4086 71.7583 64.1643C72.1858 63.9158 72.6715 63.7957 73.2069 63.7957C73.5016 63.7957 73.8046 63.8412 74.1201 63.9365C74.4314 64.0317 74.7219 64.1891 74.9834 64.4086C75.2449 64.6281 75.4608 64.9304 75.6227 65.3115C75.7845 65.6925 75.8676 66.1688 75.8676 66.7403V72.0953H73.9499V66.9681C73.9499 66.5622 73.8793 66.2475 73.7382 66.0155C73.5971 65.7836 73.4144 65.6179 73.1903 65.5227C72.9662 65.4233 72.7296 65.3777 72.4764 65.3777C72.2481 65.3777 72.0156 65.4233 71.7707 65.5103C71.5258 65.6014 71.3183 65.7463 71.1481 65.9493C70.9779 66.1563 70.8908 66.4297 70.8908 66.7776V72.0953H68.9731V66.6575C68.9731 66.3758 68.8984 66.1398 68.7531 65.9493C68.6037 65.7587 68.4211 65.6179 68.1969 65.5227C67.9728 65.4233 67.7445 65.3777 67.5162 65.3777C67.2879 65.3777 67.0389 65.4274 66.794 65.5268C66.5491 65.6262 66.3457 65.7795 66.1838 65.9824C66.0219 66.1853 65.9389 66.4545 65.9389 66.7776V72.0953H64.0212L64.0088 72.0995Z" fill="#414042"/>
<path d="M80.0122 72.2571C79.4892 72.2571 79.0243 72.1618 78.6092 71.9672C78.1942 71.7767 77.8704 71.4992 77.638 71.1389C77.4055 70.7785 77.2852 70.3437 77.2852 69.826C77.2852 68.9273 77.6089 68.2522 78.2606 67.7925C78.9123 67.3369 79.9458 67.0967 81.3654 67.076L82.5898 67.0429V66.492C82.5898 66.0613 82.4612 65.7259 82.208 65.4815C81.9506 65.2371 81.5563 65.117 81.0209 65.1212C80.6224 65.1253 80.2571 65.2206 79.9333 65.3987C79.6054 65.5809 79.3896 65.8832 79.2858 66.3098H77.6504C77.6836 65.7548 77.8455 65.2869 78.1361 64.91C78.4266 64.5372 78.8292 64.2556 79.3398 64.0692C79.8503 63.8829 80.4397 63.7917 81.108 63.7917C81.8884 63.7917 82.5193 63.8953 83.0091 64.0982C83.4989 64.3012 83.86 64.5994 84.0924 64.9845C84.3249 65.3697 84.4411 65.8377 84.4411 66.3802V72.0914H82.8223L82.6646 70.6253C82.374 71.2383 82.0046 71.6648 81.5563 71.8968C81.108 72.1287 80.5933 72.2488 80.0122 72.2488V72.2571ZM80.6348 70.9566C80.8714 70.9566 81.1039 70.9111 81.3363 70.8241C81.5688 70.7371 81.7763 70.6212 81.9631 70.4721C82.1499 70.323 82.2993 70.1573 82.4114 69.9709C82.5234 69.7846 82.5857 69.5941 82.5898 69.3953V68.1114L81.5854 68.128C81.0914 68.1321 80.6597 68.1859 80.2862 68.2853C79.9126 68.3847 79.6262 68.5462 79.4228 68.7616C79.2194 68.977 79.1156 69.271 79.1156 69.6313C79.1156 70.0455 79.2609 70.3685 79.5515 70.6046C79.842 70.8407 80.2031 70.9566 80.6348 70.9566Z" fill="#414042"/>
<path d="M94.4399 72.2573C93.3939 72.2573 92.4932 72.017 91.7419 71.5366C90.9906 71.0562 90.4178 70.3728 90.011 69.4907C89.6084 68.6044 89.4092 67.5566 89.4092 66.3348C89.4092 65.1131 89.6084 64.086 90.011 63.2245C90.4095 62.3631 90.9865 61.7046 91.7378 61.2449C92.4891 60.7852 93.3898 60.5574 94.4399 60.5574C95.2784 60.5574 96.0172 60.7272 96.6647 61.0668C97.3123 61.4064 97.8353 61.8661 98.2337 62.4418C98.6322 63.0216 98.8646 63.6635 98.9394 64.3717H96.9096C96.8308 63.9534 96.6855 63.5766 96.4696 63.2452C96.258 62.9139 95.9757 62.653 95.627 62.4583C95.2784 62.2637 94.8633 62.1684 94.3777 62.1684C93.7716 62.1684 93.2569 62.3134 92.8336 62.5992C92.4102 62.8849 92.0864 63.3364 91.8623 63.9576C91.6381 64.5788 91.5261 65.3823 91.5261 66.368C91.5261 67.8631 91.7751 68.9523 92.2691 69.6356C92.763 70.319 93.4645 70.6586 94.3777 70.6586C94.8633 70.6586 95.2784 70.5509 95.627 70.3397C95.9757 70.1285 96.2538 69.8427 96.4696 69.4907C96.6813 69.1345 96.8308 68.7494 96.9096 68.3311H98.9394C98.8771 68.8446 98.7443 69.3375 98.5492 69.8137C98.35 70.2859 98.076 70.7083 97.7149 71.0769C97.3538 71.4455 96.9096 71.7396 96.37 71.9508C95.8304 72.162 95.1871 72.2697 94.4399 72.2697V72.2573Z" fill="#414042"/>
<path d="M104.205 72.2569C103.421 72.2569 102.732 72.0912 102.134 71.7557C101.536 71.4244 101.071 70.9481 100.735 70.3269C100.399 69.7057 100.233 68.9685 100.233 68.1153C100.233 67.2621 100.382 66.5374 100.685 65.8913C100.988 65.2411 101.428 64.7317 102.005 64.3589C102.582 63.9862 103.28 63.7998 104.093 63.7998C104.907 63.7998 105.575 63.9696 106.123 64.3134C106.671 64.6571 107.086 65.1292 107.372 65.7422C107.655 66.3551 107.8 67.0716 107.8 67.8917V68.4756H102.155C102.151 68.9395 102.221 69.3453 102.375 69.7057C102.528 70.0618 102.752 70.3435 103.055 70.5422C103.354 70.7452 103.728 70.8446 104.168 70.8446C104.608 70.8446 105.015 70.7452 105.347 70.5422C105.679 70.3393 105.903 70.0328 106.015 69.6187H107.767C107.671 70.1861 107.447 70.6665 107.09 71.0599C106.733 71.4534 106.301 71.7516 105.795 71.9587C105.289 72.1657 104.757 72.2651 104.205 72.2651V72.2569ZM102.146 67.2787H105.982C105.982 66.8853 105.911 66.5291 105.774 66.2102C105.637 65.8913 105.426 65.6428 105.147 65.4523C104.869 65.2659 104.517 65.1748 104.089 65.1748C103.661 65.1748 103.313 65.2783 103.022 65.4813C102.732 65.6842 102.516 65.9493 102.366 66.2723C102.217 66.5954 102.146 66.9308 102.146 67.2787Z" fill="#414042"/>
<path d="M109.389 72.0995V63.953H111.228V65.7173C111.361 65.3115 111.548 64.9677 111.792 64.6819C112.037 64.3962 112.324 64.1767 112.656 64.0234C112.988 63.8702 113.349 63.7957 113.739 63.7957C113.835 63.7957 113.926 63.7998 114.017 63.8122C114.109 63.8246 114.171 63.8412 114.217 63.8661V65.7008C114.158 65.6718 114.084 65.6552 113.992 65.6469C113.901 65.6386 113.818 65.6304 113.752 65.6304C113.357 65.5972 113.009 65.6138 112.706 65.6759C112.403 65.738 112.149 65.8457 111.942 65.9948C111.734 66.1439 111.577 66.3344 111.473 66.5622C111.369 66.79 111.315 67.0551 111.315 67.3615V72.0953H109.397L109.389 72.0995Z" fill="#414042"/>
<path d="M118.645 72.1619C117.997 72.1619 117.495 72.0749 117.142 71.9051C116.785 71.7353 116.54 71.491 116.403 71.1762C116.266 70.8614 116.2 70.4846 116.2 70.0497V65.3076H114.872V63.9533H116.254L116.735 61.5347H118.117V63.9451H119.94V65.3076H118.117L118.126 69.9793C118.126 70.2195 118.155 70.3976 118.209 70.5094C118.263 70.6212 118.354 70.6958 118.479 70.7289C118.603 70.762 118.765 70.7786 118.973 70.7786H119.981V71.9921C119.869 72.0335 119.707 72.0708 119.496 72.108C119.284 72.1412 119.002 72.1577 118.649 72.1577L118.645 72.1619Z" fill="#414042"/>
<path d="M121.509 62.5286V60.7188H123.41V62.5286H121.509ZM121.542 72.0997V63.9533H123.381V72.0997H121.542Z" fill="#414042"/>
<path d="M126.34 72.0997V65.3117H124.729V63.9574H126.34V62.744C126.34 62.0937 126.518 61.5926 126.879 61.2406C127.24 60.8885 127.763 60.7146 128.448 60.7146H130.171L130.179 62.0192H129.042C128.73 62.0192 128.519 62.102 128.402 62.2594C128.286 62.4209 128.228 62.6694 128.228 63.0132V63.9574H130.1V65.3117H128.261V72.0997H126.344H126.34ZM131.607 62.5286V60.7187H133.508V62.5286H131.607ZM131.64 72.0997V63.9533H133.479V72.0997H131.64Z" fill="#414042"/>
<path d="M138.866 72.2568C138.118 72.2568 137.454 72.0912 136.873 71.764C136.292 71.4368 135.836 70.9564 135.503 70.331C135.171 69.7057 135.005 68.9478 135.005 68.0573C135.005 67.1669 135.163 66.4711 135.474 65.8333C135.786 65.1955 136.234 64.6944 136.807 64.3382C137.384 63.9779 138.069 63.7998 138.861 63.7998C139.497 63.7998 140.061 63.9241 140.543 64.1767C141.028 64.4293 141.414 64.7772 141.709 65.2245C142.004 65.6718 142.178 66.1771 142.232 66.7444H140.596C140.555 66.496 140.464 66.264 140.318 66.0404C140.173 65.8167 139.986 65.6345 139.746 65.4978C139.505 65.3612 139.214 65.2908 138.874 65.2908C138.26 65.2908 137.761 65.5144 137.384 65.97C137.006 66.4214 136.815 67.113 136.815 68.049C136.815 68.9105 136.994 69.5938 137.355 70.1032C137.716 70.6127 138.231 70.8653 138.907 70.8653C139.243 70.8653 139.534 70.7907 139.775 70.6416C140.015 70.4926 140.206 70.3062 140.347 70.0825C140.489 69.8589 140.576 69.6353 140.613 69.4075H142.207C142.161 69.9583 141.987 70.4511 141.692 70.8777C141.398 71.3084 141.007 71.6439 140.526 71.8924C140.04 72.1367 139.488 72.261 138.861 72.261L138.866 72.2568Z" fill="#414042"/>
<path d="M146.104 72.2571C145.581 72.2571 145.117 72.1618 144.702 71.9672C144.286 71.7767 143.963 71.4992 143.73 71.1389C143.498 70.7785 143.377 70.3437 143.377 69.826C143.377 68.9273 143.701 68.2522 144.353 67.7925C145.005 67.3369 146.038 67.0967 147.458 67.076L148.682 67.0429V66.492C148.682 66.0613 148.553 65.7259 148.3 65.4815C148.043 65.2371 147.649 65.117 147.113 65.1212C146.715 65.1253 146.349 65.2206 146.026 65.3987C145.698 65.5809 145.482 65.8832 145.378 66.3098H143.743C143.776 65.7548 143.938 65.2869 144.228 64.91C144.519 64.5372 144.922 64.2556 145.432 64.0692C145.943 63.8829 146.532 63.7917 147.2 63.7917C147.981 63.7917 148.612 63.8953 149.101 64.0982C149.591 64.3012 149.952 64.5994 150.185 64.9845C150.417 65.3697 150.533 65.8377 150.533 66.3802V72.0914H148.915L148.757 70.6253C148.466 71.2383 148.097 71.6648 147.649 71.8968C147.2 72.1287 146.686 72.2488 146.104 72.2488V72.2571ZM146.727 70.9566C146.964 70.9566 147.196 70.9111 147.429 70.8241C147.661 70.7371 147.869 70.6212 148.055 70.4721C148.242 70.323 148.392 70.1573 148.504 69.9709C148.616 69.7846 148.678 69.5941 148.682 69.3953V68.1114L147.678 68.128C147.184 68.1321 146.752 68.1859 146.378 68.2853C146.005 68.3847 145.718 68.5462 145.515 68.7616C145.312 68.977 145.208 69.271 145.208 69.6313C145.208 70.0455 145.353 70.3685 145.644 70.6046C145.934 70.8407 146.295 70.9566 146.727 70.9566Z" fill="#414042"/>
<path d="M155.775 72.2568C155.028 72.2568 154.364 72.0912 153.782 71.764C153.201 71.4368 152.745 70.9564 152.413 70.331C152.081 69.7057 151.915 68.9478 151.915 68.0573C151.915 67.1669 152.072 66.4711 152.384 65.8333C152.695 65.1955 153.143 64.6944 153.716 64.3382C154.293 63.9779 154.978 63.7998 155.771 63.7998C156.406 63.7998 156.97 63.9241 157.452 64.1767C157.937 64.4293 158.323 64.7772 158.618 65.2245C158.909 65.6718 159.087 66.1771 159.141 66.7444H157.506C157.464 66.496 157.373 66.264 157.228 66.0404C157.082 65.8167 156.895 65.6345 156.655 65.4978C156.414 65.3612 156.123 65.2908 155.783 65.2908C155.169 65.2908 154.671 65.5144 154.293 65.97C153.915 66.4214 153.724 67.113 153.724 68.049C153.724 68.9105 153.903 69.5938 154.264 70.1032C154.625 70.6127 155.14 70.8653 155.816 70.8653C156.153 70.8653 156.443 70.7907 156.684 70.6416C156.925 70.4926 157.115 70.3062 157.257 70.0825C157.398 69.8589 157.485 69.6353 157.522 69.4075H159.116C159.07 69.9583 158.896 70.4511 158.601 70.8777C158.307 71.3084 157.917 71.6439 157.435 71.8924C156.949 72.1367 156.397 72.261 155.771 72.261L155.775 72.2568ZM155.625 75.4003C155.318 75.4003 155.028 75.3713 154.745 75.305C154.463 75.2429 154.197 75.1352 153.953 74.9903L154.235 74.2904C154.388 74.3897 154.563 74.4767 154.758 74.5554C154.953 74.63 155.165 74.6714 155.397 74.6714C155.667 74.6714 155.866 74.6258 156.003 74.5347C156.14 74.4436 156.206 74.3111 156.206 74.1454C156.206 73.93 156.107 73.7685 155.912 73.6567C155.713 73.5449 155.38 73.4869 154.903 73.4827C154.845 73.4827 154.808 73.4745 154.783 73.4538C154.762 73.4372 154.766 73.3999 154.791 73.3502L155.368 72.0249H156.277L155.916 72.9609C156.294 72.9733 156.597 73.0396 156.817 73.1638C157.037 73.2881 157.194 73.4372 157.29 73.6153C157.385 73.7934 157.431 73.9715 157.431 74.1495C157.431 74.4187 157.348 74.6424 157.178 74.8329C157.008 75.0193 156.788 75.1601 156.514 75.2553C156.24 75.3547 155.941 75.4003 155.621 75.4003H155.625Z" fill="#414042"/>
<path d="M163.013 72.2571C162.49 72.2571 162.025 72.1618 161.61 71.9672C161.195 71.7767 160.871 71.4992 160.639 71.1389C160.407 70.7785 160.286 70.3437 160.286 69.826C160.286 68.9273 160.61 68.2522 161.262 67.7925C161.913 67.3369 162.947 67.0967 164.366 67.076L165.591 67.0429V66.492C165.591 66.0613 165.462 65.7259 165.209 65.4815C164.952 65.2371 164.557 65.117 164.022 65.1212C163.623 65.1253 163.258 65.2206 162.934 65.3987C162.606 65.5809 162.391 65.8832 162.287 66.3098H160.651C160.685 65.7548 160.846 65.2869 161.137 64.91C161.428 64.5372 161.83 64.2556 162.341 64.0692C162.851 63.8829 163.441 63.7917 164.109 63.7917C164.889 63.7917 165.52 63.8953 166.01 64.0982C166.5 64.3012 166.861 64.5994 167.093 64.9845C167.326 65.3697 167.442 65.8377 167.442 66.3802V72.0914H165.823L165.666 70.6253C165.375 71.2383 165.006 71.6648 164.557 71.8968C164.109 72.1287 163.594 72.2488 163.013 72.2488V72.2571ZM161.909 62.6155L161.594 61.5677C161.776 61.3897 161.98 61.2364 162.195 61.1039C162.415 60.9714 162.689 60.9051 163.021 60.9051C163.3 60.9051 163.565 60.9424 163.81 61.0211C164.059 61.0997 164.3 61.1743 164.532 61.253C164.765 61.3317 165.001 61.3731 165.238 61.3731C165.495 61.3731 165.724 61.3192 165.919 61.2157C166.114 61.1122 166.292 60.9962 166.454 60.8761L166.724 62.0564C166.57 62.1724 166.371 62.2842 166.126 62.396C165.877 62.5079 165.583 62.5617 165.242 62.5617C164.952 62.5617 164.694 62.5286 164.466 62.454C164.238 62.3836 164.014 62.3132 163.798 62.2428C163.582 62.1724 163.349 62.1351 163.096 62.1351C162.843 62.1351 162.619 62.1765 162.449 62.2635C162.279 62.3505 162.1 62.4665 161.913 62.6155H161.909ZM163.64 70.9566C163.877 70.9566 164.109 70.9111 164.341 70.8241C164.574 70.7371 164.781 70.6212 164.968 70.4721C165.155 70.323 165.304 70.1573 165.416 69.9709C165.529 69.7846 165.591 69.5941 165.595 69.3953V68.1114L164.59 68.128C164.097 68.1321 163.665 68.1859 163.291 68.2853C162.918 68.3847 162.631 68.5462 162.428 68.7616C162.225 68.9811 162.121 69.271 162.121 69.6313C162.121 70.0455 162.266 70.3685 162.557 70.6046C162.847 70.8407 163.208 70.9566 163.64 70.9566Z" fill="#414042"/>
<path d="M172.683 72.2568C171.903 72.2568 171.227 72.0912 170.645 71.7557C170.064 71.4244 169.616 70.944 169.301 70.3186C168.981 69.6932 168.823 68.9436 168.823 68.0656C168.823 67.1876 168.977 66.4711 169.288 65.8292C169.599 65.1872 170.044 64.6902 170.616 64.3341C171.193 63.9779 171.882 63.7998 172.688 63.7998C173.493 63.7998 174.145 63.9696 174.717 64.3134C175.29 64.6571 175.734 65.1458 176.046 65.7795C176.357 66.4173 176.515 67.1793 176.515 68.0697C176.515 68.8939 176.365 69.6187 176.07 70.2482C175.772 70.8736 175.34 71.3664 174.767 71.7267C174.194 72.0829 173.501 72.261 172.679 72.261L172.683 72.2568ZM172.692 70.799C173.132 70.799 173.497 70.6789 173.783 70.4346C174.07 70.1944 174.286 69.863 174.427 69.4406C174.568 69.0223 174.638 68.5419 174.638 68.0076C174.638 67.5106 174.576 67.0509 174.448 66.6285C174.323 66.206 174.115 65.8706 173.829 65.6138C173.543 65.3612 173.161 65.2328 172.688 65.2328C172.239 65.2328 171.87 65.3487 171.579 65.5848C171.289 65.8209 171.069 66.1439 170.928 66.5622C170.787 66.9805 170.716 67.4609 170.716 68.0076C170.716 68.5005 170.778 68.9602 170.907 69.3826C171.036 69.8051 171.239 70.1447 171.53 70.4056C171.82 70.6665 172.206 70.7949 172.692 70.7949V70.799Z" fill="#414042"/>
<path d="M22.5703 92.4704C21.5243 92.4704 20.6236 92.2302 19.8723 91.7498C19.121 91.2693 18.5482 90.586 18.1414 89.7038C17.7388 88.8175 17.5396 87.7656 17.5396 86.548C17.5396 85.3303 17.7388 84.2991 18.1414 83.4377C18.5399 82.5762 19.1168 81.9177 19.8681 81.458C20.6194 80.9983 21.5201 80.7664 22.5703 80.7664C23.4087 80.7664 24.1476 80.9362 24.7951 81.2758C25.4426 81.6154 25.9656 82.0751 26.3641 82.6508C26.7626 83.2264 26.995 83.8725 27.0697 84.5807H25.04C24.9611 84.1583 24.8159 83.7855 24.6 83.4542C24.3883 83.1229 24.1061 82.862 23.7574 82.6673C23.4087 82.4727 22.9937 82.3774 22.508 82.3774C21.902 82.3774 21.3873 82.5182 20.9639 82.804C20.5406 83.0898 20.2168 83.5453 19.9927 84.1624C19.7685 84.7837 19.6564 85.5871 19.6564 86.5728C19.6564 88.0721 19.9055 89.1613 20.3994 89.8405C20.8934 90.5239 21.5949 90.8635 22.508 90.8635C22.9937 90.8635 23.4087 90.7558 23.7574 90.5446C24.1061 90.3333 24.3842 90.0476 24.6 89.6914C24.8117 89.3394 24.9611 88.9501 25.04 88.5318H27.0697C27.0075 89.0453 26.8746 89.5423 26.6796 90.0144C26.4803 90.4866 26.2064 90.909 25.8453 91.2776C25.4883 91.6462 25.04 91.9403 24.5004 92.1515C23.9608 92.3627 23.3174 92.4704 22.5703 92.4704Z" fill="#414042"/>
<path d="M28.7212 92.313V84.1665H30.56V85.9308C30.6928 85.525 30.8796 85.1812 31.1245 84.8954C31.3694 84.6097 31.6558 84.3902 31.9879 84.2369C32.3199 84.0837 32.681 84.0092 33.0712 84.0092C33.1667 84.0092 33.258 84.0174 33.3493 84.0257C33.4406 84.034 33.5029 84.0547 33.5485 84.0796V85.9143C33.4904 85.8894 33.4157 85.8687 33.3244 85.8604C33.2331 85.8521 33.1501 85.8439 33.0837 85.8439C32.6893 85.8107 32.3407 85.8273 32.0377 85.8894C31.7347 85.9515 31.4815 86.0592 31.2739 86.2083C31.0664 86.3574 30.9087 86.5479 30.8049 86.7757C30.7011 87.0035 30.6472 87.2686 30.6472 87.575V92.3088H28.7295L28.7212 92.313Z" fill="#414042"/>
<path d="M34.8389 82.7419V80.932H36.7399V82.7419H34.8389ZM34.8721 92.313V84.1666H36.7109V92.313H34.8721Z" fill="#414042"/>
<path d="M38.7446 94.8517V84.1707H40.6623L40.6789 85.4546C40.7827 85.2765 40.9196 85.0984 41.0857 84.9244C41.2517 84.7505 41.4426 84.5973 41.6626 84.4606C41.8826 84.3239 42.1234 84.2162 42.3932 84.1334C42.663 84.0506 42.9577 84.0092 43.2773 84.0092C43.904 84.0092 44.4602 84.1583 44.9417 84.4564C45.4274 84.7546 45.8051 85.2061 46.0832 85.8232C46.3613 86.4361 46.4983 87.2147 46.4983 88.1548C46.4983 89.095 46.3572 89.915 46.0707 90.5569C45.7885 91.1989 45.39 91.6793 44.8795 91.9941C44.3689 92.313 43.7754 92.4703 43.1029 92.4703C42.7916 92.4703 42.5094 92.4289 42.2562 92.3461C41.9988 92.2633 41.7747 92.1473 41.5713 91.9982C41.3721 91.8532 41.1977 91.6917 41.0442 91.5178C40.8906 91.3438 40.7702 91.1616 40.6706 90.9752V94.8517H38.7446ZM42.6754 91.0374C43.2524 91.0374 43.7339 90.8096 44.1116 90.3457C44.4893 89.886 44.6802 89.1654 44.6802 88.1838C44.6802 87.3307 44.5018 86.6639 44.1489 86.171C43.792 85.6782 43.3022 85.4338 42.6754 85.4338C42.003 85.4338 41.4966 85.6906 41.1604 86.2083C40.8242 86.726 40.654 87.3845 40.654 88.1797C40.654 88.6932 40.7287 89.1695 40.8781 89.6002C41.0276 90.0351 41.2517 90.3789 41.5506 90.6398C41.8494 90.9007 42.223 91.0291 42.6754 91.0291V91.0374Z" fill="#414042"/>
<path d="M50.9801 92.3753C50.3326 92.3753 49.8303 92.2924 49.4775 92.1185C49.1247 91.9445 48.8756 91.7043 48.7387 91.3896C48.6017 91.0748 48.5353 90.6979 48.5353 90.2631V85.521H47.207V84.1667H48.5892L49.0707 81.748H50.4529V84.1584H52.2751V85.521H50.4529L50.4612 90.1927C50.4612 90.4329 50.4903 90.611 50.5443 90.7228C50.5982 90.8346 50.6895 90.9092 50.8141 90.9423C50.9386 90.9754 51.1005 90.992 51.308 90.992H52.3166V92.2055C52.2046 92.2469 52.0427 92.2883 51.831 92.3214C51.6193 92.3546 51.3371 92.3711 50.9842 92.3711L50.9801 92.3753Z" fill="#414042"/>
<path d="M57.0267 92.4703C56.2464 92.4703 55.5698 92.3047 54.9887 91.9692C54.4076 91.6379 53.9593 91.1575 53.6438 90.5321C53.3242 89.9067 53.1665 89.1571 53.1665 88.2791C53.1665 87.4011 53.3201 86.6805 53.6314 86.0427C53.9427 85.4007 54.3868 84.9037 54.9596 84.5434C55.5366 84.1872 56.2256 84.0092 57.0309 84.0092C57.8361 84.0092 58.4878 84.179 59.0606 84.5227C59.6334 84.8623 60.0775 85.351 60.3889 85.9888C60.7002 86.6225 60.8579 87.3887 60.8579 88.2791C60.8579 89.1033 60.7085 89.828 60.4138 90.4575C60.1149 91.0871 59.6832 91.5799 59.1104 91.9361C58.5376 92.2923 57.8444 92.4703 57.0226 92.4703H57.0267ZM57.035 91.0125C57.475 91.0125 57.8403 90.8924 58.1267 90.6522C58.4131 90.412 58.6289 90.0807 58.7701 89.6582C58.9112 89.2358 58.9817 88.7595 58.9817 88.2253C58.9817 87.7241 58.9195 87.2644 58.7908 86.8461C58.6663 86.4278 58.4587 86.0882 58.1723 85.8356C57.8859 85.5788 57.5041 85.4546 57.0309 85.4546C56.5826 85.4546 56.2132 85.5705 55.9226 85.8066C55.6321 86.0427 55.4121 86.3657 55.2709 86.784C55.1298 87.2023 55.0593 87.6827 55.0593 88.2294C55.0593 88.7222 55.1215 89.1819 55.2502 89.6044C55.3747 90.0268 55.5823 90.3664 55.8728 90.6274C56.1634 90.8883 56.5494 91.0167 57.035 91.0167V91.0125Z" fill="#414042"/>
<path d="M64.668 92.4703C64.145 92.4703 63.6801 92.3751 63.265 92.1846C62.8499 91.9941 62.5262 91.7166 62.2937 91.3563C62.0613 90.9959 61.9409 90.5569 61.9409 90.0434C61.9409 89.1447 62.2647 88.4696 62.9163 88.0099C63.568 87.5502 64.6016 87.3141 66.0211 87.2934L67.2456 87.2603V86.7094C67.2456 86.2787 67.1169 85.9432 66.8637 85.6948C66.6064 85.4504 66.2121 85.3303 65.6766 85.3386C65.2781 85.3427 64.9129 85.438 64.5891 85.6161C64.2653 85.7942 64.0454 86.1006 63.9416 86.5272H62.3062C62.3394 85.9681 62.5013 85.5042 62.7918 85.1274C63.0824 84.7505 63.485 84.473 63.9956 84.2866C64.5061 84.1003 65.0955 84.005 65.7638 84.005C66.5441 84.005 67.175 84.1085 67.6648 84.3115C68.1546 84.5186 68.5157 84.8126 68.7482 85.1978C68.9806 85.5829 69.0969 86.0509 69.0969 86.5976V92.3088H67.4781L67.3203 90.8427C67.0298 91.4598 66.6603 91.8822 66.2121 92.1142C65.7638 92.3461 65.2491 92.4662 64.668 92.4662V92.4703ZM65.2906 91.1699C65.5272 91.1699 65.7596 91.1285 65.9921 91.0415C66.2245 90.9545 66.4321 90.8344 66.6188 90.6895C66.8056 90.5404 66.9551 90.3747 67.0671 90.1883C67.1792 90.0061 67.2415 89.8156 67.2456 89.6127V88.3288L66.2411 88.3453C65.7472 88.3495 65.3155 88.4033 64.9419 88.5027C64.5725 88.6021 64.282 88.7595 64.0786 88.979C63.8752 89.1985 63.7714 89.4884 63.7714 89.8487C63.7714 90.2629 63.9167 90.5901 64.2072 90.822C64.4978 91.0539 64.8589 91.174 65.2906 91.174V91.1699Z" fill="#414042"/>
<path d="M73.8819 92.3753C73.2344 92.3753 72.7322 92.2924 72.3794 92.1185C72.0265 91.9445 71.7775 91.7043 71.6405 91.3896C71.5035 91.0748 71.4371 90.6979 71.4371 90.2631V85.521H70.1089V84.1667H71.4911L71.9726 81.748H73.3548V84.1584H75.177V85.521H73.3548L73.3631 90.1927C73.3631 90.4329 73.3922 90.611 73.4461 90.7228C73.5001 90.8346 73.5914 90.9092 73.7159 90.9423C73.8404 90.9754 74.0023 90.992 74.2099 90.992H75.2185V92.2055C75.1064 92.2469 74.9445 92.2883 74.7329 92.3214C74.5212 92.3546 74.2389 92.3711 73.8861 92.3711L73.8819 92.3753Z" fill="#414042"/>
<path d="M76.7456 82.7419V80.932H78.6467V82.7419H76.7456ZM76.7788 92.313V84.1666H78.6176V92.313H76.7788Z" fill="#414042"/>
<path d="M82.793 92.3129L79.7754 84.1665H81.5353L83.4945 89.8694H83.5983L85.5491 84.1665H87.3173L84.308 92.3129H82.793Z" fill="#414042"/>
<path d="M91.6669 92.4703C90.8865 92.4703 90.2099 92.3047 89.6288 91.9692C89.0477 91.6379 88.5994 91.1575 88.284 90.5321C87.9644 89.9067 87.8066 89.1571 87.8066 88.2791C87.8066 87.4011 87.9602 86.6805 88.2715 86.0427C88.5828 85.4007 89.027 84.9037 89.5998 84.5434C90.1767 84.1872 90.8658 84.0092 91.671 84.0092C92.4763 84.0092 93.1279 84.179 93.7007 84.5227C94.2735 84.8623 94.7177 85.351 95.029 85.9888C95.3403 86.6225 95.498 87.3887 95.498 88.2791C95.498 89.1033 95.3486 89.828 95.0539 90.4575C94.755 91.0871 94.3234 91.5799 93.7506 91.9361C93.1777 92.2923 92.4846 92.4703 91.6627 92.4703H91.6669ZM91.6752 91.0125C92.1151 91.0125 92.4804 90.8924 92.7668 90.6522C93.0532 90.412 93.2691 90.0807 93.4102 89.6582C93.5513 89.2358 93.6219 88.7595 93.6219 88.2253C93.6219 87.7241 93.5596 87.2644 93.4309 86.8461C93.3064 86.4278 93.0989 86.0882 92.8125 85.8356C92.5261 85.5829 92.1442 85.4546 91.671 85.4546C91.2227 85.4546 90.8533 85.5705 90.5628 85.8066C90.2722 86.0427 90.0522 86.3657 89.9111 86.784C89.77 87.2023 89.6994 87.6827 89.6994 88.2294C89.6994 88.7222 89.7617 89.1819 89.8903 89.6044C90.0149 90.0268 90.2224 90.3664 90.5129 90.6274C90.8035 90.8883 91.1895 91.0167 91.6752 91.0167V91.0125Z" fill="#414042"/>
<path d="M100.105 92.4703C99.5362 92.4703 98.9966 92.3792 98.4902 92.197C97.9838 92.0148 97.5562 91.7331 97.2117 91.3438C96.8672 90.9545 96.6514 90.4534 96.5601 89.8404H98.2494C98.3241 90.1386 98.4528 90.383 98.6396 90.5735C98.8264 90.764 99.0464 90.9007 99.3037 90.9877C99.5611 91.0746 99.8226 91.116 100.097 91.116C100.586 91.116 100.981 91.0332 101.279 90.8634C101.578 90.6936 101.728 90.4368 101.728 90.0807C101.728 89.8239 101.645 89.6209 101.479 89.4677C101.313 89.3145 101.043 89.1985 100.669 89.1198L99.1211 88.7636C98.4279 88.6104 97.8717 88.3578 97.4566 88.0099C97.0416 87.6579 96.8299 87.1609 96.8257 86.5189C96.8216 86.0385 96.9419 85.6078 97.1868 85.2268C97.4359 84.8499 97.8011 84.5517 98.2909 84.3322C98.7807 84.1168 99.3826 84.005 100.101 84.005C101.051 84.005 101.819 84.2162 102.392 84.6387C102.969 85.0611 103.264 85.6658 103.28 86.4444H101.645C101.587 86.0923 101.421 85.819 101.147 85.6202C100.873 85.4214 100.516 85.3262 100.08 85.3262C99.6441 85.3262 99.2581 85.4131 98.9675 85.5871C98.677 85.761 98.5317 86.0261 98.5317 86.3823C98.5317 86.6307 98.6396 86.8213 98.8596 86.9662C99.0796 87.107 99.4116 87.2271 99.8599 87.3265L101.329 87.6827C101.749 87.7862 102.093 87.9271 102.363 88.1051C102.633 88.2832 102.84 88.4779 102.99 88.6932C103.139 88.9045 103.243 89.124 103.305 89.3476C103.367 89.5712 103.396 89.7783 103.396 89.9647C103.396 90.4907 103.259 90.938 102.99 91.3066C102.72 91.6752 102.338 91.9609 101.844 92.1597C101.35 92.3585 100.769 92.4579 100.097 92.4579L100.105 92.4703Z" fill="#414042"/>
<path d="M107.721 92.3131L111.818 80.9238H113.901L117.998 92.3131H116.072L115.055 89.4554H110.68L109.655 92.3131H107.721ZM111.141 87.7532H114.574L112.859 82.7834L111.137 87.7532H111.141Z" fill="#414042"/>
<path d="M119.683 92.3131V80.9238H121.563L127.154 89.062V80.9238H129.072V92.3131H127.341L121.6 83.9554V92.3131H119.683Z" fill="#414042"/>
<path d="M136.035 92.4704C134.989 92.4704 134.088 92.2302 133.337 91.7498C132.586 91.2693 132.013 90.586 131.606 89.7038C131.204 88.8175 131.004 87.7656 131.004 86.548C131.004 85.3303 131.204 84.2991 131.606 83.4377C132.005 82.5762 132.582 81.9177 133.333 81.458C134.084 80.9983 134.985 80.7664 136.035 80.7664C136.874 80.7664 137.612 80.9362 138.26 81.2758C138.907 81.6154 139.43 82.0751 139.829 82.6508C140.227 83.2264 140.46 83.8725 140.535 84.5807H138.505C138.426 84.1583 138.281 83.7855 138.065 83.4542C137.853 83.1229 137.571 82.862 137.222 82.6673C136.874 82.4727 136.459 82.3774 135.973 82.3774C135.367 82.3774 134.852 82.5182 134.429 82.804C134.005 83.0898 133.682 83.5453 133.457 84.1624C133.233 84.7837 133.121 85.5871 133.121 86.5728C133.121 88.0721 133.37 89.1613 133.864 89.8405C134.358 90.5239 135.06 90.8635 135.973 90.8635C136.459 90.8635 136.874 90.7558 137.222 90.5446C137.571 90.3333 137.849 90.0476 138.065 89.6914C138.277 89.3394 138.426 88.9501 138.505 88.5318H140.535C140.472 89.0453 140.339 89.5423 140.144 90.0144C139.945 90.4866 139.671 90.909 139.31 91.2776C138.953 91.6462 138.505 91.9403 137.965 92.1515C137.426 92.3627 136.782 92.4704 136.035 92.4704Z" fill="#414042"/>
<path d="M147.026 92.4704C145.972 92.4704 145.063 92.2385 144.299 91.7787C143.536 91.319 142.942 90.6522 142.523 89.7784C142.104 88.9086 141.896 87.8608 141.896 86.6432C141.896 85.4256 142.108 84.3612 142.527 83.4832C142.946 82.6052 143.544 81.9343 144.316 81.4663C145.088 80.9983 145.993 80.7664 147.026 80.7664C148.06 80.7664 148.961 80.9983 149.72 81.4663C150.48 81.9343 151.069 82.6052 151.484 83.4832C151.899 84.3612 152.107 85.4132 152.107 86.6432C152.107 87.8733 151.904 88.9045 151.493 89.7742C151.082 90.644 150.496 91.3107 149.733 91.7746C148.969 92.2385 148.068 92.4704 147.026 92.4704ZM147.026 90.8635C147.649 90.8635 148.18 90.7185 148.629 90.4245C149.077 90.1304 149.417 89.679 149.658 89.0619C149.899 88.4448 150.019 87.6455 150.019 86.6639C150.019 85.6824 149.899 84.8499 149.654 84.2163C149.413 83.5826 149.069 83.1188 148.62 82.8206C148.172 82.5224 147.641 82.3733 147.026 82.3733C146.412 82.3733 145.868 82.5224 145.42 82.8247C144.972 83.127 144.623 83.595 144.374 84.2246C144.125 84.8582 144.005 85.67 144.005 86.6639C144.005 87.6579 144.129 88.4448 144.374 89.0619C144.619 89.679 144.972 90.1304 145.42 90.4245C145.868 90.7144 146.404 90.8635 147.026 90.8635Z" fill="#414042"/>
<path d="M154.056 92.3131V80.9238H158.688C159.56 80.9238 160.282 81.0605 160.847 81.3297C161.411 81.5989 161.831 81.9799 162.105 82.4728C162.378 82.9656 162.515 83.5371 162.515 84.1957C162.515 84.8045 162.416 85.3139 162.217 85.728C162.017 86.138 161.756 86.4735 161.44 86.7344C161.121 86.9953 160.78 87.2066 160.419 87.3681L162.598 92.3131H160.594L158.626 87.6911H155.974V92.3131H154.056ZM155.974 86.1712H158.257C158.983 86.1712 159.552 86.0014 159.959 85.6659C160.365 85.3304 160.569 84.8624 160.569 84.2619C160.569 83.6614 160.378 83.2182 160 82.8993C159.622 82.5804 159.12 82.4189 158.502 82.4189H155.974V86.167V86.1712Z" fill="#414042"/>
<path d="M164.669 92.3131V80.9238H165.915C166.234 80.9238 166.558 80.9238 166.886 80.9238C167.214 80.9238 167.5 80.9321 167.741 80.9363C169.132 80.9652 170.261 81.2013 171.132 81.6486C172.004 82.1 172.643 82.7378 173.05 83.562C173.457 84.3903 173.66 85.3843 173.66 86.5522C173.66 87.7201 173.444 88.8093 173.008 89.6625C172.573 90.5198 171.913 91.1742 171.02 91.6297C170.128 92.0853 168.995 92.3089 167.621 92.3089H164.669V92.3131ZM166.62 90.731H167.654C168.438 90.731 169.132 90.5943 169.729 90.3251C170.327 90.0559 170.8 89.6169 171.14 89.004C171.481 88.3952 171.651 87.5793 171.651 86.5605C171.651 85.5417 171.493 84.7838 171.178 84.1915C170.862 83.5993 170.41 83.1685 169.821 82.9035C169.231 82.6384 168.526 82.5059 167.704 82.5059H166.62V90.7269V90.731Z" fill="#414042"/>
<path d="M33.5731 136.797C32.3778 136.797 31.3443 136.52 30.4727 135.961C29.597 135.402 28.9204 134.631 28.439 133.642C27.9575 132.652 27.7168 131.513 27.7168 130.217C27.7168 128.921 27.9534 127.811 28.4307 126.871C28.9038 125.931 29.5804 125.202 30.4602 124.684C31.336 124.171 32.3778 123.914 33.5772 123.914C34.5526 123.914 35.4159 124.104 36.1796 124.489C36.9433 124.875 37.5575 125.405 38.0265 126.076C38.4955 126.751 38.7778 127.517 38.8691 128.378H35.7687C35.6981 127.96 35.5653 127.6 35.3744 127.289C35.1793 126.978 34.9261 126.738 34.6107 126.564C34.2953 126.39 33.9217 126.303 33.4859 126.303C32.9837 126.303 32.5438 126.428 32.1661 126.68C31.7884 126.933 31.4979 127.347 31.2945 127.931C31.087 128.511 30.9874 129.289 30.9874 130.258C30.9874 131.737 31.2156 132.797 31.668 133.439C32.1246 134.081 32.7305 134.399 33.4901 134.399C33.9259 134.399 34.2994 134.296 34.6149 134.089C34.9303 133.882 35.1835 133.6 35.3785 133.252C35.5736 132.9 35.7064 132.523 35.7728 132.113H38.8732C38.7902 132.73 38.6449 133.323 38.4333 133.886C38.2216 134.449 37.9145 134.95 37.516 135.389C37.1176 135.828 36.5946 136.172 35.9554 136.42C35.3163 136.669 34.5235 136.793 33.5772 136.793L33.5731 136.797Z" fill="white"/>
<path d="M42.7583 136.628V124.092H51.7198L51.7032 126.556H45.7427V129.116H50.8274V131.526H45.7261V134.143L51.7738 134.152V136.633H42.7625L42.7583 136.628Z" fill="white"/>
<path d="M55.7483 136.628V124.092H61.2481C62.2982 124.092 63.145 124.262 63.7925 124.601C64.44 124.941 64.9174 125.401 65.2162 125.989C65.5192 126.577 65.6686 127.239 65.6686 127.989C65.6686 128.643 65.5773 129.194 65.3905 129.65C65.2038 130.105 64.9547 130.486 64.6393 130.793C64.3238 131.104 63.9668 131.364 63.5767 131.576L65.843 136.633H62.8005L60.862 132.056H58.7078V136.633H55.7441L55.7483 136.628ZM58.7119 129.82H60.8413C61.3975 129.82 61.8458 129.642 62.1861 129.29C62.5265 128.938 62.6925 128.519 62.6925 128.031C62.6925 127.542 62.5182 127.107 62.1695 126.78C61.8209 126.457 61.4058 126.295 60.9285 126.295H58.7119V129.816V129.82Z" fill="white"/>
<path d="M72.3304 136.628V126.701H68.6528V124.092H78.9509V126.701H75.3024V136.628H72.3304Z" fill="white"/>
<path d="M82.3574 136.628V124.092H85.3211V136.628H82.3574Z" fill="white"/>
<path d="M89.7163 136.628V124.092H98.599L98.5907 126.527H92.6883V129.232H97.7107V131.609H92.6883V136.628H89.7163Z" fill="white"/>
<path d="M102.359 136.628V124.092H105.323V136.628H102.359Z" fill="white"/>
<path d="M115.071 136.797C113.876 136.797 112.842 136.52 111.971 135.961C111.095 135.401 110.418 134.631 109.937 133.641C109.456 132.652 109.215 131.513 109.215 130.217C109.215 128.92 109.451 127.811 109.929 126.871C110.402 125.93 111.078 125.202 111.958 124.684C112.834 124.17 113.876 123.914 115.075 123.914C116.051 123.914 116.914 124.104 117.678 124.489C118.441 124.874 119.056 125.405 119.525 126.075C119.994 126.75 120.276 127.517 120.367 128.378H117.267C117.196 127.96 117.063 127.599 116.872 127.289C116.677 126.978 116.424 126.738 116.109 126.564C115.793 126.39 115.42 126.303 114.984 126.303C114.482 126.303 114.042 126.427 113.664 126.68C113.286 126.933 112.996 127.347 112.793 127.931C112.585 128.51 112.485 129.289 112.485 130.258C112.485 131.736 112.714 132.797 113.166 133.439C113.623 134.08 114.229 134.399 114.988 134.399C115.424 134.399 115.797 134.296 116.113 134.089C116.428 133.882 116.682 133.6 116.877 133.252C117.072 132.9 117.204 132.523 117.271 132.113H120.371C120.288 132.73 120.143 133.323 119.931 133.886C119.72 134.449 119.413 134.95 119.014 135.389C118.616 135.828 118.093 136.172 117.453 136.42C116.814 136.669 116.022 136.793 115.075 136.793L115.071 136.797Z" fill="white"/>
<path d="M122.895 136.628L127.361 124.092H130.429L134.903 136.628H131.965L131.035 133.957H126.793L125.846 136.628H122.891H122.895ZM127.44 131.418H130.35L128.897 126.925L127.436 131.418H127.44Z" fill="white"/>
<path d="M138.38 136.628V124.092H139.002C139.335 124.092 139.725 124.092 140.169 124.092C140.613 124.092 141.049 124.092 141.476 124.092C141.904 124.092 142.257 124.1 142.527 124.113C144.046 124.158 145.283 124.444 146.241 124.966C147.2 125.488 147.906 126.204 148.354 127.115C148.802 128.026 149.027 129.091 149.027 130.313C149.027 131.534 148.79 132.677 148.317 133.626C147.844 134.574 147.126 135.311 146.158 135.841C145.191 136.372 143.959 136.637 142.464 136.637H138.38V136.628ZM141.352 134.28H142.551C143.124 134.28 143.668 134.152 144.187 133.891C144.702 133.63 145.125 133.207 145.453 132.624C145.781 132.04 145.943 131.257 145.943 130.275C145.943 129.401 145.801 128.681 145.523 128.118C145.245 127.55 144.855 127.132 144.349 126.854C143.846 126.581 143.249 126.44 142.568 126.44H141.352V134.28Z" fill="white"/>
<path d="M158.373 136.797C157.157 136.797 156.102 136.536 155.214 136.014C154.326 135.493 153.637 134.751 153.151 133.791C152.666 132.83 152.421 131.695 152.421 130.382C152.421 129.07 152.666 127.914 153.16 126.949C153.654 125.984 154.347 125.239 155.239 124.709C156.136 124.179 157.177 123.914 158.373 123.914C159.568 123.914 160.606 124.179 161.49 124.709C162.374 125.239 163.059 125.984 163.548 126.949C164.038 127.914 164.283 129.061 164.283 130.382C164.283 131.703 164.042 132.83 163.561 133.791C163.079 134.751 162.394 135.493 161.51 136.014C160.622 136.536 159.58 136.797 158.373 136.797ZM158.373 134.403C158.912 134.403 159.385 134.271 159.788 134.01C160.195 133.745 160.506 133.323 160.73 132.739C160.954 132.155 161.066 131.384 161.066 130.424C161.066 129.463 160.954 128.639 160.726 128.034C160.498 127.43 160.182 126.991 159.78 126.717C159.373 126.444 158.904 126.307 158.373 126.307C157.841 126.307 157.36 126.444 156.957 126.721C156.551 126.999 156.235 127.438 156.007 128.043C155.779 128.647 155.662 129.438 155.662 130.424C155.662 131.409 155.779 132.155 156.007 132.739C156.235 133.323 156.555 133.745 156.957 134.01C157.364 134.275 157.833 134.403 158.373 134.403Z" fill="white"/>
<path d="M66.8186 175.182C64.2204 175.182 61.9791 174.578 60.0865 173.372C58.1981 172.167 56.7413 170.474 55.7161 168.291C54.6951 166.109 54.1846 163.562 54.1846 160.651C54.1846 157.739 54.6909 155.213 55.7078 153.118C56.7246 151.022 58.1773 149.407 60.0658 148.277C61.9542 147.146 64.2038 146.583 66.8144 146.583C68.9104 146.583 70.7781 147.001 72.4175 147.842C74.0569 148.682 75.3809 149.825 76.3895 151.279C77.3981 152.728 77.9916 154.364 78.1742 156.186H72.2722C72.0938 155.226 71.7659 154.368 71.2886 153.619C70.8113 152.869 70.1887 152.277 69.4167 151.851C68.6448 151.42 67.7192 151.204 66.6401 151.204C65.341 151.204 64.2204 151.519 63.2824 152.149C62.3444 152.778 61.6222 153.793 61.1241 155.188C60.6219 156.588 60.3729 158.435 60.3729 160.729C60.3729 164.191 60.9291 166.697 62.0414 168.246C63.1537 169.79 64.6852 170.565 66.6401 170.565C67.7192 170.565 68.6448 170.316 69.4167 169.823C70.1887 169.331 70.8113 168.676 71.2886 167.861C71.7659 167.045 72.0938 166.15 72.2722 165.177H78.1742C78.0082 166.498 77.6844 167.761 77.2113 168.958C76.7381 170.155 76.0616 171.227 75.1859 172.163C74.3101 173.099 73.1854 173.836 71.8116 174.375C70.4336 174.913 68.7693 175.182 66.8144 175.182H66.8186Z" fill="white"/>
<path d="M94.5983 175.182C92.0002 175.182 89.7589 174.578 87.8663 173.372C85.9778 172.167 84.521 170.474 83.4959 168.291C82.4749 166.109 81.9644 163.562 81.9644 160.651C81.9644 157.739 82.4707 155.213 83.4876 153.118C84.5044 151.022 85.9571 149.407 87.8455 148.277C89.734 147.146 91.9836 146.583 94.5942 146.583C96.6902 146.583 98.5579 147.001 100.197 147.842C101.837 148.682 103.161 149.825 104.169 151.279C105.178 152.728 105.771 154.364 105.954 156.186H100.052C99.8736 155.226 99.5457 154.368 99.0684 153.619C98.5911 152.869 97.9685 152.277 97.1965 151.851C96.4245 151.42 95.499 151.204 94.4199 151.204C93.1208 151.204 92.0002 151.519 91.0622 152.149C90.1241 152.778 89.402 153.793 88.9039 155.188C88.4017 156.588 88.1527 158.435 88.1527 160.729C88.1527 164.191 88.7088 166.697 89.8212 168.246C90.9335 169.79 92.465 170.565 94.4199 170.565C95.499 170.565 96.4245 170.316 97.1965 169.823C97.9685 169.331 98.5911 168.676 99.0684 167.861C99.5457 167.045 99.8736 166.15 100.052 165.177H105.954C105.788 166.498 105.464 167.761 104.991 168.958C104.518 170.155 103.841 171.227 102.966 172.163C102.09 173.099 100.965 173.836 99.5913 174.375C98.2134 174.913 96.5491 175.182 94.5942 175.182H94.5983Z" fill="white"/>
<path d="M108.103 174.797L118.077 146.968H124.037L134.01 174.797H128.399L126.124 168.349H116.076L113.76 174.797H108.107H108.103ZM117.342 163.442H124.746L121.061 152.376L117.338 163.442H117.342Z" fill="white"/>
<defs>
<filter id="filter0_d_756_4361" x="0" y="0" width="212" height="213.996" filterUnits="userSpaceOnUse" color-interpolation-filters="sRGB">
<feFlood flood-opacity="0" result="BackgroundImageFix"/>
<feColorMatrix in="SourceAlpha" type="matrix" values="0 0 0 0 0 0 0 0 0 0 0 0 0 0 0 0 0 0 127 0" result="hardAlpha"/>
<feOffset dx="10" dy="10"/>
<feGaussianBlur stdDeviation="5"/>
<feComposite in2="hardAlpha" operator="out"/>
<feColorMatrix type="matrix" values="0 0 0 0 0 0 0 0 0 0 0 0 0 0 0 0 0 0 0.35 0"/>
<feBlend mode="normal" in2="BackgroundImageFix" result="effect1_dropShadow_756_4361"/>
<feBlend mode="normal" in="SourceGraphic" in2="effect1_dropShadow_756_4361" result="shape"/>
</filter>
</defs>
</svg>
