<svg width="65" height="65" viewBox="0 0 65 65" fill="none" xmlns="http://www.w3.org/2000/svg">
<circle cx="32.6562" cy="32.5" r="31.5" fill="white" stroke="#DFE4EA"/>
<path d="M43.6277 31.8142L34.7563 22.8142C34.3706 22.4285 33.7706 22.4285 33.3849 22.8142C32.9992 23.1999 32.9992 23.7999 33.3849 24.1856L40.5849 31.5142H22.3706C21.8563 31.5142 21.4277 31.9428 21.4277 32.457C21.4277 32.9713 21.8563 33.4428 22.3706 33.4428H40.6706L33.3849 40.857C32.9992 41.2428 32.9992 41.8428 33.3849 42.2285C33.5563 42.3999 33.8134 42.4856 34.0706 42.4856C34.3277 42.4856 34.5849 42.3999 34.7563 42.1856L43.6277 33.1856C44.0134 32.7999 44.0134 32.1999 43.6277 31.8142Z" fill="#575757"/>
</svg>
