<svg width="51" height="16" viewBox="0 0 51 16" fill="none" xmlns="http://www.w3.org/2000/svg">
<path fill-rule="evenodd" clip-rule="evenodd" d="M22.5263 15.643H18.481L21.0112 0.40625H25.0564L22.5263 15.643Z" fill="#7A7A7E"/>
<path fill-rule="evenodd" clip-rule="evenodd" d="M37.1911 0.778569C36.3932 0.470276 35.1276 0.129883 33.5628 0.129883C29.5678 0.129883 26.7546 2.20456 26.7374 5.17072C26.7042 7.35915 28.7516 8.57466 30.2828 9.30435C31.8479 10.05 32.3799 10.5367 32.3799 11.2013C32.364 12.222 31.1152 12.6926 29.9505 12.6926C28.3354 12.6926 27.4701 12.45 26.1549 11.8821L25.6222 11.6386L25.0562 15.0589C26.0049 15.4799 27.753 15.8535 29.5678 15.8699C33.8125 15.8699 36.5759 13.8273 36.6087 10.6664C36.6248 8.93186 35.5438 7.60281 33.213 6.51678C31.7981 5.81962 30.9316 5.34954 30.9316 4.63622C30.9482 3.98775 31.6645 3.32355 33.2617 3.32355C34.5768 3.29102 35.5431 3.59888 36.2751 3.90696L36.641 4.06875L37.1911 0.778569Z" fill="#7A7A7E"/>
<path fill-rule="evenodd" clip-rule="evenodd" d="M44.4323 0.40625H47.5614L50.825 15.6427H47.0794C47.0794 15.6427 46.7128 13.8921 46.5967 13.3571H41.4028C41.2526 13.7622 40.5538 15.6427 40.5538 15.6427H36.3091L42.318 1.67045C42.7343 0.681581 43.4674 0.40625 44.4323 0.40625ZM44.1831 5.9823C44.1831 5.9823 42.9012 9.37007 42.568 10.2454H45.9305C45.7641 9.48361 44.9981 5.83644 44.9981 5.83644L44.7153 4.52356C44.5963 4.86164 44.4241 5.32644 44.308 5.63994C44.2293 5.85245 44.1763 5.99544 44.1831 5.9823Z" fill="#7A7A7E"/>
<path fill-rule="evenodd" clip-rule="evenodd" d="M15.1024 0.40625L11.1407 10.7962L10.7077 8.68902C9.97529 6.25757 7.67819 3.61586 5.11475 2.30233L8.74356 15.6268H13.0214L19.38 0.40625H15.1024V0.40625Z" fill="#7A7A7E"/>
<path fill-rule="evenodd" clip-rule="evenodd" d="M7.4619 0.40625H0.953305L0.886719 0.714112C5.96383 1.97852 9.32631 5.02634 10.7078 8.68966L9.2929 1.68703C9.05996 0.713897 8.34411 0.43835 7.4619 0.40625Z" fill="#7A7A7E"/>
</svg>