  <svg width="176" height="36" viewBox="0 0 176 36" fill="none" xmlns="http://www.w3.org/2000/svg">
<path fill-rule="evenodd" clip-rule="evenodd" d="M17.9995 3.375C9.92235 3.375 3.37451 9.92284 3.37451 18C3.37451 26.0772 9.92235 32.625 17.9995 32.625C26.0767 32.625 32.6245 26.0772 32.6245 18C32.6245 9.92284 26.0767 3.375 17.9995 3.375ZM18.795 11.5795C18.584 11.3685 18.2979 11.25 17.9995 11.25C17.7011 11.25 17.415 11.3685 17.204 11.5795L12.704 16.0795C12.2647 16.5188 12.2647 17.2312 12.704 17.6705C13.1434 18.1098 13.8557 18.1098 14.295 17.6705L16.8745 15.091L16.8745 23.625C16.8745 24.2463 17.3782 24.75 17.9995 24.75C18.6208 24.75 19.1245 24.2463 19.1245 23.625L19.1245 15.091L21.704 17.6705C22.1434 18.1098 22.8557 18.1098 23.295 17.6705C23.7343 17.2312 23.7343 16.5188 23.295 16.0795L18.795 11.5795Z" fill="#00A7D0"/>
<path d="M48.488 24L44.368 12.432H45.832L49.376 22.32L52.92 12.432H54.384L50.272 24H48.488ZM58.5673 24.16C57.8046 24.16 57.1379 23.9973 56.5673 23.672C56.0019 23.3413 55.5619 22.8587 55.2473 22.224C54.9326 21.5893 54.7753 20.8133 54.7753 19.896C54.7753 19.032 54.9219 18.2747 55.2153 17.624C55.5086 16.9733 55.9379 16.4693 56.5033 16.112C57.0686 15.7493 57.7593 15.568 58.5753 15.568C59.3379 15.568 59.9993 15.736 60.5593 16.072C61.1193 16.4027 61.5539 16.8907 61.8633 17.536C62.1779 18.1813 62.3353 18.968 62.3353 19.896C62.3353 20.7387 62.1913 21.48 61.9033 22.12C61.6153 22.76 61.1913 23.2613 60.6313 23.624C60.0766 23.9813 59.3886 24.16 58.5673 24.16ZM58.5753 22.992C59.0659 22.992 59.4819 22.8667 59.8233 22.616C60.1646 22.3653 60.4233 22.0053 60.5993 21.536C60.7806 21.0667 60.8713 20.5093 60.8713 19.864C60.8713 19.272 60.7913 18.7413 60.6313 18.272C60.4766 17.7973 60.2313 17.4213 59.8953 17.144C59.5593 16.8667 59.1193 16.728 58.5753 16.728C58.0739 16.728 57.6499 16.8533 57.3033 17.104C56.9566 17.3493 56.6926 17.7067 56.5113 18.176C56.3353 18.6453 56.2473 19.208 56.2473 19.864C56.2473 20.4453 56.3246 20.9733 56.4793 21.448C56.6393 21.9227 56.8899 22.2987 57.2313 22.576C57.5779 22.8533 58.0259 22.992 58.5753 22.992ZM66.3901 24.104C65.9421 24.104 65.5795 24.0427 65.3021 23.92C65.0301 23.7973 64.8195 23.632 64.6701 23.424C64.5261 23.216 64.4275 22.9787 64.3741 22.712C64.3261 22.44 64.3021 22.16 64.3021 21.872V12.112H65.7581V21.728C65.7581 22.144 65.8381 22.456 65.9981 22.664C66.1635 22.872 66.3928 22.9867 66.6861 23.008L67.1341 23.016V23.976C67.0115 24.0133 66.8835 24.0427 66.7501 24.064C66.6168 24.0907 66.4968 24.104 66.3901 24.104ZM71.5685 24.04C70.9978 24.04 70.5552 23.9627 70.2405 23.808C69.9258 23.6533 69.7045 23.424 69.5765 23.12C69.4538 22.816 69.3925 22.4427 69.3925 22V16.808H68.0485V15.728H69.4325L69.7925 13.32H70.8805V15.72H72.7445V16.808H70.8805V21.952C70.8805 22.2453 70.9098 22.4613 70.9685 22.6C71.0325 22.7333 71.1365 22.8187 71.2805 22.856C71.4245 22.8933 71.6272 22.912 71.8885 22.912H72.7925V23.904C72.6912 23.9413 72.5365 23.9733 72.3285 24C72.1258 24.0267 71.8725 24.04 71.5685 24.04ZM77.0128 24.16C76.4741 24.16 75.9994 24.0667 75.5888 23.88C75.1834 23.688 74.8634 23.4133 74.6288 23.056C74.3994 22.6987 74.2848 22.2667 74.2848 21.76C74.2848 20.8427 74.6048 20.16 75.2448 19.712C75.8848 19.264 76.9114 19.024 78.3248 18.992L79.7968 18.952V18.304C79.7968 17.7973 79.6448 17.3973 79.3408 17.104C79.0368 16.8053 78.5674 16.656 77.9328 16.656C77.4581 16.6613 77.0394 16.7733 76.6768 16.992C76.3141 17.2107 76.0821 17.568 75.9808 18.064H74.6768C74.7088 17.5253 74.8581 17.072 75.1248 16.704C75.3968 16.3307 75.7781 16.048 76.2688 15.856C76.7594 15.664 77.3381 15.568 78.0048 15.568C78.7248 15.568 79.3221 15.6693 79.7968 15.872C80.2768 16.0747 80.6341 16.3733 80.8688 16.768C81.1088 17.1627 81.2288 17.648 81.2288 18.224V24H79.9648L79.8528 22.448C79.5381 23.0933 79.1328 23.5413 78.6368 23.792C78.1461 24.0373 77.6048 24.16 77.0128 24.16ZM77.4528 23.096C77.7354 23.096 78.0128 23.0453 78.2848 22.944C78.5621 22.8427 78.8128 22.7067 79.0368 22.536C79.2661 22.36 79.4501 22.1653 79.5888 21.952C79.7274 21.7333 79.7968 21.5093 79.7968 21.28V19.864L78.5728 19.888C77.9381 19.8987 77.4101 19.9627 76.9888 20.08C76.5674 20.1973 76.2501 20.3813 76.0368 20.632C75.8234 20.8827 75.7168 21.2107 75.7168 21.616C75.7168 22.08 75.8794 22.4427 76.2048 22.704C76.5301 22.9653 76.9461 23.096 77.4528 23.096ZM83.5365 24V15.728H84.9445V17.32C85.0832 16.9253 85.2778 16.6 85.5285 16.344C85.7792 16.0827 86.0645 15.888 86.3845 15.76C86.7098 15.632 87.0458 15.568 87.3925 15.568C87.5152 15.568 87.6352 15.576 87.7525 15.592C87.8698 15.608 87.9605 15.6347 88.0245 15.672V17.104C87.9445 17.0667 87.8405 17.0427 87.7125 17.032C87.5898 17.016 87.4858 17.008 87.4005 17.008C87.0698 16.9867 86.7605 17.008 86.4725 17.072C86.1845 17.1307 85.9312 17.2347 85.7125 17.384C85.4938 17.5333 85.3205 17.7307 85.1925 17.976C85.0698 18.216 85.0085 18.5093 85.0085 18.856V24H83.5365ZM93.6771 26.576V15.728H95.1491L95.1651 17.168C95.2611 16.9973 95.3838 16.8187 95.5331 16.632C95.6878 16.4453 95.8745 16.272 96.0931 16.112C96.3171 15.952 96.5758 15.8213 96.8691 15.72C97.1678 15.6187 97.5065 15.568 97.8851 15.568C98.5465 15.568 99.1278 15.72 99.6291 16.024C100.136 16.3227 100.53 16.7813 100.813 17.4C101.096 18.0187 101.237 18.8027 101.237 19.752C101.237 20.7013 101.098 21.504 100.821 22.16C100.549 22.8107 100.154 23.3067 99.6371 23.648C99.1198 23.9893 98.4958 24.16 97.7651 24.16C97.3971 24.16 97.0691 24.1067 96.7811 24C96.4985 23.8987 96.2505 23.7653 96.0371 23.6C95.8291 23.4293 95.6531 23.248 95.5091 23.056C95.3705 22.864 95.2558 22.68 95.1651 22.504V26.576H93.6771ZM97.4851 23.008C98.1678 23.008 98.7251 22.7493 99.1571 22.232C99.5891 21.7093 99.8051 20.8987 99.8051 19.8C99.8051 18.856 99.6078 18.1067 99.2131 17.552C98.8185 16.9973 98.2425 16.72 97.4851 16.72C96.7171 16.72 96.1358 17.0053 95.7411 17.576C95.3465 18.1413 95.1491 18.8827 95.1491 19.8C95.1491 20.392 95.2371 20.9307 95.4131 21.416C95.5891 21.9013 95.8505 22.288 96.1971 22.576C96.5438 22.864 96.9731 23.008 97.4851 23.008ZM105.419 24.16C104.88 24.16 104.406 24.0667 103.995 23.88C103.59 23.688 103.27 23.4133 103.035 23.056C102.806 22.6987 102.691 22.2667 102.691 21.76C102.691 20.8427 103.011 20.16 103.651 19.712C104.291 19.264 105.318 19.024 106.731 18.992L108.203 18.952V18.304C108.203 17.7973 108.051 17.3973 107.747 17.104C107.443 16.8053 106.974 16.656 106.339 16.656C105.864 16.6613 105.446 16.7733 105.083 16.992C104.72 17.2107 104.488 17.568 104.387 18.064H103.083C103.115 17.5253 103.264 17.072 103.531 16.704C103.803 16.3307 104.184 16.048 104.675 15.856C105.166 15.664 105.744 15.568 106.411 15.568C107.131 15.568 107.728 15.6693 108.203 15.872C108.683 16.0747 109.04 16.3733 109.275 16.768C109.515 17.1627 109.635 17.648 109.635 18.224V24H108.371L108.259 22.448C107.944 23.0933 107.539 23.5413 107.043 23.792C106.552 24.0373 106.011 24.16 105.419 24.16ZM105.859 23.096C106.142 23.096 106.419 23.0453 106.691 22.944C106.968 22.8427 107.219 22.7067 107.443 22.536C107.672 22.36 107.856 22.1653 107.995 21.952C108.134 21.7333 108.203 21.5093 108.203 21.28V19.864L106.979 19.888C106.344 19.8987 105.816 19.9627 105.395 20.08C104.974 20.1973 104.656 20.3813 104.443 20.632C104.23 20.8827 104.123 21.2107 104.123 21.616C104.123 22.08 104.286 22.4427 104.611 22.704C104.936 22.9653 105.352 23.096 105.859 23.096ZM111.943 24V15.728H113.351V17.32C113.489 16.9253 113.684 16.6 113.935 16.344C114.185 16.0827 114.471 15.888 114.791 15.76C115.116 15.632 115.452 15.568 115.799 15.568C115.921 15.568 116.041 15.576 116.159 15.592C116.276 15.608 116.367 15.6347 116.431 15.672V17.104C116.351 17.0667 116.247 17.0427 116.119 17.032C115.996 17.016 115.892 17.008 115.807 17.008C115.476 16.9867 115.167 17.008 114.879 17.072C114.591 17.1307 114.337 17.2347 114.119 17.384C113.9 17.5333 113.727 17.7307 113.599 17.976C113.476 18.216 113.415 18.5093 113.415 18.856V24H111.943ZM120.232 24.16C119.693 24.16 119.218 24.0667 118.808 23.88C118.402 23.688 118.082 23.4133 117.848 23.056C117.618 22.6987 117.504 22.2667 117.504 21.76C117.504 20.8427 117.824 20.16 118.464 19.712C119.104 19.264 120.13 19.024 121.544 18.992L123.016 18.952V18.304C123.016 17.7973 122.864 17.3973 122.56 17.104C122.256 16.8053 121.786 16.656 121.152 16.656C120.677 16.6613 120.258 16.7733 119.896 16.992C119.533 17.2107 119.301 17.568 119.2 18.064H117.896C117.928 17.5253 118.077 17.072 118.344 16.704C118.616 16.3307 118.997 16.048 119.488 15.856C119.978 15.664 120.557 15.568 121.224 15.568C121.944 15.568 122.541 15.6693 123.016 15.872C123.496 16.0747 123.853 16.3733 124.088 16.768C124.328 17.1627 124.448 17.648 124.448 18.224V24H123.184L123.072 22.448C122.757 23.0933 122.352 23.5413 121.856 23.792C121.365 24.0373 120.824 24.16 120.232 24.16ZM120.672 23.096C120.954 23.096 121.232 23.0453 121.504 22.944C121.781 22.8427 122.032 22.7067 122.256 22.536C122.485 22.36 122.669 22.1653 122.808 21.952C122.946 21.7333 123.016 21.5093 123.016 21.28V19.864L121.792 19.888C121.157 19.8987 120.629 19.9627 120.208 20.08C119.786 20.1973 119.469 20.3813 119.256 20.632C119.042 20.8827 118.936 21.2107 118.936 21.616C118.936 22.08 119.098 22.4427 119.424 22.704C119.749 22.9653 120.165 23.096 120.672 23.096ZM133.755 24.16C132.992 24.16 132.325 23.9973 131.755 23.672C131.189 23.3413 130.749 22.8587 130.435 22.224C130.12 21.5893 129.963 20.8133 129.963 19.896C129.963 19.032 130.109 18.2747 130.403 17.624C130.696 16.9733 131.125 16.4693 131.691 16.112C132.256 15.7493 132.947 15.568 133.763 15.568C134.525 15.568 135.187 15.736 135.747 16.072C136.307 16.4027 136.741 16.8907 137.051 17.536C137.365 18.1813 137.523 18.968 137.523 19.896C137.523 20.7387 137.379 21.48 137.091 22.12C136.803 22.76 136.379 23.2613 135.819 23.624C135.264 23.9813 134.576 24.16 133.755 24.16ZM133.763 22.992C134.253 22.992 134.669 22.8667 135.011 22.616C135.352 22.3653 135.611 22.0053 135.787 21.536C135.968 21.0667 136.059 20.5093 136.059 19.864C136.059 19.272 135.979 18.7413 135.819 18.272C135.664 17.7973 135.419 17.4213 135.083 17.144C134.747 16.8667 134.307 16.728 133.763 16.728C133.261 16.728 132.837 16.8533 132.491 17.104C132.144 17.3493 131.88 17.7067 131.699 18.176C131.523 18.6453 131.435 19.208 131.435 19.864C131.435 20.4453 131.512 20.9733 131.667 21.448C131.827 21.9227 132.077 22.2987 132.419 22.576C132.765 22.8533 133.213 22.992 133.763 22.992ZM146.303 24.04C145.732 24.04 145.29 23.9627 144.975 23.808C144.66 23.6533 144.439 23.424 144.311 23.12C144.188 22.816 144.127 22.4427 144.127 22V16.808H142.783V15.728H144.167L144.527 13.32H145.615V15.72H147.479V16.808H145.615V21.952C145.615 22.2453 145.644 22.4613 145.703 22.6C145.767 22.7333 145.871 22.8187 146.015 22.856C146.159 22.8933 146.362 22.912 146.623 22.912H147.527V23.904C147.426 23.9413 147.271 23.9733 147.063 24C146.86 24.0267 146.607 24.04 146.303 24.04ZM152.583 24.16C151.82 24.16 151.154 23.9973 150.583 23.672C150.018 23.3413 149.578 22.8587 149.263 22.224C148.948 21.5893 148.791 20.8133 148.791 19.896C148.791 19.032 148.938 18.2747 149.231 17.624C149.524 16.9733 149.954 16.4693 150.519 16.112C151.084 15.7493 151.775 15.568 152.591 15.568C153.354 15.568 154.015 15.736 154.575 16.072C155.135 16.4027 155.57 16.8907 155.879 17.536C156.194 18.1813 156.351 18.968 156.351 19.896C156.351 20.7387 156.207 21.48 155.919 22.12C155.631 22.76 155.207 23.2613 154.647 23.624C154.092 23.9813 153.404 24.16 152.583 24.16ZM152.591 22.992C153.082 22.992 153.498 22.8667 153.839 22.616C154.18 22.3653 154.439 22.0053 154.615 21.536C154.796 21.0667 154.887 20.5093 154.887 19.864C154.887 19.272 154.807 18.7413 154.647 18.272C154.492 17.7973 154.247 17.4213 153.911 17.144C153.575 16.8667 153.135 16.728 152.591 16.728C152.09 16.728 151.666 16.8533 151.319 17.104C150.972 17.3493 150.708 17.7067 150.527 18.176C150.351 18.6453 150.263 19.208 150.263 19.864C150.263 20.4453 150.34 20.9733 150.495 21.448C150.655 21.9227 150.906 22.2987 151.247 22.576C151.594 22.8533 152.042 22.992 152.591 22.992ZM158.318 26.576V15.728H159.79L159.806 17.168C159.902 16.9973 160.024 16.8187 160.174 16.632C160.328 16.4453 160.515 16.272 160.734 16.112C160.958 15.952 161.216 15.8213 161.51 15.72C161.808 15.6187 162.147 15.568 162.526 15.568C163.187 15.568 163.768 15.72 164.27 16.024C164.776 16.3227 165.171 16.7813 165.454 17.4C165.736 18.0187 165.878 18.8027 165.878 19.752C165.878 20.7013 165.739 21.504 165.462 22.16C165.19 22.8107 164.795 23.3067 164.278 23.648C163.76 23.9893 163.136 24.16 162.406 24.16C162.038 24.16 161.71 24.1067 161.422 24C161.139 23.8987 160.891 23.7653 160.678 23.6C160.47 23.4293 160.294 23.248 160.15 23.056C160.011 22.864 159.896 22.68 159.806 22.504V26.576H158.318ZM162.126 23.008C162.808 23.008 163.366 22.7493 163.798 22.232C164.23 21.7093 164.446 20.8987 164.446 19.8C164.446 18.856 164.248 18.1067 163.854 17.552C163.459 16.9973 162.883 16.72 162.126 16.72C161.358 16.72 160.776 17.0053 160.382 17.576C159.987 18.1413 159.79 18.8827 159.79 19.8C159.79 20.392 159.878 20.9307 160.054 21.416C160.23 21.9013 160.491 22.288 160.838 22.576C161.184 22.864 161.614 23.008 162.126 23.008ZM171.161 24.16C170.398 24.16 169.732 23.9973 169.161 23.672C168.596 23.3413 168.156 22.8587 167.841 22.224C167.526 21.5893 167.369 20.8133 167.369 19.896C167.369 19.032 167.516 18.2747 167.809 17.624C168.102 16.9733 168.532 16.4693 169.097 16.112C169.662 15.7493 170.353 15.568 171.169 15.568C171.932 15.568 172.593 15.736 173.153 16.072C173.713 16.4027 174.148 16.8907 174.457 17.536C174.772 18.1813 174.929 18.968 174.929 19.896C174.929 20.7387 174.785 21.48 174.497 22.12C174.209 22.76 173.785 23.2613 173.225 23.624C172.67 23.9813 171.982 24.16 171.161 24.16ZM171.169 22.992C171.66 22.992 172.076 22.8667 172.417 22.616C172.758 22.3653 173.017 22.0053 173.193 21.536C173.374 21.0667 173.465 20.5093 173.465 19.864C173.465 19.272 173.385 18.7413 173.225 18.272C173.07 17.7973 172.825 17.4213 172.489 17.144C172.153 16.8667 171.713 16.728 171.169 16.728C170.668 16.728 170.244 16.8533 169.897 17.104C169.55 17.3493 169.286 17.7067 169.105 18.176C168.929 18.6453 168.841 19.208 168.841 19.864C168.841 20.4453 168.918 20.9733 169.073 21.448C169.233 21.9227 169.484 22.2987 169.825 22.576C170.172 22.8533 170.62 22.992 171.169 22.992Z" fill="white"/>
</svg>