
<svg width="272" height="24" viewBox="0 0 272 24" fill="none" xmlns="http://www.w3.org/2000/svg">
<path d="M27.4464 2.01755V21.4509H44.1131V23.6821H49.0741V18.6598L46.6295 18.6358L46.6454 9.41501L41.6127 9.36703L41.5809 16.2926L32.4393 16.3486L32.3915 2.02555H27.4464V2.01755Z" fill="black"/>
<path d="M34.6928 14.1334H39.5264V6.96785L46.6454 7.01583V2.00955H34.6928V14.1334Z" fill="black"/>
<path d="M2.66539 11.7102L9.0438 23.874C9.1314 24.042 9.37029 24.042 9.45788 23.874L15.7726 11.7662C15.8681 11.5823 15.693 11.3743 15.4939 11.4383L11.5681 12.7419C11.2973 12.8298 11.1301 12.446 11.3849 12.318L19.3002 8.20742C19.5471 8.07947 19.3958 7.7036 19.125 7.77557C10.5886 10.0708 5.62765 11.0065 2.83262 11.3743C2.67335 11.3983 2.58576 11.5663 2.65743 11.7102H2.66539Z" fill="black"/>
<path d="M19.9293 0.0182363C19.9293 0.0182363 13.8455 3.05719 9.33047 3.97688C3.54133 5.16047 0.212768 5.21645 0.212768 5.21645C0.0375808 5.26443 -0.0500129 5.45637 0.0296177 5.61631C0.0296177 5.61631 1.81334 9.30305 2.10798 9.70291C8.14398 8.39136 15.1435 5.91221 18.4243 4.07284C18.4641 4.04885 20.2558 0.418099 20.2558 0.418099C20.3673 0.194176 20.1682 -0.053739 19.9293 0.010239V0.0182363Z" fill="black"/>
<path d="M62.1574 7.33572L65.3984 15.309L64.1323 15.0531L67.0706 7.33572H69.6666L64.6021 18.9157L59.5376 7.33572H62.1574Z" fill="black"/>
<path d="M70.1444 12.8778C70.1444 12.1181 70.2877 11.3983 70.5823 10.7106C70.877 10.0308 71.2831 9.42301 71.7927 8.89519C72.3103 8.36737 72.9076 7.95151 73.5924 7.65561C74.2772 7.35172 75.0098 7.20777 75.7902 7.20777C76.5706 7.20777 77.2952 7.35972 77.98 7.65561C78.6648 7.95951 79.27 8.36737 79.7956 8.89519C80.3212 9.42301 80.7352 10.0228 81.0299 10.7106C81.3245 11.3983 81.4758 12.1101 81.4758 12.8778C81.4758 13.6456 81.3245 14.3893 81.0299 15.0771C80.7352 15.7568 80.3212 16.3566 79.7956 16.8764C79.27 17.3963 78.6648 17.7961 77.98 18.084C77.2952 18.3719 76.5706 18.5239 75.7902 18.5239C75.0098 18.5239 74.2692 18.3799 73.5924 18.084C72.9076 17.7961 72.3103 17.3883 71.7927 16.8764C71.2751 16.3566 70.869 15.7648 70.5823 15.0771C70.2877 14.3973 70.1444 13.6616 70.1444 12.8778ZM72.4059 12.8778C72.4059 13.3737 72.4935 13.8295 72.6687 14.2533C72.8438 14.6772 73.0907 15.0531 73.4092 15.381C73.7278 15.7088 74.094 15.9648 74.5081 16.1407C74.9222 16.3246 75.3841 16.4126 75.8698 16.4126C76.3556 16.4126 76.7776 16.3246 77.1837 16.1407C77.5898 15.9568 77.9402 15.7088 78.2428 15.381C78.5454 15.0531 78.7763 14.6772 78.9515 14.2533C79.1267 13.8295 79.2063 13.3657 79.2063 12.8778C79.2063 12.39 79.1187 11.9102 78.9436 11.4783C78.7684 11.0464 78.5295 10.6706 78.2189 10.3427C77.9084 10.0148 77.55 9.75889 77.1359 9.58295C76.7219 9.39901 76.2759 9.31104 75.7902 9.31104C75.3044 9.31104 74.8585 9.39901 74.4444 9.58295C74.0303 9.76689 73.672 10.0148 73.3614 10.3427C73.0509 10.6706 72.804 11.0464 72.6368 11.4783C72.4616 11.9102 72.382 12.374 72.382 12.8778H72.4059ZM78.6171 4.72862L76.3874 6.75992H75.1054L76.2759 4.72862H78.6171Z" fill="black"/>
<path d="M87.0261 7.33572C87.7188 7.33572 88.34 7.42369 88.8815 7.59963C89.4229 7.77557 89.8768 8.02349 90.2431 8.35137C90.6094 8.67926 90.8881 9.07113 91.0793 9.51897C91.2704 9.97482 91.3659 10.4866 91.3659 11.0624C91.3659 11.5103 91.3022 11.9661 91.1669 12.414C91.0315 12.8618 90.8085 13.2777 90.5059 13.6456C90.1954 14.0134 89.7972 14.3173 89.2955 14.5412C88.7939 14.7652 88.1727 14.8771 87.4242 14.8771H85.8555V18.3959H83.6656V7.32773H87.0261V7.33572ZM87.4003 12.7819C87.7348 12.7819 88.0055 12.7259 88.2285 12.6139C88.4515 12.5019 88.6187 12.366 88.7461 12.1981C88.8735 12.0301 88.9611 11.8462 89.0168 11.6622C89.0726 11.4783 89.1044 11.3024 89.1044 11.1424C89.1044 11.0225 89.0885 10.8705 89.0487 10.6866C89.0168 10.5026 88.9372 10.3107 88.8337 10.1268C88.7222 9.93483 88.555 9.77489 88.332 9.64693C88.1011 9.51897 87.8064 9.455 87.4242 9.455H85.8555V12.7978H87.4083L87.4003 12.7819ZM89.4468 14.1334L92.1941 18.4039H89.6459L86.8429 14.1974L89.4468 14.1414V14.1334Z" fill="black"/>
<path d="M100.5 7.33572V9.439H97.8001V18.4039H95.6102V9.439H93.0143V7.33572H100.5Z" fill="black"/>
<path d="M101.551 18.4039L105.5 12.2061L106.528 14.4053L104.266 18.4039H101.551ZM104.489 7.33572L111.72 18.4039H108.901L101.694 7.33572H104.489ZM106.671 11.3983L108.964 7.33572H111.616L107.802 13.2777L106.671 11.3983Z" fill="black"/>
<path d="M117.748 12.8778C117.748 12.1181 117.891 11.3983 118.186 10.7106C118.472 10.0308 118.886 9.42301 119.396 8.90318C119.914 8.37537 120.511 7.95951 121.196 7.66361C121.88 7.35971 122.613 7.21576 123.393 7.21576C124.174 7.21576 124.898 7.36771 125.583 7.66361C126.268 7.96751 126.873 8.37537 127.399 8.90318C127.924 9.431 128.338 10.0308 128.633 10.7106C128.928 11.3903 129.079 12.1101 129.079 12.8778C129.079 13.6456 128.936 14.3893 128.633 15.0771C128.338 15.7568 127.924 16.3566 127.399 16.8764C126.873 17.3963 126.268 17.7961 125.583 18.084C124.898 18.3719 124.174 18.5239 123.393 18.5239C122.613 18.5239 121.88 18.3799 121.196 18.084C120.511 17.7881 119.914 17.3883 119.396 16.8764C118.878 16.3566 118.472 15.7648 118.186 15.0771C117.891 14.3973 117.748 13.6616 117.748 12.8778ZM120.009 12.8778C120.009 13.3577 120.097 13.8135 120.272 14.2374C120.447 14.6612 120.694 15.0371 121.012 15.365C121.331 15.6929 121.697 15.9488 122.111 16.1247C122.525 16.3086 122.987 16.3966 123.473 16.3966C123.959 16.3966 124.381 16.3086 124.787 16.1247C125.193 15.9408 125.551 15.6929 125.846 15.373C126.149 15.0531 126.38 14.6772 126.555 14.2533C126.73 13.8295 126.81 13.3657 126.81 12.8778C126.81 12.39 126.722 11.9421 126.547 11.5183C126.372 11.0944 126.133 10.7186 125.822 10.3987C125.512 10.0788 125.153 9.83087 124.747 9.64693C124.333 9.46299 123.887 9.37502 123.401 9.37502C122.916 9.37502 122.47 9.46299 122.056 9.64693C121.641 9.83087 121.283 10.0788 120.973 10.3987C120.662 10.7186 120.415 11.0944 120.248 11.5183C120.073 11.9421 119.993 12.398 119.993 12.8778H120.009ZM126.26 16.2607H129.7V18.3959H123.401L126.268 16.2607H126.26Z" fill="black"/>
<path d="M135.25 7.33572C135.943 7.33572 136.564 7.42369 137.106 7.59963C137.647 7.77557 138.101 8.02349 138.467 8.35137C138.834 8.67926 139.112 9.07113 139.304 9.51897C139.495 9.97482 139.59 10.4866 139.59 11.0624C139.59 11.5103 139.527 11.9661 139.391 12.414C139.256 12.8618 139.033 13.2777 138.73 13.6456C138.42 14.0134 138.021 14.3173 137.52 14.5412C137.018 14.7652 136.397 14.8771 135.649 14.8771H134.08V18.3959H131.89V7.32773H135.25V7.33572ZM135.633 12.7819C135.967 12.7819 136.238 12.7259 136.461 12.6139C136.684 12.5019 136.851 12.366 136.978 12.1981C137.106 12.0301 137.193 11.8462 137.249 11.6622C137.305 11.4783 137.337 11.3024 137.337 11.1424C137.337 11.0225 137.321 10.8705 137.281 10.6866C137.249 10.5026 137.169 10.3107 137.066 10.1268C136.954 9.93483 136.787 9.77489 136.564 9.64693C136.333 9.51897 136.039 9.455 135.656 9.455H134.088V12.7978H135.641L135.633 12.7819ZM137.679 14.1334L140.418 18.4039H137.87L135.067 14.1974L137.671 14.1414L137.679 14.1334Z" fill="black"/>
<path d="M153.844 7.33572V9.439H151.145V18.4039H148.955V9.439H146.359V7.33572H153.844Z" fill="black"/>
<path d="M154.895 12.8778C154.895 12.1181 155.039 11.3983 155.333 10.7106C155.62 10.0308 156.034 9.42301 156.544 8.90318C157.061 8.37537 157.658 7.95951 158.343 7.66361C159.028 7.35971 159.761 7.21576 160.541 7.21576C161.321 7.21576 162.046 7.36771 162.731 7.66361C163.416 7.96751 164.021 8.37537 164.546 8.90318C165.072 9.431 165.486 10.0308 165.781 10.7106C166.075 11.3903 166.227 12.1101 166.227 12.8778C166.227 13.6456 166.083 14.3893 165.781 15.0771C165.486 15.7568 165.072 16.3566 164.546 16.8764C164.021 17.3963 163.416 17.7961 162.731 18.084C162.046 18.3719 161.321 18.5239 160.541 18.5239C159.761 18.5239 159.028 18.3799 158.343 18.084C157.658 17.7881 157.061 17.3883 156.544 16.8764C156.026 16.3566 155.62 15.7648 155.333 15.0771C155.039 14.3973 154.895 13.6616 154.895 12.8778ZM157.157 12.8778C157.157 13.3737 157.244 13.8295 157.42 14.2533C157.595 14.6772 157.842 15.0531 158.16 15.381C158.479 15.7088 158.845 15.9648 159.259 16.1407C159.673 16.3246 160.135 16.4126 160.621 16.4126C161.106 16.4126 161.528 16.3246 161.935 16.1407C162.341 15.9568 162.699 15.7088 162.994 15.381C163.296 15.0531 163.527 14.6772 163.702 14.2533C163.878 13.8295 163.957 13.3657 163.957 12.8778C163.957 12.39 163.87 11.9102 163.694 11.4783C163.519 11.0464 163.28 10.6706 162.97 10.3427C162.659 10.0148 162.301 9.75889 161.887 9.58295C161.473 9.39901 161.027 9.31104 160.541 9.31104C160.055 9.31104 159.609 9.39901 159.203 9.58295C158.789 9.76689 158.431 10.0148 158.12 10.3427C157.81 10.6706 157.571 11.0464 157.396 11.4783C157.22 11.9102 157.141 12.374 157.141 12.8778H157.157Z" fill="black"/>
<path d="M170.63 11.2704L170.567 11.8302L170.901 11.4143L174.516 7.33572H177.351L172.772 12.294L177.367 18.3959H174.596L171.172 13.6775L170.63 14.2214V18.4039H168.417V7.33572H170.63V11.2784V11.2704Z" fill="black"/>
<path d="M179.023 7.33572H186.588V9.439H181.213V11.7982H185.975V13.9015H181.213V16.2926H186.803V18.3959H179.031V7.32773L179.023 7.33572Z" fill="black"/>
<path d="M198.995 18.8518L190.586 11.2704L191.231 11.6302L191.278 18.3959H189.065V6.89587H189.16L197.386 14.4453L196.9 14.2374L196.853 7.33572H199.05V18.8518H198.987H198.995Z" fill="black"/>
<path d="M201.917 7.33572H204.107V18.4039H201.917V7.33572Z" fill="black"/>
<path d="M206.209 18.4039C206.552 17.8601 206.862 17.3643 207.149 16.9164C207.436 16.4686 207.754 15.9568 208.112 15.381C208.471 14.8132 208.837 14.2214 209.211 13.6216C209.586 13.0218 209.952 12.43 210.31 11.8622C210.669 11.2944 210.987 10.7745 211.274 10.3267C211.56 9.87885 211.871 9.37502 212.213 8.83921L212.452 9.439H208.455C208.248 9.439 208.025 9.39102 207.802 9.29505C207.579 9.19908 207.388 9.07113 207.228 8.90318C207.069 8.73524 206.998 8.55131 206.998 8.35137V6.76792H209.004V6.97585C209.004 7.19977 209.036 7.31173 209.108 7.31173C209.179 7.31173 209.307 7.31173 209.49 7.31173H215.653L209.809 16.5166L209.689 16.2767H215.645V18.3799H206.209V18.4039Z" fill="black"/>
<path d="M216.593 18.4039L221.594 6.89587H221.713L226.714 18.4039H224.182L220.989 10.3107L222.573 9.22307L218.751 18.3959H216.593V18.4039ZM223.338 14.4053L224.102 16.2447H219.324L220.001 14.4053H223.338Z" fill="black"/>
<path d="M228.331 18.4039V7.33572H231.643C232.758 7.33572 233.706 7.50367 234.494 7.83155C235.282 8.16744 235.911 8.60729 236.389 9.1591C236.867 9.71091 237.217 10.3267 237.44 11.0065C237.663 11.6862 237.775 12.374 237.775 13.0698C237.775 13.8935 237.631 14.6292 237.329 15.285C237.034 15.9408 236.628 16.5006 236.118 16.9724C235.609 17.4443 235.012 17.7961 234.335 18.0361C233.658 18.284 232.949 18.4039 232.193 18.4039H228.331ZM230.512 16.3006H231.81C232.368 16.3006 232.87 16.2287 233.315 16.0847C233.769 15.9408 234.16 15.7248 234.486 15.4449C234.813 15.165 235.067 14.8132 235.243 14.3893C235.418 13.9654 235.505 13.4696 235.505 12.9258C235.505 12.2061 235.386 11.6143 235.147 11.1584C234.916 10.7026 234.621 10.3507 234.279 10.1028C233.929 9.85486 233.578 9.67892 233.22 9.58295C232.862 9.48698 232.551 9.439 232.304 9.439H230.52V16.3166L230.512 16.3006Z" fill="black"/>
<path d="M239.272 12.8778C239.272 12.1181 239.415 11.3983 239.71 10.7106C239.996 10.0308 240.411 9.42301 240.92 8.90318C241.438 8.37537 242.035 7.95951 242.72 7.66361C243.405 7.35971 244.137 7.21576 244.918 7.21576C245.698 7.21576 246.423 7.36771 247.107 7.66361C247.792 7.96751 248.398 8.37537 248.923 8.90318C249.449 9.431 249.863 10.0308 250.157 10.7106C250.452 11.3903 250.603 12.1101 250.603 12.8778C250.603 13.6456 250.46 14.3893 250.157 15.0771C249.863 15.7568 249.449 16.3566 248.923 16.8764C248.398 17.3963 247.792 17.7961 247.107 18.084C246.423 18.3719 245.698 18.5239 244.918 18.5239C244.137 18.5239 243.405 18.3799 242.72 18.084C242.035 17.7881 241.438 17.3883 240.92 16.8764C240.403 16.3566 239.996 15.7648 239.71 15.0771C239.415 14.3973 239.272 13.6616 239.272 12.8778ZM241.533 12.8778C241.533 13.3737 241.621 13.8295 241.796 14.2533C241.971 14.6772 242.218 15.0531 242.537 15.381C242.855 15.7088 243.221 15.9648 243.636 16.1407C244.05 16.3246 244.512 16.4126 244.997 16.4126C245.483 16.4126 245.905 16.3246 246.311 16.1407C246.717 15.9568 247.068 15.7088 247.37 15.381C247.673 15.0531 247.904 14.6772 248.079 14.2533C248.254 13.8295 248.334 13.3657 248.334 12.8778C248.334 12.39 248.246 11.9102 248.071 11.4783C247.896 11.0464 247.657 10.6706 247.346 10.3427C247.036 10.0148 246.677 9.75889 246.263 9.58295C245.849 9.39901 245.403 9.31104 244.918 9.31104C244.432 9.31104 243.986 9.39901 243.58 9.58295C243.166 9.76689 242.807 10.0148 242.497 10.3427C242.186 10.6706 241.939 11.0464 241.772 11.4783C241.597 11.9102 241.517 12.374 241.517 12.8778H241.533Z" fill="black"/>
<path d="M256.154 7.33572C256.846 7.33572 257.467 7.42369 258.009 7.59963C258.55 7.77557 259.004 8.02349 259.371 8.35137C259.737 8.67926 260.016 9.07113 260.207 9.51897C260.398 9.97482 260.493 10.4866 260.493 11.0624C260.493 11.5103 260.43 11.9661 260.286 12.414C260.151 12.8618 259.928 13.2777 259.625 13.6456C259.315 14.0134 258.917 14.3173 258.415 14.5412C257.913 14.7652 257.292 14.8771 256.544 14.8771H254.975V18.3959H252.785V7.32773H256.146L256.154 7.33572ZM256.536 12.7819C256.87 12.7819 257.141 12.7259 257.364 12.6139C257.587 12.5019 257.754 12.366 257.882 12.1981C258.009 12.0301 258.096 11.8462 258.152 11.6622C258.208 11.4783 258.24 11.3024 258.24 11.1424C258.24 11.0225 258.224 10.8705 258.184 10.6866C258.152 10.5026 258.073 10.3107 257.969 10.1268C257.858 9.93483 257.69 9.77489 257.467 9.64693C257.236 9.51897 256.934 9.455 256.56 9.455H254.991V12.7978H256.544L256.536 12.7819ZM258.582 14.1334L261.329 18.4039H258.781L255.978 14.1974L258.582 14.1414V14.1334Z" fill="black"/>
<path d="M261.879 18.4039L266.88 6.89587H266.999L272 18.4039H269.468L266.275 10.3107L267.859 9.22307L264.029 18.3959H261.871L261.879 18.4039ZM268.632 14.4053L269.396 16.2447H264.618L265.295 14.4053H268.632Z" fill="black"/>
</svg>
